<svg width="80" height="80" viewBox="0 0 80 80" fill="none" xmlns="http://www.w3.org/2000/svg">
<mask id="mask0" mask-type="alpha" maskUnits="userSpaceOnUse" x="0" y="0" width="80" height="80">
<rect width="80" height="80" rx="12" fill="#EEEEEE"/>
</mask>
<g mask="url(#mask0)">
<rect width="80" height="80" fill="#C0F4D3"/>
<rect x="-11" y="58" width="100" height="36" fill="#FFCFCF"/>
<path d="M-5.50005 26L20 47.5L31.5 44.5L49 58" stroke="#1AD760" stroke-width="5" stroke-linecap="round" stroke-linejoin="round"/>
<path d="M83 82.5L49 58" stroke="#FF5252" stroke-width="5" stroke-linecap="round" stroke-linejoin="round"/>
<circle cx="49" cy="58" r="5.5" fill="white" stroke="#FF5252" stroke-width="5"/>
<rect x="47" y="33" width="6" height="5" fill="#D14444"/>
<path d="M32 13.5854C32 11.0529 33.9588 9 36.375 9H69.625C72.0412 9 74 11.053 74 13.5854V26.5138C74 28.3945 72.9043 30.0845 71.2359 30.777L54.6109 37.6778C53.5761 38.1074 52.4239 38.1074 51.3891 37.6778L34.7641 30.777C33.0957 30.0845 32 28.3945 32 26.5138L32 13.5854Z" fill="#D14444"/>
<path d="M26 13.5854C26 11.0529 27.9588 9 30.375 9H63.625C66.0412 9 68 11.053 68 13.5854V26.5138C68 28.3945 66.9043 30.0845 65.2359 30.777L48.6109 37.6778C47.5761 38.1074 46.4239 38.1074 45.3891 37.6778L28.7641 30.777C27.0957 30.0845 26 28.3945 26 26.5138L26 13.5854Z" fill="#FF5252"/>
<path d="M38.2227 23.6376C38.2227 21.8035 37.3128 20.738 34.7722 19.8472C33.3131 19.3231 32.6436 19.0262 32.6436 18.083C32.6436 17.2445 33.1758 16.7729 34.0169 16.7729C34.8581 16.7729 35.4589 17.3144 35.4932 18.31H37.8622C37.7763 16.214 36.6949 15.0262 34.9611 14.7293V13H33.3303V14.7118C31.4076 15.0087 30.2747 16.4236 30.2747 18.2926C30.2747 20.3362 31.545 21.3144 33.7251 22.048C35.2186 22.5546 35.8537 23.0262 35.8537 23.8472C35.8537 24.6681 35.2872 25.2445 34.2744 25.2445C33.0728 25.2445 32.4376 24.5808 32.3689 23.3755H30C30.0687 25.4192 31.1845 26.9389 33.3303 27.2707V29H34.9611V27.2882C36.8665 27.0262 38.2227 25.7336 38.2227 23.6376Z" fill="white"/>
<path d="M44.342 27.1135V14.8865H42.6254C42.2993 16.1965 41.3208 16.5983 39.4668 16.5983V18.6245H41.9903V27.1135H44.342Z" fill="white"/>
<path d="M50.3989 14.6594C47.6523 14.6594 46.1417 17.0873 46.1417 20.9825C46.1417 24.8952 47.6523 27.3406 50.3989 27.3406C53.1455 27.3406 54.6562 24.8952 54.6562 20.9825C54.6562 17.0873 53.1455 14.6594 50.3989 14.6594ZM50.3989 16.8952C51.6692 16.8952 52.2872 18.3974 52.2872 20.9825C52.2872 23.5852 51.6692 25.1048 50.3989 25.1048C49.1458 25.1048 48.5106 23.5852 48.5106 20.9825C48.5106 18.3974 49.1458 16.8952 50.3989 16.8952Z" fill="white"/>
<path d="M63.3648 17.1223V14.8865H56.4125V21.7686H58.5068C58.8329 21.5415 59.3136 21.3319 59.9659 21.3319C61.0131 21.3319 61.6311 21.9956 61.6311 23.2009C61.6311 24.3362 61.0817 25.1048 60.0174 25.1048C59.0733 25.1048 58.421 24.6157 58.4038 23.5502H56.0692C56.0692 26.0131 57.597 27.3406 60.0003 27.3406C62.4894 27.3406 64 25.6638 64 23.0786C64 20.4061 62.3864 19.2533 60.4122 19.2533C59.6741 19.2533 59.1076 19.4105 58.7643 19.5852V17.1223H63.3648Z" fill="white"/>
</g>
</svg>
