<svg width="80" height="80" viewBox="0 0 80 80" fill="none" xmlns="http://www.w3.org/2000/svg">
<mask id="mask0" mask-type="alpha" maskUnits="userSpaceOnUse" x="0" y="0" width="80" height="80">
<rect width="80" height="80" rx="12" fill="#EEEEEE"/>
</mask>
<g mask="url(#mask0)">
<rect width="80" height="80" fill="#EEEEEE"/>
<mask id="mask1" mask-type="alpha" maskUnits="userSpaceOnUse" x="0" y="0" width="80" height="80">
<rect width="80" height="80" rx="12" fill="#C9DCFC"/>
</mask>
<g mask="url(#mask1)">
<path d="M41.9175 45.1905C41.9175 41.9261 40.2697 40.0297 35.6686 38.4441C33.026 37.5115 31.8135 36.9829 31.8135 35.3041C31.8135 33.8119 32.7773 32.9724 34.3006 32.9724C35.824 32.9724 36.9121 33.9362 36.9743 35.7083H41.2646C41.1091 31.9776 39.1505 29.8635 36.0105 29.335V26.2572H33.0571V29.3039C29.5751 29.8324 27.5232 32.3507 27.5232 35.6772C27.5232 39.3146 29.8238 41.0556 33.7721 42.3613C36.4769 43.2629 37.6272 44.1023 37.6272 45.5635C37.6272 47.0247 36.6012 48.0507 34.767 48.0507C32.5907 48.0507 31.4404 46.8693 31.3161 44.7241H27.0258C27.1501 48.3615 29.1709 51.0663 33.0571 51.657V54.7348H36.0105V51.6881C39.4614 51.2217 41.9175 48.9211 41.9175 45.1905Z" fill="#16B04F"/>
<path d="M53 51.3772V29.6148H49.8911C49.3004 31.9465 47.5283 32.6616 44.1707 32.6616V36.2679H48.7408V51.3772H53Z" fill="#16B04F"/>
<circle cx="40" cy="40" r="28" stroke="#DADADA" stroke-width="9"/>
<path d="M40 12C45.9372 12 51.4428 13.8479 55.9731 17" stroke="#16B04F" stroke-width="9"/>
</g>
</g>
</svg>
