<svg width="80" height="80" viewBox="0 0 80 80" fill="none" xmlns="http://www.w3.org/2000/svg">
<mask id="mask0" mask-type="alpha" maskUnits="userSpaceOnUse" x="0" y="0" width="80" height="80">
<rect width="80" height="80" rx="12" fill="#EEEEEE"/>
</mask>
<g mask="url(#mask0)">
<rect width="80" height="80" fill="#C9DCFC"/>
<path d="M73.7392 31.2307L20.7898 13L12 38.5292L64.9494 56.7599L73.7392 31.2307Z" fill="#82AEF8"/>
<path d="M69.926 33.0907L22.6497 16.8132L15.8132 36.6693L63.0895 52.9467L69.926 33.0907Z" fill="#A6C5FA"/>
<path d="M31.1701 33.6951C31.7493 32.0128 31.3542 30.6341 29.1778 29.015C28.087 28.2133 27.6239 27.8053 27.8479 27.1547C28.0282 26.6309 28.4757 26.4655 29.0312 26.6567C29.5867 26.848 29.8736 27.3551 29.6917 28.038L32.4532 28.9888C33.0142 26.9985 32.381 25.5378 30.8502 24.6735L31.4239 23.007L29.5829 22.3732L29.0092 24.0396C27.1383 23.7505 25.6165 24.6644 24.999 26.4578C24.3433 28.3623 25.2106 29.7615 27.087 31.1176C28.1357 31.887 28.5234 32.411 28.3212 32.9982C28.1463 33.5061 27.6244 33.6814 26.9737 33.4574C26.1008 33.1569 25.8308 32.5491 26.0569 31.6861L23.2954 30.7353C22.7092 32.5927 23.2227 34.3494 25.1022 35.3871L24.523 37.0693L26.364 37.7032L26.9323 36.0527C28.7868 36.3894 30.498 35.6472 31.1701 33.6951Z" fill="#82AEF8"/>
<rect x="39.607" y="28.9974" width="24" height="3" transform="rotate(18.9988 39.607 28.9974)" fill="#82AEF8"/>
<rect x="37.6537" y="34.6705" width="24" height="3" transform="rotate(18.9988 37.6537 34.6705)" fill="#82AEF8"/>
<path d="M63 34H7V61H63V34Z" fill="#3C81F4"/>
<path d="M60 37H10V58H60V37Z" fill="#C9DCFC"/>
<path d="M23.5521 50.1885C23.5521 48.4093 22.7296 47.2343 20.1448 46.4118C18.8523 46.009 18.2816 45.774 18.2816 45.0858C18.2816 44.5319 18.6509 44.2298 19.2384 44.2298C19.8259 44.2298 20.2623 44.6159 20.3126 45.3208H23.2332C23.1157 43.2563 22.0415 42.0813 20.3126 41.7624V40H18.3656V41.7624C16.5024 42.0981 15.3611 43.4577 15.3611 45.3544C15.3611 47.3686 16.6367 48.4093 18.8523 49.0807C20.0944 49.4667 20.6315 49.836 20.6315 50.457C20.6315 50.9941 20.1951 51.3298 19.5069 51.3298C18.5838 51.3298 18.1306 50.8431 18.0634 49.9535H15.1429C15.1932 51.9005 16.2507 53.3944 18.3656 53.7637V55.5429H20.3126V53.7972C22.1757 53.5119 23.5521 52.253 23.5521 50.1885Z" fill="#3C81F4"/>
<rect x="30" y="43" width="24" height="3" fill="#3C81F4"/>
<rect x="30" y="49" width="24" height="3" fill="#3C81F4"/>
</g>
</svg>
