<svg width="52" height="52" viewBox="0 0 52 52" fill="none" xmlns="http://www.w3.org/2000/svg">
<circle cx="26" cy="26" r="26" fill="#FF5252"/>
<mask id="mask0" mask-type="alpha" maskUnits="userSpaceOnUse" x="17" y="18" width="18" height="16">
<path fill-rule="evenodd" clip-rule="evenodd" d="M26.8931 18.514L34.8698 32.5075C35.1455 32.9912 34.9691 33.6023 34.4757 33.8725C34.3232 33.9561 34.1513 34 33.9766 34H18.0232C17.4581 34 17 33.5509 17 32.9969C17 32.8256 17.0448 32.6571 17.13 32.5075L25.1067 18.514C25.3824 18.0303 26.0057 17.8574 26.4991 18.1276C26.6643 18.2182 26.8008 18.3519 26.8931 18.514ZM25.9999 22.9657C25.4348 22.9657 24.9767 23.4148 24.9767 23.9688V27.9813C24.9767 28.5353 25.4348 28.9844 25.9999 28.9844C26.565 28.9844 27.0231 28.5353 27.0231 27.9813V23.9688C27.0231 23.4148 26.565 22.9657 25.9999 22.9657ZM27.0231 30.9906C27.0231 31.5446 26.565 31.9938 25.9999 31.9938C25.4348 31.9938 24.9767 31.5446 24.9767 30.9906C24.9767 30.4366 25.4348 29.9875 25.9999 29.9875C26.565 29.9875 27.0231 30.4366 27.0231 30.9906Z" fill="#FF5252"/>
</mask>
<g mask="url(#mask0)">
<rect x="16" y="16" width="20" height="20" fill="white"/>
</g>
</svg>
