<svg width="440" height="325" viewBox="0 0 440 325" fill="none" xmlns="http://www.w3.org/2000/svg">
<path d="M426.722 153.965C423.727 48.0384 311.111 -18.399 216.948 30.2109L66.5351 107.859C19.2834 132.252 -4.98996 185.938 7.90722 237.526C20.6653 288.558 66.5178 324.359 119.121 324.359H303.878C373.792 324.359 429.907 266.635 427.931 196.75L426.722 153.965Z" fill="#C9DCFC"/>
<path d="M341.419 83.4244V202.41C341.419 215.316 330.873 225.641 317.84 225.641H92.2312C79.2018 225.641 68.6553 215.316 68.6553 202.41V83.4244C68.6553 70.64 79.2018 60.1937 92.2312 60.1937H317.84C330.873 60.1937 341.419 70.64 341.419 83.4244Z" fill="#A6C5FA"/>
<path d="M323.533 65.5384V184.524C323.533 197.43 312.987 207.755 299.954 207.755H74.3452C61.3158 207.755 50.7693 197.43 50.7693 184.524V65.5384C50.7693 52.754 61.3158 42.3077 74.3452 42.3077H299.954C312.987 42.3077 323.533 52.754 323.533 65.5384Z" fill="white"/>
<rect x="77.5985" y="69.1369" width="104.183" height="109.971" rx="13.4146" fill="#C9DCFC"/>
<mask id="mask0" mask-type="alpha" maskUnits="userSpaceOnUse" x="77" y="69" width="105" height="111">
<rect x="77.5985" y="69.1369" width="104.183" height="109.971" rx="13.4146" fill="#5F97F6"/>
</mask>
<g mask="url(#mask0)">
<path fill-rule="evenodd" clip-rule="evenodd" d="M102.005 113.852C102.005 128.67 114.109 140.682 129.039 140.682C143.97 140.682 156.074 128.67 156.074 113.852C156.074 99.0349 143.97 87.0231 129.039 87.0231C114.109 87.0231 102.005 99.0349 102.005 113.852ZM129.039 145.153C106.655 145.153 88.1645 158.306 78.4766 177.132C76.1609 181.632 78.4766 185.397 84.9 185.397H174.096C179.095 185.397 181.666 181.919 179.876 177.726C171.664 158.484 151.658 145.153 129.039 145.153Z" fill="#A6C5FA"/>
</g>
<rect x="202.803" y="95.9663" width="98.374" height="17.8862" fill="#C9DCFC"/>
<rect x="202.803" y="136.21" width="49.187" height="17.8862" fill="#C9DCFC"/>
<path d="M377.949 175.658V104.359L373.607 102.912C321.5 85.5428 265.166 85.5428 213.06 102.912L208.718 104.359V175.658C208.718 218.391 232.862 257.456 271.084 276.567L293.333 287.692L315.583 276.567C353.805 257.456 377.949 218.391 377.949 175.658Z" fill="#82AEF8" stroke="#27539C" stroke-width="22.5641"/>
<path d="M344.102 173.109V131.248C311.303 119.343 275.363 119.343 242.564 131.248V173.109C242.564 204.098 259.503 232.607 286.719 247.425L293.333 251.026L299.947 247.424C327.163 232.607 344.102 204.098 344.102 173.109Z" fill="#27539C"/>
</svg>
