<svg width="20" height="20" viewBox="0 0 20 20" fill="none" xmlns="http://www.w3.org/2000/svg">
    <path fill-rule="evenodd" clip-rule="evenodd" d="M2 10C2 14.4183 5.58172 18 10 18C14.4183 18 18 14.4183 18 10C18 5.58172 14.4183 2 10 2C5.58172 2 2 5.58172 2 10ZM14.7071 8.70711C15.0976 8.31658 15.0976 7.68342 14.7071 7.29289C14.3166 6.90237 13.6834 6.90237 13.2929 7.29289L9 11.5858L6.70711 9.29289C6.31658 8.90237 5.68342 8.90237 5.29289 9.29289C4.90237 9.68342 4.90237 10.3166 5.29289 10.7071L8.29289 13.7071C8.68342 14.0976 9.31658 14.0976 9.70711 13.7071L14.7071 8.70711Z" fill="#0B9A40"/>
</svg>
