<svg width="121" height="13" viewBox="0 0 121 13" fill="none" xmlns="http://www.w3.org/2000/svg">
<path d="M0 10.2149H3.68487C5.38268 10.2149 6.80381 9.23391 6.80381 7.57383C6.80381 6.42938 6.11211 5.78798 5.21919 5.43585C5.84801 5.12144 6.43909 4.48004 6.43909 3.56197C6.43909 2.2163 5.43299 1.41141 3.62199 1.41141H0V10.2149ZM1.66008 6.29104H3.58426C4.65325 6.29104 5.14373 6.73121 5.14373 7.51095C5.14373 8.29068 4.65325 8.73085 3.58426 8.73085H1.66008V6.29104ZM1.66008 2.87027H3.49623C4.42688 2.87027 4.82932 3.18468 4.82932 3.85122C4.82932 4.51777 4.42688 4.83218 3.49623 4.83218H1.66008V2.87027Z" fill="currentColor"/>
<path d="M13.7176 10.2149C13.4157 9.77469 13.3025 9.38482 13.3025 8.66797V6.06466C13.3025 4.54292 12.3216 3.80092 10.5735 3.80092C8.90082 3.80092 7.94501 4.74415 7.94501 5.71253C7.94501 5.8886 7.98274 6.07724 8.0582 6.24073L9.47933 5.76283C9.45418 5.68737 9.45418 5.66222 9.45418 5.61192C9.45418 5.22205 9.84404 4.90764 10.5735 4.90764C11.3406 4.90764 11.7179 5.2472 11.7179 5.85087V6.08982L9.84404 6.37907C8.66187 6.55514 7.61803 7.17138 7.61803 8.4416C7.61803 9.62377 8.4858 10.3909 9.71828 10.3909C10.6112 10.3909 11.3658 10.0011 11.806 9.22133C11.806 9.76211 12.0072 10.0891 12.1078 10.2149H13.7176ZM10.0956 9.10814C9.54221 9.10814 9.16492 8.85662 9.16492 8.35356C9.16492 7.85051 9.52963 7.54867 10.2088 7.43549L11.7179 7.18396V7.29715C11.7179 8.50448 11.0136 9.10814 10.0956 9.10814Z" fill="currentColor"/>
<path d="M20.7558 5.96405C20.7558 4.66869 19.9006 3.80092 18.5675 3.80092C17.662 3.80092 16.92 4.26624 16.4547 4.9831V3.97699H14.8701V10.2149H16.4547V7.04562C16.4547 6.00178 17.0709 5.28493 17.901 5.28493C18.7813 5.28493 19.1712 5.80056 19.1712 6.61802V10.2149H20.7558V5.96405Z" fill="currentColor"/>
<path d="M23.8236 1.41141H22.239V10.2149H23.8236V7.76247L24.3015 7.29715L26.1628 10.2149H27.9864L25.4083 6.203L27.6846 3.97699H25.7227L23.8236 5.86344V1.41141Z" fill="currentColor"/>
<path d="M29.0305 10.2149H30.6151V3.97699H29.0305V10.2149ZM28.955 3.07149H30.6905V1.41141H28.955V3.07149Z" fill="currentColor"/>
<path d="M38.0729 5.96405C38.0729 4.66869 37.2177 3.80092 35.8846 3.80092C34.9791 3.80092 34.2371 4.26624 33.7717 4.9831V3.97699H32.1871V10.2149H33.7717V7.04562C33.7717 6.00178 34.388 5.28493 35.218 5.28493C36.0984 5.28493 36.4882 5.80056 36.4882 6.61802V10.2149H38.0729V5.96405Z" fill="currentColor"/>
<path d="M39.5824 10.1017C39.4818 10.2777 39.4063 10.5293 39.4063 10.8185C39.4063 12.1516 40.5382 12.9565 42.3995 12.9565C44.2608 12.9565 45.5184 11.9127 45.5184 9.78727V3.97699H43.9338V4.65611C43.5565 4.10275 42.9277 3.80092 42.1731 3.80092C40.5634 3.80092 39.1548 5.09628 39.1548 6.95759C39.1548 8.81889 40.5131 10.1143 42.1606 10.1143C43.0409 10.1143 43.6194 9.69923 43.9338 9.1836V9.98849C43.9338 11.2084 43.3427 11.6989 42.3995 11.6989C41.5192 11.6989 41.0161 11.4096 41.0161 10.9946C41.0161 10.8437 41.0413 10.7053 41.0916 10.567L39.5824 10.1017ZM42.3366 5.18432C43.217 5.18432 44.0219 5.81314 44.0219 6.95759C44.0219 8.10203 43.217 8.73085 42.3366 8.73085C41.4563 8.73085 40.6891 8.10203 40.6891 6.95759C40.6891 5.81314 41.4563 5.18432 42.3366 5.18432Z" fill="currentColor"/>
<path d="M49.9333 5.25978H50.8388V10.2149H52.4235V5.25978H53.7817V3.97699H52.4235V3.05891C52.4235 2.53071 52.675 2.24145 53.1277 2.24145C53.2786 2.24145 53.3793 2.25403 53.5679 2.31691L53.8446 0.920933C53.5805 0.820322 53.3038 0.782593 53.0523 0.782593C51.7695 0.782593 50.8388 1.56233 50.8388 3.09664V3.97699H49.9333V5.25978Z" fill="currentColor"/>
<path d="M61.0162 7.09593C61.0162 4.90764 59.3183 3.80092 57.608 3.80092C55.8976 3.80092 54.1998 4.90764 54.1998 7.09593C54.1998 9.28421 55.8976 10.3909 57.608 10.3909C59.3183 10.3909 61.0162 9.28421 61.0162 7.09593ZM57.608 8.90692C56.6773 8.90692 55.8095 8.24037 55.8095 7.09593C55.8095 5.95148 56.6773 5.28493 57.608 5.28493C58.5386 5.28493 59.4064 5.95148 59.4064 7.09593C59.4064 8.24037 58.5386 8.90692 57.608 8.90692Z" fill="currentColor"/>
<path d="M66.1134 3.87638C65.9499 3.82607 65.7738 3.80092 65.5726 3.80092C64.7677 3.80092 64.1892 4.25367 63.8371 4.97052V3.97699H62.2525V10.2149H63.8371V7.13365C63.8371 6.07724 64.403 5.28493 65.3463 5.28493C65.5475 5.28493 65.7235 5.32266 65.8619 5.37296L66.1134 3.87638Z" fill="currentColor"/>
<path d="M76.516 6.00178C76.516 4.66869 75.6608 3.80092 74.3026 3.80092C73.3845 3.80092 72.6048 4.22852 72.1395 4.95794V1.41141H70.5548V10.2149H72.1395V7.04562C72.1395 6.00178 72.7934 5.28493 73.6738 5.28493C74.5038 5.28493 74.9314 5.80056 74.9314 6.61802V10.2149H76.516V6.00178Z" fill="currentColor"/>
<path d="M77.9852 7.85051C77.9852 9.52316 78.9913 10.3909 80.2992 10.3909C81.1796 10.3909 81.8839 9.97591 82.2863 9.23391V10.2149H83.8709V3.97699H82.2863V7.19654C82.2863 8.19007 81.7204 8.90692 80.84 8.90692C79.9597 8.90692 79.5698 8.39129 79.5698 7.48579V3.97699H77.9852V7.85051Z" fill="currentColor"/>
<path d="M94.5214 5.85087C94.5214 4.61838 93.8046 3.80092 92.5092 3.80092C91.7421 3.80092 90.9749 4.14048 90.5221 4.86991C90.258 4.20336 89.7047 3.80092 88.7866 3.80092C88.1326 3.80092 87.4409 4.09018 86.9756 4.80703V3.97699H85.391V10.2149H86.9756V6.71863C86.9756 5.71253 87.5415 5.18432 88.1578 5.18432C88.8495 5.18432 89.1639 5.62449 89.1639 6.37907V10.2149H90.7485V6.74379C90.7485 5.71253 91.2516 5.18432 91.9558 5.18432C92.6476 5.18432 92.9368 5.62449 92.9368 6.35392V10.2149H94.5214V5.85087Z" fill="currentColor"/>
<path d="M101.813 10.2149C101.512 9.77469 101.398 9.38482 101.398 8.66797V6.06466C101.398 4.54292 100.417 3.80092 98.6694 3.80092C96.9967 3.80092 96.0409 4.74415 96.0409 5.71253C96.0409 5.8886 96.0786 6.07724 96.1541 6.24073L97.5752 5.76283C97.5501 5.68737 97.5501 5.66222 97.5501 5.61192C97.5501 5.22205 97.9399 4.90764 98.6694 4.90764C99.4365 4.90764 99.8138 5.2472 99.8138 5.85087V6.08982L97.9399 6.37907C96.7578 6.55514 95.7139 7.17138 95.7139 8.4416C95.7139 9.62377 96.5817 10.3909 97.8142 10.3909C98.7071 10.3909 99.4617 10.0011 99.9019 9.22133C99.9019 9.76211 100.103 10.0891 100.204 10.2149H101.813ZM98.1915 9.10814C97.6381 9.10814 97.2608 8.85662 97.2608 8.35356C97.2608 7.85051 97.6255 7.54867 98.3046 7.43549L99.8138 7.18396V7.29715C99.8138 8.50448 99.1095 9.10814 98.1915 9.10814Z" fill="currentColor"/>
<path d="M108.852 5.96405C108.852 4.66869 107.997 3.80092 106.663 3.80092C105.758 3.80092 105.016 4.26624 104.551 4.9831V3.97699H102.966V10.2149H104.551V7.04562C104.551 6.00178 105.167 5.28493 105.997 5.28493C106.877 5.28493 107.267 5.80056 107.267 6.61802V10.2149H108.852V5.96405Z" fill="currentColor"/>
<path d="M111.622 5.5113C111.622 5.12144 112.05 4.95794 112.565 4.95794C113.207 4.95794 113.71 5.37296 113.974 6.05209L115.118 5.37296C114.615 4.31655 113.898 3.80092 112.54 3.80092C111.32 3.80092 110.214 4.44231 110.214 5.61192C110.214 6.74379 111.169 7.3223 112.389 7.56125C113.307 7.73732 113.722 7.95112 113.722 8.36614C113.722 8.81889 113.232 9.05784 112.741 9.05784C111.937 9.05784 111.396 8.4919 111.132 7.71217L109.861 8.51705C110.276 9.48543 111.157 10.3909 112.716 10.3909C114.263 10.3909 115.181 9.48543 115.181 8.31583C115.181 7.27199 114.552 6.69348 113.094 6.39165C112.113 6.19043 111.622 5.91375 111.622 5.5113Z" fill="currentColor"/>
<path d="M115.452 3.51568H116.176V5.50003H116.675V3.51568H117.4V3.06525H115.452V3.51568ZM117.637 5.50003H118.136V4.13655L118.684 5.50003H119.171L119.719 4.13655V5.50003H120.218V3.06525H119.664L118.927 4.90351L118.191 3.06525H117.637V5.50003Z" fill="currentColor"/>
</svg>
