<svg width="29" height="42" fill="#c0c0c0" viewBox="0 0 426.05 690.5" xmlns="http://www.w3.org/2000/svg">
<path d="M159.36,79.56c-3.48,0-4.22-1.25-2.88-4.42,1.82-4.29,3.76-8.54,5.32-12.93A54.69,54.69,0,0,0,165,43.35a44.53,44.53,0,0,0-9.09-26.7c-4.66-6.29-10.48-11.36-16.68-16C130-6.33,120.13-12.25,110.23-18.07A259.81,259.81,0,0,1,79.49-39.44a161.64,161.64,0,0,1-15.7-13.9C60-57.24,56-60.88,52.44-64.93A121.43,121.43,0,0,1,37.78-85.41a77.07,77.07,0,0,1-9.08-24.45,67,67,0,0,1-.88-17.62c1.23-14.37,6.56-27.24,13.56-39.57s15.47-23.29,23.86-34.49c7.93-10.6,16.24-20.93,23.32-32.14,2.49-3.93,4.72-8,7-12.1,1.41-2.49,4.19-3.39,7.29-2.19,2.59,1,3.68,3.21,2.85,6a35.44,35.44,0,0,1-1.58,4.2c-2.3,5.32-4,10.79-3.61,16.67a12.55,12.55,0,0,0,.83,4.13,55.68,55.68,0,0,0,9.14,14.8c7.94,9.14,17.37,16.52,27.33,23.22,12.36,8.31,25,16.26,37.51,24.32A311.6,311.6,0,0,1,205.6-133a156.22,156.22,0,0,1,13.58,12.52A87.26,87.26,0,0,1,236.56-94.7a73.07,73.07,0,0,1,6,23.35c.26,3.48.52,7,.45,10.46a96.83,96.83,0,0,1-3.62,23.6,144.66,144.66,0,0,1-8.16,22c-6.95,15.22-16,29.18-25.73,42.73-8.47,11.77-17.65,23-27.06,34C174,66.53,169.7,71.69,165.29,76.8,163.71,78.64,161.74,79.81,159.36,79.56Z" transform="translate(116.46 248.5)" /><path d="M140.53,83.76a95.69,95.69,0,0,1-3.42,23.74c-3.55,12.62-9.35,24.17-16.14,35.3a188,188,0,0,1-18,24.52,40.5,40.5,0,0,1-2.81,3.17,3.75,3.75,0,0,1-2,.9c-1,.12-1.46-.79-1.36-2.13a36,36,0,0,0-.63-12.14,35.48,35.48,0,0,0-6.91-13.44,97.32,97.32,0,0,0-10.55-10.94c-8.35-7.48-18-13.08-27.58-18.87-6.61-4-13.4-7.76-20-11.86A111.07,111.07,0,0,1,5.73,80.83,52.33,52.33,0,0,1-5,62.11a41.88,41.88,0,0,1-1.25-18c1.41-10.51,5.75-20,11.34-28.82C10.06,7.37,15.48-.22,20.61-8c4.3-6.54,8.82-12.94,12.17-20,.71-1.51,1.34-3.05,2-4.58.73-1.73,1.45-2.24,2.91-2a3.11,3.11,0,0,1,2.83,3c.09.91.09,1.83.24,2.72C42-21.65,45.47-15.39,50.09-9.65,54-4.72,58.9-.85,63.88,2.92,70.21,7.71,77.14,11.53,84,15.47c8,4.59,16.2,8.88,23.94,14A79,79,0,0,1,131,52.27,52.51,52.51,0,0,1,139.55,75C140,78.26,140.29,81.56,140.53,83.76Z" transform="translate(116.46 248.5)"/><path d="M134.53,363a42,42,0,0,1,12.12,5.46c8.95,5.9,14.49,14.08,15.94,24.81,1.83,13.59-1.9,25.52-10.91,35.8a32.69,32.69,0,0,1-19.3,11.14,49.3,49.3,0,0,1-7.19.68c-5.16.12-10.33.06-15.49.13-13.07.17-26.15.11-39.21.63-11.91.47-23.82.11-35.72.31-.58,0-1.17,0-1.75,0-1.1.07-1.48-.5-1.43-1.52,0-.58,0-1.17,0-1.75v-148c0-3.56-.35-3.2,3.23-3.2,11.08,0,22.16-.05,33.24,0q26.85.17,53.71.49a24.65,24.65,0,0,1,14.45,4.84c9.66,7,14.62,16.79,16.35,28.37a42.85,42.85,0,0,1-14.79,38.85C136.74,361,135.79,361.9,134.53,363ZM92.2,413.91V414h11.5c3.92,0,7.84.05,11.75,0a12,12,0,0,0,3.42-.52c4.28-1.37,6.92-4.48,8.53-8.52a25.88,25.88,0,0,0,.89-16.19c-1.81-7.35-6.68-12.07-15.34-11.75-7.07.26-14.15.34-21.22.48L68,378c-.25,0-.5,0-.74,0-.85,0-1.2.43-1.18,1.24,0,.5,0,1,0,1.5V411c0,.5,0,1,0,1.5a1.23,1.23,0,0,0,1.38,1.39l1.75,0ZM88.65,349v0c6.83,0,13.66.15,20.48,0,8-.23,11.79-4.45,12.74-11.73a23.22,23.22,0,0,0-4-16.14c-1.89-2.86-4.42-5.07-8-5.48-3-.34-6-.41-9-.46-5.74-.11-11.49-.08-17.23-.17-5.24-.09-10.47-.3-15.71-.41-1.93,0-2,0-2,1.93q0,15.22,0,30.46c0,2,0,2.06,2.09,2.06C75,349,81.82,349,88.65,349Z" transform="translate(116.46 248.5)"/><path d="M281.34,362.77c3.33,1.54,6.67,2.81,9.76,4.55,9.95,5.59,16.12,14,17.91,25.36,2,12.69-1.17,24.13-9,34.24-5.42,7-12.39,11.81-21.28,13.36a48.79,48.79,0,0,1-6.94.64c-4.75.12-9.5.06-14.25.12-13.57.17-27.15.12-40.71.64-12,.46-24,.1-36,.31-.5,0-1,0-1.5,0-1,0-1.33-.49-1.3-1.4,0-.5,0-1,0-1.5V290.38c0-3.06-.16-2.83,2.85-2.83,11.33,0,22.66,0,34,0q26.74.17,53.47.49a24.53,24.53,0,0,1,14.22,4.76c9.75,7.05,14.75,16.89,16.46,28.58a42.79,42.79,0,0,1-14.71,38.63C283.29,360.91,282.31,361.9,281.34,362.77ZM238.5,413.91V414c7.83,0,15.66,0,23.5,0a11.57,11.57,0,0,0,3.41-.54c4.28-1.38,6.89-4.5,8.51-8.55a26,26,0,0,0,.93-15.95c-1.78-7.43-6.61-12.21-15.2-11.94-7.15.23-14.31.33-21.47.48l-23.72.49H214c-.91,0-1.43.31-1.39,1.3,0,.58,0,1.16,0,1.75v29.49c0,.59,0,1.17,0,1.75,0,1.2.56,1.65,1.68,1.61.58,0,1.17,0,1.75,0ZM235,349h2.5c6,0,12,.1,18-.06,8.09-.21,12-4.48,12.91-11.83a23.42,23.42,0,0,0-3.87-15.92,11.72,11.72,0,0,0-7.65-5.57,37.78,37.78,0,0,0-6.21-.48q-17.46-.33-34.93-.6h-2c-.69,0-1.11.28-1.13,1,0,.42,0,.83,0,1.25q0,15,0,30c0,2.19,0,2.22,2.18,2.22Z" transform="translate(116.46 248.5)"/><path d="M-13.51,362.92c.89.35,1.56.65,2.24.88,7.94,2.68,14.69,7.1,19.66,13.92a34.34,34.34,0,0,1,6.21,15.61,44.08,44.08,0,0,1-5.32,27.94C4.75,429.56-1.85,435.74-10.91,439a37.37,37.37,0,0,1-11.76,1.95c-4.75.11-9.5.05-14.24.11-13.74.18-27.49.12-41.21.64-11.83.45-23.65.1-35.47.31-.5,0-1,0-1.5,0-.93,0-1.39-.37-1.36-1.32,0-.59,0-1.17,0-1.75q0-74.1,0-148.21c0-3.52-.36-3.15,3.26-3.15,11,0,22-.05,33,0q27,.18,54,.51a25.54,25.54,0,0,1,16.42,6.36A40.83,40.83,0,0,1,4.4,320.37c2,13.12-1.19,25-10,35-2.07,2.36-4.53,4.39-6.81,6.57C-12.72,362.24-13,362.49-13.51,362.92Zm-42.37,51V414c7.82,0,15.64.06,23.46,0,4.66-.05,8-2.45,10.31-6.36a24.46,24.46,0,0,0,2.37-18.82,15.38,15.38,0,0,0-5.86-9.29,13.66,13.66,0,0,0-8.2-2.46c-3.9,0-7.8.28-11.71.35-11.39.22-22.78.39-34.18.57a6.26,6.26,0,0,1-.75,0c-1.23-.12-1.64.5-1.53,1.64,0,.33,0,.66,0,1v30.71c0,.49,0,1,0,1.49,0,.73.41,1,1.1,1.05l1.75,0ZM-59.51,349h18.25c.91,0,1.83,0,2.75,0,3.89-.26,7.29-1.51,9.71-4.79a14.84,14.84,0,0,0,2.73-8.93,24.56,24.56,0,0,0-4.54-14.77,11,11,0,0,0-7.27-4.87,43.79,43.79,0,0,0-5.72-.44q-18.12-.35-36.22-.61c-2.1,0-2.14,0-2.14,2q0,15.25,0,30.5c0,1.9,0,1.93,1.95,1.94C-73.18,349-66.34,349-59.51,349Z" transform="translate(116.46 248.5)"/><path d="M95.49,184.57h126a11.15,11.15,0,0,0,2.24,0c1.24-.25,1.82.11,2.25,1.35,3.21,9.19,6.51,18.36,9.77,27.53.17.47.3,1,.49,1.42.36.9,0,1.2-.89,1.24-2,.1-4,.28-6,.33-3.82.1-7.65.19-11.48.19q-23.75,0-47.49,0c-.58,0-1.17,0-1.75,0-1.3-.12-1.91.46-2.31,1.71-1.8,5.45-3.71,10.86-5.56,16.3q-3.92,11.46-7.78,22.92c-.83,2.45-.83,2.46-3.5,2.46q-44.86.06-89.73.13c-6,0-12,.22-18,.31-2.24,0-2.28,0-3.06-2.13q-5.61-15.21-11.19-30.44c-1.15-3.13-2.29-6.25-3.45-9.37-.68-1.85-.69-1.87-2.67-1.88q-14.25,0-28.49,0c-7.33,0-14.66.06-22,0-5-.06-10-.31-15-.51-1.43-.05-1.52-.17-1-1.69q3.18-9.07,6.42-18.12c1.28-3.61,2.6-7.2,3.85-10.82.29-.82.56-1.2,1.55-.95a11.91,11.91,0,0,0,2.74.07Z" transform="translate(116.46 248.5)" />
</svg>