<svg width="87" height="22" viewBox="0 0 87 22" fill="none" xmlns="http://www.w3.org/2000/svg">
<path d="M34.9372 13.5174V12.9128C31.2088 11.8353 28.1481 12.213 28.1617 15.0147C28.1777 18.2552 34.9372 17.9981 34.9372 13.5174ZM69.7678 13.2495C70.0669 15.3967 72.4675 16.6969 74.3011 16.6969C75.9734 16.6969 77.0289 16.3834 78.1285 15.5976C79.0435 14.9438 80.2709 14.9188 81.196 15.5586C82.7175 16.6109 82.7003 18.8571 81.1532 19.8722C79.4591 20.984 76.9969 22 73.6548 22C67.8914 22 63.2051 17.0648 63.2051 10.9976C63.2051 4.93282 67.8914 0 73.6548 0C78.8174 0 83.2644 4.05011 83.997 9.4221C84.0041 9.47681 84.0112 9.55252 84.0182 9.64048C84.0807 10.5928 83.7465 11.5026 83.0784 12.1976C82.4082 12.8943 81.4523 13.2495 80.4808 13.2495H69.7678ZM77.5968 9.15646C77.5968 8.30459 76.9794 5.1488 73.5566 5.1488C71.5438 5.1488 69.763 7.03742 69.763 9.15646H77.5968ZM31.8891 0C34.4753 0 36.7286 0.680519 38.5863 2.02296C41.7018 4.2737 41.6554 7.7892 41.6379 9.1126C41.6368 9.19466 41.6357 9.26818 41.6357 9.33142V18.5764C41.6357 20.3672 40.1636 21.8241 38.3541 21.8241H38.2347C37.3587 21.8241 36.5349 21.4862 35.9147 20.8724C35.5817 20.5431 35.3288 20.1525 35.1663 19.7261C34.2354 20.6077 32.3576 22 29.0827 22C24.5154 22 21.5641 19.242 21.5641 14.9742C21.5641 11.4045 24.4972 8.82464 29.0364 8.40167C31.6315 8.16053 33.879 8.65593 34.9533 8.95943L34.9531 8.71085C34.9531 4.92599 30.4389 5.36209 27.0377 6.14042C23.0826 7.04873 21.8962 2.02646 25.2899 0.97789C26.7631 0.522752 28.8448 0 31.8891 0ZM3.38377 0H9.68018C15.723 0 20.7199 4.68848 20.8189 10.4519C20.8684 13.3278 19.7512 16.0401 17.6732 18.0889C15.5943 20.1381 12.8169 21.2667 9.85252 21.2667H3.38377C1.51797 21.2667 0 19.7952 0 17.9861V3.28052C0 1.47144 1.51797 0 3.38377 0ZM6.59204 16.3034H8.3845C12.2101 16.3034 14.2287 13.7647 14.2287 10.6333C14.2287 7.50179 12.2475 4.96353 8.3845 4.96353H6.59204V16.3034ZM52.7949 13.2526L56.7957 2.17875C57.2681 0.871326 58.5096 0 59.9004 0C62.3088 0 63.9062 2.49472 62.8981 4.68092L55.7946 20.0808C55.2549 21.2506 54.0837 22 52.7949 22C51.5059 22 50.3347 21.2506 49.7951 20.0808L42.6918 4.68092C41.6834 2.49472 43.2809 0 45.6894 0C47.08 0 48.3215 0.871326 48.7939 2.17875L52.7949 13.2526ZM87 2.2C87 2.81798 86.7869 3.33708 86.3546 3.76348C85.9222 4.18989 85.3896 4.4 84.7692 4.4C84.1426 4.4 83.6162 4.18989 83.1839 3.76348C82.7515 3.33708 82.5385 2.81798 82.5385 2.2C82.5385 1.58202 82.7515 1.06292 83.1839 0.636517C83.6162 0.210112 84.1426 0 84.7692 0C85.3896 0 85.9222 0.210112 86.3546 0.636517C86.7869 1.06292 87 1.58202 87 2.2ZM86.7055 2.2C86.7055 1.67472 86.5175 1.2236 86.1353 0.852809C85.7593 0.475843 85.3019 0.290449 84.7692 0.290449C84.2366 0.290449 83.7792 0.475843 83.4032 0.852809C83.021 1.2236 82.833 1.67472 82.833 2.2C82.833 2.72528 83.021 3.1764 83.4032 3.54719C83.7792 3.92416 84.2366 4.10955 84.7692 4.10955C85.3019 4.10955 85.7593 3.92416 86.1415 3.54719C86.5175 3.1764 86.7055 2.72528 86.7055 2.2ZM85.0825 2.37303L85.7781 3.47303H85.2956L84.6752 2.41629H84.3557V3.47303H83.9546V0.926966L84.8444 0.933146C85.07 0.933146 85.258 1.00112 85.4146 1.1309C85.5713 1.26067 85.6528 1.43989 85.6528 1.66854C85.6528 1.88483 85.5964 2.04551 85.4773 2.15674C85.3645 2.26798 85.2329 2.34213 85.0825 2.37303ZM85.2392 1.67472C85.2392 1.39663 85.0575 1.26067 84.7003 1.26067H84.3557V2.08876H84.7003C85.0575 2.08876 85.2392 1.95281 85.2392 1.67472Z" fill="currentColor"/>
</svg>
