<svg width="301" height="245" viewBox="0 0 301 245" fill="none" xmlns="http://www.w3.org/2000/svg">
<path d="M117.834 244.071C50.4063 244.071 28.5479 209.524 28.5479 174.299C28.5479 129.338 49.989 89.2038 126.355 81.2267C222.31 71.2035 270.843 116.939 270.843 169.717C270.843 219.833 242.316 244.071 162.662 244.071C131.563 244.071 136.357 244.071 117.834 244.071Z" fill="#E7E7E7"/>
<path fill-rule="evenodd" clip-rule="evenodd" d="M61.731 80.0854L68.9171 72.8967C69.666 72.1478 70.6815 71.7266 71.7411 71.7266H104.897C107.101 71.7266 108.889 73.514 108.889 75.7187V90.0935C108.889 92.2982 107.101 94.0857 104.897 94.0857H71.7404C70.6815 94.0857 69.666 93.6651 68.9177 92.9162L61.7317 85.7308C60.1732 84.1717 60.1726 81.6445 61.731 80.0854ZM67.3435 82.9081C67.3435 84.6074 68.7209 85.9849 70.4202 85.9849C72.1228 85.9849 73.5009 84.6074 73.5009 82.9081C73.5009 81.2056 72.1228 79.8281 70.4202 79.8281C68.7209 79.8281 67.3435 81.2056 67.3435 82.9081Z" fill="#DADADA"/>
<path fill-rule="evenodd" clip-rule="evenodd" d="M61.8933 85.1107C59.8452 85.1107 57.3226 84.8073 54.3275 83.9169C47.5896 81.9142 40.1456 83.8221 40.0712 83.8419C39.5282 83.9853 38.9754 83.6596 38.8333 83.1186C38.6911 82.5769 39.0149 82.0228 39.5572 81.8806C39.883 81.7951 47.6278 79.8082 54.906 81.9734C63.1569 84.4269 67.384 82.0169 67.4255 81.9925C67.9039 81.7102 68.5265 81.8635 68.8135 82.3413C69.0997 82.8185 68.9517 83.4365 68.4758 83.726C68.3422 83.8076 66.1375 85.1107 61.8933 85.1107Z" fill="#C0C0C0"/>
<path fill-rule="evenodd" clip-rule="evenodd" d="M8.66322 62.3293L33.5627 57.9389C39.2634 56.9333 44.7001 60.7399 45.7051 66.4412L50.0954 91.3407C51.1004 97.0414 47.2938 102.477 41.5931 103.483L16.6936 107.873C10.993 108.878 5.55622 105.072 4.55126 99.3711L0.160915 74.4717C-0.84404 68.771 2.96255 63.3342 8.66322 62.3293Z" fill="#DADADA"/>
<path fill-rule="evenodd" clip-rule="evenodd" d="M26.2193 89.1139C25.3341 89.2712 24.6838 89.8595 24.6924 90.4736L25.5671 100.564C25.7401 101.548 27.0301 102.151 28.476 101.896C29.9232 101.641 30.9314 100.632 30.7577 99.6485L28.1265 89.8681C27.9225 89.2889 27.1104 88.9579 26.2225 89.1139H26.2193ZM32.3102 83.7942C31.8048 83.8903 31.298 84.3733 31.0466 85.0637L31.0492 85.0611C30.7406 85.9087 30.9275 86.7676 31.4632 87.0736L40.6401 91.3573C41.5733 91.6976 42.7435 90.8795 43.2495 89.5021C43.7491 88.1227 43.3799 86.7452 42.4414 86.4023L32.6557 83.7916C32.5425 83.7698 32.4267 83.7718 32.3102 83.7942ZM18.6831 86.197C18.5653 86.2161 18.4554 86.2543 18.356 86.3128L10.0551 92.1129C9.29428 92.7552 9.41209 94.1768 10.3578 95.3015C11.3009 96.4229 12.6797 96.7922 13.4418 96.1531L20.5995 88.9894C21.001 88.5176 20.8832 87.6469 20.3014 86.9565L20.3054 86.9571C19.8335 86.3944 19.1905 86.1141 18.6831 86.197ZM37.4817 69.3654C37.231 69.4036 37.0026 69.501 36.8131 69.6609L29.6547 76.8292C29.2552 77.2958 29.3737 78.1672 29.9535 78.8589C30.5346 79.5466 31.3697 79.8125 31.8982 79.5032L40.2018 73.6972C40.9665 73.0562 40.8428 71.6366 39.9017 70.5119C39.1916 69.6682 38.2379 69.2509 37.4844 69.3654H37.4817ZM8.88361 74.4087C8.13664 74.5588 7.38506 75.2768 7.00861 76.312C6.50383 77.6914 6.87896 79.0669 7.8135 79.4078L17.5985 82.0245C18.2 82.1351 18.897 81.5987 19.2063 80.7543V80.7537C19.5163 79.9054 19.3294 79.0465 18.7923 78.7451L9.61544 74.4568C9.38115 74.3719 9.13304 74.3587 8.88427 74.4087H8.88361ZM21.7776 63.9169C20.333 64.1722 19.3261 65.1811 19.4998 66.163L22.129 75.9448C22.3317 76.5259 23.1465 76.8582 24.033 76.7023C24.9208 76.5443 25.5703 75.954 25.5638 75.3386L24.6937 65.2476C24.52 64.2657 23.2261 63.6615 21.7795 63.9169H21.7776Z" fill="#F5F5F5"/>
<path d="M86.6517 85.5891C86.6517 83.7234 85.71 82.6395 83.0803 81.7333C81.5699 81.2003 80.877 80.8982 80.877 79.9387C80.877 79.0858 81.4278 78.6061 82.2985 78.6061C83.1691 78.6061 83.791 79.1569 83.8266 80.1697H86.2786C86.1898 78.0375 85.0703 76.8292 83.2757 76.5271V74.7681H81.5877V76.5094C79.5976 76.8114 78.4249 78.2507 78.4249 80.1519C78.4249 82.2308 79.7398 83.2259 81.9964 83.9722C83.5423 84.4874 84.1997 84.9672 84.1997 85.8023C84.1997 86.6374 83.6133 87.2238 82.565 87.2238C81.3212 87.2238 80.6638 86.5486 80.5927 85.3226H78.1406C78.2117 87.4015 79.3667 88.9473 81.5877 89.2849V91.044H83.2757V89.3027C85.248 89.0362 86.6517 87.7213 86.6517 85.5891Z" fill="white"/>
<path d="M95.7399 78.6416V76.6871H88.0284V78.9792H92.968L88.5437 89.125H91.1912L95.7399 78.6416Z" fill="white"/>
<path d="M104.094 77.7354C103.348 76.8825 102.318 76.4561 100.949 76.4561C98.5685 76.4561 96.8271 78.0552 96.8271 80.6139C96.8271 82.8883 98.3019 84.5052 100.647 84.5052C101.678 84.5052 102.513 84.0965 102.957 83.599C102.904 86.1044 102.229 87.0816 101.003 87.0816C100.132 87.0816 99.5813 86.6552 99.5102 85.5891H97.0581C97.1292 87.8812 98.7284 89.356 100.914 89.356C104.006 89.356 105.409 87.0994 105.409 82.6573C105.409 80.6672 105.054 78.8726 104.094 77.7354ZM101.038 82.4441C100.008 82.4441 99.297 81.6089 99.297 80.5784C99.297 79.4945 100.008 78.6949 101.038 78.6949C102.122 78.6949 102.833 79.6011 102.833 80.5961C102.833 81.6445 102.033 82.4441 101.038 82.4441Z" fill="white"/>
<path fill-rule="evenodd" clip-rule="evenodd" d="M251.513 69.698L258.933 62.2761C259.706 61.5027 260.755 61.068 261.848 61.068H296.08C298.357 61.068 300.203 62.9137 300.203 65.1903V80.0318C300.203 82.3083 298.357 84.1533 296.08 84.1533H261.848C260.755 84.1533 259.706 83.7193 258.933 82.9459L251.514 75.5271C249.904 73.9179 249.904 71.3081 251.513 69.698ZM257.308 72.6129C257.308 74.3666 258.73 75.7893 260.485 75.7893C262.243 75.7893 263.665 74.3666 263.665 72.6129C263.665 70.8546 262.243 69.4319 260.485 69.4319C258.73 69.4319 257.308 70.8546 257.308 72.6129Z" fill="#DADADA"/>
<path fill-rule="evenodd" clip-rule="evenodd" d="M251.674 75.0408C249.545 75.0408 246.927 74.7263 243.823 73.803C236.927 71.752 229.263 73.707 229.188 73.7273C228.549 73.8943 227.888 73.5111 227.721 72.8681C227.553 72.2265 227.937 71.5702 228.578 71.4016C228.916 71.3134 236.957 69.2523 244.509 71.4992C253.058 74.0411 257.263 71.5632 257.305 71.5382C257.87 71.1932 258.611 71.3696 258.957 71.9378C259.302 72.5044 259.124 73.2442 258.557 73.59C258.418 73.675 256.107 75.0408 251.674 75.0408Z" fill="#C0C0C0"/>
<path fill-rule="evenodd" clip-rule="evenodd" d="M196.722 51.3656L222.429 46.8329C228.315 45.7949 233.929 49.7252 234.966 55.6104L239.5 81.3195C240.538 87.2048 236.607 92.8177 230.722 93.8556L205.013 98.3884C199.127 99.4272 193.515 95.4961 192.477 89.6109L187.944 63.9018C186.906 58.0165 190.836 52.4036 196.722 51.3656Z" fill="white"/>
<path fill-rule="evenodd" clip-rule="evenodd" d="M231.272 78.4332C230.819 78.018 228.93 78.2583 227.778 78.6111C226.622 78.96 224.977 79.994 225.208 80.3999C225.315 80.5481 225.464 80.4467 226.262 80.2313C227.061 80.0065 229.288 79.3174 229.872 79.8543C230.459 80.3952 229.78 83.5833 229.645 84.1022C229.518 84.6197 229.832 84.6915 230.176 84.302C230.512 83.9126 231.079 82.9597 231.35 81.704C231.617 80.4428 231.617 78.7492 231.272 78.4332ZM227.792 81.2419C215.219 90.1943 205.736 86.2312 199.698 83.8727C199.323 83.7229 198.795 84.0827 199.393 84.5658C201.599 86.4489 208.489 90.7086 216.26 89.3381C224.037 87.9669 227.915 82.9073 228.363 82.0652C228.809 81.2302 228.331 80.8969 227.792 81.2419Z" fill="#B0B0B0"/>
<path fill-rule="evenodd" clip-rule="evenodd" d="M210.07 74.0702C209.453 70.5739 213.075 69.2042 215.572 68.6774L216.102 71.6876C217.152 77.6493 210.736 77.8507 210.07 74.0702ZM222.49 71.4847L220.561 60.5445C220.23 58.666 217.663 54.7412 211.131 55.8924C204.599 57.0451 201.844 61.7394 202.493 65.416L208.038 64.9423C208.038 64.9423 208.606 61.0526 211.428 60.5547C214.25 60.0575 214.46 62.3778 214.547 62.8718L214.966 65.249C211.372 66.0084 202.575 68.6236 203.911 76.1946C205.346 84.3353 215.683 82.865 218.125 77.0094C218.293 77.1998 218.477 77.3832 218.698 77.5463C220.167 78.6303 222.095 79.8923 222.095 79.8923L225.575 74.9849C225.576 74.9834 222.85 73.5255 222.49 71.4847Z" fill="#B0B0B0"/>
<path d="M277.719 74.9671C277.719 73.3284 276.892 72.3764 274.582 71.5805C273.255 71.1123 272.647 70.847 272.647 70.0043C272.647 69.2551 273.13 68.8338 273.895 68.8338C274.66 68.8338 275.206 69.3176 275.237 70.2071H277.391C277.313 68.3344 276.33 67.2731 274.753 67.0078V65.4628H273.271V66.9922C271.523 67.2575 270.493 68.5216 270.493 70.1915C270.493 72.0175 271.648 72.8915 273.63 73.5469C274.988 73.9995 275.565 74.4209 275.565 75.1544C275.565 75.8879 275.05 76.4029 274.129 76.4029C273.037 76.4029 272.459 75.8099 272.397 74.733H270.243C270.306 76.559 271.32 77.9167 273.271 78.2133V79.7583H274.753V78.2289C276.486 77.9948 277.719 76.8399 277.719 74.9671Z" fill="white"/>
<path d="M285.358 68.0691C284.702 67.3199 283.797 66.9454 282.595 66.9454C280.504 66.9454 278.975 68.35 278.975 70.5973C278.975 72.5949 280.27 74.0151 282.33 74.0151C283.235 74.0151 283.969 73.6562 284.359 73.2192C284.312 75.4197 283.719 76.2781 282.642 76.2781C281.877 76.2781 281.394 75.9035 281.331 74.9671H279.178C279.24 76.9804 280.645 78.2757 282.564 78.2757C285.28 78.2757 286.513 76.2937 286.513 72.3921C286.513 70.6441 286.2 69.0679 285.358 68.0691ZM282.673 72.2048C281.768 72.2048 281.144 71.4713 281.144 70.5661C281.144 69.6141 281.768 68.9118 282.673 68.9118C283.625 68.9118 284.25 69.7077 284.25 70.5817C284.25 71.5025 283.547 72.2048 282.673 72.2048Z" fill="white"/>
<path d="M294.419 69.1459V67.1483H288.098V73.2972H290.002C290.299 73.0943 290.736 72.9071 291.329 72.9071C292.281 72.9071 292.843 73.5001 292.843 74.577C292.843 75.5914 292.343 76.2781 291.376 76.2781C290.517 76.2781 289.924 75.8411 289.909 74.8891H287.786C287.786 77.0896 289.175 78.2757 291.36 78.2757C293.623 78.2757 294.997 76.7775 294.997 74.4677C294.997 72.0799 293.53 71.0499 291.735 71.0499C291.064 71.0499 290.549 71.1904 290.237 71.3464V69.1459H294.419Z" fill="white"/>
<path fill-rule="evenodd" clip-rule="evenodd" d="M135.674 26.4793L144.63 17.5203C145.563 16.5868 146.829 16.0621 148.149 16.0621H189.468C192.217 16.0621 194.445 18.2898 194.445 21.0375V38.9517C194.445 41.6995 192.217 43.9271 189.468 43.9271H148.148C146.829 43.9271 145.563 43.4032 144.63 42.4704L135.675 33.5152C133.733 31.5726 133.732 28.4219 135.674 26.4793ZM142.668 29.9973C142.668 32.1144 144.386 33.8316 146.503 33.8316C148.625 33.8316 150.342 32.1144 150.342 29.9973C150.342 27.8756 148.625 26.1585 146.503 26.1585C144.386 26.1585 142.668 27.8756 142.668 29.9973Z" fill="#DADADA"/>
<path fill-rule="evenodd" clip-rule="evenodd" d="M135.88 32.6294C133.339 32.6294 130.204 32.2525 126.48 31.145C118.051 28.6376 108.744 31.0256 108.651 31.0503C108.037 31.2122 107.409 30.8435 107.248 30.2301C107.086 29.6159 107.453 28.9883 108.068 28.8271C108.472 28.7204 118.095 26.2547 127.136 28.9421C137.58 32.048 142.77 28.9891 142.822 28.9577C143.365 28.6264 144.072 28.798 144.402 29.3398C144.733 29.8816 144.562 30.5891 144.02 30.9197C143.856 31.0204 141.132 32.6294 135.88 32.6294Z" fill="#C0C0C0"/>
<path fill-rule="evenodd" clip-rule="evenodd" d="M122.248 24.7914C125.124 41.1049 114.232 56.6624 97.9169 59.5392C81.6034 62.4161 66.0459 51.5221 63.1698 35.2079C60.2929 18.8944 71.1862 3.3369 87.4997 0.460778C103.815 -2.41609 119.371 8.47721 122.248 24.7914Z" fill="white"/>
<path fill-rule="evenodd" clip-rule="evenodd" d="M90.0438 28.6335L90.1744 29.0103C91.111 29.4208 91.5356 30.3215 92.6804 30.0312C93.7207 29.9103 94.3222 28.8103 94.699 27.9484C93.2722 28.0021 91.6304 28.5984 90.0438 28.6335ZM112.418 21.5708C114.707 21.7641 117.319 23.7589 119.362 21.8059C116.756 18.8156 113.21 16.2551 113.273 11.7335C113.308 11.4193 113.062 11.1506 112.777 11.1574C111.563 11.9223 110.777 13.3895 110.483 14.7477C110.402 15.5342 110.417 16.3521 110.241 17.1119C108.53 16.5723 106.72 16.0775 104.845 16.6044C104.171 16.8119 103.192 17.0313 103.189 17.7604C105.56 18.5357 107.683 20.1536 109.372 21.9768C110.271 21.6634 111.426 21.5917 112.418 21.5708ZM102.906 10.5073C101.304 10.7036 100.133 11.8387 98.7461 12.5036C98.4005 11.2849 99.1117 9.80733 99.108 8.52374C96.7759 9.09091 95.1587 10.8402 93.4072 12.3185C92.7632 11.3073 92.1162 10.2902 91.4752 9.27449L93.6177 6.37448L93.6266 6.0409L90.1162 6.4603C89.3319 5.51627 88.8737 4.29388 87.9953 3.45358C87.6087 4.64985 87.4237 5.87597 87.0386 7.07075L83.5998 7.87747L83.6453 8.1327L86.7005 10.0484C86.5938 11.3282 86.5281 12.7096 85.8983 13.7738C84.1908 13.1215 82.4916 12.3835 80.6848 12.0394C80.255 11.9797 79.6363 11.8685 79.3207 12.2126C80.0639 13.2976 81.0378 14.4349 81.1386 15.7446C80.408 15.7394 79.7707 15.3835 79.0721 15.3096C78.2386 15.2335 77.2184 14.9752 76.4923 15.37C78.0968 16.9432 79.4804 18.6424 80.2259 20.7454C84.1326 17.932 88.9125 15.92 94.2371 15.8894C96.7281 15.8476 99.1304 16.4417 101.44 16.873C101.124 14.5857 102.239 12.5066 102.906 10.5073ZM95.1662 21.223C95.0819 21.2402 95.0006 21.2588 94.917 21.2767C94.5207 21.6551 93.1722 21.6708 93.823 22.5961C94.5252 21.8073 95.7416 22.0588 96.6133 22.2357C96.8879 22.0327 96.77 21.7439 96.7446 21.482C96.3968 21.0409 95.7633 21.1058 95.1662 21.223ZM96.0856 18.8805C95.252 17.6558 93.7841 17.3596 92.4819 17.2573C91.858 17.2901 91.2147 17.3506 90.5856 17.4558C90.4669 17.4752 90.349 17.4946 90.2326 17.5178C88.4804 17.8633 86.8804 18.611 86.1095 20.2387C86.0341 20.6737 85.4878 21.3618 86.1535 21.6215C87.4893 21.2969 89.002 20.8558 90.1072 21.8566C90.2886 22.8872 91.196 24.1409 90.1677 24.8312C89.0938 24.1387 88.2147 25.5506 87.0886 25.0417C86.5669 24.8454 86.3251 25.2245 86.2035 25.6655C86.3923 28.3738 88.302 31.0633 91.0513 32.1036C92.1229 32.2902 93.5401 32.3969 94.5005 31.6954C96.8237 30.0708 97.396 27.1849 97.4289 24.6133C97.2811 24.1514 97.1416 23.2237 96.4729 23.3193C95.8065 23.926 94.6625 23.8387 93.8334 23.7842C93.3901 24.0193 93.4893 24.7111 92.9781 24.9349L92.6057 24.7327C92.1184 23.6043 91.6513 21.9611 92.6028 20.9528C93.7393 20.2439 95.1386 19.7745 96.4722 19.9387C96.6363 19.4902 96.2155 19.2334 96.0856 18.8805ZM86.0841 23.4924C86.0901 23.7782 86.2416 24.2618 86.6364 23.9946C87.1393 22.9551 88.4468 23.4767 89.1879 23.4133L89.1416 23.1536C88.6304 22.5961 87.7528 22.426 86.9222 22.6043C86.7319 22.6454 86.5408 22.7081 86.3595 22.7857C86.0908 22.8969 85.9416 23.1872 86.0841 23.4924ZM78.7512 21.7999C76.2632 20.7349 73.6766 22.6073 71.7378 23.7678C71.2005 21.8499 70.0938 20.2103 68.2132 19.2148C68.0393 19.1633 67.7878 19.0349 67.5855 19.0573C67.4646 19.0715 67.3594 19.1394 67.2982 19.3073C68.8602 23.7864 66.4303 27.532 64.9236 31.4044C65.7326 31.8573 66.8535 31.5708 67.6811 31.2499C69.7744 29.9521 71.643 28.0066 74.4184 28.0715C74.9729 26.5805 76.0744 25.0364 76.9774 23.7715C77.543 23.0767 78.3953 22.5484 78.7512 21.7999ZM121.272 26.6126C121.421 27.3342 121.6 27.9462 121.448 28.7395C118.657 30.0932 116.177 27.3223 113.409 28.2939L114.015 29.8499C116.669 29.4715 118.762 31.7111 121.469 31.1216C121.217 31.9633 122.137 33.9022 120.278 33.3902C118.421 33.276 116.858 31.9342 114.906 32.2783C114.748 32.7529 115.001 33.3245 115.051 33.8432C117.166 33.8029 118.953 35.282 121.068 35.2402C120.998 35.982 120.947 36.8074 120.443 37.341C118.698 37.229 117.124 35.9559 115.35 36.3134L115.293 37.8499C116.995 37.5947 118.354 38.8999 119.955 39.0813C120.107 39.6992 119.647 40.3559 119.424 40.9701C118.001 40.8022 116.766 39.8231 115.237 40.1813C115.113 39.6029 115.342 38.8813 115.101 38.2828C113.458 39.1044 112.012 37.6977 110.556 36.9581C109.96 33.8014 106.265 32.3133 105.567 29.3813C105.429 28.7969 105.408 28.1499 105.557 27.4245C106.206 24.7014 105.283 21.4768 103.667 19.329C103.192 18.773 102.46 18.3962 101.793 18.1379C103.004 19.8491 104.466 21.8663 104.335 24.2551C104.585 26.038 103.839 27.9245 104.129 29.635C104.233 30.2447 104.47 30.8313 104.928 31.3842C106.767 33.6514 109.696 35.5865 109.308 38.9044C109.219 39.9186 108.578 40.8029 108.56 41.8223C110.43 42.8865 112.242 44.1372 114.422 43.841C115.107 43.2126 114.293 41.1022 116.058 41.8305L118.58 42.5813C118.521 43.2313 118.1 43.879 117.704 44.3895C116.75 44.1164 115.801 43.7544 114.713 43.9895C114.449 44.3895 114.239 44.8238 114.351 45.3119C115.145 45.3029 115.91 45.5037 116.634 45.841C116.448 46.5387 115.936 47.0455 115.487 47.6335L113.576 47.3074C113.351 47.7902 112.807 48.3514 113.11 48.7843C113.545 48.8865 114.037 49.0417 114.389 49.2902C113.747 50.288 112.838 51.0171 111.973 51.7701C110.658 49.1917 107.574 47.7656 107.254 44.5731L107.104 44.4678C106.587 45.3081 107.007 46.4305 107.215 47.3656C108.336 49.2029 110.448 50.4022 111.11 52.5179C110.885 53.132 110.177 53.3708 109.66 53.7052C109.036 49.7917 102.595 47.8753 105.695 43.2589C106.621 41.1022 108.416 38.8835 107.195 36.3551C105.971 33.9216 102.961 32.8111 102.477 29.926L102.442 29.7007C102.533 26.5872 103.859 23.0581 101.751 20.135C101.093 18.926 99.8737 17.635 98.4707 17.329C100.815 19.2171 102.23 22.7238 101.645 25.9253C101.292 27.2193 100.769 28.7798 100.939 30.1984L100.935 30.1992C101.023 30.9395 101.301 31.6432 101.897 32.2514C103.801 34.3932 106.839 36.579 105.912 39.9723C104.681 42.7761 102.214 45.8417 104.425 48.8589C105.953 50.6238 108.125 52.2708 108.061 54.7835L106.244 55.7664C106.733 51.0156 99.9573 49.4686 101.799 44.4768C103.002 41.7663 105.516 38.9783 103.299 36.0522C101.961 34.2335 99.714 33.4133 99.3394 30.9111L99.3356 30.4805C99.3774 26.8305 101.473 23.0141 98.9297 19.57C98.2394 18.5424 97.0535 17.5797 95.8453 17.1282L95.7908 17.2066C98.3543 18.9439 99.6364 22.3208 98.952 25.3372C98.6916 27.082 97.7715 28.9365 97.8379 30.7454C97.8677 31.5984 98.1185 32.4439 98.7603 33.2678C100.543 35.2298 103.401 37.1402 102.378 40.2634C101.188 42.9037 98.9103 45.6708 100.521 48.547C102.174 51.0208 105.089 53.1417 104.345 56.7015L102.433 57.503C103.448 53.982 100.502 51.1858 98.6117 48.6208C96.2058 44.8865 101.204 42.0149 100.639 38.3126C100.198 35.9365 97.4304 35.0313 96.5103 32.938C95.252 32.2074 94.3453 33.6984 92.9938 33.6895C92.0617 34.0544 90.3087 32.7917 90.0237 34.5454C89.7632 37.0895 86.9483 39.4223 88.8296 42.0529C90.5886 44.3753 94.0685 45.6873 93.5991 49.1768C93.2005 52.4298 90.6073 55.9179 93.1647 59.1373C92.3267 59.0201 90.9326 59.7731 90.7304 58.5022C88.749 54.4067 93.517 50.9761 91.1476 46.9514C89.9334 44.4447 86.2632 43.588 86.4543 40.2813C86.549 37.5701 89.1595 35.2268 88.2438 32.4372C88.1677 32.2029 88.0662 31.9686 87.9364 31.7275C86.2968 28.832 83.5199 26.1357 84.2147 22.2969C84.399 21.2021 84.9737 20.1947 85.4528 19.1611C83.5296 20.6723 82.8819 23.2641 83.3565 25.7006C83.7334 28.376 86.0983 30.3066 86.8065 32.6902C87.0901 33.6529 87.1058 34.6865 86.6087 35.8738C85.5498 38.0096 84.0789 40.3238 85.3528 42.6656C86.5901 45.0358 89.9893 46.0052 90.3102 48.9567C90.8983 52.4126 87.2662 55.2694 89.0841 58.9291L86.9737 58.6336C85.5759 55.3432 88.9117 52.9447 88.3938 49.7634C88.2662 46.0223 83.3722 45.4887 83.0244 41.8813C82.5274 39.182 84.605 37.0499 85.255 34.5902C85.3378 34.0051 85.305 33.4716 85.1931 32.9745C84.6207 30.4835 82.0087 28.9171 81.8863 26.0238C81.646 23.9215 82.0326 21.973 83.108 20.17C81.3751 21.2484 80.9834 23.5312 80.7863 25.4238C80.4013 28.4708 82.9938 30.6932 83.664 33.2447C83.961 34.3708 83.8819 35.5566 83.011 36.9089C81.7871 39.0022 80.6251 41.576 82.1722 43.8268C83.8296 46.3186 87.9117 47.7664 86.8953 51.4179C86.3916 53.6962 84.5729 55.6753 85.1013 58.1686C84.502 58.0306 83.8826 57.897 83.3341 57.5529C82.7707 54.3582 86.964 51.5604 84.205 48.5753C84.1296 49.2731 84.2475 50.1835 84.2296 50.9604C83.8229 53.0455 82.4901 54.8925 82.2446 57.0171C81.1692 56.8059 79.9737 56.1761 78.9856 55.4656L80.0192 54.5515C79.8154 54.1447 79.408 53.841 79.0445 53.5291C78.2729 53.5559 77.8654 54.1373 77.2796 54.4403C76.6587 54.0619 76.0662 53.7238 75.5371 53.2201C75.7281 52.0567 78.8953 52.4328 77.0542 50.8992C75.9117 50.4373 75.0416 51.538 74.2169 52.1253L72.7236 50.7985C73.6617 49.9708 74.5505 48.8828 75.9035 48.9111C76.3281 49.435 76.5013 50.2835 77.1751 50.4776C79.3766 50.0447 80.6475 48.0977 82.111 46.4902C80.6207 44.9417 79.2326 42.6858 79.9065 40.376C80.3707 38.0992 82.2446 35.9201 81.9289 33.5492C81.8565 33.0096 81.6737 32.4611 81.3326 31.8954C79.649 29.1178 78.5296 25.1603 80.2737 22.1312C79.1296 22.6656 78.6848 24.288 78.4774 25.4969C77.6625 28.6432 79.8184 31.0439 80.3684 33.8245C80.4647 34.3245 80.5132 34.835 80.4811 35.3633C79.7475 37.8581 78.2602 40.1969 78.4274 42.8902C77.2654 43.9559 76.4483 45.6052 74.4968 45.4417C74.5177 45.9462 74.8005 46.6708 75.0699 47.1985C73.5796 47.3977 72.7639 48.6649 71.6095 49.3999C70.9087 49.3037 70.5848 48.4768 70.2221 47.9223C71.5923 47.1723 72.3871 45.5261 74.0639 45.2544C74.1632 44.6813 73.7729 44.241 73.5975 43.7417C71.3527 43.185 69.0214 49.2574 67.9042 44.5455C69.9617 44.0499 70.9505 41.885 72.9766 41.329L72.7662 39.7768C70.3863 39.9522 69.3065 42.6208 66.9274 42.7962L66.0497 40.829C68.7826 40.5216 69.9662 37.8148 72.5177 37.2305C72.7804 36.7201 72.7042 36.0484 72.661 35.4148C69.7856 35.5447 68.4072 38.9984 65.258 38.579C65.258 38.579 64.9266 37.3007 64.7423 36.5798L64.746 36.579C64.6751 36.2969 64.6214 36.1014 64.6214 36.1014C67.4624 36.6641 69.4624 34.3417 71.5632 32.9551C72.1117 32.6798 73.0669 32.8208 73.2124 32.132C73.1035 31.6425 73.9013 30.9074 73.0915 30.6947C69.6863 30.8298 68.1841 35.2313 64.4512 34.0089L64.1042 33.538C63.105 23.7193 66.9199 13.3835 75.1781 7.17225C78.4826 4.42448 82.858 2.54911 87.4543 1.69985C93.002 0.673729 98.8722 1.14164 103.57 3.36105C108.063 5.13344 112.665 8.54912 115.504 12.3394C118.16 15.6305 119.809 19.5581 120.853 23.8648C117.804 27.1439 114.533 22.3969 111.154 24.1842C111.445 24.7089 111.654 25.2678 112.146 25.6678C115.318 25.0857 118.091 28.0245 121.184 26.1283L121.272 26.6126ZM89.305 11.6454C90.417 12.0491 91.6199 12.6088 92.5759 13.2588L92.3117 13.6372C90.6729 13.7499 89.0162 14.2626 87.4953 14.5544C87.2953 14.4126 86.9072 14.2156 87.1886 13.9432L89.305 11.6454Z" fill="#DADADA"/>
<path fill-rule="evenodd" clip-rule="evenodd" d="M90.6597 27.0324C91.2933 27.0689 91.4821 27.2585 91.9724 27.2338C92.4814 27.1346 92.3888 27.0435 93.2254 26.5794C93.2806 26.5488 93.3381 26.4055 93.2217 26.3241C92.5717 25.8726 92.259 26.3324 91.9134 26.404C91.4545 26.4898 90.953 26.1667 90.5948 26.7644C90.5373 26.8831 90.5157 26.9935 90.6597 27.0324Z" fill="#DADADA"/>
<path d="M165.413 33.2401C165.413 30.9833 164.274 29.6723 161.093 28.5761C159.266 27.9313 158.428 27.566 158.428 26.4053C158.428 25.3737 159.094 24.7934 160.148 24.7934C161.201 24.7934 161.953 25.4596 161.996 26.6848H164.962C164.854 24.1056 163.5 22.6441 161.33 22.2787V20.1509H159.288V22.2572C156.881 22.6226 155.462 24.3635 155.462 26.6633C155.462 29.1779 157.053 30.3815 159.782 31.2843C161.652 31.9075 162.447 32.4879 162.447 33.498C162.447 34.5082 161.738 35.2175 160.47 35.2175C158.965 35.2175 158.17 34.4007 158.084 32.9177H155.118C155.204 35.4324 156.601 37.3023 159.288 37.7107V39.8385H161.33V37.7322C163.715 37.4098 165.413 35.8193 165.413 33.2401Z" fill="white"/>
<path d="M172.022 22.1927C169.206 22.1927 167.401 23.9981 167.401 26.9642H170.324C170.324 25.5671 171.119 24.9438 172.065 24.9438C173.097 24.9438 173.698 25.6101 173.698 26.7062C173.698 27.9099 173.011 28.4687 171.571 28.4687H170.711V31.0048H171.592C173.226 31.0048 174.193 31.6496 174.193 33.0897C174.193 34.3148 173.397 35.0455 172.258 35.0455C170.969 35.0455 170.066 34.4007 170.045 32.9177H167.121C167.121 36.0342 169.056 37.7966 172.151 37.7966C175.181 37.7966 177.159 36.0342 177.159 33.1971C177.159 31.1123 175.955 30.0377 174.773 29.6938C175.633 29.3284 176.643 28.3612 176.643 26.5773C176.643 24.1271 174.966 22.1927 172.022 22.1927Z" fill="white"/>
<path d="M188.119 25.2232V22.4721H179.414V30.9404H182.036C182.445 30.661 183.047 30.403 183.863 30.403C185.174 30.403 185.948 31.2198 185.948 32.7028C185.948 34.0998 185.26 35.0455 183.928 35.0455C182.746 35.0455 181.929 34.4437 181.908 33.1326H178.984C178.984 36.1632 180.897 37.7966 183.906 37.7966C187.023 37.7966 188.914 35.7333 188.914 32.5523C188.914 29.2639 186.894 27.8454 184.422 27.8454C183.498 27.8454 182.789 28.0388 182.359 28.2537V25.2232H188.119Z" fill="white"/>
<mask id="mask0" mask-type="alpha" maskUnits="userSpaceOnUse" x="28" y="25" width="243" height="220">
<path d="M117.834 244.071C50.4063 244.071 28.5479 209.56 28.5479 174.372C28.5479 129.457 52.5467 33.7528 128.913 25.7841C224.868 15.7713 270.843 117.071 270.843 169.795C270.843 219.859 242.316 244.071 162.662 244.071C131.563 244.071 136.357 244.071 117.834 244.071Z" fill="#EEEEEE"/>
</mask>
<g mask="url(#mask0)">
<path d="M200.915 207.366C230.43 203.322 246.411 188.091 246.411 188.091L216.568 137.453C216.568 137.453 213.268 143.987 207.847 146.889L190.056 156.921L200.915 207.366Z" fill="white"/>
<path fill-rule="evenodd" clip-rule="evenodd" d="M252.233 116.352L219.038 123.317C219.038 123.317 219.153 130.809 216.568 137.454V137.46C216.661 138.133 222.286 178.903 233.614 188.48C235.126 189.752 236.731 190.47 238.443 190.47C252.819 190.47 250.844 157.384 250.758 156.087C250.758 156.087 253.997 136.22 252.233 116.352Z" fill="#9D7354"/>
<path d="M233.613 188.479C235.126 189.753 236.731 190.47 238.444 190.47C252.819 190.47 254.832 174.032 250.758 156.087C247.633 169.899 241.484 180.555 233.613 188.479Z" fill="#B0B0B0"/>
<path d="M234.663 144.261C218.76 144.261 218.891 126.643 218.891 126.643C216.831 126.643 213.916 150.854 234.663 150.854C255.411 150.854 254.543 129.054 252.755 127.896C252.755 127.896 250.568 144.261 234.663 144.261Z" fill="#FFD761"/>
<path d="M110.804 155.173L89.4324 146.889C84.0126 143.987 80.7117 137.453 80.7117 137.453L50.3174 187.499C50.3174 187.499 66.8498 203.322 96.3652 207.366L110.804 155.173Z" fill="white"/>
<path d="M211.887 79.37C211.887 79.37 209.613 85.8021 199.199 88.4124C188.757 91.029 183.747 86.4225 183.747 86.4225C183.747 86.4225 185.992 79.9973 196.435 77.3808C207.006 74.7311 211.887 79.37 211.887 79.37Z" fill="#FFC107"/>
<path d="M191.851 106.255C182.254 93.1666 185.833 83.5501 185.833 83.5501C185.833 83.5501 196.081 83.0277 205.678 96.1165C215.394 109.368 211.695 118.821 211.695 118.821C211.695 118.821 201.421 119.307 191.851 106.255Z" fill="#FFC107"/>
<path fill-rule="evenodd" clip-rule="evenodd" d="M195.736 58.5727C183.931 45.5519 174.988 55.5164 168.37 60.5434C166.255 62.0843 164.208 62.1067 161.48 61.9477C160.893 60.5936 160.947 58.4832 161.714 57.1175C156.859 56.2687 151.133 59.5789 151.133 59.5789C150.544 57.5951 151.22 54.8034 152.035 52.0781C140.049 52.9786 137.201 60.5434 130.651 60.5434H128.889C122.27 55.5164 113.323 45.5519 101.518 58.5727C96.2685 64.3636 95.4313 73.5365 107.819 80.2757C103.506 96.3096 100.866 131.042 100.866 131.042C100.866 131.042 111.622 171.01 148.628 171.01C185.634 171.01 196.39 131.042 196.39 131.042C196.39 131.042 193.752 96.3096 189.439 80.2757C201.823 73.5365 200.989 64.3636 195.736 58.5727Z" fill="#9D7354"/>
<path fill-rule="evenodd" clip-rule="evenodd" d="M117.629 66.3348C118.437 65.5416 118.107 64.1813 117.03 63.8325C115.457 63.324 113.302 63.0771 111.56 64.5362C108.554 67.054 109.449 69.5177 110.467 70.9513C110.998 71.6998 112.078 71.7831 112.733 71.1411L117.629 66.3348Z" fill="#493426"/>
<path fill-rule="evenodd" clip-rule="evenodd" d="M180.042 66.3348C179.234 65.5416 179.565 64.1813 180.642 63.8325C182.214 63.324 184.369 63.0771 186.112 64.5362C189.116 67.054 188.222 69.5177 187.204 70.9513C186.673 71.6998 185.593 71.7831 184.939 71.1411L180.042 66.3348Z" fill="#493426"/>
<path fill-rule="evenodd" clip-rule="evenodd" d="M162.75 129.133C162.75 140.318 156.427 142.016 148.628 142.016C140.828 142.016 134.506 140.212 134.506 129.133C134.506 116.841 140.828 107.767 148.628 107.767C156.427 107.767 162.75 116.841 162.75 129.133Z" fill="#EBBF8D"/>
<path fill-rule="evenodd" clip-rule="evenodd" d="M157.55 117.776C157.55 118.984 155.436 120.876 153.265 122.499C150.515 124.555 146.742 124.555 143.991 122.499C141.821 120.876 139.706 118.984 139.706 117.776C139.706 115.296 143.701 113.284 148.628 113.284C153.556 113.284 157.55 115.296 157.55 117.776Z" fill="#493426"/>
<path fill-rule="evenodd" clip-rule="evenodd" d="M153.461 116.992C153.461 117.236 152.962 117.513 152.284 117.776C149.938 118.689 147.319 118.689 144.973 117.776C144.295 117.513 143.796 117.236 143.796 116.992C143.796 116.233 145.959 115.618 148.628 115.618C151.297 115.618 153.461 116.233 153.461 116.992Z" fill="#EBBF8D"/>
<path fill-rule="evenodd" clip-rule="evenodd" d="M140.825 81.4169C140.144 82.4169 138.78 82.6754 137.78 81.994L137.354 81.7047C134.37 79.6707 131.667 79.2047 128.027 80.0951L127.527 80.2178C126.351 80.5048 125.165 79.7857 124.877 78.6098L124.633 77.6098C124.345 76.4338 125.065 75.2479 126.241 74.9601L126.741 74.8382C131.833 73.592 136.174 74.3521 140.402 77.2317L140.827 77.521C141.827 78.2024 142.086 79.5658 141.404 80.5658L140.825 81.4169Z" fill="#493426"/>
<path fill-rule="evenodd" clip-rule="evenodd" d="M156.38 81.4169C157.061 82.4169 158.425 82.6754 159.425 81.994L159.851 81.7047C162.835 79.6707 165.538 79.2047 169.178 80.0951L169.678 80.2178C170.854 80.5048 172.04 79.7857 172.327 78.6098L172.572 77.6098C172.86 76.4338 172.14 75.2479 170.964 74.9601L170.464 74.8382C165.371 73.592 161.03 74.3521 156.803 77.2317L156.378 77.521C155.378 78.2024 155.119 79.5658 155.8 80.5658L156.38 81.4169Z" fill="#493426"/>
<path d="M155.91 129.171C155.91 129.171 153.46 132.157 148.628 132.157" stroke="#493426" stroke-width="2.58778" stroke-linecap="round" stroke-linejoin="round"/>
<path d="M210.388 198.402C207.786 204.393 202.383 206.693 188.039 207.274C187.887 207.281 187.73 207.29 187.573 207.293C187.573 207.293 187.072 207.332 186.178 207.395C186.08 207.399 185.974 207.407 185.864 207.415C185.755 207.422 185.641 207.426 185.523 207.434C183.772 207.548 181.013 207.693 177.756 207.767C177.506 207.771 177.256 207.779 177.004 207.783C176.001 207.806 174.99 207.818 173.983 207.818H123.473C123.16 207.818 122.843 207.818 122.529 207.814C117.027 207.775 112.391 207.489 110.542 207.355C110.467 207.352 110.393 207.348 110.318 207.34C109.907 207.313 109.683 207.293 109.683 207.293C109.59 207.29 109.499 207.286 109.409 207.281C94.9175 206.717 89.4816 204.421 86.8682 198.402C82.3304 187.946 90.352 165.335 98.3303 147.32L98.6012 146.662L100.867 131.042C100.867 131.042 101.65 132.777 103.381 135.537C124.31 168.884 173.274 168.801 194.027 135.343C195.671 132.692 196.391 131.042 196.391 131.042L198.655 146.662L198.922 147.32C206.904 165.335 214.926 187.946 210.388 198.402Z" fill="white"/>
<path fill-rule="evenodd" clip-rule="evenodd" d="M136.307 99.981C136.307 102.473 134.885 104.494 133.131 104.494C131.378 104.494 129.957 102.473 129.957 99.981C129.957 97.4887 131.378 95.4679 133.131 95.4679C134.885 95.4679 136.307 97.4887 136.307 99.981Z" fill="#493426"/>
<path fill-rule="evenodd" clip-rule="evenodd" d="M167.202 99.981C167.202 102.473 165.781 104.494 164.027 104.494C162.274 104.494 160.853 102.473 160.853 99.981C160.853 97.4887 162.274 95.4679 164.027 95.4679C165.781 95.4679 167.202 97.4887 167.202 99.981Z" fill="#493426"/>
<path d="M89.4326 146.889L98.5977 146.754C135.234 166.575 140.78 212.723 140.78 212.723C140.78 212.723 93.2258 224.273 95.1101 214.606C104.176 168.097 89.4326 146.889 89.4326 146.889Z" fill="#FFC107"/>
<path d="M207.804 146.889L198.639 146.754C162.003 166.575 156.457 212.723 156.457 212.723C156.457 212.723 204.011 224.273 202.127 214.606C193.06 168.097 207.804 146.889 207.804 146.889Z" fill="#FFC107"/>
<path d="M106.017 88.4513C106.017 88.4513 113.791 69.0293 148.625 69.0293C183.747 69.0293 191.241 88.4513 191.241 88.4513C191.241 88.4513 193.811 39.162 148.629 39.162C104.369 39.162 106.017 88.4513 106.017 88.4513Z" fill="#FFC107"/>
<path d="M238.417 271.185H58.8389C58.8389 271.185 64.9646 234.543 64.9646 207.968H232.291C232.291 234.372 238.417 271.185 238.417 271.185Z" fill="#0C622C"/>
<path d="M232.29 207.968C232.29 211.717 194.834 214.756 148.628 214.756C102.422 214.756 64.9648 211.717 64.9648 207.968C64.9648 204.221 102.422 201.181 148.628 201.181C194.834 201.181 232.29 204.221 232.29 207.968Z" fill="#16B04F"/>
<path d="M194.464 207.366C194.464 209.035 174.452 210.388 149.766 210.388C125.08 210.388 105.067 209.035 105.067 207.366C105.067 205.697 125.08 204.344 149.766 204.344C174.452 204.344 194.464 205.697 194.464 207.366Z" fill="#6DE599"/>
<path fill-rule="evenodd" clip-rule="evenodd" d="M78.2426 123.317L45.0474 116.353C43.2835 136.22 46.5219 156.087 46.5219 156.087C46.4371 157.383 44.4618 190.47 58.8368 190.47C60.5497 190.47 62.1547 189.752 63.667 188.479C74.9942 178.903 80.6192 138.132 80.7118 137.461V137.453C78.1269 130.809 78.2426 123.317 78.2426 123.317Z" fill="#9D7354"/>
<path d="M63.6673 188.479C62.1549 189.753 60.55 190.47 58.837 190.47C44.462 190.47 43.6804 174.032 46.5222 156.087C49.6472 169.899 55.7969 180.555 63.6673 188.479Z" fill="#B0B0B0"/>
<path d="M44.5249 127.896C44.5249 127.896 46.7124 144.261 62.6167 144.261C78.5202 144.261 78.3891 126.643 78.3891 126.643C80.4492 126.643 83.3636 150.854 62.6167 150.854C41.869 150.854 42.7371 129.054 44.5249 127.896Z" fill="#FFD761"/>
<path fill-rule="evenodd" clip-rule="evenodd" d="M252.329 121.264C252.074 133.972 243.184 137.002 236.615 137.408C229.854 137.826 220.799 135.311 219.034 123.319C218.083 116.855 217.735 109.789 222.845 106.907C224.99 105.697 227.351 106.629 227.351 106.629C227.351 106.629 230.095 103.364 234.497 103.092C239.152 102.805 241.384 105.762 241.384 105.762C241.384 105.762 244.003 104.106 246.23 105.113C251.867 107.661 252.464 114.51 252.329 121.264Z" fill="#9D7354"/>
<path fill-rule="evenodd" clip-rule="evenodd" d="M238.813 110.291C238.961 112.695 237.355 114.751 235.225 114.883C233.095 115.014 231.247 113.171 231.099 110.767C230.951 108.363 232.558 106.307 234.687 106.176C236.818 106.045 238.665 107.887 238.813 110.291Z" fill="#493426"/>
<path fill-rule="evenodd" clip-rule="evenodd" d="M241.626 111.226C241.185 113.189 242.236 115.097 243.975 115.488C245.714 115.879 247.482 114.605 247.923 112.642C248.364 110.679 247.313 108.771 245.574 108.38C243.835 107.99 242.067 109.264 241.626 111.226Z" fill="#493426"/>
<path fill-rule="evenodd" clip-rule="evenodd" d="M246.815 122.18C247.003 125.21 242.186 127.972 236.056 128.351C229.926 128.729 224.806 126.58 224.619 123.55C224.432 120.522 229.249 117.758 235.379 117.38C241.508 117.002 246.629 119.151 246.815 122.18Z" fill="#493426"/>
<path fill-rule="evenodd" clip-rule="evenodd" d="M228.422 112.041C229.101 113.935 228.292 115.958 226.615 116.56C224.938 117.161 223.026 116.114 222.347 114.222C221.667 112.328 222.476 110.305 224.154 109.702C225.832 109.1 227.742 110.148 228.422 112.041Z" fill="#493426"/>
<path fill-rule="evenodd" clip-rule="evenodd" d="M44.9508 121.264C45.2054 133.972 54.0958 137.002 60.6653 137.408C67.4261 137.826 76.4809 135.311 78.2455 123.319C79.1969 116.855 79.5449 109.789 74.4354 106.907C72.2903 105.697 69.9284 106.629 69.9284 106.629C69.9284 106.629 67.1846 103.364 62.7833 103.092C58.1275 102.805 55.896 105.762 55.896 105.762C55.896 105.762 53.2772 104.106 51.0495 105.113C45.413 107.661 44.8157 114.51 44.9508 121.264Z" fill="#9D7354"/>
<path fill-rule="evenodd" clip-rule="evenodd" d="M58.4675 110.291C58.3193 112.695 59.9258 114.751 62.0554 114.883C64.1858 115.014 66.0331 113.171 66.1812 110.767C66.3294 108.363 64.7229 106.307 62.5933 106.176C60.4629 106.045 58.6156 107.887 58.4675 110.291Z" fill="#493426"/>
<path fill-rule="evenodd" clip-rule="evenodd" d="M55.6535 111.226C56.0949 113.189 55.0432 115.097 53.3048 115.488C51.5656 115.879 49.7978 114.605 49.3565 112.642C48.9151 110.679 49.9668 108.771 51.7052 108.38C53.4444 107.99 55.2122 109.264 55.6535 111.226Z" fill="#493426"/>
<path fill-rule="evenodd" clip-rule="evenodd" d="M50.4643 122.18C50.2768 125.21 55.0939 127.972 61.2235 128.351C67.3532 128.729 72.4735 126.58 72.661 123.55C72.8478 120.522 68.0306 117.758 61.901 117.38C55.7714 117.002 50.651 119.151 50.4643 122.18Z" fill="#493426"/>
<path fill-rule="evenodd" clip-rule="evenodd" d="M68.8576 112.041C68.1786 113.935 68.9872 115.958 70.6647 116.56C72.3421 117.161 74.2534 116.114 74.9324 114.222C75.6122 112.328 74.8036 110.305 73.1253 109.702C71.4478 109.1 69.5373 110.148 68.8576 112.041Z" fill="#493426"/>
<path fill-rule="evenodd" clip-rule="evenodd" d="M184.091 88.4466H193.389C194.26 88.4466 194.97 89.1487 194.97 90.0283V91.5175C194.97 92.3895 194.26 93.0993 193.389 93.0993H185.649V96.857C185.649 101.564 185.14 105.268 182.656 108.076C180.024 111.039 175.557 112.42 168.581 112.42C158.689 112.42 151.514 105.877 151.514 96.857V95.4296H145.742V96.857C145.742 105.877 138.558 112.42 128.666 112.42C121.699 112.42 117.231 111.039 114.6 108.076C112.108 105.268 111.598 101.564 111.598 96.857V93.0993H103.867C102.995 93.0993 102.285 92.3895 102.285 91.5175V90.0283C102.285 89.1487 102.995 88.4466 103.867 88.4466H113.165C113.504 88.0067 113.913 87.6055 114.423 87.2506C116.853 85.5067 120.958 85.2058 128.666 85.2058C136.382 85.2058 140.487 85.5067 142.918 87.2506C144.214 88.1688 144.909 89.3493 145.287 90.7691H151.961C152.339 89.3493 153.041 88.1688 154.33 87.2506C156.768 85.5067 160.865 85.2058 168.581 85.2058C176.298 85.2058 180.395 85.5067 182.833 87.2506C183.342 87.6055 183.751 88.0067 184.091 88.4466ZM128.666 107.768C118.567 107.768 116.67 104.895 116.331 99.7244C116.273 98.8347 116.259 97.8795 116.259 96.8571C116.259 93.3463 116.29 91.6333 117.123 91.0392C118.643 89.9512 123.882 89.8587 128.666 89.8587C133.458 89.8587 138.689 89.9512 140.217 91.0392C140.515 91.2522 140.708 91.6148 140.836 92.1457C141.065 93.0971 141.081 94.6025 141.081 96.8571C141.081 103.285 135.981 107.768 128.666 107.768ZM168.581 107.768C161.274 107.768 156.166 103.285 156.166 96.8571C156.166 93.3463 156.205 91.6333 157.038 91.0392C158.558 89.9512 163.797 89.8587 168.581 89.8587C173.373 89.8587 178.605 89.9512 180.132 91.0392C180.958 91.6333 180.997 93.3463 180.997 96.8571C180.997 103.825 180.418 107.768 168.581 107.768Z" fill="#282828"/>
<path opacity="0.45" fill-rule="evenodd" clip-rule="evenodd" d="M128.667 107.768C135.982 107.768 141.082 103.285 141.082 96.857C141.082 96.0006 141.08 95.2537 141.064 94.6024L116.773 102.532C117.753 105.923 120.578 107.768 128.667 107.768Z" fill="white"/>
<path opacity="0.45" fill-rule="evenodd" clip-rule="evenodd" d="M157.654 102.344C159.671 105.692 163.614 107.767 168.582 107.767C180.418 107.767 180.997 103.824 180.997 96.8568C180.997 96.0551 180.995 95.3499 180.981 94.7288L157.654 102.344Z" fill="white"/>
<path opacity="0.8" d="M180.312 168.797C180.312 151.298 166.127 137.113 148.628 137.113C131.13 137.113 116.944 151.298 116.944 168.797C116.944 186.296 131.13 200.481 148.628 200.481C166.127 200.481 180.312 186.296 180.312 168.797Z" fill="#A6C5FA"/>
<path opacity="0.5" d="M174.875 168.797C174.875 154.3 163.125 142.549 148.628 142.549C134.132 142.549 122.381 154.3 122.381 168.797C122.381 183.293 134.132 195.044 148.628 195.044C163.125 195.044 174.875 183.293 174.875 168.797Z" fill="white"/>
<path opacity="0.3" d="M167.833 168.797C167.833 158.19 159.235 149.591 148.628 149.591C138.022 149.591 129.423 158.19 129.423 168.797C129.423 179.403 138.022 188.002 148.628 188.002C159.235 188.002 167.833 179.403 167.833 168.797Z" fill="white"/>
<path d="M160.504 168.797C160.504 162.238 155.187 156.921 148.628 156.921C142.069 156.921 136.753 162.238 136.753 168.797C136.753 175.355 142.069 180.672 148.628 180.672C155.187 180.672 160.504 175.355 160.504 168.797Z" fill="white"/>
<path d="M144.79 144.453L136.763 153.322C136.763 153.322 137.547 155.504 140.803 157.825C151.086 165.159 150.836 172.156 150.836 172.156L158.623 163.246C158.623 163.246 157.737 159.245 155.504 156.423C152.631 152.793 146.5 148.825 144.79 144.453Z" fill="#11893E"/>
<path d="M165.758 165.93C165.758 165.93 164.576 174.47 152.367 179.628L157.67 188.091C171.168 182.414 174.463 171.22 174.463 171.22L165.758 165.93Z" fill="#11893E"/>
<path d="M131.007 163.177C131.007 163.177 134.19 173.287 150.048 177.036L145.354 188.381C127.828 184.268 121.539 171.375 121.539 171.375L131.007 163.177Z" fill="#11893E"/>
<path d="M170.393 154.121C166.403 148.216 160.072 144.02 152.73 142.868" stroke="white" stroke-width="2.28333" stroke-linecap="round" stroke-linejoin="round"/>
<path d="M174.805 166.874C174.632 164.478 174.136 162.171 173.363 159.996" stroke="white" stroke-width="2.28333" stroke-linecap="round" stroke-linejoin="round"/>
<path d="M168.279 193.777H128.977C128.977 197.174 125.604 200.572 125.604 200.572H171.653C171.653 200.572 168.279 197.174 168.279 193.777Z" fill="#FFEEBB"/>
<path d="M172.362 200.572H124.894C123.41 200.572 122.206 201.775 122.206 203.259V204.677C122.206 206.163 123.41 207.367 124.894 207.367H172.362C173.847 207.367 175.049 206.163 175.049 204.677V203.259C175.049 201.775 173.847 200.572 172.362 200.572Z" fill="#FFD761"/>
<path fill-rule="evenodd" clip-rule="evenodd" d="M143.46 204.688H125.395C124.812 204.688 124.334 204.211 124.334 203.627V203.387C124.334 202.804 124.812 202.326 125.395 202.326H143.46C144.043 202.326 144.521 202.804 144.521 203.387V203.627C144.521 204.211 144.043 204.688 143.46 204.688Z" fill="white"/>
<path fill-rule="evenodd" clip-rule="evenodd" d="M151.976 204.688H147.837C147.253 204.688 146.776 204.211 146.776 203.627V203.387C146.776 202.804 147.253 202.326 147.837 202.326H151.976C152.56 202.326 153.037 202.804 153.037 203.387V203.627C153.037 204.211 152.56 204.688 151.976 204.688Z" fill="white"/>
<path d="M128.89 135.23L130.127 144.129L138.547 147.265L129.647 148.502L126.511 156.921L125.274 148.022L116.854 144.887L125.754 143.65L128.89 135.23Z" fill="white"/>
<path d="M114.21 155.908L118.215 161.07L124.66 159.996L119.498 164L120.572 170.446L116.567 165.283L110.122 166.358L115.285 162.353L114.21 155.908Z" fill="white"/>
<path fill-rule="evenodd" clip-rule="evenodd" d="M148.488 183.142C148.117 184.022 144.397 183.293 140.179 181.514C135.962 179.734 132.844 177.578 133.216 176.698C133.587 175.818 137.307 176.547 141.525 178.326C145.741 180.105 148.859 182.261 148.488 183.142Z" fill="#EF9F00"/>
<path fill-rule="evenodd" clip-rule="evenodd" d="M148.488 183.142L133.216 176.698L134.44 173.798L149.712 180.242L148.488 183.142Z" fill="#EF9F00"/>
<path fill-rule="evenodd" clip-rule="evenodd" d="M149.712 180.242C149.34 181.122 145.62 180.393 141.402 178.614C137.185 176.835 134.068 174.679 134.439 173.798C134.81 172.918 138.53 173.646 142.748 175.426C146.965 177.205 150.083 179.361 149.712 180.242Z" fill="#FFD215"/>
<path fill-rule="evenodd" clip-rule="evenodd" d="M164.865 154.698C163.711 152.819 160.061 152.962 156.712 155.019C153.363 157.076 151.583 160.266 152.736 162.144C153.89 164.024 157.54 163.88 160.89 161.823C164.238 159.767 166.019 156.577 164.865 154.698Z" fill="#EF9F00"/>
<path fill-rule="evenodd" clip-rule="evenodd" d="M164.865 154.699L152.736 162.145L151.304 159.813L163.433 152.366L164.865 154.699Z" fill="#EF9F00"/>
<path fill-rule="evenodd" clip-rule="evenodd" d="M163.433 152.366C162.28 150.487 158.628 150.63 155.28 152.686C151.93 154.743 150.15 157.933 151.303 159.812C152.457 161.692 156.108 161.548 159.458 159.491C162.807 157.435 164.587 154.244 163.433 152.366Z" fill="#FFD215"/>
</g>
</svg>
