<svg width="301" height="245" viewBox="0 0 301 245" fill="none" xmlns="http://www.w3.org/2000/svg">
<path d="M16.446 168.812C5.30825 102.535 101.419 65.0938 150.867 54.6578C184.135 47.6363 277.126 31.4417 280.967 125.462C284.807 219.482 211.196 236.244 173.91 232.872C126.063 239.134 27.5838 235.088 16.446 168.812Z" fill="#F5F5F5"/>
<path d="M266.928 125.905H243.764C241.071 125.905 238.889 123.698 238.889 120.975V115.204C238.889 112.482 241.071 110.276 243.764 110.276H266.928C269.62 110.276 271.804 112.482 271.804 115.204V120.975C271.804 123.698 269.62 125.905 266.928 125.905Z" fill="#E7E7E7"/>
<path d="M296.282 119.575H279.431C277.236 119.575 275.456 117.776 275.456 115.556V107.518C275.456 105.299 277.236 103.5 279.431 103.5H296.282C298.477 103.5 300.257 105.299 300.257 107.518V115.556C300.257 117.776 298.477 119.575 296.282 119.575Z" fill="#E7E7E7"/>
<path d="M270.552 105.392H255.601C254.235 105.392 253.127 104.272 253.127 102.892V98.2722C253.127 96.892 254.235 95.7728 255.601 95.7728H270.552C271.917 95.7728 273.025 96.892 273.025 98.2722V102.892C273.025 104.272 271.917 105.392 270.552 105.392Z" fill="#E7E7E7"/>
<path d="M28.9759 150.121H6.63024C2.96908 150.121 0 147.15 0 143.484V136.933C0 133.266 2.96908 130.296 6.63024 130.296H28.9759C32.6371 130.296 35.6054 133.266 35.6054 136.933V143.484C35.6054 147.15 32.6371 150.121 28.9759 150.121Z" fill="#E7E7E7"/>
<path d="M59.8142 151.798H42.0956C40.4772 151.798 39.166 150.484 39.166 148.864V145.214C39.166 143.594 40.4772 142.281 42.0956 142.281H59.8142C61.4326 142.281 62.7445 143.594 62.7445 145.214V148.864C62.7445 150.484 61.4326 151.798 59.8142 151.798Z" fill="#E7E7E7"/>
<path d="M45.1581 167.401H28.387C26.6561 167.401 25.2529 165.995 25.2529 164.263V157.732C25.2529 155.999 26.6561 154.595 28.387 154.595H45.1581C46.8891 154.595 48.2922 155.999 48.2922 157.732V164.263C48.2922 165.995 46.8891 167.401 45.1581 167.401Z" fill="#E7E7E7"/>
<path d="M68.8887 221.614H228.889V28.9546H68.8887V221.614Z" fill="#DADADA"/>
<path d="M82.2217 221.614H216.666V42.3182H82.2217V221.614Z" fill="#C0C0C0"/>
<path d="M68.8887 150.341H228.889V136.977H68.8887V150.341Z" fill="#DADADA"/>
<path d="M257.879 178.882C238.346 186.078 218.611 233.798 178.213 200.034C178.213 200.034 158.512 181.707 152.964 149.497H216.666C226.555 173.744 257.879 178.882 257.879 178.882Z" fill="white"/>
<path d="M126.666 42.3182H216.666V136.977H151.326C128.114 103.235 126.666 42.3182 126.666 42.3182Z" fill="white"/>
<path d="M223.998 205.414C220.394 186.595 199.662 176.214 199.662 176.214L205.999 227.864C205.999 227.864 227.824 225.39 223.998 205.414Z" fill="#282828"/>
<path d="M68.0017 211.428C64.1618 193.788 85.068 180.558 96.0012 176.148L113.601 222.653L68.0017 211.428Z" fill="#282828"/>
<path fill-rule="evenodd" clip-rule="evenodd" d="M196.638 84.6761C184.399 71.1457 175.127 81.5002 168.265 86.7247C166.073 88.3259 163.951 88.3484 161.122 88.1832C160.514 86.7761 160.57 84.5839 161.365 83.1639C156.33 82.2828 150.395 85.7217 150.395 85.7217C149.784 83.6603 150.485 80.7593 151.33 77.9274C138.902 78.8639 135.951 86.7247 129.159 86.7247H127.332C120.47 81.5002 111.195 71.1457 98.9556 84.6761C93.5125 90.6945 92.6445 100.226 105.488 107.229C101.016 123.89 98.2788 159.982 98.2788 159.982C98.2788 159.982 109.43 177.482 147.797 177.482C186.164 177.482 197.317 159.982 197.317 159.982C197.317 159.982 194.582 123.89 190.11 107.229C202.95 100.226 202.085 90.6945 196.638 84.6761Z" fill="#9D7354"/>
<path fill-rule="evenodd" clip-rule="evenodd" d="M115.444 92.7419C116.281 91.9185 115.939 90.5041 114.822 90.1425C113.192 89.6141 110.957 89.3567 109.151 90.8737C106.035 93.49 106.963 96.0494 108.018 97.5391C108.568 98.3169 109.689 98.4042 110.366 97.7363L115.444 92.7419Z" fill="#493426"/>
<path fill-rule="evenodd" clip-rule="evenodd" d="M180.152 92.7419C179.315 91.9185 179.657 90.5041 180.774 90.1425C182.404 89.6141 184.639 89.3567 186.445 90.8737C189.561 93.49 188.633 96.0494 187.578 97.5391C187.028 98.3169 185.908 98.4042 185.229 97.7363L180.152 92.7419Z" fill="#493426"/>
<path fill-rule="evenodd" clip-rule="evenodd" d="M162.44 157.999C162.44 169.621 155.885 171.385 147.798 171.385C139.712 171.385 133.157 169.51 133.157 157.999C133.157 145.225 139.712 135.796 147.798 135.796C155.885 135.796 162.44 145.225 162.44 157.999Z" fill="#EBBF8D"/>
<path fill-rule="evenodd" clip-rule="evenodd" d="M138.277 106.511C137.731 107.643 136.373 108.118 135.243 107.57L134.762 107.337C131.391 105.703 128.549 105.637 124.951 107.109L124.458 107.311C123.295 107.787 121.969 107.228 121.495 106.063L121.092 105.074C120.618 103.909 121.175 102.58 122.337 102.105L122.83 101.902C127.863 99.8434 132.431 99.9605 137.205 102.275L137.685 102.507C138.816 103.054 139.289 104.417 138.742 105.549L138.277 106.511Z" fill="#493426"/>
<path fill-rule="evenodd" clip-rule="evenodd" d="M157.281 106.42L156.833 105.45C156.305 104.308 156.802 102.955 157.941 102.427L158.425 102.202C163.238 99.9715 167.808 99.9322 172.804 102.078L173.296 102.289C174.448 102.783 174.983 104.122 174.489 105.279L174.068 106.262C173.574 107.418 172.239 107.953 171.085 107.458L170.595 107.247C167.023 105.714 164.181 105.732 160.781 107.306L160.297 107.532C159.158 108.059 157.808 107.562 157.281 106.42Z" fill="#493426"/>
<path d="M211.831 229.979C209.136 236.202 203.527 238.591 188.655 239.2C188.504 239.209 188.336 239.217 188.176 239.217C188.176 239.217 187.655 239.256 186.727 239.32C186.623 239.328 186.519 239.337 186.408 239.345C186.287 239.353 186.176 239.352 186.047 239.361C184.231 239.482 181.376 239.633 177.999 239.714C177.736 239.714 177.48 239.721 177.216 239.729C176.176 239.753 175.128 239.761 174.088 239.761H120.737C115.033 239.721 110.225 239.417 108.314 239.281C108.233 239.281 108.153 239.273 108.082 239.264C107.649 239.241 107.417 239.217 107.417 239.217C107.321 239.217 107.233 239.209 107.138 239.209H107.114C92.1059 238.616 86.474 236.234 83.7693 229.979C79.0574 219.115 87.378 195.615 95.6491 176.901L95.9291 176.211C88.0332 172.764 92.6971 158.86 98.2818 159.982C98.2818 159.982 118.553 176.587 147.8 176.587C176.952 176.587 197.319 159.982 197.319 159.982C202.895 158.86 207.559 172.764 199.663 176.211L199.944 176.901C208.215 195.615 216.536 219.115 211.831 229.979Z" fill="#282828"/>
<path fill-rule="evenodd" clip-rule="evenodd" d="M157.048 146.196C157.048 147.451 154.856 149.416 152.606 151.102C149.755 153.239 145.841 153.239 142.99 151.102C140.74 149.416 138.548 147.451 138.548 146.196C138.548 143.617 142.689 141.527 147.798 141.527C152.907 141.527 157.048 143.617 157.048 146.196Z" fill="#493426"/>
<path fill-rule="evenodd" clip-rule="evenodd" d="M152.809 145.38C152.809 145.632 152.292 145.921 151.589 146.195C149.156 147.143 146.441 147.143 144.008 146.195C143.305 145.921 142.788 145.632 142.788 145.38C142.788 144.592 145.03 143.953 147.798 143.953C150.566 143.953 152.809 144.592 152.809 145.38Z" fill="#EBBF8D"/>
<path fill-rule="evenodd" clip-rule="evenodd" d="M184.567 115.717H194.205C195.111 115.717 195.845 116.453 195.845 117.362V118.911C195.845 119.819 195.111 120.555 194.205 120.555H186.186V124.462C186.186 129.35 185.657 133.203 183.079 136.116C180.351 139.199 175.715 140.634 168.489 140.634C158.235 140.634 150.792 133.833 150.792 124.462V122.974H144.805V124.462C144.805 133.833 137.362 140.634 127.107 140.634C119.881 140.634 115.245 139.199 112.517 136.116C109.939 133.203 109.41 129.35 109.41 124.462V120.555H101.392C100.485 120.555 99.751 119.819 99.751 118.911V117.362C99.751 116.453 100.485 115.717 101.391 115.717H111.03C111.383 115.264 111.809 114.849 112.333 114.474C114.859 112.669 119.109 112.352 127.107 112.352C135.106 112.352 139.357 112.669 141.882 114.474C143.225 115.433 143.946 116.655 144.339 118.136H151.258C151.65 116.655 152.372 115.433 153.714 114.474C156.24 112.669 160.491 112.352 168.489 112.352C176.486 112.352 180.738 112.669 183.264 114.474C183.787 114.849 184.213 115.264 184.567 115.717ZM127.107 135.796C114.835 135.796 114.237 131.701 114.237 124.462C114.237 120.811 114.276 119.029 115.135 118.414C116.715 117.285 122.143 117.19 127.107 117.19C132.072 117.19 137.5 117.285 139.08 118.414C139.939 119.029 139.977 120.811 139.977 124.462C139.977 131.136 134.686 135.796 127.107 135.796ZM168.489 135.796C160.911 135.796 155.618 131.136 155.618 124.462C155.618 120.811 155.656 119.029 156.516 118.414C158.097 117.285 163.525 117.19 168.489 117.19C173.453 117.19 178.881 117.285 180.461 118.414C181.321 119.029 181.359 120.811 181.359 124.462C181.359 131.701 180.761 135.796 168.489 135.796Z" fill="#282828"/>
<path fill-rule="evenodd" clip-rule="evenodd" d="M125.326 129.305C125.08 129.305 124.831 129.256 124.592 129.149C123.675 128.742 123.261 127.667 123.668 126.748C124.642 124.548 127.024 123.126 129.74 123.126C131.748 123.126 133.676 123.95 134.897 125.33C135.561 126.082 135.492 127.233 134.742 127.899C133.991 128.565 132.843 128.496 132.179 127.744C131.637 127.131 130.725 126.765 129.74 126.765C128.499 126.765 127.367 127.365 126.987 128.223C126.686 128.902 126.022 129.305 125.326 129.305Z" fill="#493426"/>
<path fill-rule="evenodd" clip-rule="evenodd" d="M170.27 129.305C169.574 129.305 168.91 128.902 168.609 128.224C168.229 127.365 167.097 126.765 165.856 126.765C164.885 126.765 163.951 127.141 163.417 127.744C162.753 128.496 161.606 128.565 160.854 127.899C160.103 127.233 160.034 126.083 160.699 125.331C161.919 123.95 163.847 123.126 165.856 123.126C168.57 123.126 170.953 124.548 171.927 126.748C172.334 127.666 171.921 128.741 171.005 129.149C170.766 129.256 170.516 129.305 170.27 129.305Z" fill="#493426"/>
<path fill-rule="evenodd" clip-rule="evenodd" d="M147.766 165.033C141.197 165.033 139.1 160.926 139.015 160.75C138.687 160.085 138.96 159.279 139.624 158.95C140.284 158.625 141.083 158.892 141.414 159.547C141.49 159.691 142.971 162.344 147.766 162.344C152.518 162.344 154.199 159.514 154.216 159.485C154.586 158.842 155.406 158.621 156.048 158.991C156.69 159.361 156.91 160.183 156.541 160.827C156.442 160.999 154.051 165.033 147.766 165.033Z" fill="#493426"/>
<path d="M238.571 245H58.0956C56.5412 245 55.2812 243.515 55.2812 241.681V232.675H241.386V241.681C241.386 243.515 240.125 245 238.571 245Z" fill="#C0C0C0"/>
<path d="M241.406 234.522H55.3952C52.8384 234.522 50.7656 232.444 50.7656 229.882V224.486C50.7656 221.923 52.8384 219.846 55.3952 219.846H241.406C243.963 219.846 246.036 221.923 246.036 224.486V229.882C246.036 232.444 243.963 234.522 241.406 234.522Z" fill="#E7E7E7"/>
<path d="M84.7831 186.614L80.0578 226.477L162.539 236.254L167.266 196.391L84.7863 186.613L84.7831 186.614Z" fill="#A6C5FA"/>
<path fill-rule="evenodd" clip-rule="evenodd" d="M80.051 226.481L84.7839 186.626L84.7871 186.626L167.272 196.387L162.538 236.242L162.535 236.242L80.051 226.481ZM86.7032 189.065L82.4869 224.557L160.619 233.803L164.835 198.31L86.7032 189.065Z" fill="#326AC8"/>
<path fill-rule="evenodd" clip-rule="evenodd" d="M99.9206 209.591C100.765 209.691 101.435 209.579 101.934 209.258C102.505 208.878 102.836 208.31 102.927 207.552C103.016 206.787 102.829 206.16 102.36 205.672C101.95 205.244 101.324 204.979 100.481 204.88L97.8101 204.564L96.9223 212.036L98.6748 212.243L99.0032 209.482L99.9206 209.591ZM100.07 206.205C100.439 206.247 100.712 206.348 100.89 206.509C101.107 206.71 101.195 206.989 101.153 207.342C101.11 207.703 100.959 207.957 100.701 208.101C100.49 208.215 100.201 208.251 99.8326 208.207L99.1515 208.126L99.3897 206.123L100.07 206.205Z" fill="#326AC8"/>
<path fill-rule="evenodd" clip-rule="evenodd" d="M107.443 213.283L109.346 213.509L107.423 205.693L105.607 205.479L101.908 212.628L103.724 212.844L104.432 211.401L107.092 211.715L107.443 213.283ZM106.243 207.508L106.853 210.304L104.994 210.084L106.243 207.508Z" fill="#326AC8"/>
<path d="M116.039 206.727L112.917 210.871L112.558 213.893L110.807 213.685L111.165 210.663L109.098 205.905L111.045 206.135L112.215 209.295L114.093 206.497L116.039 206.727Z" fill="#326AC8"/>
<path d="M121.615 214.068C120.88 214.668 119.942 214.901 118.803 214.766C117.679 214.633 116.787 214.174 116.128 213.389C115.468 212.604 115.208 211.624 115.347 210.447C115.486 209.27 115.971 208.378 116.799 207.769C117.628 207.161 118.601 206.922 119.718 207.055C120.381 207.134 120.919 207.294 121.332 207.538C121.746 207.781 122.028 208.002 122.179 208.203L121.468 209.591C121.376 209.434 121.154 209.238 120.802 209.007C120.449 208.775 120.061 208.634 119.635 208.583C118.986 208.506 118.427 208.648 117.956 209.01C117.486 209.371 117.209 209.91 117.124 210.625C117.04 211.333 117.188 211.917 117.568 212.38C117.949 212.842 118.454 213.11 119.089 213.186C119.918 213.285 120.619 213.1 121.193 212.633L121.615 214.068Z" fill="#326AC8"/>
<path d="M128.808 215.823L127.057 215.616L127.428 212.485L124.434 212.13L124.063 215.261L122.311 215.053L123.197 207.58L124.949 207.788L124.605 210.679L127.6 211.033L127.943 208.142L129.695 208.35L128.808 215.823Z" fill="#326AC8"/>
<path d="M135.102 216.571L130.172 215.987L131.059 208.514L135.891 209.086L135.725 210.482L132.634 210.116L132.452 211.643L135.372 211.99L135.206 213.387L132.287 213.041L132.082 214.774L135.271 215.153L135.102 216.571Z" fill="#326AC8"/>
<path d="M142.515 216.552C141.78 217.151 140.842 217.384 139.703 217.25C138.58 217.117 137.687 216.657 137.028 215.873C136.368 215.088 136.108 214.108 136.248 212.931C136.387 211.754 136.871 210.862 137.699 210.253C138.528 209.645 139.501 209.406 140.618 209.54C141.281 209.617 141.82 209.778 142.232 210.021C142.646 210.265 142.928 210.486 143.079 210.687L142.368 212.075C142.276 211.917 142.054 211.722 141.703 211.491C141.349 211.259 140.961 211.117 140.535 211.067C139.886 210.99 139.327 211.132 138.857 211.494C138.387 211.855 138.11 212.393 138.024 213.109C137.94 213.816 138.088 214.401 138.468 214.863C138.849 215.326 139.355 215.594 139.99 215.669C140.818 215.768 141.52 215.583 142.093 215.117L142.515 216.552Z" fill="#326AC8"/>
<path d="M149.515 218.284L147.418 218.035L145.917 214.693L145.244 215.285L144.952 217.742L143.212 217.536L144.098 210.064L145.839 210.269L145.515 212.999L148.141 210.543L150.216 210.789L147.236 213.455L149.515 218.284Z" fill="#326AC8"/>
<path fill-rule="evenodd" clip-rule="evenodd" d="M77.4375 191.869C63.7553 189.929 58.9578 198.964 57.3818 205.959C55.7579 213.159 56.8835 223.336 69.4464 227.323C76.2183 229.472 83.7389 231.077 87.7213 226.083C89.3924 223.988 88.8028 221.284 88.8028 221.284C88.8028 221.284 92.7828 218.902 93.8387 214.214C94.9563 209.257 92.1708 206.341 92.1708 206.341C92.1708 206.341 94.4027 203.813 93.7099 201.242C91.9548 194.735 84.7093 192.9 77.4375 191.869Z" fill="#9D7354"/>
<path fill-rule="evenodd" clip-rule="evenodd" d="M195.013 193.103C208.799 194.101 211.588 203.95 211.656 211.124C211.727 218.507 208.483 228.221 195.36 229.462C188.285 230.129 180.593 230.107 177.75 224.382C176.558 221.979 177.704 219.46 177.704 219.46C177.704 219.46 174.314 216.288 174.268 211.482C174.22 206.398 177.558 204.137 177.558 204.137C177.558 204.137 175.908 201.192 177.128 198.825C180.214 192.834 187.686 192.572 195.013 193.103Z" fill="#9D7354"/>
<path fill-rule="evenodd" clip-rule="evenodd" d="M177.615 204.134C177.615 204.134 168.975 207.641 168.801 199.265C168.562 187.64 196.166 193.21 196.166 193.21L177.615 204.134Z" fill="#9D7354"/>
</svg>
