<svg width="300" height="245" viewBox="0 0 300 245" fill="none" xmlns="http://www.w3.org/2000/svg">
<path d="M0 192.288C0 126.017 87.2222 71.3967 166.111 71.3967C245 71.3967 300 131.419 300 188.455C300 240.399 235.625 244.402 193.333 244.402H136.111C71.2637 244.402 0 246.617 0 192.288Z" fill="#EEEEEE"/>
<mask id="mask0" mask-type="alpha" maskUnits="userSpaceOnUse" x="0" y="54" width="300" height="191">
<path d="M136.111 244.402C71.2637 244.402 0 246.617 0 192.288C0 167.874 11.8375 145.041 30.7349 125.938V55.2663C37.8115 54.4334 300 55.2663 300 55.2663V188.455C300 240.399 235.625 244.402 193.333 244.402H136.111Z" fill="#EEEEEE"/>
</mask>
<g mask="url(#mask0)">
<path d="M134.835 73.6636C123.362 61.0292 114.673 70.6991 108.238 75.5781C106.188 77.0692 104.199 77.0957 101.547 76.9369C100.973 75.6223 101.026 73.5753 101.777 72.2519C97.0571 71.4314 91.4974 74.6429 91.4974 74.6429C90.9229 72.7195 91.5858 70.0109 92.3725 67.364C80.7227 68.2375 77.9561 75.5781 71.592 75.5781H69.8772C63.4513 70.6991 54.7537 61.0292 43.2807 73.6636C38.1807 79.2838 37.3675 88.1773 49.4062 94.715C45.2165 110.27 42.6532 143.956 42.6532 143.956C42.6532 143.956 53.1009 162.881 89.0667 162.881C125.032 162.881 135.48 143.956 135.48 143.956C135.48 143.956 132.917 110.27 128.727 94.715C140.757 88.1773 139.944 79.2838 134.835 73.6636Z" fill="#9D7354"/>
<path fill-rule="evenodd" clip-rule="evenodd" d="M58.7313 81.1898C59.5179 80.4222 59.1997 79.0988 58.1479 78.7635C56.6188 78.2694 54.5239 78.0312 52.8357 79.4429C49.9188 81.8868 50.785 84.2778 51.775 85.663C52.2877 86.3865 53.3395 86.4659 53.9759 85.8483L58.7313 81.1898Z" fill="#493426"/>
<path fill-rule="evenodd" clip-rule="evenodd" d="M119.384 81.1897C118.598 80.4221 118.916 79.0986 119.968 78.7634C121.497 78.2693 123.592 78.0311 125.28 79.4427C128.197 81.8867 127.331 84.2777 126.341 85.6629C125.828 86.3864 124.776 86.4658 124.14 85.8482L119.384 81.1897Z" fill="#493426"/>
<path d="M102.785 142.103C102.785 152.955 96.6418 154.596 89.058 154.596C81.483 154.596 75.3311 152.849 75.3311 142.103C75.3311 130.183 81.4742 121.378 89.058 121.378C96.6418 121.378 102.785 130.183 102.785 142.103Z" fill="#EBBF8D"/>
<path d="M80.1393 94.0445C79.6266 95.1033 78.3538 95.5444 77.2931 95.0327L76.8423 94.8121C73.6868 93.2857 71.0175 93.224 67.6498 94.6003L67.1902 94.7856C66.103 95.2268 64.8567 94.7062 64.4147 93.621L64.0347 92.6946C63.5927 91.6094 64.1142 90.3654 65.2014 89.9242L65.661 89.7389C70.381 87.8155 74.6591 87.9302 79.1316 90.083L79.5824 90.3036C80.6431 90.8153 81.085 92.0858 80.5724 93.1446L80.1393 94.0445Z" fill="#493426"/>
<path d="M97.9498 93.965L97.5255 93.0562C97.0305 91.9887 97.499 90.727 98.5685 90.2329L99.0193 90.0211C103.527 87.9389 107.814 87.9036 112.499 89.9064L112.958 90.1005C114.037 90.5593 114.541 91.8122 114.081 92.8886L113.683 93.8062C113.224 94.8826 111.968 95.3855 110.89 94.9267L110.43 94.7326C107.08 93.3033 104.42 93.3209 101.229 94.7855L100.778 94.9973C99.7087 95.4913 98.4448 95.0237 97.9498 93.965Z" fill="#493426"/>
<path d="M97.7288 131.092C97.7288 132.265 95.6782 134.1 93.5656 135.671C90.8963 137.665 87.2281 137.665 84.5499 135.671C82.4374 134.1 80.3867 132.265 80.3867 131.092C80.3867 128.683 84.267 126.733 89.0578 126.733C93.8485 126.733 97.7288 128.683 97.7288 131.092Z" fill="#493426"/>
<path d="M93.76 130.324C93.76 130.563 93.2739 130.827 92.6198 131.083C90.3394 131.965 87.7937 131.965 85.5133 131.083C84.8592 130.827 84.373 130.563 84.373 130.324C84.373 129.592 86.4767 128.992 89.0665 128.992C91.6564 128.992 93.76 129.592 93.76 130.324Z" fill="#EBBF8D"/>
<path d="M132.555 102.638H123.521C123.194 102.215 122.788 101.826 122.301 101.482C119.933 99.797 115.946 99.4971 108.451 99.4971C100.955 99.4971 96.9689 99.797 94.6001 101.482C93.345 102.382 92.6644 103.52 92.2931 104.897H85.8053C85.4341 103.511 84.7623 102.373 83.5072 101.482C81.1383 99.797 77.1519 99.4971 69.6565 99.4971C62.161 99.4971 58.1746 99.797 55.8058 101.482C55.3108 101.835 54.9131 102.223 54.586 102.638H45.5614C44.7129 102.638 44.0234 103.326 44.0234 104.173V105.62C44.0234 106.467 44.7129 107.155 45.5614 107.155H53.0746V110.799C53.0746 115.361 53.5695 118.96 55.9826 121.678C58.537 124.554 62.8858 125.895 69.6565 125.895C79.2645 125.895 86.2473 119.543 86.2473 110.799V109.414H91.86V110.799C91.86 119.543 98.834 125.895 108.451 125.895C115.221 125.895 119.57 124.554 122.125 121.678C124.538 118.96 125.033 115.361 125.033 110.799V107.155H132.546C133.394 107.155 134.084 106.467 134.084 105.62V104.173C134.093 103.326 133.403 102.638 132.555 102.638ZM69.6653 121.378C58.1658 121.378 57.6001 117.558 57.6001 110.799C57.6001 107.394 57.6355 105.726 58.4398 105.153C59.9248 104.103 65.0072 104.014 69.6653 104.014C74.3146 104.014 79.4059 104.103 80.8908 105.153C81.6952 105.726 81.7305 107.394 81.7305 110.799C81.7305 117.028 76.7719 121.378 69.6653 121.378ZM108.451 121.378C101.344 121.378 96.3856 117.028 96.3856 110.799C96.3856 107.394 96.4209 105.726 97.2253 105.153C98.7102 104.103 103.793 104.014 108.451 104.014C113.1 104.014 118.191 104.103 119.676 105.153C120.481 105.726 120.516 107.394 120.516 110.799C120.516 117.558 119.959 121.378 108.451 121.378Z" fill="#282828"/>
<path d="M67.9944 115.325C67.7646 115.325 67.526 115.281 67.305 115.175C66.4476 114.796 66.0587 113.79 66.4388 112.934C67.3492 110.879 69.5854 109.555 72.1311 109.555C74.0138 109.555 75.8258 110.323 76.966 111.611C77.5847 112.317 77.5228 113.384 76.8246 114.011C76.1174 114.637 75.0479 114.567 74.4204 113.87C73.9165 113.296 73.0592 112.952 72.1311 112.952C70.9643 112.952 69.9036 113.508 69.5501 114.311C69.2761 114.946 68.6485 115.325 67.9944 115.325Z" fill="#493426"/>
<path d="M110.121 115.325C109.467 115.325 108.848 114.946 108.565 114.32C108.212 113.517 107.151 112.961 105.984 112.961C105.074 112.961 104.199 113.314 103.695 113.87C103.076 114.575 101.998 114.637 101.291 114.011C100.584 113.393 100.522 112.317 101.149 111.611C102.29 110.323 104.102 109.555 105.984 109.555C108.53 109.555 110.766 110.879 111.677 112.934C112.057 113.79 111.668 114.796 110.81 115.175C110.59 115.272 110.351 115.325 110.121 115.325Z" fill="#493426"/>
<path d="M89.0315 148.676C82.8707 148.676 80.9085 144.838 80.8289 144.679C80.5196 144.062 80.7759 143.303 81.4035 143.003C82.0222 142.694 82.7735 142.95 83.0829 143.559C83.1536 143.691 84.5413 146.17 89.0403 146.17C93.4952 146.17 95.0685 143.523 95.0862 143.497C95.4309 142.897 96.1999 142.685 96.801 143.038C97.402 143.382 97.6053 144.15 97.2606 144.75C97.1634 144.909 94.9183 148.676 89.0315 148.676Z" fill="#493426"/>
<path d="M148.482 215.986C146.838 226.864 123.371 235.114 89.0579 235.114C54.7361 235.114 31.2686 226.864 29.6246 215.986C29.0147 211.963 37.3322 170.248 40.9738 152.276C41.9903 147.264 42.6444 144.106 42.6444 144.106C42.6444 144.106 56.1592 160.56 89.0491 160.613C121.939 160.551 135.454 144.106 135.454 144.106C135.454 144.106 149.26 210.842 148.482 215.986Z" fill="white"/>
<path d="M89.0581 160.622L92.4876 170.248L98.2683 177.589C127.189 167.028 137.133 152.285 137.133 152.285L135.472 143.973C135.472 143.965 117.776 160.622 89.0581 160.622Z" fill="#DADADA"/>
<path d="M89.0581 160.622L85.6286 170.248L79.8479 177.589C50.9268 167.028 40.9829 152.285 40.9829 152.285L42.6446 143.973C42.6446 143.965 60.3403 160.622 89.0581 160.622Z" fill="#DADADA"/>
<path d="M92.4874 170.248L95.9876 160.604L89.0579 160.622L82.1281 160.604L85.6283 170.248L78.124 207.86L89.0579 217.345L99.9917 207.86L92.4874 170.248Z" fill="#282828"/>
<path d="M89.0581 160.622L78.9729 171.351C59.3326 165.651 40.9829 152.285 40.9829 152.285L42.6358 144.115C42.6358 144.115 60.3403 160.622 89.0581 160.622Z" fill="white"/>
<path d="M89.0581 160.622L99.1434 171.351C118.784 165.651 137.133 152.285 137.133 152.285L135.48 144.115C135.48 144.115 117.776 160.622 89.0581 160.622Z" fill="white"/>
<path d="M40.9828 152.285C40.9828 152.285 11.8054 170.345 12.9633 192.358C13.9002 210.251 31.7549 212.104 31.7549 212.104L40.9828 152.285Z" fill="white"/>
<path d="M137.133 152.285C137.133 152.285 166.311 170.345 165.153 192.358C164.216 210.251 147.961 217.883 147.961 217.883L137.133 152.285Z" fill="white"/>
<path d="M114.851 216.273H147.272C142.667 207.477 134.703 202.747 127.579 202.659C123.822 202.615 120.295 203.709 117.617 205.888C112.287 210.229 112.004 216.273 114.851 216.273Z" fill="#9D7354"/>
<path d="M31.543 159.246C31.543 159.246 28.6261 148.058 37.8717 147.661C51.6782 147.07 44.0678 176.574 44.0678 176.574L31.543 159.246Z" fill="#9D7354"/>
<path d="M5.97186 180.429C8.62355 194.749 19.2568 196.531 26.7788 195.764C34.5129 194.978 44.3065 190.452 44.0767 176.565C43.9529 169.074 43.0337 161.028 36.705 158.716C34.0533 157.746 31.5519 159.237 31.5519 159.237C31.5519 159.237 27.8395 156.052 22.8013 156.563C17.4714 157.102 15.4914 160.86 15.4914 160.86C15.4914 160.86 12.221 159.475 9.87868 161.028C3.96541 164.963 4.55762 172.824 5.97186 180.429Z" fill="#9D7354"/>
<path d="M19.2395 165.51C19.5223 168.254 21.7232 170.283 24.1539 170.036C26.5935 169.789 28.3436 167.363 28.0608 164.619C27.7779 161.875 25.577 159.846 23.1463 160.093C20.7067 160.34 18.9566 162.766 19.2395 165.51Z" fill="#493426"/>
<path d="M16.2255 167.098C17.0917 169.233 16.252 171.589 14.3604 172.356C12.46 173.124 10.2238 172.012 9.35757 169.868C8.49135 167.733 9.33105 165.378 11.2226 164.61C13.123 163.842 15.3592 164.954 16.2255 167.098Z" fill="#493426"/>
<path d="M25.7208 185.426C32.7339 184.715 38.1338 181.333 37.7818 177.872C37.4297 174.41 31.4591 172.18 24.446 172.891C17.4328 173.602 12.0329 176.984 12.385 180.445C12.737 183.907 18.7077 186.137 25.7208 185.426Z" fill="#493426"/>
<path d="M31.3312 165.563C30.9157 167.83 32.2062 169.965 34.2215 170.336C36.2368 170.707 38.2079 169.163 38.6233 166.904C39.0388 164.636 37.7483 162.501 35.733 162.131C33.7265 161.76 31.7554 163.295 31.3312 165.563Z" fill="#493426"/>
<path d="M300 217.131H0V243.75H300V217.131Z" fill="#11893E"/>
<path d="M237.28 163.532H219.199C217.544 163.532 216.164 164.981 215.996 166.889L211.447 218.073H245.024L240.475 166.889C240.315 164.981 238.926 163.532 237.28 163.532Z" fill="#B0B0B0"/>
<path d="M252.847 215.414H203.632C202.154 215.414 200.968 216.606 200.968 218.073C200.968 219.548 202.163 220.732 203.632 220.732H252.847C254.325 220.732 255.511 219.539 255.511 218.073C255.511 216.606 254.316 215.414 252.847 215.414Z" fill="#808080"/>
<path d="M280.618 203.7H175.852C171.525 203.7 168.011 200.202 168.011 195.873V131.191C168.011 126.872 171.516 123.365 175.852 123.365H280.609C284.937 123.365 288.451 126.863 288.451 131.191V195.873C288.451 200.193 284.946 203.7 280.618 203.7Z" fill="#808080"/>
<path d="M223.802 193.559C223.492 194.698 223.271 196.695 223.147 197.949C223.067 198.806 223.501 199.636 224.271 200.052C225.076 200.485 226.342 200.891 228.244 200.891C230.147 200.891 231.413 200.485 232.209 200.052C232.97 199.645 233.413 198.815 233.333 197.949C233.209 196.695 232.979 194.698 232.678 193.559C234.023 192.826 233.935 191.836 233.36 191.209C232.076 189.796 231.103 190.882 230.386 191.421C230.386 191.421 230.067 191.677 228.244 191.677C226.439 191.677 226.103 191.421 226.103 191.421C225.386 190.882 224.412 189.796 223.129 191.209C222.554 191.836 222.456 192.826 223.802 193.559Z" fill="white"/>
<path d="M288.451 131.192H168.02V188.055H288.451V131.192Z" fill="#0C622C"/>
<path d="M186.897 170.785H269.573" stroke="#083B1B" stroke-width="9.63423" stroke-miterlimit="10" stroke-linecap="round" stroke-linejoin="round"/>
<path d="M186.897 170.785H248.599" stroke="#44D95E" stroke-width="9.63423" stroke-miterlimit="10" stroke-linecap="round" stroke-linejoin="round"/>
<path d="M199.88 153.391V155.494H192.809V143.983H195.065V153.391H199.88Z" fill="white"/>
<path d="M212.128 149.724C212.128 153.179 209.659 155.714 206.163 155.714C202.65 155.714 200.181 153.179 200.181 149.724C200.181 146.288 202.65 143.77 206.163 143.77C209.659 143.762 212.128 146.279 212.128 149.724ZM202.517 149.724C202.517 151.959 203.951 153.611 206.163 153.611C208.358 153.611 209.792 151.968 209.792 149.724C209.792 147.507 208.358 145.873 206.163 145.873C203.951 145.873 202.517 147.498 202.517 149.724Z" fill="white"/>
<path d="M221.119 155.502L220.164 152.949H215.553L214.597 155.502H212.154L216.624 143.982H219.093L223.58 155.502H221.119ZM216.27 150.97H219.438L218.066 147.348L217.854 146.703L217.641 147.348L216.27 150.97Z" fill="white"/>
<path d="M235.236 149.742C235.236 153.152 232.908 155.502 229.271 155.502H224.952V143.982H229.271C232.908 143.982 235.236 146.332 235.236 149.742ZM227.209 153.391H229.271C231.563 153.391 232.899 152.057 232.899 149.742C232.899 147.419 231.581 146.085 229.271 146.085H227.209V153.391Z" fill="white"/>
<path d="M237.005 155.502V143.982H239.262V155.502H237.005Z" fill="white"/>
<path d="M249.024 155.502L244.263 148.523L243.82 147.763V155.493H241.563V143.982H243.803L248.537 150.979L249.015 151.783V143.982H251.272V155.502H249.024Z" fill="white"/>
<path d="M264.077 147.684H261.608C261.183 146.553 260.342 145.873 258.741 145.873C256.749 145.873 255.36 147.498 255.36 149.724C255.36 151.959 256.74 153.611 258.838 153.611C260.519 153.611 261.626 152.834 261.758 151.394H258.988V149.292H264.166V150.299C264.166 153.753 262.006 155.731 258.838 155.731C255.413 155.731 253.015 153.196 253.015 149.742C253.015 146.306 255.404 143.788 258.785 143.788C261.705 143.762 263.449 145.378 264.077 147.684Z" fill="white"/>
<path opacity="0.45" d="M168.02 181.474L288.451 147.296V131.192H168.02V181.474Z" fill="white"/>
</g>
<path d="M156.271 221.584H74.8827C73.4066 221.584 72.2222 220.393 72.2222 218.928C72.2222 217.455 73.4154 216.273 74.8827 216.273H156.271C157.747 216.273 158.932 217.464 158.932 218.928C158.941 220.393 157.747 221.584 156.271 221.584Z" fill="#B0B0B0"/>
</svg>
