<svg width="300" height="245" viewBox="0 0 300 245" fill="none" xmlns="http://www.w3.org/2000/svg">
<path d="M0 190.624C0 122.2 71.1111 22.7777 172.778 54.4444C274.444 86.1111 300 127.778 300 186.667C300 240.298 235.625 244.431 193.333 244.431H136.111C71.2637 244.431 0 246.718 0 190.624Z" fill="#EDF3FE"/>
<path fill-rule="evenodd" clip-rule="evenodd" d="M66.7126 85.4159C66.109 85.2436 65.6327 84.7311 65.5379 84.0695L59.4828 41.9302C59.3536 41.032 59.9766 40.2008 60.8739 40.0714C61.7727 39.9433 62.6034 40.5652 62.7328 41.4626L68.7877 83.6027C68.9171 84.5001 68.2939 85.3321 67.3965 85.4616C67.1601 85.4951 66.9283 85.4775 66.7126 85.4159Z" fill="#DADADA"/>
<path fill-rule="evenodd" clip-rule="evenodd" d="M66.7111 85.4156C66.4954 85.354 66.2892 85.2465 66.1062 85.0932C65.4125 84.5095 65.3226 83.4738 65.9064 82.7801L93.2995 50.1911C93.8832 49.4974 94.9178 49.4081 95.6126 49.9912C96.3063 50.575 96.3965 51.6099 95.8125 52.3044L68.4196 84.8925C67.9897 85.4043 67.3147 85.588 66.7111 85.4156Z" fill="#DADADA"/>
<path fill-rule="evenodd" clip-rule="evenodd" d="M66.7119 85.4148C66.3078 85.2994 65.9487 85.0298 65.7282 84.6344L40.2343 38.7936C39.7933 38.0001 40.0784 37.0017 40.8711 36.5605C41.6645 36.1195 42.6627 36.4055 43.1042 37.1973L68.5972 83.0378C69.0382 83.8313 68.7529 84.8306 67.9605 85.2709C67.5643 85.4911 67.1169 85.5305 66.7119 85.4148Z" fill="#DADADA"/>
<path fill-rule="evenodd" clip-rule="evenodd" d="M66.7118 85.4149C66.3068 85.2992 65.9477 85.0296 65.7275 84.6334C65.2871 83.841 65.5725 82.8417 66.3659 82.4007L112.22 56.9336C113.013 56.4943 114.012 56.7786 114.453 57.5721C114.893 58.3653 114.608 59.3637 113.814 59.8047L67.9593 85.2716C67.5633 85.4909 67.1159 85.5303 66.7118 85.4149Z" fill="#DADADA"/>
<mask id="mask0" mask-type="alpha" maskUnits="userSpaceOnUse" x="39" y="9" width="77" height="51">
<path fill-rule="evenodd" clip-rule="evenodd" d="M87.5879 11.3986C67.09 5.68587 45.7952 17.5876 39.944 38.0782L114.44 59.3508C120.291 38.8602 108.492 17.5084 88.0685 11.5359L87.5879 11.3986Z" fill="white"/>
</mask>
<g mask="url(#mask0)">
<path d="M114.44 59.3512C120.314 38.78 108.399 17.3409 87.8282 11.4668C67.2561 5.59233 45.8179 17.5073 39.9438 38.0786L114.44 59.3512Z" fill="#C0C0C0"/>
</g>
<mask id="mask1" mask-type="alpha" maskUnits="userSpaceOnUse" x="39" y="9" width="77" height="51">
<path fill-rule="evenodd" clip-rule="evenodd" d="M87.5879 11.3986C67.09 5.68587 45.7952 17.5876 39.944 38.0782L114.44 59.3508C120.291 38.8602 108.492 17.5084 88.0685 11.5359" fill="white"/>
</mask>
<g mask="url(#mask1)">
<path fill-rule="evenodd" clip-rule="evenodd" d="M51.7092 32.8611C51.4154 32.7773 51.1333 32.6398 50.874 32.4482C49.7193 31.5914 49.4768 29.9612 50.3325 28.8071C58.5758 17.6896 73.0577 12.774 86.37 16.5754C87.7522 16.9701 88.5526 18.4116 88.1579 19.7938C87.7633 21.176 86.3226 21.9766 84.9404 21.5819C73.7005 18.3724 61.474 22.5216 54.5149 31.9076C53.8505 32.8032 52.7203 33.1499 51.7092 32.8611Z" fill="white"/>
</g>
<mask id="mask2" mask-type="alpha" maskUnits="userSpaceOnUse" x="39" y="9" width="77" height="51">
<path fill-rule="evenodd" clip-rule="evenodd" d="M87.5879 11.3986C67.09 5.68587 45.7952 17.5876 39.944 38.0782L114.44 59.3508C120.291 38.8602 108.492 17.5084 88.0685 11.5359L87.5879 11.3986Z" fill="white"/>
</mask>
<g mask="url(#mask2)">
<path fill-rule="evenodd" clip-rule="evenodd" d="M92.0204 38.2468C91.209 41.0884 86.92 40.04 87.4965 37.9825C87.9954 36.2031 89.9843 36.5121 92.1298 37.8639L92.0204 38.2468ZM96.3916 31.6121C95.4691 30.4277 94.178 29.5916 92.5548 29.1281C90.6445 28.5826 89.2431 28.5415 88.2361 28.5661C85.9162 28.6226 85.7511 32.0207 88.3982 32.1531C90.6743 32.2695 93.5864 32.8018 92.9011 35.2019L92.856 35.3598C92.2369 34.9746 90.9156 34.2575 89.2436 33.9454C86.3177 33.4 84.0099 34.5105 83.3633 36.7747C82.5907 39.4805 83.9438 41.7584 86.81 42.5769C88.8654 43.1638 90.2951 42.6171 91.0396 42.2255C91.0644 42.5246 91.1524 42.8178 91.3024 43.0866C91.5802 43.5864 92.036 43.9489 92.5861 44.106L92.66 44.1271C93.7959 44.4514 94.9836 43.7907 95.3078 42.6555L96.9818 36.7932C96.9934 36.7524 97.0076 36.706 97.0232 36.6544C97.2738 35.8188 97.9393 33.5976 96.3916 31.6121Z" fill="white"/>
</g>
<mask id="mask3" mask-type="alpha" maskUnits="userSpaceOnUse" x="39" y="9" width="77" height="51">
<path fill-rule="evenodd" clip-rule="evenodd" d="M87.5879 11.3986C67.09 5.68587 45.7952 17.5876 39.944 38.0782L114.44 59.3508C120.291 38.8602 108.492 17.5084 88.0685 11.5359" fill="white"/>
</mask>
<g mask="url(#mask3)">
<path fill-rule="evenodd" clip-rule="evenodd" d="M74.7806 35.5075L73.6744 35.1916L75.7346 27.9768L76.8408 28.2927C79.2231 28.973 79.9837 30.9366 79.4147 32.9292C78.8457 34.9218 77.1391 36.181 74.7806 35.5075ZM78.5406 25.3632L74.6581 24.2546C73.5077 23.9261 72.3039 24.5951 71.9754 25.7455L69.3038 35.1015C68.9753 36.2519 69.6443 37.4557 70.7947 37.7842L74.7841 38.9234C76.6129 39.4456 78.5304 39.2164 80.1848 38.2784C81.8389 37.3413 83.0201 35.8127 83.512 33.9744C84.4985 30.2912 82.2686 26.4278 78.5406 25.3632Z" fill="white"/>
</g>
<mask id="mask4" mask-type="alpha" maskUnits="userSpaceOnUse" x="39" y="9" width="77" height="51">
<path fill-rule="evenodd" clip-rule="evenodd" d="M87.5879 11.3986C67.09 5.68587 45.7952 17.5876 39.944 38.0782L114.44 59.3508C120.291 38.8602 108.492 17.5084 88.0685 11.5359" fill="white"/>
</mask>
<g mask="url(#mask4)">
<path fill-rule="evenodd" clip-rule="evenodd" d="M107.842 34.9886L103.301 41.2865L102.77 33.5403C102.707 32.6252 102.078 31.8478 101.197 31.5961C99.6705 31.1602 98.2068 32.4529 98.4494 34.0217L100.163 45.0733C100.294 45.9133 100.9 46.6006 101.717 46.8338C102.535 47.0673 103.412 46.8038 103.966 46.1594L111.257 37.679C112.293 36.4752 111.731 34.6042 110.204 34.1681C109.323 33.9165 108.379 34.2447 107.842 34.9886Z" fill="white"/>
</g>
<mask id="mask5" mask-type="alpha" maskUnits="userSpaceOnUse" x="39" y="9" width="77" height="51">
<path fill-rule="evenodd" clip-rule="evenodd" d="M87.5879 11.3986C67.09 5.68587 45.7952 17.5876 39.944 38.0782L114.44 59.3508C120.291 38.8602 108.492 17.5084 88.0685 11.5359" fill="white"/>
</mask>
<g mask="url(#mask5)">
<path fill-rule="evenodd" clip-rule="evenodd" d="M117.683 39.8359C119.836 40.4505 119.652 42.5624 119.498 43.1023L114.573 41.696C114.957 40.3529 116.418 39.4747 117.683 39.8359ZM116.061 47.2932C114.908 46.964 113.634 45.7077 113.835 44.2932L120.57 46.2164C121.181 46.3907 121.846 46.3365 122.393 46.0153C122.94 45.6947 123.314 45.1772 123.447 44.5624C123.458 44.505 123.468 44.4553 123.472 44.4199C123.985 40.8823 121.924 37.5152 118.678 36.5884C115.055 35.5539 111.215 37.841 110.117 41.6869C109.018 45.5337 111.071 49.5055 114.694 50.54C116.795 51.14 118.527 50.9376 119.793 50.536C120.95 50.1703 121.367 48.7495 120.601 47.8083C120.136 47.2373 119.359 47.0322 118.666 47.2832C117.832 47.584 117.112 47.5933 116.061 47.2932Z" fill="white"/>
</g>
<path d="M33.0025 65.5584L16.814 97.7922L83.6371 131.353L99.8271 99.12L33.0053 65.5591L33.0025 65.5584Z" fill="#DADADA"/>
<path fill-rule="evenodd" clip-rule="evenodd" d="M34.3849 87.6495C35.2229 88.0701 35.9587 88.2063 36.5952 88.0617C37.3292 87.8831 37.885 87.4195 38.2619 86.6698C38.6409 85.9115 38.6811 85.1927 38.3785 84.5115C38.1142 83.9144 37.5644 83.4054 36.728 82.9861L34.0796 81.6555L30.3637 89.0532L32.1017 89.9261L33.4753 87.1921L34.3849 87.6495ZM35.8074 84.2024C36.1737 84.3851 36.4185 84.5922 36.5423 84.8255C36.6921 85.1153 36.6788 85.4364 36.5038 85.7864C36.3243 86.1435 36.0725 86.3491 35.7513 86.402C35.4902 86.4399 35.1771 86.3686 34.8119 86.1853L34.1364 85.8459L35.133 83.8624L35.8074 84.2024Z" fill="white"/>
<path fill-rule="evenodd" clip-rule="evenodd" d="M40.7982 94.2934L42.6856 95.2415L43.6185 86.4327L41.8174 85.5287L35.3089 91.5364L37.1098 92.4412L38.3838 91.2145L41.0219 92.5388L40.7982 94.2934ZM41.7169 87.8672L41.3029 90.9894L39.4592 90.063L41.7169 87.8672Z" fill="white"/>
<path d="M52.1631 90.7372L47.3767 93.8511L45.8737 96.843L44.1366 95.9703L45.6396 92.9784L45.2783 87.2795L47.2094 88.2494L47.2398 91.9571L50.2327 89.7684L52.1631 90.7372Z" fill="white"/>
<path d="M55.1952 100.424C54.2084 100.768 53.1492 100.657 52.0195 100.09C50.9045 99.5298 50.1523 98.7198 49.7627 97.6608C49.3724 96.6008 49.4702 95.4892 50.0546 94.3239C50.64 93.1589 51.4763 92.4178 52.5622 92.0993C53.6489 91.7811 54.7462 91.8998 55.8538 92.4564C56.5115 92.7868 57.009 93.1547 57.346 93.5618C57.6838 93.9691 57.8933 94.3037 57.9749 94.5684L56.7181 95.7367C56.6816 95.5396 56.5252 95.2545 56.2467 94.8828C55.9675 94.51 55.6184 94.218 55.1958 94.0059C54.5527 93.6828 53.9196 93.6193 53.2963 93.8171C52.6739 94.0144 52.1853 94.4674 51.8298 95.1752C51.4778 95.8756 51.412 96.5363 51.6332 97.1573C51.8544 97.7782 52.2781 98.2459 52.9075 98.5621C53.7298 98.976 54.5252 99.048 55.2948 98.781L55.1952 100.424Z" fill="white"/>
<path d="M61.9946 104.939L60.2573 104.067L61.8143 100.968L58.8441 99.4767L57.2882 102.575L55.5503 101.702L59.2661 94.3047L61.0032 95.1774L59.5652 98.0391L62.5354 99.5304L63.9734 96.6687L65.7105 97.5414L61.9946 104.939Z" fill="white"/>
<path d="M68.238 108.075L63.3481 105.619L67.064 98.2217L71.8571 100.628L71.1624 102.01L68.0961 100.471L67.3366 101.982L70.2323 103.437L69.5374 104.82L66.6414 103.366L65.7805 105.082L68.9436 106.671L68.238 108.075Z" fill="white"/>
<path d="M75.9291 110.838C74.9424 111.181 73.8832 111.07 72.7535 110.504C71.6394 109.944 70.8863 109.134 70.4967 108.075C70.1073 107.015 70.2042 105.903 70.7895 104.738C71.3748 103.573 72.2103 102.832 73.2962 102.513C74.3829 102.195 75.4801 102.314 76.5876 102.871C77.2455 103.201 77.7439 103.569 78.08 103.976C78.4178 104.383 78.6273 104.718 78.7089 104.982L77.4521 106.151C77.4165 105.954 77.2592 105.668 76.9815 105.297C76.7015 104.924 76.3524 104.632 75.9298 104.42C75.2867 104.097 74.6545 104.033 74.0311 104.231C73.4088 104.428 72.9202 104.881 72.5638 105.589C72.2118 106.289 72.146 106.95 72.3672 107.571C72.5884 108.192 73.0129 108.66 73.6423 108.976C74.4638 109.39 75.26 109.462 76.0288 109.195L75.9291 110.838Z" fill="white"/>
<path d="M82.5359 115.256L80.4563 114.211L80.1518 110.191L79.2331 110.55L78.0106 112.983L76.2846 112.117L79.9996 104.719L81.7264 105.585L80.3699 108.287L84.0096 106.732L86.0683 107.767L81.9822 109.406L82.5359 115.256Z" fill="white"/>
<mask id="mask6" mask-type="alpha" maskUnits="userSpaceOnUse" x="0" y="0" width="300" height="245">
<path d="M136.111 244.431C71.2637 244.431 0 246.718 0 190.624C0 134.793 47.3437 58.3254 120 49.2709C136.389 47.2285 143.889 0 143.889 0H300C300 0 275.925 104.538 289.385 132.778C297.104 148.973 300 166.844 300 186.667C300 240.298 235.625 244.431 193.333 244.431H136.111Z" fill="#EDF3FE"/>
</mask>
<g mask="url(#mask6)">
<path d="M0 244.444H300V151.111H0V244.444Z" fill="#C9DCFC"/>
<path d="M0 214.444H300V171.111H0V214.444Z" fill="#C0C0C0"/>
<path fill-rule="evenodd" clip-rule="evenodd" d="M-4.31194 150.209C-10.2063 154.36 -15.2487 159.638 -19.1319 165.733C-24.6039 174.31 -27.7759 184.496 -27.7759 195.42C-27.7759 207.277 -24.0471 218.254 -17.6967 227.254C-13.5391 233.148 -8.26154 238.191 -2.17194 242.067C6.40485 247.539 16.5913 250.711 27.5153 250.711C38.4393 250.711 48.6257 247.539 57.2025 242.067C63.2985 238.191 68.5761 233.142 72.7265 227.246C79.0777 218.247 82.8057 207.27 82.8057 195.42C82.8057 184.496 79.6337 174.31 74.1681 165.733C70.2857 159.638 65.2361 154.36 59.3417 150.209C50.3425 143.858 39.3649 140.13 27.5153 140.13C15.6657 140.13 4.68806 143.858 -4.31194 150.209ZM27.5152 226.563C23.3168 226.563 19.3136 225.731 15.6656 224.23C8.83198 221.413 3.21918 216.236 -0.160828 209.718C-2.37363 205.439 -3.62723 200.57 -3.62723 195.42C-3.62723 191.229 -2.79603 187.226 -1.29362 183.571C1.52238 176.738 6.69917 171.118 13.2248 167.746C17.5024 165.532 22.3648 164.278 27.5152 164.278C32.672 164.278 37.5272 165.532 41.8056 167.746C48.3368 171.118 53.5144 176.738 56.324 183.578C57.8256 187.233 58.6576 191.229 58.6576 195.42C58.6576 200.57 57.4032 205.433 55.1904 209.711C51.8168 216.236 46.2048 221.413 39.3648 224.23C35.7096 225.731 31.7128 226.563 27.5152 226.563Z" fill="#FF9090"/>
<path d="M56.3241 183.577L74.1689 165.732C70.2857 159.637 65.2361 154.36 59.3417 150.208L41.8057 167.745C48.3369 171.118 53.5145 176.737 56.3241 183.577Z" fill="#DADADA"/>
<path d="M39.3642 224.23L57.2018 242.067C63.2978 238.191 68.5754 233.142 72.7266 227.246L55.1906 209.711C51.817 216.236 46.2042 221.413 39.3642 224.23Z" fill="#DADADA"/>
<path d="M-0.160385 209.718L-17.6964 227.254C-13.5388 233.148 -8.26118 238.192 -2.17238 242.068L15.666 224.23C8.83242 221.412 3.21961 216.236 -0.160385 209.718Z" fill="#DADADA"/>
<path d="M13.2246 167.745L-4.31139 150.208C-10.2066 154.36 -15.249 159.637 -19.1314 165.733L-1.29379 183.571C1.52221 176.737 6.69981 171.118 13.2246 167.745Z" fill="#DADADA"/>
<path fill-rule="evenodd" clip-rule="evenodd" d="M74.1612 198.766C76.0092 198.766 77.5068 197.268 77.5068 195.42C77.5068 167.854 55.0804 145.429 27.514 145.429C25.6668 145.429 24.1692 146.926 24.1692 148.774C24.1692 150.622 25.6668 152.119 27.514 152.119C51.3908 152.119 70.8156 171.544 70.8156 195.42C70.8156 197.268 72.314 198.766 74.1612 198.766Z" fill="white"/>
<path fill-rule="evenodd" clip-rule="evenodd" d="M247.55 175.147L242.322 121.231C242.322 121.231 246.854 119.451 246.854 119.442C246.854 119.442 249.204 109.902 247.142 105.629L281.985 91.5259C292.215 167.75 247.55 175.147 247.55 175.147Z" fill="#9D7354"/>
<path fill-rule="evenodd" clip-rule="evenodd" d="M252.932 155.014C251.983 158.759 247.747 161.977 241.106 164.553C241.106 194.94 190.081 194.94 190.081 194.94C180.94 194.94 173.358 192.992 167.081 189.73L167.056 189.721C134.711 172.905 136.837 121.221 136.753 121.161C138.896 103.151 139.955 81.9219 144.691 64.309C131.094 56.914 132.017 46.8405 137.778 40.4789C150.739 26.1872 160.559 37.1237 167.827 42.6475H169.759C176.95 42.6475 180.077 34.3365 193.241 33.3544C192.343 36.3442 191.606 39.4115 192.25 41.588C192.25 41.588 198.536 37.9544 203.865 38.8861C203.026 40.3858 202.966 42.698 203.61 44.189C206.601 44.3586 208.855 44.3412 211.176 42.6475C218.444 37.1237 228.263 26.1872 241.224 40.4789C246.985 46.8405 247.899 56.914 234.303 64.309C238.801 81.0233 240.354 103.609 242.319 121.204L252.932 155.014Z" fill="#9D7354"/>
<path fill-rule="evenodd" clip-rule="evenodd" d="M155.337 49.004C156.224 48.1332 155.861 46.6396 154.678 46.2568C152.952 45.6992 150.586 45.4278 148.673 47.0293C145.374 49.7938 146.356 52.4984 147.474 54.0729C148.057 54.8941 149.242 54.9854 149.961 54.2808L155.337 49.004Z" fill="#493426"/>
<path fill-rule="evenodd" clip-rule="evenodd" d="M223.862 49.004C222.974 48.1332 223.337 46.6396 224.52 46.2568C226.247 45.6992 228.612 45.4278 230.525 47.0293C233.825 49.7938 232.843 52.4984 231.725 54.0729C231.143 54.8941 229.956 54.9854 229.238 54.2808L223.862 49.004Z" fill="#493426"/>
<path fill-rule="evenodd" clip-rule="evenodd" d="M213.164 117.952C213.164 130.231 206.223 132.095 197.659 132.095C189.096 132.095 182.154 130.115 182.154 117.952C182.154 104.456 189.096 94.4929 197.659 94.4929C206.223 94.4929 213.164 104.456 213.164 117.952Z" fill="#EBBF8D"/>
<path fill-rule="evenodd" clip-rule="evenodd" d="M189.503 120.947C188.918 120.947 188.37 120.58 188.167 119.996C187.911 119.258 188.303 118.452 189.041 118.197C193.597 116.619 197.398 118.161 197.558 118.228C198.279 118.528 198.62 119.355 198.32 120.077C198.02 120.798 197.192 121.139 196.47 120.839C196.448 120.829 193.47 119.654 189.966 120.869C189.813 120.922 189.656 120.947 189.503 120.947Z" fill="#493426"/>
<path fill-rule="evenodd" clip-rule="evenodd" d="M207.454 105.481C207.454 106.806 205.133 108.884 202.75 110.665C199.73 112.923 195.587 112.923 192.568 110.665C190.185 108.884 187.863 106.806 187.863 105.481C187.863 102.757 192.249 100.548 197.659 100.548C203.068 100.548 207.454 102.757 207.454 105.481Z" fill="#493426"/>
<path fill-rule="evenodd" clip-rule="evenodd" d="M202.964 104.619C202.964 104.887 202.416 105.19 201.673 105.48C199.096 106.482 196.221 106.482 193.644 105.48C192.901 105.19 192.353 104.887 192.353 104.619C192.353 103.786 194.728 103.111 197.658 103.111C200.589 103.111 202.964 103.786 202.964 104.619Z" fill="#EBBF8D"/>
<path fill-rule="evenodd" clip-rule="evenodd" d="M251.528 162.223C245.105 146.302 245.05 124.66 246.854 119.443L242.319 121.204C242.319 121.204 224.47 160.058 189.499 160.066C154.528 160.058 136.68 121.204 136.68 121.204L129.25 125.533C131.054 130.751 131.944 136.181 131.944 141.603C131.944 148.651 130.436 155.691 127.471 162.223C121.456 175.438 118.212 189.967 121.693 197.981C124.565 204.589 130.529 207.113 146.438 207.732C146.54 207.732 146.642 207.74 146.743 207.74C146.743 207.74 146.989 207.765 147.438 207.792C147.522 207.8 147.599 207.808 147.683 207.808C149.717 207.96 154.808 208.273 160.848 208.316H189.499H240.381C240.381 208.316 252.932 208.316 257.306 197.981C260.711 189.934 256.96 175.688 251.528 162.223Z" fill="#EF9F00"/>
<mask id="mask7" mask-type="alpha" maskUnits="userSpaceOnUse" x="120" y="119" width="139" height="90">
<path fill-rule="evenodd" clip-rule="evenodd" d="M242.318 121.204C242.318 121.204 224.469 160.058 189.498 160.067C154.528 160.058 136.678 121.204 136.678 121.204L129.248 125.533C131.053 130.751 131.943 136.181 131.943 141.603C131.943 148.652 130.435 155.692 127.469 162.223C121.455 175.438 118.211 189.967 121.692 197.982C124.565 204.589 130.529 207.114 146.437 207.733C146.539 207.733 146.641 207.741 146.743 207.741C146.743 207.741 146.988 207.766 147.437 207.792C147.521 207.8 147.598 207.809 147.683 207.809C149.716 207.96 154.808 208.274 160.847 208.317H189.498H240.38C240.38 208.317 252.931 208.317 257.305 197.982C260.71 189.935 256.959 175.688 251.527 162.223C245.104 146.303 245.049 124.66 246.854 119.443L242.318 121.204Z" fill="white"/>
</mask>
<g mask="url(#mask7)">
<path d="M116.096 128.936H269.031V117.401H116.096V128.936Z" fill="#27539C"/>
<path d="M116.096 152.006H269.031V140.471H116.096V152.006Z" fill="#27539C"/>
<path fill-rule="evenodd" clip-rule="evenodd" d="M116.096 140.471H269.031V128.936H116.096V140.471Z" fill="white"/>
<path fill-rule="evenodd" clip-rule="evenodd" d="M116.096 163.541H269.031V152.006H116.096V163.541Z" fill="white"/>
<path d="M116.096 175.075H269.031V163.541H116.096V175.075Z" fill="#27539C"/>
<path fill-rule="evenodd" clip-rule="evenodd" d="M116.096 186.609H269.031V175.074H116.096V186.609Z" fill="white"/>
<path d="M116.096 198.144H269.031V186.609H116.096V198.144Z" fill="#27539C"/>
<path fill-rule="evenodd" clip-rule="evenodd" d="M116.096 209.678H269.031V198.144H116.096V209.678Z" fill="white"/>
</g>
<path fill-rule="evenodd" clip-rule="evenodd" d="M281.885 95.1789C281.597 109.506 271.575 112.922 264.168 113.38C256.546 113.85 246.338 111.015 244.348 97.4963C243.276 90.2074 242.883 82.2425 248.645 78.9926C251.062 77.6277 253.726 78.6794 253.726 78.6794C253.726 78.6794 256.819 74.9989 261.78 74.6927C267.03 74.3691 269.545 77.7025 269.545 77.7025C269.545 77.7025 272.497 75.8357 275.009 76.9709C281.363 79.8434 282.037 87.5646 281.885 95.1789Z" fill="#9D7354"/>
<path fill-rule="evenodd" clip-rule="evenodd" d="M266.646 82.8082C266.813 85.5188 265.002 87.8362 262.601 87.9841C260.199 88.1329 258.117 86.0556 257.949 83.3449C257.783 80.6343 259.594 78.3169 261.995 78.169C264.397 78.0203 266.479 80.0976 266.646 82.8082Z" fill="#493426"/>
<path fill-rule="evenodd" clip-rule="evenodd" d="M254.932 84.7809C255.698 86.9156 254.786 89.1965 252.894 89.875C251.003 90.5535 248.849 89.3739 248.083 87.2392C247.317 85.1045 248.229 82.8236 250.12 82.1451C252.011 81.4657 254.166 82.6461 254.932 84.7809Z" fill="#493426"/>
<path fill-rule="evenodd" clip-rule="evenodd" d="M269.818 83.8622C269.32 86.0744 270.506 88.2265 272.466 88.6667C274.426 89.1077 276.418 87.6715 276.917 85.4594C277.414 83.2463 276.229 81.0951 274.268 80.654C272.308 80.213 270.315 81.6501 269.818 83.8622Z" fill="#493426"/>
<path fill-rule="evenodd" clip-rule="evenodd" d="M275.668 96.2119C275.879 99.6271 270.448 102.742 263.537 103.169C256.628 103.595 250.855 101.172 250.644 97.7568C250.433 94.3416 255.864 91.2273 262.774 90.8002C269.685 90.374 275.458 92.7967 275.668 96.2119Z" fill="#493426"/>
<path fill-rule="evenodd" clip-rule="evenodd" d="M178.575 94.3663C178.575 139.001 162.473 163.576 145.275 172.379C129.721 180.356 113.271 175.449 107.043 160.836C107.034 160.827 107.034 160.818 107.034 160.818L106.999 160.731L106.486 159.426C106.295 158.921 106.121 158.4 105.955 157.869C98.9962 135.182 125.528 123.334 130.687 121.229C135.845 119.115 140.464 91.426 140.464 91.426L178.575 94.3663Z" fill="#9D7354"/>
<path fill-rule="evenodd" clip-rule="evenodd" d="M187.068 63.0635C186.474 64.2918 184.997 64.806 183.768 64.2118L183.246 63.9595C179.58 62.1867 176.488 62.1153 172.577 63.7116L172.04 63.9308C170.776 64.4467 169.334 63.8412 168.818 62.5773L168.381 61.5029C167.864 60.2398 168.47 58.7975 169.734 58.2817L170.271 58.0625C175.744 55.8286 180.711 55.9564 185.902 58.4661L186.424 58.7192C187.653 59.3125 188.168 60.7905 187.573 62.0188L187.068 63.0635Z" fill="#493426"/>
<path fill-rule="evenodd" clip-rule="evenodd" d="M207.733 61.1799L207.246 60.1265C206.672 58.8886 207.213 57.4194 208.451 56.847L208.978 56.6034C214.211 54.1833 219.18 54.1407 224.613 56.4677L225.146 56.6965C226.401 57.2341 226.982 58.6859 226.444 59.9403L225.988 61.0068C225.45 62.2612 223.998 62.8423 222.744 62.3047L222.211 62.0768C218.326 60.4136 215.236 60.4327 211.539 62.1412L211.012 62.3848C209.774 62.958 208.306 62.4178 207.733 61.1799Z" fill="#493426"/>
<path d="M213.081 75.1757H221.982V65.1483H213.081V75.1757Z" fill="#282828"/>
<path d="M232.01 75.1759C232.01 69.6381 227.52 65.1486 221.982 65.1486C216.444 65.1486 211.955 69.6381 211.955 75.1759C211.955 80.7137 216.444 85.2033 221.982 85.2033C227.52 85.2033 232.01 80.7137 232.01 75.1759Z" fill="#282828"/>
<path d="M223.108 75.1759C223.108 69.6381 218.619 65.1486 213.081 65.1486C207.543 65.1486 203.054 69.6381 203.054 75.1759C203.054 80.7137 207.543 85.2033 213.081 85.2033C218.619 85.2033 223.108 80.7137 223.108 75.1759Z" fill="#282828"/>
<path d="M215.607 87.6891H242.17V71.9221H215.607V87.6891Z" fill="#282828"/>
<path d="M178.926 85.2031C178.926 79.6096 174.392 75.0748 168.798 75.0748C163.205 75.0748 158.67 79.6096 158.67 85.2031C158.67 90.7966 163.205 95.3314 168.798 95.3314C174.392 95.3314 178.926 90.7966 178.926 85.2031Z" fill="#282828"/>
<path d="M235.136 103.88H249.205V66.5271H235.136V103.88Z" fill="#282828"/>
<path d="M254.371 85.203C254.371 74.8886 246.01 66.5271 235.695 66.5271C225.38 66.5271 217.019 74.8886 217.019 85.203C217.019 95.5175 225.38 103.88 235.695 103.88C246.01 103.88 254.371 95.5175 254.371 85.203Z" fill="#282828"/>
<path d="M189.088 103.88H203.157V66.5271H189.088V103.88Z" fill="#282828"/>
<path d="M207.765 85.203C207.765 74.8886 199.403 66.5271 189.088 66.5271C178.774 66.5271 170.412 74.8886 170.412 85.203C170.412 95.5175 178.774 103.88 189.088 103.88C199.403 103.88 207.765 95.5175 207.765 85.203Z" fill="#282828"/>
<path d="M268.336 85.203C268.336 74.8886 259.975 66.5271 249.66 66.5271C239.345 66.5271 230.983 74.8886 230.983 85.203C230.983 95.5175 239.345 103.88 249.66 103.88C259.975 103.88 268.336 95.5175 268.336 85.203Z" fill="#282828"/>
<path d="M263.625 85.2032C263.625 77.4907 257.373 71.2378 249.66 71.2378C241.947 71.2378 235.695 77.4907 235.695 85.2032C235.695 92.9158 241.947 99.1686 249.66 99.1686C257.373 99.1686 263.625 92.9158 263.625 85.2032Z" fill="#C9DCFC"/>
<path d="M168.798 95.3314H182.153V75.0748H168.798V95.3314Z" fill="#282828"/>
<path fill-rule="evenodd" clip-rule="evenodd" d="M240.445 87.0707C239.413 87.0707 238.577 86.2347 238.577 85.203C238.577 79.0346 243.596 74.017 249.763 74.017C250.795 74.017 251.631 74.8529 251.631 75.8846C251.631 76.9155 250.795 77.7523 249.763 77.7523C245.655 77.7523 242.313 81.0945 242.313 85.203C242.313 86.2347 241.477 87.0707 240.445 87.0707Z" fill="white"/>
<path d="M226.56 75.1759C226.56 72.648 224.511 70.5985 221.983 70.5985C219.455 70.5985 217.405 72.648 217.405 75.1759C217.405 77.7039 219.455 79.7534 221.983 79.7534C224.511 79.7534 226.56 77.7039 226.56 75.1759Z" fill="#808080"/>
<path d="M221.73 85.203C221.73 74.8886 213.368 66.5271 203.053 66.5271C192.738 66.5271 184.377 74.8886 184.377 85.203C184.377 95.5175 192.738 103.88 203.053 103.88C213.368 103.88 221.73 95.5175 221.73 85.203Z" fill="#282828"/>
<path d="M217.019 85.2032C217.019 77.4907 210.767 71.2378 203.053 71.2378C195.341 71.2378 189.089 77.4907 189.089 85.2032C189.089 92.9158 195.341 99.1686 203.053 99.1686C210.767 99.1686 217.019 92.9158 217.019 85.2032Z" fill="#C9DCFC"/>
<path fill-rule="evenodd" clip-rule="evenodd" d="M193.735 87.0707C192.703 87.0707 191.867 86.2347 191.867 85.203C191.867 79.0346 196.886 74.017 203.053 74.017C204.084 74.017 204.921 74.8529 204.921 75.8846C204.921 76.9155 204.084 77.7523 203.053 77.7523C198.945 77.7523 195.603 81.0945 195.603 85.203C195.603 86.2347 194.767 87.0707 193.735 87.0707Z" fill="white"/>
<path fill-rule="evenodd" clip-rule="evenodd" d="M180.9 104.961C179.619 120.607 168.431 123.666 160.301 123.666C151.935 123.666 140.964 119.877 139.702 104.961C139.021 96.9199 139.13 88.1852 145.648 85.0196C148.384 83.6913 151.225 85.0205 151.225 85.0205C151.225 85.0205 154.855 81.2051 160.301 81.2051C166.062 81.2051 168.588 85.0205 168.588 85.0205C168.588 85.0205 171.943 83.178 174.611 84.589C181.365 88.1591 181.58 96.6459 180.9 104.961Z" fill="#9D7354"/>
<path d="M189.959 21.0419L189.941 21.1306V21.0419C171.98 21.0419 161.47 27.5026 161.408 30.8152C161.278 37.7153 167.245 44.5319 167.245 44.5319H189.941H189.95H212.654C212.654 44.5319 218.624 36.5548 218.513 30.8013C218.45 27.4974 205.859 21.0419 189.959 21.0419Z" fill="white"/>
<path d="M212.654 44.5323C212.654 44.5323 204.511 39.5277 189.949 39.5277C175.392 39.5277 167.245 44.5323 167.245 44.5323C167.245 44.5323 166.575 53.0425 171.907 54.4605C178.153 56.1133 179.885 50.2623 189.958 50.2623C200.253 50.2623 201.745 56.1133 207.991 54.4605C213.324 53.0425 212.654 44.5323 212.654 44.5323Z" fill="#27539C"/>
<path d="M192.08 26.4575C192.08 27.7859 191.126 28.8628 189.949 28.8628C188.773 28.8637 187.818 27.7867 187.818 26.4575C187.817 25.1301 188.772 24.0522 189.949 24.0522C191.126 24.0522 192.08 25.1292 192.08 26.4575Z" fill="#27539C"/>
<path d="M193.597 27.0674C193.287 28.1331 193.801 29.2187 194.745 29.4927C195.689 29.7676 196.705 29.1256 197.015 28.0609C197.325 26.9952 196.81 25.9087 195.867 25.6347C194.923 25.3607 193.907 26.0018 193.597 27.0674Z" fill="#27539C"/>
<path d="M196.082 33.2728C196.082 34.9465 193.337 36.3044 189.95 36.3044C186.564 36.3053 183.818 34.9491 183.817 33.2745C183.817 31.6008 186.563 30.2438 189.949 30.2429C193.336 30.2429 196.082 31.5991 196.082 33.2728Z" fill="#27539C"/>
<path d="M186.302 27.0683C186.612 28.134 186.098 29.2196 185.155 29.4945C184.211 29.7685 183.194 29.1283 182.884 28.0626C182.574 26.997 183.088 25.9114 184.032 25.6365C184.976 25.3624 185.992 26.0027 186.302 27.0683Z" fill="#27539C"/>
<path d="M212.652 46.2724C212.36 46.2724 212.065 46.1993 211.792 46.0445C211.711 45.9984 203.184 41.267 189.949 41.267C176.714 41.267 168.188 45.9984 168.103 46.0453C167.266 46.5177 166.206 46.2245 165.733 45.3903C165.26 44.5552 165.55 43.4957 166.384 43.0207C166.759 42.8076 175.738 37.7874 189.949 37.7874C204.161 37.7874 213.139 42.8076 213.515 43.0207C214.35 43.4965 214.641 44.5587 214.166 45.3929C213.845 45.9566 213.256 46.2724 212.652 46.2724Z" fill="#FFC107"/>
<path fill-rule="evenodd" clip-rule="evenodd" d="M132.096 131.873C132.974 131.424 134.143 130.744 134.864 129.995C134.864 129.995 135.87 129.023 136.589 130.292C137.219 131.408 138.048 133.522 135.525 136.043C136.034 137.476 136.134 139.048 135.802 140.604C140.21 140.162 142.955 143.233 143.252 143.583C143.557 143.915 146.251 146.984 145.851 151.629C145.482 155.937 142.611 160.114 137.319 164.046C127.856 171.076 121.003 166.757 118.496 164.574C115.175 161.682 113.26 157.325 114.397 155.249C115.478 153.279 117.62 153.286 119.343 153.292L119.348 153.292C120.493 153.297 121.576 153.302 122.22 152.823C123.444 151.913 124.38 149.459 124.804 148.048C122.724 147.674 120.894 146.57 119.667 144.919C116.87 141.154 117.901 135.631 121.968 132.61C125.099 130.284 129.129 130.111 132.096 131.873ZM133.709 142.473C133.466 142.2 133.399 141.812 133.54 141.474C134.453 139.263 134.209 136.882 132.885 135.1C130.714 132.179 126.328 131.75 123.107 134.143C119.885 136.536 119.03 140.86 121.199 143.782C122.31 145.276 124.085 146.184 126.068 146.274C126.36 146.287 126.631 146.433 126.8 146.671C126.971 146.908 127.023 147.21 126.942 147.491L126.825 147.899C126.683 148.47 125.568 152.714 123.358 154.355C122.203 155.213 120.682 155.208 119.339 155.202C118.031 155.196 117.098 155.22 116.506 155.659C116.332 155.79 116.187 155.955 116.071 156.167C115.592 157.042 116.65 160.436 119.749 163.134C122.43 165.469 128.13 168.494 136.181 162.513C141.015 158.922 143.629 155.205 143.95 151.465C144.291 147.494 141.87 144.899 141.845 144.874C141.83 144.859 141.816 144.842 141.802 144.825C141.689 144.69 138.989 141.529 134.683 142.756C134.331 142.856 133.953 142.746 133.709 142.473Z" fill="#1C3B6F"/>
<path d="M132.684 148.8C131.814 149.089 131.077 149.676 130.537 150.417C129.669 151.611 130.082 153.288 127.849 154.702C125.708 156.058 124.656 155.111 124.237 156.281C123.642 157.944 127.259 164.02 133.98 159.027C140.702 154.035 136.755 149.886 136.755 149.886C136.755 149.886 135.183 147.971 132.684 148.8Z" fill="#1C3B6F"/>
<path d="M128.17 136.104C127.475 136.621 127.33 137.603 127.847 138.298C128.363 138.993 129.345 139.139 130.041 138.623C130.736 138.106 130.881 137.123 130.364 136.428C129.848 135.733 128.865 135.588 128.17 136.104Z" fill="#1C3B6F"/>
<path d="M137.452 115.868L141.32 105.164C142.632 101.533 146.639 99.6543 150.27 100.966L160.973 104.834C164.603 106.146 166.484 110.153 165.171 113.783L161.303 124.487C159.991 128.118 155.984 129.997 152.353 128.686L141.651 124.818C138.02 123.505 136.14 119.499 137.452 115.868Z" fill="#282828"/>
<path d="M178.686 126.152L179.602 123.616C180.66 120.691 179.145 117.463 176.22 116.405L143.778 104.683L157.75 124.574L171.475 129.534C174.401 130.591 177.629 129.076 178.686 126.152Z" fill="#282828"/>
<path d="M144.083 119.635L148.827 106.507L142.259 104.133C139.335 103.076 136.106 104.591 135.049 107.515L134.133 110.051C133.076 112.976 134.59 116.205 137.515 117.261L144.083 119.635Z" fill="#282828"/>
<path d="M141.459 118.217L145.903 105.919C146.201 105.096 147.111 104.669 147.935 104.967L160.232 109.41C161.056 109.709 161.483 110.618 161.186 111.442L156.741 123.74C156.444 124.564 155.534 124.99 154.709 124.693L142.412 120.249C141.588 119.951 141.162 119.041 141.459 118.217Z" fill="#C9DCFC"/>
<path fill-rule="evenodd" clip-rule="evenodd" d="M0 244.311H300V186.711H0V244.311Z" fill="#DADADA"/>
<path d="M18.0668 197.283C18.0668 200.192 15.7084 202.55 12.8004 202.55C9.8916 202.55 7.5332 200.192 7.5332 197.283C7.5332 194.374 9.8916 192.016 12.8004 192.016C15.7084 192.016 18.0668 194.374 18.0668 197.283Z" fill="#C0C0C0"/>
<path d="M37.6664 197.283C37.6664 200.192 35.308 202.55 32.4 202.55C29.4912 202.55 27.1328 200.192 27.1328 197.283C27.1328 194.374 29.4912 192.016 32.4 192.016C35.308 192.016 37.6664 194.374 37.6664 197.283Z" fill="#C0C0C0"/>
<path d="M57.267 197.283C57.267 200.192 54.9086 202.55 52.0006 202.55C49.0918 202.55 46.7334 200.192 46.7334 197.283C46.7334 194.374 49.0918 192.016 52.0006 192.016C54.9086 192.016 57.267 194.374 57.267 197.283Z" fill="#C0C0C0"/>
<path d="M76.8666 197.283C76.8666 200.192 74.5082 202.55 71.6002 202.55C68.6914 202.55 66.333 200.192 66.333 197.283C66.333 194.374 68.6914 192.016 71.6002 192.016C74.5082 192.016 76.8666 194.374 76.8666 197.283Z" fill="#C0C0C0"/>
<path d="M96.4672 197.283C96.4672 200.192 94.1088 202.55 91.2008 202.55C88.292 202.55 85.9336 200.192 85.9336 197.283C85.9336 194.374 88.292 192.016 91.2008 192.016C94.1088 192.016 96.4672 194.374 96.4672 197.283Z" fill="#C0C0C0"/>
<path d="M116.067 197.283C116.067 200.192 113.708 202.55 110.8 202.55C107.892 202.55 105.533 200.192 105.533 197.283C105.533 194.374 107.892 192.016 110.8 192.016C113.708 192.016 116.067 194.374 116.067 197.283Z" fill="#C0C0C0"/>
<path d="M135.666 197.283C135.666 200.192 133.308 202.55 130.4 202.55C127.491 202.55 125.133 200.192 125.133 197.283C125.133 194.374 127.491 192.016 130.4 192.016C133.308 192.016 135.666 194.374 135.666 197.283Z" fill="#C0C0C0"/>
<path d="M155.267 197.283C155.267 200.192 152.909 202.55 150.001 202.55C147.092 202.55 144.733 200.192 144.733 197.283C144.733 194.374 147.092 192.016 150.001 192.016C152.909 192.016 155.267 194.374 155.267 197.283Z" fill="#C0C0C0"/>
<path d="M174.867 197.283C174.867 200.192 172.508 202.55 169.6 202.55C166.691 202.55 164.333 200.192 164.333 197.283C164.333 194.374 166.691 192.016 169.6 192.016C172.508 192.016 174.867 194.374 174.867 197.283Z" fill="#C0C0C0"/>
<path d="M194.467 197.283C194.467 200.192 192.109 202.55 189.201 202.55C186.292 202.55 183.934 200.192 183.934 197.283C183.934 194.374 186.292 192.016 189.201 192.016C192.109 192.016 194.467 194.374 194.467 197.283Z" fill="#C0C0C0"/>
<path d="M214.067 197.283C214.067 200.192 211.708 202.55 208.8 202.55C205.892 202.55 203.533 200.192 203.533 197.283C203.533 194.374 205.892 192.016 208.8 192.016C211.708 192.016 214.067 194.374 214.067 197.283Z" fill="#C0C0C0"/>
<path d="M233.666 197.283C233.666 200.192 231.308 202.55 228.4 202.55C225.491 202.55 223.133 200.192 223.133 197.283C223.133 194.374 225.491 192.016 228.4 192.016C231.308 192.016 233.666 194.374 233.666 197.283Z" fill="#C0C0C0"/>
<path d="M253.267 197.283C253.267 200.192 250.909 202.55 248.001 202.55C245.092 202.55 242.733 200.192 242.733 197.283C242.733 194.374 245.092 192.016 248.001 192.016C250.909 192.016 253.267 194.374 253.267 197.283Z" fill="#C0C0C0"/>
<path d="M272.867 197.283C272.867 200.192 270.508 202.55 267.6 202.55C264.691 202.55 262.333 200.192 262.333 197.283C262.333 194.374 264.691 192.016 267.6 192.016C270.508 192.016 272.867 194.374 272.867 197.283Z" fill="#C0C0C0"/>
<path d="M292.467 197.283C292.467 200.192 290.109 202.55 287.201 202.55C284.292 202.55 281.934 200.192 281.934 197.283C281.934 194.374 284.292 192.016 287.201 192.016C290.109 192.016 292.467 194.374 292.467 197.283Z" fill="#C0C0C0"/>
</g>
</svg>
