<svg width="300" height="245" viewBox="0 0 300 245" fill="none" xmlns="http://www.w3.org/2000/svg">
<path d="M0 169.153C0 73.4298 72.7778 12.2222 161.667 12.2222C250.556 12.2222 300 81.2331 300 163.616C300 238.644 235.625 244.426 193.333 244.426C128.486 244.426 0 247.626 0 169.153Z" fill="#F3EFFE"/>
<mask id="mask0" mask-type="alpha" maskUnits="userSpaceOnUse" x="0" y="12" width="300" height="233">
<path d="M0 169.153C0 73.4298 72.7778 12.2222 161.667 12.2222C250.556 12.2222 300 81.2331 300 163.616C300 238.644 235.625 244.426 193.333 244.426C128.486 244.426 0 247.626 0 169.153Z" fill="#F3EFFE"/>
</mask>
<g mask="url(#mask0)">
<path d="M299.617 135.978L283.285 72.2222L151.112 106.08L151.111 106.081L167.444 169.838L299.617 135.978Z" fill="#DCD0FD"/>
</g>
<path fill-rule="evenodd" clip-rule="evenodd" d="M291.839 130.424L159.666 164.283L143.333 100.525L275.506 66.6665L291.839 130.424Z" fill="#ECECEC"/>
<path fill-rule="evenodd" clip-rule="evenodd" d="M143.333 100.526L275.507 66.6672L291.839 130.423L159.666 164.282L143.333 100.526ZM287.457 127.828L272.911 71.0489L147.717 103.121L162.261 159.9L287.457 127.828Z" fill="#808080"/>
<path fill-rule="evenodd" clip-rule="evenodd" d="M161.624 113.782C162.859 113.465 163.739 112.947 164.263 112.228C164.859 111.388 165.014 110.415 164.73 109.307C164.443 108.186 163.841 107.413 162.92 106.986C162.116 106.607 161.095 106.575 159.859 106.892L155.947 107.894L158.746 118.822L161.312 118.164L160.277 114.126L161.624 113.782ZM160.002 108.965C160.541 108.826 160.978 108.821 161.313 108.95C161.726 109.114 162 109.455 162.133 109.972C162.269 110.5 162.194 110.934 161.91 111.278C161.677 111.551 161.291 111.757 160.752 111.894L159.755 112.15L159.005 109.22L160.002 108.965Z" fill="#808080"/>
<path d="M177.419 114.038L174.854 114.695L173.681 110.118L169.295 111.242L170.467 115.819L167.901 116.476L165.103 105.549L167.667 104.891L168.751 109.119L173.138 107.996L172.055 103.768L174.62 103.11L177.419 114.038Z" fill="#808080"/>
<path fill-rule="evenodd" clip-rule="evenodd" d="M184.709 112.373C186.376 111.946 187.629 111.083 188.465 109.782C189.303 108.482 189.501 106.971 189.06 105.251C188.62 103.529 187.718 102.298 186.358 101.555C184.998 100.812 183.484 100.653 181.816 101.081C180.147 101.509 178.895 102.376 178.06 103.681C177.224 104.986 177.027 106.499 177.468 108.221C177.908 109.942 178.808 111.171 180.168 111.908C181.526 112.646 183.04 112.801 184.709 112.373ZM182.376 103.267C183.304 103.029 184.15 103.144 184.911 103.613C185.673 104.081 186.184 104.829 186.446 105.853C186.708 106.876 186.619 107.78 186.179 108.562C185.738 109.345 185.052 109.855 184.124 110.092C183.194 110.331 182.349 110.213 181.586 109.739C180.823 109.264 180.311 108.515 180.049 107.492C179.787 106.467 179.876 105.567 180.318 104.789C180.761 104.013 181.445 103.506 182.376 103.267Z" fill="#808080"/>
<path d="M201.781 107.798L199.152 108.47L192.455 102.288C192.711 103.157 192.938 103.976 193.135 104.747L194.401 109.688L191.899 110.329L189.1 99.4016L191.84 98.6996L198.41 104.847C198.167 104.031 197.947 103.239 197.75 102.468L196.48 97.5113L198.982 96.8696L201.781 107.798Z" fill="#808080"/>
<path d="M211 105.435L203.779 107.285L200.979 96.3579L208.059 94.5439L208.582 96.5869L204.052 97.7478L204.624 99.9801L208.901 98.8851L209.423 100.928L205.147 102.023L205.797 104.558L210.469 103.361L211 105.435Z" fill="#808080"/>
<path fill-rule="evenodd" clip-rule="evenodd" d="M220.173 103.086C221.387 102.775 222.26 102.299 222.793 101.655C223.446 100.868 223.641 99.958 223.376 98.9234C223.209 98.2685 222.863 97.7662 222.341 97.4166C221.818 97.068 221.186 96.8965 220.446 96.9068L220.438 96.8748C220.844 96.6138 221.145 96.2208 221.343 95.6979C221.541 95.1749 221.567 94.6274 221.42 94.0573C221.153 93.0123 220.493 92.3668 219.439 92.119C218.77 91.9635 217.832 92.0408 216.629 92.3489L212.907 93.3035L215.706 104.229L220.173 103.086ZM218.201 94.2071C217.931 94.1186 217.532 94.1431 217.005 94.2788L215.944 94.5501L216.588 97.068L217.587 96.8117C218.156 96.6656 218.537 96.4847 218.73 96.2661C219.023 95.9212 219.114 95.5264 219.001 95.0825C218.881 94.618 218.615 94.3268 218.201 94.2071ZM219.891 98.4324C219.556 98.3052 219.075 98.3212 218.453 98.4805L217.044 98.8423L217.757 101.63L219.167 101.268C219.79 101.109 220.218 100.891 220.452 100.618C220.759 100.28 220.851 99.8685 220.726 99.3832C220.607 98.9187 220.329 98.602 219.891 98.4324Z" fill="#808080"/>
<path d="M228.14 101.045L225.574 101.702L222.775 90.7747L225.34 90.1169L228.14 101.045Z" fill="#808080"/>
<path d="M236.47 98.9109L230.135 100.534L227.336 89.6066L229.887 88.9536L232.142 97.7576L235.926 96.7879L236.47 98.9109Z" fill="#808080"/>
<path d="M243.963 96.9913L237.628 98.6139L234.829 87.687L237.379 87.0339L239.634 95.8379L243.419 94.8682L243.963 96.9913Z" fill="#808080"/>
<path d="M211.871 118.666L161.895 131.468L161.065 128.227L211.04 115.425L211.871 118.666Z" fill="#808080"/>
<path d="M213.903 126.597L163.927 139.4L163.097 136.157L213.072 123.356L213.903 126.597Z" fill="#808080"/>
<path fill-rule="evenodd" clip-rule="evenodd" d="M190.947 140.929L165.959 147.33L165.129 144.089L190.116 137.688L190.947 140.929Z" fill="#808080"/>
<path fill-rule="evenodd" clip-rule="evenodd" d="M264.754 88.3298L229.818 115.625C228.912 116.333 228.751 117.641 229.459 118.547L242.357 135.056C243.065 135.962 244.374 136.123 245.28 135.415L280.215 108.12C281.122 107.412 281.282 106.103 280.574 105.197L267.677 88.6887C266.969 87.7824 265.66 87.6218 264.754 88.3298ZM244.07 133.189L231.685 117.337L265.964 90.5552L278.349 106.407L244.07 133.189Z" fill="#1AD760"/>
<path fill-rule="evenodd" clip-rule="evenodd" d="M260.001 115.153L249.311 108.632L247.065 110.386L250.806 122.337L253.051 120.583L252.255 118.213L255.543 115.644L257.649 116.99L260.001 115.153ZM246.375 115.619C247.106 116.555 247.36 117.541 247.146 118.59C246.95 119.496 246.326 120.35 245.283 121.164L244.147 122.052L246.81 125.46L244.645 127.152L237.439 117.93L240.741 115.35C241.783 114.536 242.763 114.136 243.69 114.166C244.738 114.186 245.634 114.67 246.375 115.619ZM244.182 117.331C243.838 116.89 243.44 116.684 242.979 116.7C242.603 116.714 242.192 116.905 241.738 117.26L240.896 117.918L242.828 120.391L243.67 119.733C244.124 119.378 244.409 119.026 244.514 118.664C244.641 118.221 244.527 117.772 244.182 117.331ZM251.433 116.143L253.732 114.347L249.993 111.93L251.433 116.143ZM262.955 112.845L255.75 103.622L253.584 105.314L260.79 114.536L262.955 112.845ZM269.217 100.527C270.386 102.024 270.81 103.586 270.466 105.212C270.171 106.626 269.277 107.905 267.767 109.085L264.639 111.529L257.434 102.307L260.562 99.863C262.072 98.683 263.54 98.1383 264.984 98.1947C266.633 98.2402 268.037 99.0166 269.217 100.527ZM264.518 100.711C265.473 100.804 266.304 101.317 267.025 102.24C267.724 103.135 268.01 104.052 267.859 104.988C267.736 105.795 267.272 106.523 266.457 107.16L265.361 108.017L260.985 102.416L262.081 101.56C262.897 100.923 263.705 100.636 264.518 100.711Z" fill="#1AD760"/>
<mask id="mask1" mask-type="alpha" maskUnits="userSpaceOnUse" x="0" y="12" width="300" height="233">
<path d="M0 169.153C0 73.4298 72.7778 12.2222 161.667 12.2222C250.556 12.2222 300 81.2331 300 163.616C300 238.644 235.625 244.426 193.333 244.426C128.486 244.426 0 247.626 0 169.153Z" fill="#F3EFFE"/>
</mask>
<g mask="url(#mask1)">
<path d="M42.3758 102.185C28.66 82.808 21.0616 64.7517 17.4736 48.0926L69.1752 36.1008C70.4642 50.1826 76.9154 62.9713 82.2941 71.449C85.206 70.2709 88.6583 71.1272 90.6531 73.747L92.7249 76.4679C94.3426 78.5933 94.5864 81.3346 93.6002 83.625C96.1272 84.6583 98.7357 86.161 101.407 88.2236C109.912 94.7941 118.391 102.762 115.631 112.01C114.473 115.891 110.61 117.484 110.61 117.484C110.61 117.484 111.088 124.483 106.186 129.828C101.001 135.483 94.9813 134.529 94.9813 134.529C94.9813 134.529 93.771 139.48 89.9835 140.83C80.4001 144.248 71.8748 136.819 64.3248 128.667C64.2468 128.582 64.1694 128.498 64.0926 128.414C59.9224 124.018 56.0687 119.684 52.5325 115.412C49.7947 116.18 46.7442 115.261 44.9178 112.861L42.847 110.139C41.0358 107.76 40.9465 104.61 42.3758 102.185Z" fill="#DCD0FD"/>
<path d="M240.552 158.614V158.613L99.986 112.429L77.7085 180.235L100.073 187.583L218.274 226.419L238.673 164.333L240.552 158.614Z" fill="#DCD0FD"/>
<path fill-rule="evenodd" clip-rule="evenodd" d="M180.784 195.097C179.853 194.754 178.98 194.21 178.228 193.467C175.417 190.685 175.396 186.149 178.176 183.339L189.426 171.976C190.327 171.065 191.455 170.414 192.694 170.087L212.442 164.892C213.819 164.53 215.272 164.587 216.614 165.054L246.881 175.563C246.924 175.578 246.968 175.595 247.013 175.611C250.664 176.957 252.579 180.985 251.296 184.679C249.997 188.415 245.917 190.393 242.181 189.096L213.976 179.3L198.23 183.443L188.357 193.415C186.318 195.475 183.337 196.038 180.784 195.097Z" fill="#F4C7AE"/>
<path d="M213.9 220.657L73.3335 174.473L95.612 106.667L236.178 152.851L213.9 220.657Z" fill="#A6C5FA"/>
<path fill-rule="evenodd" clip-rule="evenodd" d="M95.6119 106.667L236.178 152.851L213.9 220.656L73.3345 174.472L95.6119 106.667ZM211.409 215.727L231.248 155.342L98.1027 111.596L78.2633 171.981L211.409 215.727Z" fill="#326AC8"/>
<path fill-rule="evenodd" clip-rule="evenodd" d="M97.9906 146.672C99.3037 147.103 100.41 147.144 101.31 146.791C102.343 146.372 103.054 145.573 103.441 144.395C103.832 143.203 103.732 142.144 103.142 141.217C102.626 140.401 101.711 139.777 100.397 139.345L96.2371 137.978L92.4185 149.599L95.1468 150.496L96.558 146.201L97.9906 146.672ZM99.3182 141.323C99.8914 141.51 100.294 141.762 100.527 142.074C100.808 142.466 100.859 142.937 100.678 143.487C100.495 144.049 100.172 144.402 99.7126 144.551C99.3407 144.665 98.8675 144.627 98.2943 144.438L97.2326 144.091L98.2565 140.974L99.3182 141.323Z" fill="#326AC8"/>
<path fill-rule="evenodd" clip-rule="evenodd" d="M108.808 154.984L111.773 155.958L111.217 142.882L108.388 141.952L100.186 152.152L103.015 153.082L104.609 151.01L108.752 152.373L108.808 154.984ZM108.751 145.392L108.826 150.045L105.929 149.092L108.751 145.392Z" fill="#326AC8"/>
<path d="M124.637 147.31L118.32 152.903L116.777 157.603L114.048 156.706L115.591 152.007L113.825 143.757L116.856 144.753L117.709 150.165L121.605 146.313L124.637 147.31Z" fill="#326AC8"/>
<path fill-rule="evenodd" clip-rule="evenodd" d="M128.956 161.604C130.855 162.229 132.499 162.258 133.891 161.695C135.5 161.042 136.614 159.772 137.233 157.886C137.856 155.987 137.711 154.311 136.796 152.853C136.013 151.562 134.672 150.607 132.775 149.983L128.833 148.689L125.016 160.309L128.956 161.604ZM132.186 152.289C133.208 152.625 133.926 153.166 134.34 153.912C134.807 154.8 134.85 155.822 134.47 156.978C134.098 158.111 133.464 158.886 132.569 159.301C131.801 159.672 130.901 159.685 129.866 159.346L128.486 158.893L130.805 151.836L132.186 152.289Z" fill="#326AC8"/>
<path fill-rule="evenodd" clip-rule="evenodd" d="M144.017 166.552L146.981 167.526L146.426 154.449L143.596 153.519L135.393 163.719L138.223 164.649L139.817 162.578L143.96 163.94L144.017 166.552ZM143.958 156.96L144.034 161.612L141.137 160.66L143.958 156.96Z" fill="#326AC8"/>
<path d="M161.042 159.27L152.912 169.475L150.317 168.622L149.824 155.585L152.721 156.537L152.822 165.432L158.162 158.324L161.042 159.27Z" fill="#326AC8"/>
<path d="M165.899 173.742L158.218 171.218L162.037 159.597L169.565 162.07L168.852 164.243L164.035 162.66L163.254 165.035L167.802 166.529L167.088 168.702L162.541 167.207L161.655 169.903L166.624 171.536L165.899 173.742Z" fill="#326AC8"/>
<path fill-rule="evenodd" clip-rule="evenodd" d="M175.653 176.947C176.944 177.371 178.021 177.446 178.884 177.169C179.94 176.832 180.648 176.112 181.011 175.012C181.24 174.316 181.216 173.656 180.944 173.03C180.67 172.406 180.192 171.881 179.509 171.459L179.52 171.425C180.044 171.423 180.548 171.24 181.035 170.877C181.521 170.514 181.864 170.03 182.063 169.424C182.428 168.311 182.201 167.337 181.382 166.495C180.861 165.962 179.961 165.486 178.68 165.065L174.723 163.765L170.903 175.387L175.653 176.947ZM179.034 167.682C178.837 167.443 178.459 167.232 177.898 167.048L176.769 166.676L175.889 169.355L176.951 169.703C177.557 169.902 178.011 169.959 178.313 169.872C178.784 169.729 179.097 169.42 179.251 168.948C179.414 168.454 179.341 168.032 179.034 167.682ZM178.112 172.53C177.879 172.217 177.431 171.952 176.77 171.735L175.27 171.241L174.296 174.206L175.795 174.698C176.457 174.916 176.975 174.968 177.348 174.853C177.827 174.725 178.15 174.402 178.319 173.885C178.482 173.391 178.413 172.939 178.112 172.53Z" fill="#326AC8"/>
<path fill-rule="evenodd" clip-rule="evenodd" d="M188.893 181.297L191.859 182.271L191.304 169.194L188.473 168.264L180.271 178.465L183.101 179.393L184.695 177.323L188.838 178.684L188.893 181.297ZM188.836 171.704L188.912 176.357L186.015 175.405L188.836 171.704Z" fill="#326AC8"/>
<path d="M202.672 184.294C201.303 185.013 199.732 185.082 197.959 184.499C196.207 183.924 194.93 182.904 194.13 181.441C193.328 179.977 193.23 178.329 193.831 176.5C194.433 174.669 195.492 173.403 197.01 172.701C198.528 172.001 200.158 171.935 201.898 172.508C202.931 172.846 203.738 173.276 204.32 173.799C204.902 174.318 205.282 174.764 205.459 175.132L203.875 177.112C203.78 176.833 203.488 176.45 203 175.967C202.514 175.484 201.937 175.132 201.275 174.914C200.265 174.582 199.325 174.629 198.458 175.053C197.59 175.477 196.975 176.246 196.609 177.357C196.249 178.457 196.297 179.437 196.754 180.297C197.212 181.157 197.935 181.749 198.923 182.074C200.215 182.498 201.394 182.43 202.459 181.873L202.672 184.294Z" fill="#326AC8"/>
<path d="M213.286 189.311L210.018 188.237L208.699 182.43L207.434 183.152L206.178 186.976L203.466 186.085L207.285 174.464L209.997 175.355L208.602 179.599L213.585 176.534L216.818 177.596L211.204 180.883L213.286 189.311Z" fill="#326AC8"/>
<path fill-rule="evenodd" clip-rule="evenodd" d="M224.038 228.113C222.732 227.868 221.461 227.334 220.316 226.498L187.168 202.262C183.069 199.265 182.173 193.511 185.172 189.41C188.171 185.308 193.923 184.417 198.024 187.413L231.173 211.65C235.273 214.647 236.167 220.402 233.17 224.503C231.007 227.459 227.412 228.748 224.038 228.113Z" fill="#F4C7AE"/>
<path fill-rule="evenodd" clip-rule="evenodd" d="M188.145 191.209C186.221 193.761 186.729 197.389 189.281 199.314L190.991 200.601L197.958 191.359L196.249 190.072C193.696 188.149 190.068 188.658 188.145 191.209Z" fill="#FFE7DC"/>
<path fill-rule="evenodd" clip-rule="evenodd" d="M213.585 221.617C213.585 221.617 220.697 240.672 236.568 243.661C236.568 243.661 268.426 242.35 266.945 233.958L251.426 180.453L226.086 183.567L219.62 203.246L213.585 221.617Z" fill="#F4C7AE"/>
<mask id="mask2" mask-type="alpha" maskUnits="userSpaceOnUse" x="236" y="222" width="40" height="41">
<path fill-rule="evenodd" clip-rule="evenodd" d="M236.567 222.769H275.859V262.421H236.567V222.769Z" fill="white"/>
</mask>
<g mask="url(#mask2)">
<path fill-rule="evenodd" clip-rule="evenodd" d="M263.7 222.769L275.859 262.421L237.768 256.962L236.567 243.661" fill="#F4C7AE"/>
</g>
<path fill-rule="evenodd" clip-rule="evenodd" d="M236.201 171.855L224.649 206.556L219.632 203.212L230.585 169.876L236.201 171.855Z" fill="#E0AC92"/>
</g>
<mask id="mask3" mask-type="alpha" maskUnits="userSpaceOnUse" x="0" y="12" width="300" height="233">
<path d="M0 169.153C0 73.4298 72.7778 12.2222 161.667 12.2222C250.556 12.2222 300 81.2331 300 163.616C300 238.644 235.625 244.426 193.333 244.426C128.486 244.426 0 247.626 0 169.153Z" fill="#F3EFFE"/>
</mask>
<g mask="url(#mask3)">
<path d="M192.445 49.2623C194.294 43.489 195.884 37.9083 197.214 32.5222C198.612 26.8924 199.746 21.4573 200.615 16.2199C204.559 -7.19674 203.563 -26.7658 199.561 -43.3335L147.781 -31.685C152.735 -18.44 152.476 -4.11827 151.313 5.85407C150.463 13.1429 149.478 18.3767 149.374 18.9211C146.409 21.3102 143.678 24.6714 141.38 29.2634C136.571 38.8755 132.394 49.7351 138.896 56.8671C141.624 59.8601 145.796 59.618 145.796 59.618C145.796 59.618 148.404 66.1292 155.141 68.8161C162.268 71.6588 167.276 68.1849 167.276 68.1849C167.276 68.1849 170.516 72.1193 174.514 71.6909C184.631 70.6082 189.084 60.2143 192.345 49.592C192.379 49.4818 192.412 49.3718 192.445 49.2623Z" fill="#DCD0FD"/>
<path fill-rule="evenodd" clip-rule="evenodd" d="M81.3807 83.2677L81.1902 83.684L77.5943 91.3623L77.3479 91.909L70.7473 106.024L60.2289 128.541L58.3187 132.629C57.4417 131.738 56.5865 130.841 55.7416 129.954C55.7002 129.91 55.6712 129.874 55.6288 129.831C51.4096 125.389 47.5135 121.009 43.9414 116.694C40.2379 112.229 36.8563 107.826 33.7988 103.486C20.078 84.1043 12.4773 66.0442 8.88867 49.3819L60.5903 37.3901C61.8793 51.4723 68.3308 64.2613 73.7096 72.739C77.8645 79.2898 81.3807 83.2677 81.3807 83.2677Z" fill="#9D7354"/>
<path fill-rule="evenodd" clip-rule="evenodd" d="M55.7403 129.956C41.5339 114.617 48.6024 100.879 55.9195 92.8987C63.4498 84.6861 77.0422 77.3277 92.8224 89.513C101.328 96.0835 109.807 104.052 107.046 113.3C105.889 117.18 102.026 118.774 102.026 118.774C102.026 118.774 102.503 125.772 97.6017 131.118C92.4165 136.773 86.3968 135.818 86.3968 135.818C86.3968 135.818 85.1865 140.769 81.3991 142.12C71.8156 145.537 63.2903 138.109 55.7403 129.956Z" fill="#9D7354"/>
<path fill-rule="evenodd" clip-rule="evenodd" d="M138.138 21.2838L144.674 26.6327L145.133 27.0181L157.208 36.867L176.46 52.5823L179.957 55.4359C180.36 54.2521 180.741 53.073 181.116 51.9068C181.135 51.8497 181.145 51.8044 181.164 51.7468C183.036 45.9136 184.644 40.2766 185.988 34.8381C187.385 29.2082 188.519 23.7732 189.389 18.5358C193.333 -4.88091 192.337 -24.4499 188.334 -41.0177L136.554 -29.3692C141.508 -16.1242 141.25 -1.80244 140.086 8.16991C139.188 15.8751 138.138 21.2838 138.138 21.2838Z" fill="#9D7354"/>
<path fill-rule="evenodd" clip-rule="evenodd" d="M181.119 51.9077C187.255 31.9213 174.923 22.6161 164.866 18.6044C154.517 14.4764 139.077 13.7502 130.154 31.5791C125.345 41.1913 121.167 52.0509 127.67 59.1828C130.398 62.1758 134.569 61.9337 134.569 61.9337C134.569 61.9337 137.178 68.4449 143.915 71.1319C151.041 73.9745 156.049 70.5006 156.049 70.5006C156.049 70.5006 159.289 74.4351 163.287 74.0066C173.404 72.9239 177.858 62.53 181.119 51.9077Z" fill="#9D7354"/>
</g>
<path d="M42.526 98.2161L51.2687 109.702C54.235 113.597 59.7971 114.351 63.6922 111.386L75.1776 102.642C79.0738 99.677 79.8275 94.1149 76.8622 90.2178L68.1195 78.7344C65.1531 74.8383 59.5911 74.0835 55.6949 77.0498L44.2105 85.7926C40.3144 88.7579 39.5606 94.3199 42.526 98.2161Z" fill="#282828"/>
<path d="M82.0682 75.0364L84.14 77.7574C86.5286 80.8956 85.9219 85.3767 82.7826 87.7664L47.9722 114.266L57.331 84.8922L72.0592 73.679C75.1974 71.2904 79.6786 71.8982 82.0682 75.0364Z" fill="#282828"/>
<path d="M42.6653 96.0554L53.3887 110.142L46.3419 115.506C43.2037 117.896 38.7215 117.289 36.3329 114.151L34.2621 111.429C31.8725 108.289 32.4802 103.809 35.6185 101.421L42.6653 96.0554Z" fill="#282828"/>
<path d="M46.4832 93.8523L56.5284 107.048C57.2025 107.933 58.4646 108.104 59.3488 107.43L72.5447 97.385C73.4289 96.713 73.5997 95.4499 72.9268 94.5646L62.8815 81.3687C62.2085 80.4855 60.9464 80.3147 60.0611 80.9867L46.8652 91.0319C45.9821 91.7059 45.8102 92.9681 46.4832 93.8523Z" fill="#1AD760"/>
</svg>
