<svg width="300" height="245" viewBox="0 0 300 245" fill="none" xmlns="http://www.w3.org/2000/svg">
<g clip-path="url(#clip0)">
<path d="M288.889 169.733C288.889 227.94 236.749 245 152.284 245C67.8183 245 24.3095 245 13.2097 202.851C-3.43994 139.626 81.3485 72.3867 183.868 72.3867C248.882 72.3867 288.889 111.526 288.889 169.733Z" fill="#F5F5F5"/>
<path d="M250.261 132.681H223.422C220.303 132.681 217.774 130.146 217.774 127.019V120.39C217.774 117.263 220.303 114.729 223.422 114.729H250.261C253.38 114.729 255.909 117.263 255.909 120.39V127.019C255.909 130.146 253.38 132.681 250.261 132.681Z" fill="#E7E7E7"/>
<path d="M284.657 125.324H265.132C262.589 125.324 260.527 123.257 260.527 120.708V111.475C260.527 108.925 262.589 106.859 265.132 106.859H284.657C287.2 106.859 289.262 108.925 289.262 111.475V120.708C289.262 123.257 287.2 125.324 284.657 125.324Z" fill="#E7E7E7"/>
<path d="M254.541 109.163H237.218C235.635 109.163 234.352 107.877 234.352 106.291V100.986C234.352 99.4001 235.635 98.1138 237.218 98.1138H254.541C256.122 98.1138 257.406 99.4001 257.406 100.986V106.291C257.406 107.877 256.122 109.163 254.541 109.163Z" fill="#E7E7E7"/>
<mask id="mask0" mask-type="alpha" maskUnits="userSpaceOnUse" x="11" y="34" width="278" height="212">
<path d="M288.889 169.862C288.889 227.969 236.819 245 152.467 245C68.1147 245 24.6642 245 13.5793 202.923C-3.04804 139.807 65.536 34.5229 183.242 34.5229C248.168 34.5229 288.889 111.756 288.889 169.862Z" fill="#F5F5F5"/>
</mask>
<g mask="url(#mask0)">
<path fill-rule="evenodd" clip-rule="evenodd" d="M207.684 68.2262C193.015 52.0082 181.903 64.4192 173.679 70.6797C171.053 72.5994 168.509 72.6269 165.118 72.4282C164.389 70.7421 164.456 68.115 165.41 66.4139C159.376 65.3566 152.262 69.4786 152.262 69.4786C151.53 67.0076 152.37 63.5305 153.383 60.1372C138.488 61.2596 134.951 70.6797 126.811 70.6797H124.622C116.397 64.4192 105.282 52.0082 90.6118 68.2262C84.0887 75.4391 83.0487 86.8601 98.4405 95.2541C93.0821 115.224 89.8012 158.479 89.8012 158.479C89.8012 158.479 103.167 179.452 149.149 179.452C195.133 179.452 208.497 158.479 208.497 158.479C208.497 158.479 205.218 115.224 199.86 95.2541C215.248 86.8601 214.212 75.4391 207.684 68.2262Z" fill="#9D7354"/>
<path fill-rule="evenodd" clip-rule="evenodd" d="M110.372 77.8928C111.376 76.9042 110.966 75.2107 109.627 74.777C107.672 74.1433 104.995 73.8358 102.83 75.6531C99.0967 78.789 100.209 81.8561 101.472 83.6421C102.132 84.5745 103.475 84.6783 104.287 83.8771L110.372 77.8928Z" fill="#493426"/>
<path fill-rule="evenodd" clip-rule="evenodd" d="M187.927 77.8928C186.921 76.9042 187.332 75.2107 188.671 74.777C190.625 74.1433 193.304 73.8358 195.467 75.6531C199.202 78.789 198.09 81.8561 196.825 83.6421C196.166 84.5745 194.824 84.6783 194.011 83.8771L187.927 77.8928Z" fill="#493426"/>
<path fill-rule="evenodd" clip-rule="evenodd" d="M166.696 156.101C166.696 170.032 158.84 172.146 149.15 172.146C139.458 172.146 131.601 169.898 131.601 156.101C131.601 140.793 139.458 129.492 149.15 129.492C158.84 129.492 166.696 140.793 166.696 156.101Z" fill="#EBBF8D"/>
<mask id="mask1" mask-type="alpha" maskUnits="userSpaceOnUse" x="70" y="158" width="158" height="97">
<path fill-rule="evenodd" clip-rule="evenodd" d="M70.7725 158.402H227.527V254.094H70.7725V158.402Z" fill="white"/>
</mask>
<g mask="url(#mask1)">
<path d="M225.892 242.371C222.661 249.828 215.941 252.691 198.117 253.422C197.934 253.431 197.733 253.44 197.541 253.44C197.541 253.44 196.919 253.49 195.805 253.566C195.681 253.576 195.557 253.585 195.422 253.593C195.278 253.603 195.144 253.603 194.991 253.613C192.815 253.757 189.391 253.941 185.345 254.036C185.029 254.036 184.722 254.046 184.405 254.056C183.159 254.085 181.904 254.095 180.658 254.095H116.716C109.881 254.046 104.119 253.681 101.827 253.517C101.732 253.517 101.635 253.507 101.549 253.498C101.031 253.47 100.753 253.44 100.753 253.44C100.638 253.44 100.534 253.431 100.418 253.431H100.388C82.4021 252.72 75.6533 249.866 72.4123 242.371C66.7646 229.349 76.7357 201.184 86.6494 178.756L86.9849 177.929C77.5225 173.797 83.1116 157.134 89.8044 158.479C89.8044 158.479 114.1 178.381 149.152 178.381C184.091 178.381 208.5 158.479 208.5 158.479C215.183 157.134 220.773 173.797 211.309 177.929L211.645 178.756C221.559 201.184 231.53 229.349 225.892 242.371Z" fill="#282828"/>
</g>
<path fill-rule="evenodd" clip-rule="evenodd" d="M137.745 91.16C137.091 92.5173 135.462 93.086 134.109 92.4299L133.532 92.1499C129.492 90.1926 126.085 90.1126 121.774 91.8762L121.183 92.1199C119.79 92.6886 118.2 92.0187 117.632 90.6226L117.149 89.4365C116.581 88.0417 117.248 86.4481 118.642 85.8782L119.233 85.637C125.265 83.1685 130.739 83.3097 136.46 86.0831L137.037 86.3619C138.39 87.018 138.957 88.6491 138.301 90.0064L137.745 91.16Z" fill="#493426"/>
<path fill-rule="evenodd" clip-rule="evenodd" d="M160.521 91.0517L159.983 89.8881C159.352 88.5208 159.947 86.8985 161.313 86.2661L161.893 85.9974C167.66 83.3227 173.136 83.2765 179.124 85.8474L179.712 86.0999C181.094 86.6935 181.735 88.2983 181.143 89.6832L180.639 90.8618C180.047 92.2466 178.447 92.889 177.064 92.2953L176.476 92.0429C172.195 90.2056 168.789 90.2268 164.715 92.1154L164.135 92.3828C162.77 93.0165 161.152 92.4203 160.521 91.0517Z" fill="#493426"/>
<path fill-rule="evenodd" clip-rule="evenodd" d="M131.928 121.288C131.928 124.391 130.162 126.908 127.983 126.908C125.805 126.908 124.039 124.391 124.039 121.288C124.039 118.184 125.805 115.668 127.983 115.668C130.162 115.668 131.928 118.184 131.928 121.288Z" fill="#493426"/>
<path fill-rule="evenodd" clip-rule="evenodd" d="M174.271 121.288C174.271 124.391 172.504 126.908 170.325 126.908C168.147 126.908 166.381 124.391 166.381 121.288C166.381 118.184 168.147 115.668 170.325 115.668C172.504 115.668 174.271 118.184 174.271 121.288Z" fill="#493426"/>
<path fill-rule="evenodd" clip-rule="evenodd" d="M193.217 105.468H204.771C205.853 105.468 206.736 106.342 206.736 107.438V109.292C206.736 110.379 205.853 111.262 204.771 111.262H195.154V115.942C195.154 121.802 194.522 126.415 191.434 129.914C188.164 133.603 182.614 135.323 173.947 135.323C161.657 135.323 152.74 127.174 152.74 115.942V114.163H145.569V115.942C145.569 127.174 136.644 135.323 124.352 135.323C115.695 135.323 110.145 133.603 106.875 129.914C103.778 126.415 103.147 121.802 103.147 115.942V111.262H93.5398C92.4561 111.262 91.5732 110.379 91.5732 109.292V107.438C91.5732 106.342 92.4561 105.468 93.5398 105.468H105.092C105.514 104.92 106.021 104.421 106.655 103.978C109.675 101.806 114.775 101.432 124.352 101.432C133.94 101.432 139.041 101.806 142.061 103.978C143.671 105.122 144.534 106.591 145.004 108.36H153.295C153.765 106.591 154.64 105.122 156.24 103.978C159.269 101.806 164.36 101.432 173.947 101.432C183.534 101.432 188.626 101.806 191.655 103.978C192.288 104.421 192.796 104.92 193.217 105.468ZM124.352 129.529C111.804 129.529 109.447 125.952 109.025 119.511C108.953 118.405 108.937 117.214 108.937 115.942C108.937 111.57 108.974 109.436 110.01 108.696C111.898 107.342 118.409 107.225 124.352 107.225C130.307 107.225 136.806 107.342 138.704 108.696C139.074 108.961 139.315 109.414 139.474 110.075C139.759 111.26 139.779 113.135 139.779 115.942C139.779 123.946 133.442 129.529 124.352 129.529ZM173.947 129.529C164.868 129.529 158.521 123.946 158.521 115.942C158.521 111.57 158.568 109.436 159.605 108.696C161.494 107.342 168.002 107.225 173.947 107.225C179.9 107.225 186.4 107.342 188.3 108.696C189.325 109.436 189.372 111.57 189.372 115.942C189.372 124.618 188.654 129.529 173.947 129.529Z" fill="#282828"/>
<path fill-rule="evenodd" clip-rule="evenodd" d="M160.241 141.989C160.241 143.493 157.614 145.849 154.916 147.87C151.5 150.431 146.81 150.431 143.393 147.87C140.697 145.849 138.069 143.493 138.069 141.989C138.069 138.898 143.032 136.394 149.154 136.394C155.278 136.394 160.241 138.898 160.241 141.989Z" fill="#493426"/>
<path fill-rule="evenodd" clip-rule="evenodd" d="M155.159 141.012C155.159 141.316 154.54 141.66 153.698 141.988C150.781 143.125 147.528 143.125 144.612 141.988C143.77 141.66 143.149 141.316 143.149 141.012C143.149 140.067 145.838 139.301 149.155 139.301C152.472 139.301 155.159 140.067 155.159 141.012Z" fill="#EBBF8D"/>
<path fill-rule="evenodd" clip-rule="evenodd" d="M149.116 164.564C141.245 164.564 138.732 159.642 138.63 159.432C138.236 158.635 138.564 157.668 139.36 157.275C140.151 156.884 141.106 157.205 141.504 157.99C141.595 158.162 143.371 161.343 149.116 161.343C154.812 161.343 156.827 157.95 156.846 157.916C157.291 157.144 158.273 156.88 159.042 157.324C159.811 157.768 160.076 158.754 159.633 159.524C159.515 159.73 156.65 164.564 149.116 164.564Z" fill="#493426"/>
<path fill-rule="evenodd" clip-rule="evenodd" d="M155.134 245.111H200.208C193.804 232.809 182.74 226.198 172.834 226.071C167.61 226.003 162.71 227.537 158.984 230.578C151.574 236.666 151.18 245.111 155.134 245.111Z" fill="#9D7354"/>
</g>
<path d="M87.6414 231.305L116.961 225.059C121.467 224.099 124.372 219.615 123.414 215.097L111.87 160.662C110.911 156.143 106.438 153.233 101.932 154.194L72.6129 160.44C68.1037 161.401 65.1995 165.881 66.158 170.4L77.7023 224.836C78.6604 229.353 83.1322 232.265 87.6414 231.305Z" fill="#DADADA"/>
<path d="M88.5294 235.487L117.849 229.241C122.355 228.281 125.26 223.797 124.302 219.279L112.758 164.844C111.799 160.325 107.326 157.415 102.82 158.375L73.5006 164.621C68.9914 165.582 66.0875 170.063 67.046 174.583L78.5903 229.018C79.5484 233.536 84.0203 236.448 88.5294 235.487Z" fill="#B0B0B0"/>
<path d="M73.5905 175.807C73.1568 173.762 74.4578 171.754 76.4964 171.32C78.535 170.885 80.5382 172.189 80.9719 174.234C81.4052 176.277 80.1042 178.285 78.0656 178.719C76.027 179.154 74.0238 177.85 73.5905 175.807Z" fill="#505050"/>
<path fill-rule="evenodd" clip-rule="evenodd" d="M68.187 196.494C50.3329 202.278 49.8367 216.167 52.0611 225.648C54.3505 235.404 61.7608 247.158 79.4626 244.539C89.0051 243.128 99.1394 240.605 101.037 232.136C101.836 228.581 99.5112 225.632 99.5112 225.632C99.5112 225.632 102.957 220.352 101.466 214C99.8903 207.281 94.7594 205.383 94.7594 205.383C94.7594 205.383 95.9846 200.965 93.6132 198.241C87.6111 191.343 77.6754 193.42 68.187 196.494Z" fill="#9D7354"/>
</g>
<defs>
<clipPath id="clip0">
<rect width="300" height="245" fill="white"/>
</clipPath>
</defs>
</svg>
