<svg width="301" height="246" viewBox="0 0 301 246" fill="none" xmlns="http://www.w3.org/2000/svg">
<path d="M144.851 82.1777C241.484 77.3215 288.979 119.08 288.979 161.535C288.979 213.311 249.404 245.057 189.002 245.057C147.38 245.057 106.634 245.057 96.1235 245.057C57.2134 245.057 11.2012 225.354 11.2012 179.157C11.2012 132.96 72.5509 85.811 144.851 82.1777Z" fill="#F5F5F5"/>
<path d="M217.551 55.2698C201.273 55.2698 188.072 68.4708 188.072 84.7478C188.072 101.026 201.273 114.227 217.551 114.227C233.837 114.227 247.029 101.026 247.029 84.7478C247.029 68.4708 233.837 55.2698 217.551 55.2698Z" fill="#DADADA"/>
<path d="M217.551 56.5625C204.246 56.5625 193.456 67.3523 193.456 80.6574C193.456 93.9625 204.246 104.753 217.551 104.753C230.864 104.753 241.646 93.9625 241.646 80.6574C241.646 67.3523 230.864 56.5625 217.551 56.5625Z" fill="white"/>
<path fill-rule="evenodd" clip-rule="evenodd" d="M188.072 80.6573C188.072 64.3802 201.273 51.1792 217.551 51.1792C233.837 51.1792 247.029 64.3802 247.029 80.6573C247.029 96.9351 233.837 110.136 217.551 110.136C201.273 110.136 188.072 96.9351 188.072 80.6573ZM194.997 80.6572C194.997 93.1134 205.094 103.212 217.551 103.212C230.007 103.212 240.106 93.1134 240.106 80.6572C240.106 68.2009 230.007 58.1033 217.551 58.1033C205.094 58.1033 194.997 68.2009 194.997 80.6572Z" fill="#E7E7E7"/>
<path d="M217.552 82.5309C216.327 82.5309 215.335 81.5385 215.335 80.3143V62.9437C215.335 61.7195 216.327 60.7271 217.552 60.7271C218.776 60.7271 219.767 61.7195 219.767 62.9437V80.3143C219.767 81.5385 218.776 82.5309 217.552 82.5309Z" fill="#E7E7E7"/>
<path d="M228.231 88.6984C227.855 88.6984 227.474 88.6026 227.125 88.4005L216.442 82.2339C215.383 81.6214 215.019 80.2665 215.631 79.2065C216.243 78.1457 217.598 77.7832 218.659 78.3949L229.341 84.5623C230.401 85.174 230.764 86.5296 230.152 87.5897C229.742 88.3002 228.997 88.6984 228.231 88.6984Z" fill="#E7E7E7"/>
<mask id="mask0" mask-type="alpha" maskUnits="userSpaceOnUse" x="50" y="155" width="23" height="59">
<path fill-rule="evenodd" clip-rule="evenodd" d="M50.5205 155.236H72.055V213.771H50.5205V155.236Z" fill="white"/>
</mask>
<g mask="url(#mask0)">
<path d="M72.0553 155.236C72.0553 155.236 23.602 212.038 72.0553 213.771V155.236Z" fill="white"/>
</g>
<mask id="mask1" mask-type="alpha" maskUnits="userSpaceOnUse" x="70" y="71" width="99" height="95">
<path fill-rule="evenodd" clip-rule="evenodd" d="M70.8457 71.2446H168.2V165.724H70.8457V71.2446Z" fill="white"/>
</mask>
<g mask="url(#mask1)">
<path fill-rule="evenodd" clip-rule="evenodd" d="M164.719 77.4756C153.392 64.9833 144.813 74.5433 138.462 79.3671C136.435 80.8447 134.471 80.8661 131.853 80.7136C131.29 79.4144 131.342 77.3905 132.078 76.0794C127.419 75.2659 121.926 78.441 121.926 78.441C121.361 76.5377 122.009 73.8593 122.791 71.2446C111.291 72.1093 108.56 79.3671 102.275 79.3671H100.584C94.2339 74.5433 85.651 64.9833 74.3254 77.4756C69.2884 83.0322 68.4852 91.832 80.3705 98.2984C76.2323 113.681 73.6991 147.004 73.6991 147.004C73.6991 147.004 84.0179 165.725 119.522 165.725C155.027 165.725 165.347 147.004 165.347 147.004C165.347 147.004 162.816 113.681 158.677 98.2984C170.559 91.832 169.759 83.0322 164.719 77.4756Z" fill="#9D7354"/>
</g>
<path fill-rule="evenodd" clip-rule="evenodd" d="M89.5826 84.9227C90.3584 84.1625 90.0408 82.8566 89.0074 82.5227C87.4987 82.0349 85.431 81.7973 83.7602 83.1979C80.8761 85.6134 81.7348 87.9764 82.7112 89.3519C83.2205 90.07 84.2569 90.1506 84.8847 89.534L89.5826 84.9227Z" fill="#493426"/>
<path fill-rule="evenodd" clip-rule="evenodd" d="M149.462 84.9227C148.687 84.1625 149.004 82.8566 150.038 82.5227C151.546 82.0349 153.614 81.7973 155.286 83.1979C158.169 85.6134 157.311 87.9764 156.334 89.3519C155.825 90.07 154.788 90.1506 154.161 89.534L149.462 84.9227Z" fill="#493426"/>
<path fill-rule="evenodd" clip-rule="evenodd" d="M133.072 145.172C133.072 155.904 127.006 157.532 119.523 157.532C112.041 157.532 105.975 155.801 105.975 145.172C105.975 133.379 112.041 124.674 119.523 124.674C127.006 124.674 133.072 133.379 133.072 145.172Z" fill="#EBBF8D"/>
<path d="M112.469 146.51H119.37" stroke="#493426" stroke-width="2.67374" stroke-linecap="round" stroke-linejoin="round"/>
<path d="M178.19 218.249C176.57 229.013 153.399 237.171 119.523 237.171C85.6397 237.171 62.4695 229.013 60.8475 218.249C60.2486 214.267 68.4584 173.01 72.0554 155.236C73.0622 150.284 73.7063 147.152 73.7063 147.152C73.7063 147.152 87.0463 163.424 119.523 163.483C151.999 163.424 165.34 147.152 165.34 147.152C165.34 147.152 178.96 213.156 178.19 218.249Z" fill="white"/>
<path d="M119.519 163.484L122.908 173.005L128.614 180.266C157.17 169.82 166.984 155.236 166.984 155.236L165.342 147.011C165.342 147.011 147.869 163.484 119.519 163.484Z" fill="#DADADA"/>
<path d="M119.52 163.484L116.13 173.005L110.424 180.266C81.8679 169.82 72.0547 155.236 72.0547 155.236L73.6966 147.011C73.6966 147.011 91.1689 163.484 119.52 163.484Z" fill="#DADADA"/>
<path d="M122.908 173.005L126.362 163.47L119.518 163.484L112.675 163.47L116.129 173.005L108.727 210.205L119.518 219.59L130.311 210.205L122.908 173.005Z" fill="#282828"/>
<path d="M119.52 163.484L109.56 174.093C90.1732 168.455 72.0547 155.236 72.0547 155.236L73.6892 147.157C73.6892 147.157 91.1689 163.484 119.52 163.484Z" fill="white"/>
<path d="M119.519 163.484L129.478 174.093C148.865 168.455 166.984 155.236 166.984 155.236L165.349 147.157C165.349 147.157 147.869 163.484 119.519 163.484Z" fill="white"/>
<path fill-rule="evenodd" clip-rule="evenodd" d="M109.067 96.2198C108.729 97.3249 107.56 97.9471 106.455 97.6102L105.985 97.4673C102.686 96.46 100.089 96.8016 97.0223 98.6469L96.6015 98.9002C95.6106 99.4964 94.3255 99.1767 93.7295 98.1866L93.2227 97.3435C92.6267 96.3533 92.9463 95.0682 93.9372 94.4721L94.358 94.2188C98.6478 91.6371 102.822 91.0981 107.494 92.5228L107.963 92.6666C109.069 93.0041 109.692 94.1736 109.354 95.2794L109.067 96.2198Z" fill="#493426"/>
<path fill-rule="evenodd" clip-rule="evenodd" d="M126.811 95.4902C127.187 96.5828 128.377 97.1638 129.47 96.7885L129.935 96.6293C133.197 95.5076 135.804 95.7583 138.933 97.4955L139.362 97.7339C140.373 98.2951 141.647 97.931 142.208 96.9205L142.685 96.0603C143.247 95.05 142.882 93.7767 141.87 93.2155L141.441 92.9771C137.064 90.5467 132.873 90.1537 128.254 91.7406L127.79 91.9006C126.697 92.2765 126.115 93.4671 126.492 94.5605L126.811 95.4902Z" fill="#493426"/>
<path fill-rule="evenodd" clip-rule="evenodd" d="M127.84 134.146C127.84 135.3 125.82 137.106 123.749 138.656C121.122 140.619 117.519 140.619 114.891 138.656C112.819 137.106 110.8 135.3 110.8 134.146C110.8 131.777 114.615 129.856 119.32 129.856C124.026 129.856 127.84 131.777 127.84 134.146Z" fill="#493426"/>
<path fill-rule="evenodd" clip-rule="evenodd" d="M123.936 133.397C123.936 133.629 123.458 133.894 122.811 134.146C120.57 135.017 118.07 135.017 115.83 134.146C115.183 133.894 114.705 133.629 114.705 133.397C114.705 132.672 116.771 132.085 119.321 132.085C121.87 132.085 123.936 132.672 123.936 133.397Z" fill="#EBBF8D"/>
<path fill-rule="evenodd" clip-rule="evenodd" d="M108.251 116.038C108.251 118.418 106.894 120.348 105.219 120.348C103.545 120.348 102.188 118.418 102.188 116.038C102.188 113.658 103.545 111.729 105.219 111.729C106.894 111.729 108.251 113.658 108.251 116.038Z" fill="#493426"/>
<path fill-rule="evenodd" clip-rule="evenodd" d="M140.795 116.038C140.795 118.418 139.437 120.348 137.763 120.348C136.089 120.348 134.731 118.418 134.731 116.038C134.731 113.658 136.089 111.729 137.763 111.729C139.437 111.729 140.795 113.658 140.795 116.038Z" fill="#493426"/>
<path fill-rule="evenodd" clip-rule="evenodd" d="M163.572 128.246V107.934H163.572V107.649C163.572 106.809 162.894 106.139 162.061 106.139H153.183C152.858 105.719 152.467 105.335 151.981 104.996C149.652 103.331 145.74 103.043 138.372 103.043C131.003 103.043 127.09 103.331 124.761 104.996C123.531 105.874 122.861 107 122.5 108.356H116.126C115.765 107 115.101 105.874 113.864 104.996C111.543 103.331 107.623 103.043 100.254 103.043C92.8928 103.043 88.973 103.331 86.6522 104.996C86.1658 105.335 85.775 105.719 85.4515 106.139H76.5724C75.7396 106.139 75.0615 106.809 75.0615 107.649V109.071C75.0615 109.904 75.7396 110.582 76.5724 110.582H83.9553V114.17C83.9553 118.665 84.441 122.201 86.821 124.883C89.3343 127.714 93.5998 129.033 100.254 129.033C109.701 129.033 116.561 122.784 116.561 114.17V112.807H122.072V114.17C122.072 122.784 128.925 129.033 138.372 129.033C145.033 129.033 149.299 127.714 151.812 124.883C154.184 122.201 154.671 118.665 154.671 114.17V110.582H159.574V128.246C159.574 137.593 151.97 145.198 142.622 145.198L142.622 145.197L138.247 144.03C136.167 143.474 134.126 145.042 134.126 147.196C134.126 149.349 136.167 150.916 138.247 150.361L142.622 149.195C154.173 149.195 163.572 139.797 163.572 128.246ZM138.371 124.589C149.675 124.589 150.227 120.823 150.227 114.17C150.227 110.817 150.19 109.182 149.402 108.614C147.943 107.575 142.947 107.486 138.371 107.486C133.802 107.486 128.799 107.575 127.348 108.614C126.552 109.182 126.515 110.817 126.515 114.17C126.515 120.308 131.393 124.589 138.371 124.589ZM112.11 114.17C112.11 120.308 107.239 124.589 100.254 124.589C90.6089 124.589 88.7982 121.846 88.4746 116.908C88.4184 116.059 88.4058 115.146 88.4058 114.17C88.4058 110.817 88.4347 109.182 89.2305 108.614C90.6822 107.575 95.6858 107.486 100.254 107.486C104.83 107.486 109.825 107.575 111.284 108.614C111.569 108.817 111.753 109.164 111.876 109.671C112.095 110.579 112.11 112.018 112.11 114.17Z" fill="#282828"/>
<g opacity="0.45">
<path fill-rule="evenodd" clip-rule="evenodd" d="M100.254 124.589C107.24 124.589 112.11 120.309 112.11 114.17C112.11 113.352 112.108 112.638 112.093 112.017L88.8965 119.59C89.8315 122.828 92.5291 124.589 100.254 124.589Z" fill="white"/>
<path fill-rule="evenodd" clip-rule="evenodd" d="M127.937 119.41C129.863 122.607 133.628 124.589 138.372 124.589C149.675 124.589 150.227 120.824 150.227 114.17C150.227 113.405 150.225 112.732 150.213 112.138L127.937 119.41Z" fill="white"/>
</g>
<path fill-rule="evenodd" clip-rule="evenodd" d="M118.745 203.484H86.5938C91.1613 194.728 99.0528 190.023 106.119 189.932C109.845 189.885 113.34 190.976 115.999 193.141C121.284 197.473 121.566 203.484 118.745 203.484Z" fill="#9D7354"/>
<mask id="mask2" mask-type="alpha" maskUnits="userSpaceOnUse" x="11" y="81" width="278" height="164">
<path d="M144.851 81.76C241.484 76.9038 288.979 118.662 288.979 161.118C288.979 212.893 249.404 244.639 189.002 244.639C147.38 244.639 106.634 244.639 96.1235 244.639C57.2134 244.639 11.2012 224.936 11.2012 178.739C11.2012 132.542 72.5509 85.3933 144.851 81.76Z" fill="white"/>
</mask>
<g mask="url(#mask2)">
<path d="M259.776 210.213H161.329C155.548 210.213 150.834 205.856 150.8 200.482L150.424 139.921C150.39 134.548 155.05 130.19 160.832 130.19H259.279C265.06 130.19 269.774 134.548 269.808 139.921L270.184 200.482C270.217 205.856 265.558 210.213 259.776 210.213Z" fill="#B0B0B0"/>
<path fill-rule="evenodd" clip-rule="evenodd" d="M201.313 170.202H219.295C220.938 170.202 222.313 171.645 222.482 173.546L227.001 224.538H193.607L198.126 173.546C198.295 171.645 199.671 170.202 201.313 170.202ZM210.305 189.905C214.428 189.905 217.77 193.247 217.77 197.37C217.77 201.493 214.428 204.834 210.305 204.834C206.183 204.834 202.84 201.493 202.84 197.37C202.84 193.247 206.183 189.905 210.305 189.905Z" fill="#DADADA"/>
<path fill-rule="evenodd" clip-rule="evenodd" d="M234.774 221.885H185.835C184.37 221.885 183.182 223.073 183.182 224.538C183.182 226.003 184.37 227.192 185.835 227.192H234.774C236.239 227.192 237.427 226.003 237.427 224.538C237.427 223.073 236.239 221.885 234.774 221.885Z" fill="#D8D9D9"/>
<path fill-rule="evenodd" clip-rule="evenodd" d="M234.774 221.885H185.835C184.37 221.885 183.182 223.073 183.182 224.538C183.182 226.003 184.37 227.192 185.835 227.192H234.774C236.239 227.192 237.427 226.003 237.427 224.538C237.427 223.073 236.239 221.885 234.774 221.885Z" fill="#B0B1B2"/>
<path d="M254.109 140.811C254.109 140.811 256.07 140.832 257.217 140.348C257.217 140.348 258.103 140.009 258.212 140.994C258.321 141.977 258.248 143.837 254.952 144.629C251.656 145.422 254.109 140.811 254.109 140.811Z" fill="#FF5252"/>
<path d="M255.248 142.853C255.906 145.606 254.007 148.419 251.007 149.136C248.007 149.853 245.041 148.202 244.383 145.449C243.726 142.697 245.624 139.883 248.625 139.166C251.624 138.449 254.59 140.1 255.248 142.853Z" fill="#FFCC34"/>
<path d="M247.096 148.737C247.096 148.737 245.052 151.442 243.386 151.84C241.685 152.246 239.697 149.899 238.109 151.145C236.143 152.687 237.986 164.363 249.508 161.61C261.029 158.856 258.205 151.265 258.205 151.265C258.205 151.265 256.796 146.419 250.945 147.817L247.096 148.737Z" fill="#FFCC34"/>
<path d="M246.064 153.118C244.366 153.392 243.963 152.521 243.39 153.139C242.574 154.018 243.209 158.773 248.733 157.453C254.258 156.132 252.904 152.492 252.904 152.492C252.904 152.492 252.434 150.878 250.654 150.729C250.034 150.676 249.418 150.846 248.884 151.164C248.023 151.677 247.834 152.833 246.064 153.118Z" fill="#FF5252"/>
<path d="M252.692 143.16C252.555 142.588 251.981 142.235 251.411 142.372C250.838 142.509 250.487 143.083 250.623 143.654C250.76 144.226 251.333 144.578 251.905 144.442C252.476 144.305 252.829 143.731 252.692 143.16Z" fill="#44271D"/>
<path fill-rule="evenodd" clip-rule="evenodd" d="M250.032 136.908C249.399 136.908 248.762 136.984 248.139 137.133C244.022 138.117 241.425 142.065 242.35 145.935C242.628 147.098 243.205 148.153 244.015 149.021C243.578 149.421 243.181 149.715 242.938 149.795C242.729 149.774 242.229 149.557 241.893 149.412C241.107 149.071 240.216 148.686 239.176 148.686C238.313 148.686 237.497 148.968 236.819 149.501C234.969 150.952 235.074 154.357 235.955 156.907C237.516 161.424 241.345 164.12 246.199 164.12C247.396 164.12 248.673 163.96 249.994 163.644C254.764 162.504 257.985 160.421 259.568 157.453C261.286 154.233 260.405 151.228 260.194 150.617C259.834 149.438 258.824 147.669 256.962 146.542C257.022 146.392 257.077 146.24 257.127 146.086C259.413 145.036 260.555 143.147 260.29 140.763C260.123 139.254 258.994 138.2 257.545 138.2C257.052 138.2 256.66 138.322 256.471 138.393L256.437 138.407L256.402 138.422C256.1 138.549 255.548 138.638 254.987 138.684C253.638 137.545 251.884 136.908 250.032 136.908ZM250.031 139C251.668 139 253.182 139.679 254.179 140.81C254.534 140.81 256.195 140.779 257.215 140.348C257.215 140.348 257.363 140.291 257.544 140.291C257.809 140.291 258.147 140.41 258.211 140.993C258.315 141.936 258.244 143.68 255.339 144.521C255.2 145.681 254.642 146.77 253.778 147.616C257.272 148.061 258.204 151.265 258.204 151.265C258.204 151.265 261.029 158.857 249.507 161.611C248.299 161.899 247.2 162.029 246.198 162.029C237.643 162.029 236.348 152.526 238.109 151.145C238.448 150.879 238.805 150.777 239.175 150.777C240.392 150.777 241.736 151.888 242.965 151.888C243.107 151.888 243.248 151.873 243.386 151.841C245.051 151.442 247.095 148.737 247.095 148.737L247.103 148.736C245.765 148.09 244.738 146.933 244.383 145.45C243.725 142.697 245.624 139.884 248.624 139.166C249.097 139.053 249.569 139 250.031 139Z" fill="white"/>
<path d="M159.588 148.648C159.588 149.875 158.594 150.869 157.367 150.869C156.141 150.869 155.146 149.875 155.146 148.648V140.828C155.146 137.449 157.884 134.711 161.263 134.711H210.304C211.531 134.711 212.525 135.705 212.525 136.932C212.525 138.158 211.531 139.152 210.304 139.152H161.263C160.338 139.152 159.588 139.902 159.588 140.828V148.648Z" fill="#DADADA"/>
<path d="M-5.80566 245.057H300.317V197.438H-5.80566V245.057Z" fill="#F7A183"/>
<path d="M-5.80566 214.774H300.317V206.917H-5.80566V214.774Z" fill="#CA7456"/>
</g>
<path d="M37.1024 146.739H15.7053C13.2176 146.739 11.2012 144.723 11.2012 142.235V136.962C11.2012 134.475 13.2176 132.458 15.7053 132.458H37.1024C39.5901 132.458 41.6065 134.475 41.6065 136.962V142.235C41.6065 144.723 39.5901 146.739 37.1024 146.739Z" fill="#E7E7E7"/>
<path d="M64.2192 140.956H48.6528C46.6246 140.956 44.9805 139.312 44.9805 137.284V129.939C44.9805 127.911 46.6246 126.267 48.6528 126.267H64.2192C66.2468 126.267 67.8909 127.911 67.8909 129.939V137.284C67.8909 139.312 66.2468 140.956 64.2192 140.956Z" fill="#E7E7E7"/>
<path d="M40.4495 127.996H26.6386C25.3762 127.996 24.3535 126.973 24.3535 125.711V121.491C24.3535 120.229 25.3762 119.206 26.6386 119.206H40.4495C41.7119 119.206 42.7345 120.229 42.7345 121.491V125.711C42.7345 126.973 41.7119 127.996 40.4495 127.996Z" fill="#E7E7E7"/>
</svg>
