<svg width="300" height="245" viewBox="0 0 300 245" fill="none" xmlns="http://www.w3.org/2000/svg">
<path d="M20 169.529C20 118.094 64.4856 67.7778 147.654 67.7778C210.092 67.7778 281.111 94.6133 281.111 167.293C281.111 217.05 256.451 244.444 177.634 244.444H83.3436C43.2099 244.444 20 218.168 20 169.529Z" fill="#EDF3FE"/>
<mask id="mask0" mask-type="alpha" maskUnits="userSpaceOnUse" x="20" y="21" width="262" height="224">
<path d="M20 169.529C20 118.094 64.4856 21.1111 147.654 21.1111C210.092 21.1111 281.111 94.6132 281.111 167.293C281.111 217.05 256.451 244.444 177.634 244.444H83.3436C43.2099 244.444 20 218.168 20 169.529Z" fill="#EDF3FE"/>
</mask>
<g mask="url(#mask0)">
<path d="M208.055 244.97C208.055 244.97 181.024 244.97 139.027 244.97C97.0414 244.97 70 244.97 70 244.97C70 191.997 79.6977 161.705 79.6977 161.705C70.6278 157.758 75.8298 141.939 82.2314 143.217C83.1507 143.386 98.7791 161.906 139.027 161.974C179.287 161.918 194.915 143.397 195.823 143.217C202.236 141.939 207.438 157.747 198.368 161.705C198.368 161.705 208.055 191.997 208.055 244.97Z" fill="#282828"/>
<path d="M195.05 57.0368C181.013 41.5541 170.374 53.4043 162.504 59.3799C159.992 61.2073 157.559 61.241 154.308 61.0504C153.613 59.436 153.68 56.9359 154.588 55.3102C148.815 54.3012 142.009 58.2364 142.009 58.2364C141.314 55.882 142.11 52.5523 143.086 49.3123C128.825 50.3885 125.439 59.3799 117.648 59.3799H115.551C107.681 53.4043 97.0414 41.5541 83.0049 57.0368C76.7603 63.9204 75.7625 74.8289 90.494 82.8449C85.3593 101.915 82.2202 143.217 82.2202 143.217C82.2202 143.217 95.0121 163.252 139.027 163.252C183.042 163.252 195.834 143.217 195.834 143.217C195.834 143.217 192.695 101.915 187.572 82.8449C202.292 74.8289 201.294 63.9204 195.05 57.0368Z" fill="#9D7354"/>
<path fill-rule="evenodd" clip-rule="evenodd" d="M101.907 66.2637C102.871 65.322 102.479 63.7075 101.189 63.2927C99.317 62.6873 96.7608 62.3958 94.6868 64.1336C91.1104 67.127 92.1755 70.0531 93.3863 71.7684C94.0141 72.6541 95.3034 72.755 96.077 71.9926L101.907 66.2637Z" fill="#493426"/>
<path fill-rule="evenodd" clip-rule="evenodd" d="M176.136 66.2637C175.172 65.322 175.564 63.7075 176.853 63.2927C178.726 62.6873 181.282 62.3958 183.356 64.1336C186.932 67.127 185.867 70.0531 184.656 71.7684C184.029 72.6541 182.739 72.755 181.966 71.9926L176.136 66.2637Z" fill="#493426"/>
<path d="M155.821 140.953C155.821 154.249 148.298 156.278 139.027 156.278C129.755 156.278 122.232 154.137 122.232 140.953C122.232 126.333 129.755 115.537 139.027 115.537C148.298 115.548 155.821 126.333 155.821 140.953Z" fill="#EBBF8D"/>
<path d="M149.633 127.443C149.633 128.878 147.122 131.132 144.532 133.06C141.258 135.504 136.774 135.504 133.5 133.06C130.921 131.132 128.399 128.878 128.399 127.443C128.399 124.495 133.152 122.095 139.005 122.095C144.857 122.095 149.633 124.495 149.633 127.443Z" fill="#493426"/>
<path d="M144.767 126.513C144.767 126.804 144.173 127.129 143.365 127.443C140.574 128.531 137.457 128.531 134.666 127.443C133.858 127.129 133.264 126.804 133.264 126.513C133.264 125.616 135.843 124.876 139.016 124.876C142.199 124.876 144.767 125.604 144.767 126.513Z" fill="#EBBF8D"/>
<path fill-rule="evenodd" clip-rule="evenodd" d="M139.027 149.013C130.271 149.013 128.769 141.603 128.769 141.603C128.769 140.695 129.509 139.955 130.417 139.955H147.637C148.546 139.955 149.286 140.695 149.286 141.603C149.286 141.603 147.671 149.013 139.027 149.013Z" fill="#493426"/>
<path d="M128.096 79.4704C127.468 80.7709 125.91 81.3091 124.61 80.6812L124.06 80.4122C120.192 78.5399 116.93 78.4614 112.804 80.1543L112.232 80.3897C110.898 80.9391 109.374 80.2888 108.835 78.9659L108.376 77.8336C107.826 76.4995 108.477 74.9747 109.8 74.4366L110.371 74.2012C116.145 71.8468 121.381 71.9813 126.863 74.6272L127.412 74.8962C128.713 75.5241 129.251 77.0824 128.623 78.3717L128.096 79.4704Z" fill="#493426"/>
<path d="M149.902 79.3583L149.386 78.2484C148.781 76.9367 149.353 75.3896 150.653 74.7842L151.214 74.5263C156.73 71.9702 161.976 71.9253 167.705 74.3806L168.266 74.616C169.589 75.1878 170.205 76.7125 169.634 78.0354L169.152 79.1565C168.58 80.4795 167.055 81.0961 165.732 80.5243L165.172 80.2889C161.08 78.5287 157.817 78.5511 153.916 80.3561L153.355 80.614C152.055 81.2418 150.507 80.67 149.902 79.3583Z" fill="#493426"/>
<path d="M124.372 104.474C124.372 107.434 122.679 109.844 120.594 109.844C118.509 109.844 116.816 107.445 116.816 104.474C116.816 101.514 118.509 99.104 120.594 99.104C122.679 99.104 124.372 101.514 124.372 104.474Z" fill="#493426"/>
<path d="M164.901 104.474C164.901 107.434 163.208 109.844 161.122 109.844C159.037 109.844 157.344 107.445 157.344 104.474C157.344 101.514 159.037 99.104 161.122 99.104C163.208 99.104 164.901 101.514 164.901 104.474Z" fill="#493426"/>
<path d="M192.258 92.5202H181.204C180.8 91.9933 180.318 91.5224 179.713 91.0964C176.809 89.0223 171.943 88.6636 162.761 88.6636C153.579 88.6636 148.714 89.0223 145.81 91.0964C144.274 92.1839 143.445 93.5965 142.996 95.2782H135.059C134.61 93.5853 133.781 92.1839 132.245 91.0964C129.352 89.0223 124.475 88.6636 115.293 88.6636C106.122 88.6636 101.246 89.0223 98.3531 91.0964C97.7477 91.5224 97.2656 91.9933 96.862 92.5202H85.8078C84.7652 92.5202 83.9243 93.3499 83.9243 94.4037V96.1751C83.9243 97.2065 84.7652 98.0586 85.8078 98.0586H95.001V102.532C95.001 108.126 95.6064 112.532 98.5661 115.873C101.694 119.393 107.008 121.042 115.293 121.042C127.054 121.042 135.597 113.261 135.597 102.532V100.839H142.458V102.532C142.458 113.261 150.99 121.042 162.761 121.042C171.058 121.042 176.372 119.393 179.5 115.873C182.46 112.532 183.065 108.126 183.065 102.532V98.0586H192.269C193.301 98.0586 194.153 97.2177 194.153 96.1751V94.4037C194.142 93.3611 193.29 92.5202 192.258 92.5202ZM115.282 115.503C103.275 115.503 101.01 112.084 100.607 105.94C100.539 104.886 100.517 103.743 100.517 102.532C100.517 98.3613 100.551 96.3208 101.548 95.6145C103.353 94.3252 109.587 94.2131 115.282 94.2131C120.977 94.2131 127.2 94.3252 129.016 95.6145C129.375 95.8724 129.599 96.2984 129.756 96.9262C130.025 98.0586 130.047 99.8524 130.047 102.532C130.047 110.167 123.982 115.503 115.282 115.503ZM162.75 115.503C154.062 115.503 147.985 110.167 147.985 102.532C147.985 98.3613 148.03 96.3208 149.017 95.6145C150.822 94.3252 157.055 94.2131 162.75 94.2131C168.446 94.2131 174.668 94.3252 176.484 95.6145C177.471 96.3208 177.515 98.3613 177.515 102.532C177.515 110.817 176.831 115.503 162.75 115.503Z" fill="#282828"/>
<path d="M236.816 155.676C236.816 155.676 219.12 163.667 198.368 162.12L207.404 231.248C207.404 231.248 262.107 216.176 268.554 166.586L236.816 155.676Z" fill="#282828"/>
<path d="M151.446 131.76L151.665 178.195L247.928 177.742L247.711 131.308L151.45 131.759L151.446 131.76Z" fill="#A6C5FA"/>
<path fill-rule="evenodd" clip-rule="evenodd" d="M151.665 178.195L151.446 131.76L151.45 131.759L247.711 131.308L247.928 177.742L247.924 177.743L151.665 178.195ZM154 134.289L154.193 175.641L245.375 175.214L245.181 133.86L154 134.289Z" fill="#326AC8"/>
<path fill-rule="evenodd" clip-rule="evenodd" d="M172.117 156.004C173.103 155.999 173.857 155.776 174.385 155.338C174.988 154.821 175.288 154.121 175.284 153.239C175.278 152.348 174.974 151.655 174.366 151.161C173.833 150.727 173.076 150.511 172.092 150.517L168.976 150.531L169.016 159.235L171.061 159.225L171.046 156.008L172.117 156.004ZM171.808 152.095C172.239 152.092 172.567 152.169 172.794 152.329C173.073 152.529 173.213 152.837 173.216 153.248C173.217 153.668 173.079 153.981 172.803 154.183C172.577 154.343 172.249 154.426 171.82 154.428L171.025 154.431L171.014 152.097L171.808 152.095Z" fill="#326AC8"/>
<path fill-rule="evenodd" clip-rule="evenodd" d="M181.293 159.178L183.514 159.168L180.193 150.466L178.074 150.477L174.835 159.208L176.954 159.198L177.564 157.442L180.667 157.427L181.293 159.178ZM179.094 152.716L180.193 155.84L178.023 155.85L179.094 152.716Z" fill="#326AC8"/>
<path d="M190.252 150.432L187.248 155.63L187.264 159.15L185.221 159.16L185.204 155.64L182.151 150.47L184.423 150.459L186.218 153.92L187.981 150.443L190.252 150.432Z" fill="#326AC8"/>
<path d="M197.708 158.067C196.946 158.859 195.901 159.26 194.572 159.267C193.26 159.273 192.169 158.872 191.3 158.065C190.429 157.257 189.991 156.168 189.984 154.798C189.978 153.427 190.409 152.334 191.275 151.518C192.142 150.702 193.227 150.291 194.53 150.285C195.304 150.282 195.946 150.39 196.455 150.611C196.966 150.832 197.322 151.045 197.524 151.255L196.903 152.948C196.775 152.781 196.492 152.588 196.054 152.372C195.615 152.156 195.149 152.049 194.651 152.051C193.895 152.054 193.271 152.296 192.781 152.779C192.292 153.26 192.049 153.917 192.053 154.75C192.057 155.574 192.31 156.225 192.813 156.702C193.316 157.178 193.936 157.415 194.677 157.412C195.645 157.408 196.424 157.097 197.019 156.48L197.708 158.067Z" fill="#326AC8"/>
<path d="M206.231 159.061L204.188 159.071L204.171 155.424L200.676 155.441L200.694 159.087L198.649 159.096L198.609 150.392L200.652 150.383L200.668 153.75L204.162 153.733L204.147 150.366L206.191 150.357L206.231 159.061Z" fill="#326AC8"/>
<path d="M213.577 159.027L207.824 159.054L207.783 150.35L213.422 150.323L213.429 151.949L209.822 151.966L209.83 153.745L213.237 153.729L213.245 155.357L209.838 155.374L209.848 157.392L213.569 157.375L213.577 159.027Z" fill="#326AC8"/>
<path d="M222.102 157.952C221.341 158.745 220.295 159.145 218.966 159.152C217.655 159.158 216.564 158.757 215.694 157.95C214.824 157.142 214.386 156.054 214.379 154.683C214.373 153.312 214.803 152.219 215.669 151.404C216.536 150.588 217.621 150.176 218.925 150.171C219.698 150.167 220.341 150.275 220.85 150.496C221.36 150.717 221.716 150.931 221.919 151.14L221.297 152.834C221.17 152.666 220.887 152.474 220.449 152.258C220.009 152.041 219.543 151.934 219.046 151.936C218.289 151.94 217.666 152.182 217.176 152.664C216.687 153.145 216.445 153.803 216.448 154.636C216.451 155.46 216.704 156.11 217.208 156.587C217.711 157.064 218.331 157.3 219.072 157.297C220.039 157.293 220.82 156.982 221.413 156.365L222.102 157.952Z" fill="#326AC8"/>
<path d="M230.399 158.948L227.953 158.959L225.752 155.335L225.062 156.11L225.075 158.972L223.045 158.982L223.003 150.278L225.034 150.268L225.05 153.447L227.721 150.256L230.143 150.245L227.094 153.728L230.399 158.948Z" fill="#326AC8"/>
<path fill-rule="evenodd" clip-rule="evenodd" d="M253.476 146.564C269.429 147.87 272.549 159.281 272.549 167.57C272.549 176.101 268.686 187.289 253.476 188.576C245.275 189.27 236.367 189.161 233.139 182.512C231.785 179.723 233.14 176.826 233.14 176.826C233.14 176.826 229.25 173.124 229.25 167.57C229.25 161.696 233.14 159.119 233.14 159.119C233.14 159.119 231.262 155.699 232.701 152.978C236.341 146.09 244.996 145.871 253.476 146.564Z" fill="#9D7354"/>
<path fill-rule="evenodd" clip-rule="evenodd" d="M143.506 166.931C127.552 168.237 124.432 179.647 124.432 187.937C124.432 196.467 128.294 207.655 143.506 208.943C151.706 209.636 160.613 209.527 163.842 202.879C165.196 200.09 163.842 197.192 163.842 197.192C163.842 197.192 167.731 193.49 167.731 187.937C167.731 182.063 163.842 179.486 163.842 179.486C163.842 179.486 165.719 176.066 164.28 173.345C160.641 166.457 151.985 166.237 143.506 166.931Z" fill="#9D7354"/>
</g>
</svg>
