<svg width="300" height="245" viewBox="0 0 300 245" fill="none" xmlns="http://www.w3.org/2000/svg">
<path d="M4.44105 163.889C-12.8429 103.889 21.1492 28.8887 92.0142 28.8887C150.78 28.8887 160.575 76.1109 213.003 86.1109C285.498 99.9383 300 142.778 300 169.444C300 205.555 300 244.444 193.991 244.444C83.372 244.444 24.7658 234.444 4.44105 163.889Z" fill="#EDF3FE"/>
<mask id="mask0" mask-type="alpha" maskUnits="userSpaceOnUse" x="0" y="28" width="300" height="217">
<path d="M4.44105 163.889C-12.8429 103.889 21.1492 28.8887 92.0142 28.8887C150.78 28.8887 160.575 76.1109 213.003 86.1109C285.498 99.9383 300 142.778 300 169.444C300 205.555 300 244.444 193.991 244.444C83.372 244.444 24.7658 234.444 4.44105 163.889Z" fill="#EDF3FE"/>
</mask>
<g mask="url(#mask0)">
<path d="M300 244.444H0V186.362H11.6667V137.814L25.4286 131.354L46.6088 135.298V190.462H58.7721V167.315L67.0536 163.197L74.8586 167.315V178.299H90.2731V148.598H112.147L119.03 154.293L119.233 177.057L129.569 179.604V148.598L143.662 139.715L167.222 147.222V171.111H176.717V180.65L204.951 177.767L211.442 183.533V197.134H232.664V141.149L254.498 135.298L268.591 142.361V180.65H287.222V159.444H300V244.444Z" fill="#C9DCFC"/>
</g>
<mask id="mask1" mask-type="alpha" maskUnits="userSpaceOnUse" x="0" y="28" width="300" height="217">
<path d="M4.44105 163.889C-12.8429 103.889 21.1492 28.8887 92.0142 28.8887C150.78 28.8887 160.575 76.1109 213.003 86.1109C285.498 99.9383 300 142.778 300 169.444C300 205.555 300 244.444 193.991 244.444C83.372 244.444 24.7658 234.444 4.44105 163.889Z" fill="#EDF3FE"/>
</mask>
<g mask="url(#mask1)">
<path fill-rule="evenodd" clip-rule="evenodd" d="M172.227 194.677L166.587 228.953C166.587 228.953 166.316 228.87 165.82 228.693C164.062 228.044 159.52 226.145 154.34 222.145C146.871 216.387 138.117 206.275 134.553 189.308C133.314 183.421 132.713 176.708 132.996 169.061L158.34 161.97C158.34 161.97 158.34 170.147 160.063 178.383C161.006 182.95 162.481 187.516 164.782 190.724C166.67 193.379 169.055 194.677 172.227 194.677Z" fill="#9D7354"/>
<path d="M132.162 166.024C133.256 175.991 140.454 177.748 145.645 177.604C150.986 177.456 157.923 174.844 158.467 165.298C158.759 160.151 158.536 154.577 154.318 152.67C152.548 151.87 150.757 152.77 150.757 152.77C150.757 152.77 148.373 150.398 144.895 150.494C141.217 150.595 139.672 153.075 139.672 153.075C139.672 153.075 137.498 151.959 135.819 152.906C131.569 155.304 131.582 160.728 132.162 166.024Z" fill="#FFC107"/>
<path d="M160.063 178.383C160.063 178.383 159.743 178.948 159.059 179.823C156.559 183.02 149.161 190.371 134.554 189.309C133.315 183.421 132.713 176.708 132.996 169.062L158.34 161.971C158.34 161.971 158.34 170.147 160.063 178.383Z" fill="#FFC107"/>
<path d="M172.223 194.678L173.156 225.59L165.188 232.945C165.188 232.945 156.047 231.097 152.602 227.385C154.18 205.925 164.779 190.726 164.779 190.726C164.779 190.726 170.28 193.562 172.223 194.678Z" fill="#282828"/>
<path fill-rule="evenodd" clip-rule="evenodd" d="M173.598 182.386L172.223 194.678C172.223 194.678 181.392 223.784 211.192 223.784C241.368 223.784 250.164 194.678 250.164 194.678L248.788 182.386H173.598Z" fill="#9D7354"/>
<path fill-rule="evenodd" clip-rule="evenodd" d="M248.273 125.343C238.982 115.093 231.942 122.937 226.732 126.895C225.068 128.108 223.458 128.124 221.309 128C220.848 126.935 220.89 125.272 221.494 124.198C217.671 123.53 213.165 126.136 213.165 126.136C212.702 124.575 213.234 122.376 213.876 120.232C204.441 120.941 202.199 126.895 197.043 126.895H195.656C190.447 122.937 183.404 115.093 174.112 125.343C169.981 129.901 169.322 137.121 179.072 142.427C175.678 155.047 173.599 182.386 173.599 182.386C173.599 182.386 182.066 195.641 211.193 195.641C240.322 195.641 248.789 182.386 248.789 182.386C248.789 182.386 246.712 155.047 243.316 142.427C253.065 137.121 252.409 129.901 248.273 125.343Z" fill="#9D7354"/>
<path fill-rule="evenodd" clip-rule="evenodd" d="M186.63 131.454C187.266 130.83 187.005 129.758 186.158 129.485C184.92 129.083 183.224 128.889 181.853 130.038C179.487 132.019 180.191 133.959 180.993 135.088C181.41 135.676 182.261 135.743 182.775 135.237L186.63 131.454Z" fill="#493426"/>
<path fill-rule="evenodd" clip-rule="evenodd" d="M235.757 131.454C235.121 130.83 235.381 129.758 236.228 129.485C237.466 129.083 239.164 128.889 240.535 130.038C242.9 132.019 242.195 133.959 241.394 135.088C240.977 135.676 240.126 135.743 239.612 135.237L235.757 131.454Z" fill="#493426"/>
<path fill-rule="evenodd" clip-rule="evenodd" d="M222.309 180.884C222.309 189.687 217.332 191.024 211.193 191.024C205.054 191.024 200.078 189.604 200.078 180.884C200.078 171.209 205.054 164.065 211.193 164.065C217.332 164.065 222.309 171.209 222.309 180.884Z" fill="#EBBF8D"/>
<path d="M258.619 265.719H163.767C163.767 265.719 163.308 251.62 165.184 232.942C166.374 221.202 168.486 207.669 172.227 194.677C172.227 194.677 174.752 197.426 179.99 200.423C186.316 204.081 196.603 208.093 211.188 208.093C238.774 208.093 250.159 194.677 250.159 194.677C259.846 228.329 258.619 265.719 258.619 265.719Z" fill="#282828"/>
<path fill-rule="evenodd" clip-rule="evenodd" d="M203.966 140.894C203.55 141.752 202.519 142.111 201.661 141.697L201.297 141.52C198.736 140.282 196.58 140.231 193.848 141.347L193.473 141.501C192.59 141.859 191.585 141.437 191.224 140.554L190.917 139.804C190.559 138.923 190.981 137.916 191.864 137.556L192.239 137.403C196.059 135.843 199.527 135.933 203.152 137.684L203.516 137.861C204.374 138.275 204.733 139.307 204.319 140.165L203.966 140.894Z" fill="#493426"/>
<path fill-rule="evenodd" clip-rule="evenodd" d="M218.393 140.825L218.053 140.09C217.653 139.226 218.029 138.2 218.894 137.801L219.261 137.63C222.915 135.94 226.384 135.911 230.178 137.535L230.55 137.696C231.426 138.07 231.833 139.083 231.457 139.96L231.138 140.705C230.763 141.581 229.749 141.986 228.874 141.611L228.5 141.452C225.79 140.291 223.63 140.304 221.05 141.496L220.682 141.667C219.818 142.067 218.793 141.69 218.393 140.825Z" fill="#493426"/>
<path fill-rule="evenodd" clip-rule="evenodd" d="M194.133 159.155C193.947 159.155 193.757 159.117 193.575 159.036C192.88 158.728 192.566 157.914 192.875 157.217C193.614 155.551 195.423 154.474 197.484 154.474C199.009 154.474 200.472 155.098 201.398 156.144C201.903 156.715 201.852 157.586 201.282 158.091C200.711 158.594 199.841 158.541 199.335 157.973C198.925 157.508 198.233 157.23 197.484 157.23C196.541 157.23 195.682 157.686 195.393 158.336C195.165 158.849 194.661 159.155 194.133 159.155Z" fill="#493426"/>
<path fill-rule="evenodd" clip-rule="evenodd" d="M228.254 159.155C227.725 159.155 227.221 158.849 226.994 158.336C226.704 157.686 225.845 157.23 224.903 157.23C224.165 157.23 223.456 157.515 223.051 157.971C222.547 158.541 221.676 158.594 221.105 158.091C220.536 157.586 220.483 156.715 220.988 156.144C221.914 155.098 223.377 154.474 224.903 154.474C226.963 154.474 228.773 155.551 229.511 157.217C229.821 157.914 229.507 158.728 228.812 159.036C228.63 159.117 228.44 159.155 228.254 159.155Z" fill="#493426"/>
<path fill-rule="evenodd" clip-rule="evenodd" d="M239.107 148.865H246.426C247.112 148.865 247.671 149.418 247.671 150.11V151.283C247.671 151.968 247.112 152.527 246.426 152.527H240.335V155.485C240.335 159.19 239.933 162.106 237.978 164.316C235.906 166.648 232.389 167.735 226.899 167.735C219.113 167.735 213.465 162.585 213.465 155.485V154.362H208.922V155.485C208.922 162.585 203.268 167.735 195.482 167.735C189.998 167.735 186.481 166.648 184.41 164.316C182.448 162.106 182.047 159.19 182.047 155.485V152.527H175.962C175.275 152.527 174.716 151.968 174.716 151.283V150.11C174.716 149.418 175.275 148.865 175.962 148.865H183.28C183.547 148.518 183.869 148.203 184.269 147.923C186.183 146.551 189.414 146.314 195.482 146.314C201.556 146.314 204.787 146.551 206.699 147.923C207.72 148.647 208.266 149.576 208.563 150.693H213.818C214.115 149.576 214.668 148.647 215.682 147.923C217.6 146.551 220.826 146.314 226.899 146.314C232.972 146.314 236.198 146.551 238.118 147.923C238.519 148.203 238.84 148.518 239.107 148.865ZM195.482 164.073C187.532 164.073 186.039 161.812 185.773 157.742C185.726 157.042 185.716 156.29 185.716 155.485C185.716 152.722 185.74 151.373 186.396 150.906C187.593 150.05 191.717 149.976 195.482 149.976C199.253 149.976 203.372 150.05 204.573 150.906C204.808 151.072 204.959 151.359 205.061 151.777C205.242 152.526 205.254 153.711 205.254 155.485C205.254 160.545 201.239 164.073 195.482 164.073ZM226.899 164.073C221.148 164.073 217.127 160.545 217.127 155.485C217.127 152.722 217.158 151.373 217.814 150.906C219.009 150.05 223.134 149.976 226.899 149.976C230.671 149.976 234.789 150.05 235.991 150.906C236.641 151.373 236.671 152.722 236.671 155.485C236.671 160.969 236.216 164.073 226.899 164.073Z" fill="#282828"/>
<path opacity="0.45" fill-rule="evenodd" clip-rule="evenodd" d="M195.482 164.072C201.238 164.072 205.254 160.544 205.254 155.485C205.254 154.81 205.251 154.223 205.239 153.71L186.119 159.952C186.891 162.621 189.115 164.072 195.482 164.072Z" fill="white"/>
<path opacity="0.45" fill-rule="evenodd" clip-rule="evenodd" d="M218.298 159.803C219.885 162.438 222.99 164.072 226.899 164.072C236.216 164.072 236.671 160.969 236.671 155.485C236.671 154.854 236.668 154.299 236.659 153.81L218.298 159.803Z" fill="white"/>
<path fill-rule="evenodd" clip-rule="evenodd" d="M218.216 171.904C218.216 172.856 216.552 174.343 214.844 175.621C212.679 177.24 209.708 177.24 207.543 175.621C205.836 174.343 204.171 172.856 204.171 171.904C204.171 169.953 207.315 168.368 211.194 168.368C215.072 168.368 218.216 169.953 218.216 171.904Z" fill="#493426"/>
<path fill-rule="evenodd" clip-rule="evenodd" d="M214.998 171.287C214.998 171.479 214.605 171.697 214.071 171.904C212.224 172.624 210.162 172.624 208.316 171.904C207.784 171.697 207.39 171.479 207.39 171.287C207.39 170.69 209.093 170.206 211.194 170.206C213.295 170.206 214.998 170.69 214.998 171.287Z" fill="#EBBF8D"/>
<path fill-rule="evenodd" clip-rule="evenodd" d="M211.17 186.173C206.182 186.173 204.591 183.062 204.526 182.93C204.277 182.425 204.484 181.815 204.989 181.567C205.491 181.319 206.095 181.522 206.346 182.019C206.405 182.126 207.53 184.137 211.17 184.137C214.778 184.137 216.054 181.993 216.066 181.971C216.347 181.483 216.969 181.317 217.456 181.597C217.943 181.877 218.112 182.5 217.831 182.988C217.756 183.117 215.942 186.173 211.17 186.173Z" fill="#493426"/>
<path d="M250.235 194.678C250.235 194.678 281.177 204.709 275.71 227.181C275.71 227.181 276.358 239.792 250.163 239.792L250.235 194.678Z" fill="#282828"/>
<path d="M257.216 232.942C256.024 221.202 253.912 207.669 250.171 194.677C250.171 194.677 247.647 197.426 242.408 200.423C242.408 200.423 245.016 212.203 245.016 220.403C245.016 220.403 229.632 227.164 211.2 227.164C192.756 227.164 177.384 220.403 177.384 220.403C177.384 212.203 179.992 200.423 179.992 200.423C174.752 197.426 172.228 194.677 172.228 194.677C168.488 207.669 166.376 221.202 165.184 232.942C163.308 251.62 163.768 265.718 163.768 265.718H211.2H258.632C258.632 265.718 259.092 251.62 257.216 232.942Z" fill="#326AC8"/>
<path fill-rule="evenodd" clip-rule="evenodd" d="M191.992 126.136H231.883C231.883 117.852 226.834 110.76 219.643 107.743C218.803 107.389 217.931 107.092 217.035 106.859C217.004 106.853 216.97 106.844 216.937 106.835C216.91 106.828 216.884 106.821 216.859 106.816C215.279 106.418 213.632 106.197 211.932 106.197C210.229 106.197 208.585 106.418 207.017 106.816L206.982 106.827C206.958 106.833 206.932 106.839 206.905 106.844C206.882 106.849 206.86 106.854 206.838 106.859C205.945 107.092 205.071 107.389 204.232 107.732V107.743C197.041 110.748 191.992 117.852 191.992 126.136ZM231.882 129.53H191.989V126.139H231.882V129.53Z" fill="#FFCC34"/>
<path fill-rule="evenodd" clip-rule="evenodd" d="M213.771 103.735H210.1C208.396 103.735 207.014 105.117 207.014 106.82V127.833H192.188C191.051 127.833 190.121 128.764 190.121 129.902C190.121 131.039 191.051 131.969 192.188 131.969H197.376C197.376 134.346 203.895 136.271 211.934 136.271C219.975 136.271 226.493 134.346 226.493 131.969H231.681C232.818 131.969 233.749 131.039 233.749 129.902C233.749 128.764 232.818 127.833 231.681 127.833H216.854V106.82C216.854 105.117 215.474 103.735 213.771 103.735Z" fill="#FFC107"/>
<path d="M196.204 121.333C197.292 117.701 199.595 114.594 202.644 112.489" stroke="white" stroke-width="2.36501" stroke-linecap="round" stroke-linejoin="round"/>
</g>
<mask id="mask2" mask-type="alpha" maskUnits="userSpaceOnUse" x="0" y="28" width="300" height="217">
<path d="M4.44105 163.889C-12.8429 103.889 21.1492 28.8887 92.0142 28.8887C150.78 28.8887 160.575 76.1109 213.003 86.1109C285.498 99.9383 300 142.778 300 169.444C300 205.555 300 244.444 193.991 244.444H21.6667C12.6418 233.956 9.16239 180.278 4.44105 163.889Z" fill="#EDF3FE"/>
</mask>
<g mask="url(#mask2)">
<path d="M90.9952 117.197C87.932 117.197 85.4487 114.714 85.4487 111.651C85.4487 108.587 87.932 106.104 90.9952 106.104C98.9571 106.104 105.434 99.627 105.434 91.6664C105.434 84.077 100.788 81.0638 94.2235 77.6384C90.1107 75.4917 85.4487 73.0583 85.4487 67.7474V56.9669C85.4487 53.905 87.932 51.4204 90.9952 51.4204C94.0583 51.4204 96.5403 53.905 96.5403 56.9669V66.2626C97.2943 66.7285 98.4451 67.3288 99.3565 67.805C105.357 70.936 116.524 76.7679 116.524 91.6664C116.524 105.743 105.073 117.197 90.9952 117.197Z" fill="#DADADA"/>
<path d="M133.207 156.326H113.436V130.853C113.436 117.163 102.299 106.025 88.6092 106.025C74.9191 106.025 63.7814 117.163 63.7814 130.853V156.326H44.0098V130.853C44.0098 106.261 64.0169 86.2534 88.6092 86.2534C113.201 86.2534 133.207 106.261 133.207 130.853V156.326Z" fill="#C0C0C0"/>
<path d="M50.3384 147.743V131.325C50.3384 122.078 53.6179 113.598 59.0773 106.982" stroke="white" stroke-width="4.03268" stroke-linecap="round" stroke-linejoin="round"/>
<mask id="mask3" mask-type="alpha" maskUnits="userSpaceOnUse" x="53" y="28" width="76" height="31">
<path fill-rule="evenodd" clip-rule="evenodd" d="M53.8462 28.8887V40.9096C53.8462 45.2746 57.4828 49.2299 63.1317 51.0117L84.5891 57.7793C88.6648 59.0671 93.3254 59.0671 97.4011 57.7793L118.86 51.0117C124.507 49.2299 128.145 45.2746 128.145 40.9096V28.8887H53.8462Z" fill="white"/>
</mask>
<g mask="url(#mask3)">
<path fill-rule="evenodd" clip-rule="evenodd" d="M57.012 59.9758H40.7349L54.9626 24.978H71.2397L57.012 59.9758Z" fill="#DADADA"/>
<path fill-rule="evenodd" clip-rule="evenodd" d="M73.322 59.9758H57.0449L71.2739 24.978H87.551L73.322 59.9758Z" fill="#EEEEEE"/>
<path fill-rule="evenodd" clip-rule="evenodd" d="M89.6323 59.9758H73.3564L87.5842 24.978H103.861L89.6323 59.9758Z" fill="#DADADA"/>
<path fill-rule="evenodd" clip-rule="evenodd" d="M122.253 59.9758H105.976L120.205 24.978H136.482L122.253 59.9758Z" fill="#DADADA"/>
<path fill-rule="evenodd" clip-rule="evenodd" d="M105.943 59.9758H89.666L103.895 24.978H120.171L105.943 59.9758Z" fill="#EEEEEE"/>
</g>
<path d="M90.9952 117.197C76.9172 117.197 65.4659 105.743 65.4659 91.6665C65.4659 89.7657 65.2957 89.0745 63.2873 88.1669C60.4955 86.906 59.2564 83.6202 60.5173 80.8297C61.7781 78.0392 65.0627 76.7962 67.8545 78.0609C73.6288 80.6709 76.5563 85.2471 76.5563 91.6665C76.5563 99.6272 83.0333 106.104 90.9952 106.104C94.0583 106.104 96.5404 108.587 96.5404 111.651C96.5404 114.714 94.0583 117.197 90.9952 117.197Z" fill="#DADADA"/>
<path d="M134.132 244.444H43.0846C35.8588 244.444 30 238.587 30 231.359V168.716C30 161.491 35.8588 155.632 43.0846 155.632H134.132C141.359 155.632 147.217 161.491 147.217 168.716V231.359C147.217 238.587 141.359 244.444 134.132 244.444Z" fill="#282828"/>
<path d="M74.5918 162.223H80.3482" stroke="white" stroke-width="4.03268" stroke-linecap="round" stroke-linejoin="round"/>
<path d="M62.6875 162.223H44.3738C40.3366 162.223 37.0635 165.496 37.0635 169.533V181.427" stroke="white" stroke-width="4.03268" stroke-linecap="round" stroke-linejoin="round"/>
<mask id="mask4" mask-type="alpha" maskUnits="userSpaceOnUse" x="44" y="174" width="19" height="51">
<path fill-rule="evenodd" clip-rule="evenodd" d="M46.5319 174.046C45.1393 174.046 44.0103 175.175 44.0103 176.568V222.154C44.0103 223.547 45.1393 224.677 46.5319 224.677H60.1645C61.5584 224.677 62.6874 223.547 62.6874 222.154V176.568C62.6874 175.175 61.5584 174.046 60.1645 174.046H46.5319Z" fill="white"/>
</mask>
<g mask="url(#mask4)">
<path fill-rule="evenodd" clip-rule="evenodd" d="M44.0088 224.677H62.6872V174.046H44.0088V224.677Z" fill="white"/>
<path d="M58.8425 205.809H48.5791L48.1938 203.74L52.9402 199.461C53.6699 198.798 54.2036 198.219 54.5429 197.726C54.8795 197.232 55.0498 196.709 55.0498 196.153C55.0498 195.558 54.8462 195.082 54.4405 194.725C54.0347 194.366 53.4868 194.186 52.7969 194.186C51.5399 194.186 50.4109 194.816 49.4099 196.073L48.0312 193.922C48.1247 193.72 48.3487 193.456 48.7007 193.132C49.0527 192.807 49.6339 192.473 50.4441 192.127C51.2557 191.783 52.1415 191.61 53.1015 191.61C54.6709 191.61 55.9112 191.988 56.8239 192.746C57.7379 193.504 58.1936 194.503 58.1936 195.749C58.1936 196.289 58.1167 196.8 57.9606 197.28C57.8044 197.76 57.5586 198.215 57.2194 198.649C56.8815 199.081 56.6037 199.402 56.3887 199.612L55.4555 200.475C55.3608 200.555 55.293 200.615 55.252 200.656L52.3514 203.274H58.8425V205.809Z" fill="#282828"/>
<path fill-rule="evenodd" clip-rule="evenodd" d="M56.9664 228.563C55.904 229.334 54.6175 229.719 53.102 229.719C51.8309 229.719 50.7531 229.461 49.8673 228.949C48.9815 228.434 48.3555 227.913 47.9907 227.386L49.4922 225.439C49.8289 225.844 50.3294 226.237 50.9924 226.616C51.6555 226.994 52.2981 227.183 52.9202 227.183C53.637 227.183 54.2246 227.007 54.6841 226.657C55.1436 226.304 55.374 225.824 55.374 225.216C55.374 224.621 55.1641 224.159 54.7455 223.826C54.3257 223.494 53.7919 223.329 53.1429 223.329H51.9051V221.038H53.1429C53.7113 221.038 54.1644 220.896 54.501 220.61C54.839 220.326 55.0092 219.922 55.0092 219.394C55.0092 218.867 54.8159 218.46 54.4306 218.178C54.0453 217.893 53.5615 217.752 52.9803 217.752C51.8718 217.752 50.7556 218.204 49.633 219.11L48.4157 217.04C49.025 216.5 49.6945 216.074 50.4254 215.763C51.155 215.453 52.0946 215.297 53.244 215.297C54.583 215.297 55.7286 215.635 56.6822 216.311C57.6359 216.987 58.1133 217.893 58.1133 219.029C58.1133 220.516 57.4426 221.537 56.1037 222.091V222.152C56.7667 222.329 57.3415 222.699 57.8279 223.268C58.3156 223.837 58.5588 224.545 58.5588 225.398C58.5588 226.737 58.0276 227.791 56.9664 228.563Z" fill="#C5C6C6"/>
<path fill-rule="evenodd" clip-rule="evenodd" d="M55.619 183.561H52.4547V171.816H49.9189V169.564H55.619V183.561Z" fill="#C5C6C6"/>
<path fill-rule="evenodd" clip-rule="evenodd" d="M44.0093 178.646H62.6877V174.031H44.0093V178.646Z" fill="#C5C6C6"/>
<path fill-rule="evenodd" clip-rule="evenodd" d="M44.0088 224.66H62.6872V220.044H44.0088V224.66Z" fill="#C5C6C6"/>
<path d="M45.8926 189.172V186.932H60.8051V189.172H45.8926Z" fill="#282828"/>
<path d="M45.8926 211.79V209.55H60.8051V211.79H45.8926Z" fill="#282828"/>
</g>
<path fill-rule="evenodd" clip-rule="evenodd" d="M83.6719 224.677H70.0381C68.6454 224.677 67.5151 223.547 67.5151 222.154V176.568C67.5151 175.175 68.6454 174.046 70.0381 174.046H83.6719C85.0646 174.046 86.1936 175.175 86.1936 176.568V222.154C86.1936 223.547 85.0646 224.677 83.6719 224.677Z" fill="white"/>
<mask id="mask5" mask-type="alpha" maskUnits="userSpaceOnUse" x="67" y="174" width="20" height="51">
<path fill-rule="evenodd" clip-rule="evenodd" d="M70.0373 174.046C68.6446 174.046 67.5156 175.175 67.5156 176.568V222.154C67.5156 223.547 68.6446 224.677 70.0373 224.677H83.6724C85.0651 224.677 86.1941 223.547 86.1941 222.154V176.568C86.1941 175.175 85.0651 174.046 83.6724 174.046" fill="white"/>
</mask>
<g mask="url(#mask5)">
<path fill-rule="evenodd" clip-rule="evenodd" d="M80.1486 204.999C81.0472 204.295 81.691 203.417 82.075 202.359C82.4603 201.306 82.6536 200.13 82.6536 198.832C82.6536 197.534 82.4603 196.356 82.075 195.302C81.691 194.248 81.0472 193.368 80.1486 192.664C79.2487 191.962 78.1504 191.611 76.8524 191.611C75.5545 191.611 74.4549 191.962 73.5563 192.664C72.6564 193.368 72.0151 194.248 71.6286 195.302C71.2433 196.356 71.0513 197.534 71.0513 198.832C71.0513 199.792 71.1626 200.691 71.3854 201.53C71.6094 202.367 71.9473 203.131 72.4004 203.821C72.8523 204.511 73.4603 205.056 74.2258 205.455C74.99 205.854 75.8642 206.052 76.8524 206.052C78.1504 206.052 79.2487 205.702 80.1486 204.999ZM76.8523 194.35C77.7176 194.35 78.3627 194.751 78.789 195.556C79.2153 196.361 79.429 197.433 79.429 198.771C79.429 200.109 79.2153 201.187 78.789 202.006C78.3627 202.824 77.7176 203.234 76.8523 203.234C75.987 203.234 75.3406 202.824 74.9156 202.006C74.4893 201.187 74.2768 200.109 74.2768 198.771C74.2768 197.433 74.4893 196.361 74.9156 195.556C75.3406 194.751 75.987 194.35 76.8523 194.35Z" fill="#282828"/>
</g>
<mask id="mask6" mask-type="alpha" maskUnits="userSpaceOnUse" x="67" y="174" width="20" height="51">
<path fill-rule="evenodd" clip-rule="evenodd" d="M70.0373 174.046C68.6446 174.046 67.5156 175.175 67.5156 176.568V222.154C67.5156 223.547 68.6446 224.677 70.0373 224.677H83.6724C85.0651 224.677 86.1941 223.547 86.1941 222.154V176.568C86.1941 175.175 85.0651 174.046 83.6724 174.046H70.0373Z" fill="white"/>
</mask>
<g mask="url(#mask6)">
<path fill-rule="evenodd" clip-rule="evenodd" d="M79.1253 229.496H75.9611V217.751H73.4253V215.499H79.1253V229.496Z" fill="#C5C6C6"/>
</g>
<mask id="mask7" mask-type="alpha" maskUnits="userSpaceOnUse" x="67" y="174" width="20" height="51">
<path fill-rule="evenodd" clip-rule="evenodd" d="M70.0373 174.046C68.6446 174.046 67.5156 175.175 67.5156 176.568V222.154C67.5156 223.547 68.6446 224.677 70.0373 224.677H83.6724C85.0651 224.677 86.1941 223.547 86.1941 222.154V176.568C86.1941 175.175 85.0651 174.046 83.6724 174.046" fill="white"/>
</mask>
<g mask="url(#mask7)">
<path fill-rule="evenodd" clip-rule="evenodd" d="M79.8555 172.424C79.4497 171.979 78.9018 171.756 78.2119 171.756C77.5219 171.756 76.9779 171.979 76.5798 172.424C76.1804 172.871 75.982 173.417 75.982 174.068C75.982 174.704 76.1843 175.246 76.5901 175.702C76.9958 176.154 77.536 176.381 78.2119 176.381C78.9018 176.381 79.4497 176.154 79.8555 175.702C80.2612 175.246 80.4635 174.704 80.4635 174.068C80.4635 173.417 80.2612 172.871 79.8555 172.424ZM81.9253 182.081C80.8564 183.216 79.4356 183.784 77.6653 183.784C75.9206 183.784 74.4664 183.324 73.3042 182.405L74.4805 180.275C74.6828 180.477 75.0821 180.697 75.6761 180.934C76.2726 181.169 76.8947 181.288 77.5437 181.288C78.3808 181.288 79.0708 181.004 79.6122 180.437C80.3291 179.693 80.6875 178.578 80.6875 177.091C80.4699 177.481 80.0718 177.84 79.4906 178.165C78.9095 178.489 78.1376 178.651 77.1789 178.651C76.0153 178.651 75.0041 178.265 74.1451 177.496C73.2862 176.724 72.8574 175.677 72.8574 174.352C72.8574 172.932 73.331 171.744 74.277 170.792C75.2242 169.837 76.4953 169.361 78.0915 169.361C79.9975 169.361 81.499 170.139 82.5935 171.696C83.405 172.844 83.8108 174.42 83.8108 176.422C83.8108 178.869 83.1823 180.755 81.9253 182.081Z" fill="#C5C6C6"/>
</g>
<mask id="mask8" mask-type="alpha" maskUnits="userSpaceOnUse" x="67" y="174" width="20" height="51">
<path fill-rule="evenodd" clip-rule="evenodd" d="M70.0373 174.046C68.6446 174.046 67.5156 175.175 67.5156 176.568V222.154C67.5156 223.547 68.6446 224.677 70.0373 224.677H83.6724C85.0651 224.677 86.1941 223.547 86.1941 222.154V176.568C86.1941 175.175 85.0651 174.046 83.6724 174.046H70.0373Z" fill="white"/>
</mask>
<g mask="url(#mask8)">
<path fill-rule="evenodd" clip-rule="evenodd" d="M67.5156 178.646H86.1941V174.031H67.5156V178.646Z" fill="#C5C6C6"/>
<path fill-rule="evenodd" clip-rule="evenodd" d="M67.5156 224.66H86.1941V220.044H67.5156V224.66Z" fill="#C5C6C6"/>
<path d="M69.3979 189.172V186.932H84.3105V189.172H69.3979Z" fill="#282828"/>
<path d="M69.3979 211.79V209.55H84.3105V211.79H69.3979Z" fill="#282828"/>
</g>
<mask id="mask9" mask-type="alpha" maskUnits="userSpaceOnUse" x="91" y="174" width="19" height="51">
<path fill-rule="evenodd" clip-rule="evenodd" d="M93.5442 174.046C92.1515 174.046 91.0225 175.175 91.0225 176.568V222.154C91.0225 223.547 92.1515 224.677 93.5442 224.677H107.178C108.572 224.677 109.701 223.547 109.701 222.154V176.568C109.701 175.175 108.572 174.046 107.178 174.046H93.5442Z" fill="white"/>
</mask>
<g mask="url(#mask9)">
<path fill-rule="evenodd" clip-rule="evenodd" d="M91.0225 224.677H109.701V174.046H91.0225V224.677Z" fill="white"/>
<path fill-rule="evenodd" clip-rule="evenodd" d="M104.437 203.01H106.303V200.475H104.437V191.771H100.805L94.4561 200.615V203.01H101.272V205.808H104.437V203.01ZM101.353 195.119V200.535H97.4384L101.353 195.119Z" fill="#282828"/>
<path fill-rule="evenodd" clip-rule="evenodd" d="M104 228.421C102.884 229.286 101.576 229.72 100.074 229.72C98.803 229.72 97.7252 229.489 96.8394 229.03C95.9536 228.57 95.3148 228.035 94.9219 227.427L96.4234 225.5C96.7882 226.013 97.2951 226.422 97.9454 226.728C98.5931 227.032 99.2292 227.183 99.8513 227.183C100.541 227.183 101.153 226.981 101.687 226.577C102.222 226.17 102.488 225.581 102.488 224.811C102.488 224.04 102.225 223.455 101.697 223.056C101.17 222.657 100.554 222.457 99.8513 222.457C98.8375 222.457 97.985 222.699 97.2951 223.187L95.8755 222.336L96.9508 215.499H105.146V218.014H99.324L98.9182 220.53C99.3905 220.327 100.014 220.228 100.784 220.228C101.339 220.228 101.893 220.317 102.449 220.5C103.003 220.682 103.526 220.947 104.02 221.293C104.513 221.636 104.913 222.117 105.217 222.733C105.521 223.347 105.673 224.04 105.673 224.811C105.673 226.353 105.115 227.555 104 228.421Z" fill="#C5C6C6"/>
<path fill-rule="evenodd" clip-rule="evenodd" d="M105.584 182.628C104.521 183.398 103.235 183.784 101.719 183.784C100.448 183.784 99.3703 183.525 98.4845 183.013C97.5987 182.498 96.9727 181.977 96.6079 181.451L98.1081 179.503C98.4461 179.909 98.9466 180.302 99.6096 180.681C100.273 181.058 100.915 181.248 101.537 181.248C102.253 181.248 102.842 181.071 103.301 180.722C103.762 180.368 103.991 179.888 103.991 179.28C103.991 178.685 103.781 178.223 103.363 177.89C102.943 177.559 102.409 177.394 101.76 177.394H100.522V175.102H101.76C102.327 175.102 102.78 174.96 103.118 174.676C103.456 174.391 103.625 173.986 103.625 173.459C103.625 172.933 103.433 172.524 103.048 172.243C102.663 171.957 102.179 171.816 101.598 171.816C100.489 171.816 99.3728 172.268 98.2502 173.175L97.0329 171.105C97.6422 170.565 98.3117 170.138 99.0426 169.827C99.7709 169.517 100.712 169.361 101.861 169.361C103.2 169.361 104.346 169.699 105.299 170.375C106.253 171.051 106.731 171.957 106.731 173.094C106.731 174.58 106.06 175.602 104.721 176.156V176.216C105.384 176.394 105.959 176.764 106.445 177.332C106.933 177.902 107.176 178.61 107.176 179.462C107.176 180.801 106.645 181.856 105.584 182.628Z" fill="#C5C6C6"/>
<path fill-rule="evenodd" clip-rule="evenodd" d="M91.0225 178.646H109.701V174.031H91.0225V178.646Z" fill="#C5C6C6"/>
<path fill-rule="evenodd" clip-rule="evenodd" d="M91.0225 224.66H109.701V220.044H91.0225V224.66Z" fill="#C5C6C6"/>
<path d="M92.9048 189.172V186.932H107.817V189.172H92.9048Z" fill="#282828"/>
<path d="M92.9048 211.79V209.55H107.817V211.79H92.9048Z" fill="#282828"/>
</g>
<path fill-rule="evenodd" clip-rule="evenodd" d="M130.685 224.677H117.051C115.658 224.677 114.528 223.547 114.528 222.154V176.568C114.528 175.175 115.658 174.046 117.051 174.046H130.685C132.077 174.046 133.206 175.175 133.206 176.568V222.154C133.206 223.547 132.077 224.677 130.685 224.677Z" fill="white"/>
<mask id="mask10" mask-type="alpha" maskUnits="userSpaceOnUse" x="114" y="174" width="20" height="51">
<path fill-rule="evenodd" clip-rule="evenodd" d="M117.051 174.046C115.657 174.046 114.528 175.175 114.528 176.568V222.154C114.528 223.547 115.657 224.677 117.051 224.677H130.685C132.077 224.677 133.206 223.547 133.206 222.154V176.568C133.206 175.175 132.077 174.046 130.685 174.046" fill="white"/>
</mask>
<g mask="url(#mask10)">
<path fill-rule="evenodd" clip-rule="evenodd" d="M123.865 206.033C125.406 206.033 126.685 205.672 127.699 204.947C128.713 204.224 129.22 203.192 129.22 201.853C129.22 201.015 128.997 200.311 128.551 199.745C128.105 199.175 127.489 198.771 126.704 198.528V198.466C128.111 197.993 128.814 196.992 128.814 195.463C128.814 194.247 128.342 193.301 127.394 192.624C126.448 191.948 125.272 191.61 123.865 191.61C122.458 191.61 121.279 191.948 120.326 192.624C119.372 193.301 118.896 194.247 118.896 195.463C118.896 196.952 119.605 197.952 121.025 198.466V198.507C120.241 198.749 119.626 199.16 119.179 199.734C118.732 200.308 118.511 201.015 118.511 201.853C118.511 203.192 119.018 204.224 120.03 204.947C121.045 205.672 122.324 206.033 123.865 206.033ZM125.204 194.449C124.866 194.154 124.42 194.004 123.865 194.004C123.311 194.004 122.864 194.154 122.526 194.449C122.189 194.746 122.02 195.168 122.02 195.708C122.02 196.235 122.189 196.647 122.526 196.946C122.864 197.243 123.311 197.391 123.865 197.391C124.42 197.391 124.866 197.243 125.204 196.946C125.542 196.647 125.711 196.235 125.711 195.708C125.711 195.168 125.542 194.746 125.204 194.449ZM125.418 200.098C125.005 199.741 124.487 199.561 123.865 199.561C123.23 199.561 122.709 199.741 122.304 200.098C121.898 200.457 121.694 200.941 121.694 201.549C121.694 202.157 121.9 202.642 122.314 203C122.725 203.357 123.243 203.538 123.865 203.538C124.487 203.538 125.005 203.357 125.418 203C125.83 202.642 126.036 202.157 126.036 201.549C126.036 200.941 125.83 200.457 125.418 200.098Z" fill="#282828"/>
</g>
<mask id="mask11" mask-type="alpha" maskUnits="userSpaceOnUse" x="114" y="174" width="20" height="51">
<path fill-rule="evenodd" clip-rule="evenodd" d="M117.051 174.046C115.657 174.046 114.528 175.175 114.528 176.568V222.154C114.528 223.547 115.657 224.677 117.051 224.677H130.685C132.077 224.677 133.206 223.547 133.206 222.154V176.568C133.206 175.175 132.077 174.046 130.685 174.046" fill="white"/>
</mask>
<g mask="url(#mask11)">
<path fill-rule="evenodd" clip-rule="evenodd" d="M125.265 218.359C124.859 217.914 124.311 217.691 123.621 217.691C122.931 217.691 122.387 217.914 121.989 218.359C121.59 218.806 121.391 219.352 121.391 220.003C121.391 220.639 121.594 221.182 121.999 221.636C122.405 222.088 122.945 222.314 123.621 222.314C124.311 222.314 124.859 222.088 125.265 221.636C125.67 221.182 125.873 220.639 125.873 220.003C125.873 219.352 125.67 218.806 125.265 218.359ZM127.334 228.016C126.266 229.151 124.845 229.719 123.074 229.719C121.328 229.719 119.876 229.259 118.712 228.34L119.89 226.21C120.092 226.412 120.491 226.632 121.087 226.869C121.68 227.104 122.304 227.223 122.952 227.223C123.79 227.223 124.48 226.939 125.021 226.372C125.738 225.628 126.097 224.514 126.097 223.026C125.879 223.417 125.481 223.775 124.9 224.1C124.319 224.424 123.547 224.586 122.588 224.586C121.424 224.586 120.413 224.2 119.554 223.431C118.695 222.659 118.267 221.612 118.267 220.287C118.267 218.866 118.739 217.679 119.686 216.727C120.633 215.772 121.904 215.296 123.501 215.296C125.407 215.296 126.908 216.074 128.003 217.631C128.814 218.779 129.22 220.355 129.22 222.357C129.22 224.803 128.591 226.69 127.334 228.016Z" fill="#C5C6C6"/>
</g>
<mask id="mask12" mask-type="alpha" maskUnits="userSpaceOnUse" x="114" y="174" width="20" height="51">
<path fill-rule="evenodd" clip-rule="evenodd" d="M117.051 174.046C115.657 174.046 114.528 175.175 114.528 176.568V222.154C114.528 223.547 115.657 224.677 117.051 224.677H130.685C132.077 224.677 133.206 223.547 133.206 222.154V176.568C133.206 175.175 132.077 174.046 130.685 174.046H117.051Z" fill="white"/>
</mask>
<g mask="url(#mask12)">
<path fill-rule="evenodd" clip-rule="evenodd" d="M131.209 171.511L124.982 183.56H121.533L127.68 172.078H120.336V169.564H130.317L131.209 171.511Z" fill="#C5C6C6"/>
</g>
<mask id="mask13" mask-type="alpha" maskUnits="userSpaceOnUse" x="114" y="174" width="20" height="51">
<path fill-rule="evenodd" clip-rule="evenodd" d="M117.051 174.046C115.657 174.046 114.528 175.175 114.528 176.568V222.154C114.528 223.547 115.657 224.677 117.051 224.677H130.685C132.077 224.677 133.206 223.547 133.206 222.154V176.568C133.206 175.175 132.077 174.046 130.685 174.046H117.051Z" fill="white"/>
</mask>
<g mask="url(#mask13)">
<path fill-rule="evenodd" clip-rule="evenodd" d="M114.528 178.646H133.206V174.031H114.528V178.646Z" fill="#C5C6C6"/>
<path fill-rule="evenodd" clip-rule="evenodd" d="M114.528 224.66H133.206V220.044H114.528V224.66Z" fill="#C5C6C6"/>
<path d="M116.411 189.172V186.932H131.324V189.172H116.411Z" fill="#282828"/>
<path d="M116.411 211.79V209.55H131.324V211.79H116.411Z" fill="#282828"/>
</g>
</g>
<path fill-rule="evenodd" clip-rule="evenodd" d="M208.73 76.3224C208.463 76.3224 208.201 76.337 207.94 76.36C206.617 69.9057 200.906 65.0517 194.061 65.0517C192.446 65.0517 190.897 65.3264 189.45 65.8239C186.599 58.5139 179.494 53.333 171.176 53.333C160.432 53.333 151.71 61.9722 151.565 72.6813C150.853 72.5288 150.116 72.4465 149.359 72.4465C143.577 72.4465 138.889 77.1347 138.889 82.9171C138.889 88.6996 143.577 93.3878 149.359 93.3878H208.73C213.443 93.3878 217.262 89.5663 217.262 84.8551C217.262 80.1427 213.443 76.3224 208.73 76.3224Z" fill="#C9DCFC"/>
<path fill-rule="evenodd" clip-rule="evenodd" d="M277.608 61.9718C277.431 61.9718 277.256 61.9815 277.082 61.9968C276.202 57.6998 272.399 54.4683 267.842 54.4683C266.767 54.4683 265.736 54.6512 264.773 54.9824C262.874 50.1157 258.144 46.6665 252.606 46.6665C245.453 46.6665 239.647 52.4181 239.55 59.5477C239.076 59.4462 238.585 59.3914 238.082 59.3914C234.232 59.3914 231.111 62.5126 231.111 66.3623C231.111 70.212 234.232 73.3332 238.082 73.3332H277.608C280.746 73.3332 283.289 70.789 283.289 67.6525C283.289 64.5152 280.746 61.9718 277.608 61.9718Z" fill="#EDF3FE"/>
<path d="M268.479 239.395C281 237.972 283.173 228.915 282.966 222.392C282.755 215.68 279.437 206.972 267.435 206.336C260.966 205.994 253.96 206.3 251.584 211.611C250.587 213.84 251.725 216.087 251.725 216.087C251.725 216.087 248.756 219.096 248.893 223.466C249.04 228.09 252.166 230.02 252.166 230.02C252.166 230.02 250.771 232.758 251.972 234.863C255.006 240.194 261.824 240.152 268.479 239.395Z" fill="#FFC107"/>
<path d="M278.049 210.354C275.466 205.897 276.55 196.014 270.53 196.701C262.644 197.599 267.725 209.579 267.725 209.579C267.725 209.579 279.242 212.411 278.049 210.354Z" fill="#FFC107"/>
</svg>
