<svg width="301" height="245" viewBox="0 0 301 245" fill="none" xmlns="http://www.w3.org/2000/svg">
<path d="M0.0898438 135.907C0.0898438 51.3735 63.3698 19.0455 135.09 13.0299C217.462 6.12097 300.09 43.1295 300.09 139.586C300.09 223.467 265.09 243.333 146.757 243.333C40.0898 243.333 0.0898438 218.333 0.0898438 135.907Z" fill="#F5F5F5"/>
<path d="M0.0898438 135.907C0.0898438 51.3735 63.3698 19.0455 135.09 13.0299C217.462 6.12097 300.09 43.1295 300.09 139.586C300.09 223.467 265.09 243.333 146.757 243.333C40.0898 243.333 0.0898438 218.333 0.0898438 135.907Z" fill="#F5F5F5"/>
<mask id="mask0" mask-type="alpha" maskUnits="userSpaceOnUse" x="0" y="11" width="271" height="208">
<path d="M0.0898438 122.317C0.0898438 46.2362 57.0418 17.141 121.59 11.727C195.724 5.50893 270.09 38.8166 270.09 125.628C270.09 201.12 238.59 219 132.09 219C36.0898 219 0.0898438 196.5 0.0898438 122.317Z" fill="#F5F5F5"/>
</mask>
<g mask="url(#mask0)">
<path fill-rule="evenodd" clip-rule="evenodd" d="M179.757 131.88C179.757 136.298 183.339 139.88 187.757 139.88H279.892C284.31 139.88 287.892 136.298 287.892 131.88V39.7446C287.892 35.3264 284.31 31.7446 279.892 31.7446H187.757C183.339 31.7446 179.757 35.3264 179.757 39.7446V131.88Z" fill="#E7E7E7"/>
<path d="M17.9277 131.88C17.9277 136.298 21.5095 139.88 25.9277 139.88H118.063C122.482 139.88 126.063 136.298 126.063 131.88V39.7446C126.063 35.3264 122.482 31.7446 118.063 31.7446H25.9277C21.5095 31.7446 17.9277 35.3264 17.9277 39.7446V131.88Z" fill="#E7E7E7"/>
</g>
<path d="M277.233 134.24H179.137C176.364 134.24 174.117 131.992 174.117 129.22V31.125C174.117 28.3518 176.364 26.1047 179.137 26.1047H277.233C280.005 26.1047 282.253 28.3518 282.253 31.125V129.22C282.253 131.992 280.005 134.24 277.233 134.24Z" fill="#DADADA"/>
<path d="M187.719 120.637H268.65V39.7068H187.719V120.637Z" fill="white"/>
<path d="M201.796 106.563H254.569V53.7773H201.796V106.563Z" fill="#C0C0C0"/>
<path d="M240.149 67.593C240.149 67.593 245.699 68.9829 249.28 68.3864C249.28 68.3864 252.025 68.0279 251.667 70.8923C251.309 73.7574 249.839 78.9828 239.951 78.9959C230.063 79.0091 240.149 67.593 240.149 67.593Z" fill="#DADADA"/>
<path d="M234.611 86.6813C239.06 84.0125 241.999 79.4012 241.999 74.1597C241.999 65.9034 234.705 59.21 225.707 59.21C216.71 59.21 209.416 65.9034 209.416 74.1597C209.416 78.6003 211.526 82.5886 214.876 85.3266C214.653 85.5091 207.17 91.6115 202.253 91.6115C202.171 91.6115 202.092 91.6082 202.015 91.605C201.941 91.602 201.868 91.599 201.796 91.599V106.562H244.029C245.03 102.868 244.684 100.026 244.684 100.026C244.684 100.026 244.215 90.3141 234.614 86.6813H234.611Z" fill="#EEEEEE"/>
<path d="M226.681 106.563H201.796V95.0714C203.526 94.318 204.341 96.7023 208.974 97.0608C214.202 97.4437 215.511 94.293 218.304 93.4274C220.033 92.884 221.899 92.8226 223.629 93.391C228.572 95.0219 228.807 99.9145 228.807 99.9145C228.807 99.9145 229.239 103.461 226.681 106.563Z" fill="#DADADA"/>
<path d="M234.54 73.2942C234.54 71.5804 233.151 70.1912 231.437 70.1912C229.723 70.1912 228.334 71.5804 228.334 73.2942C228.334 75.008 229.723 76.3973 231.437 76.3973C233.151 76.3973 234.54 75.008 234.54 73.2942Z" fill="#DADADA"/>
<path opacity="0.45" d="M201.796 84.096L254.569 64.2238V53.7771H201.796V84.096Z" fill="white"/>
<path d="M179.757 75.3127C178.642 75.3127 177.738 74.409 177.738 73.2941V31.7447C177.738 30.6298 178.642 29.7261 179.757 29.7261H212.111C213.225 29.7261 214.129 30.6298 214.129 31.7447C214.129 32.8596 213.225 33.7633 212.111 33.7633H181.775V73.2941C181.775 74.409 180.872 75.3127 179.757 75.3127Z" fill="#EEEEEE"/>
<path d="M115.403 134.24H17.3074C14.5348 134.24 12.2871 131.992 12.2871 129.22V31.125C12.2871 28.3518 14.5348 26.1047 17.3074 26.1047H115.403C118.175 26.1047 120.423 28.3518 120.423 31.125V129.22C120.423 131.992 118.175 134.24 115.403 134.24Z" fill="#DADADA"/>
<path d="M25.8896 120.638H106.82V39.707H25.8896V120.638Z" fill="white"/>
<path d="M39.9658 106.563H92.7393V53.7776H39.9658V106.563Z" fill="#C0C0C0"/>
<path d="M78.3202 67.593C78.3202 67.593 83.8701 68.9829 87.4504 68.3864C87.4504 68.3864 90.1955 68.0279 89.8376 70.8923C89.4797 73.7574 88.0099 78.9828 78.1221 78.9959C68.2343 79.0091 78.3202 67.593 78.3202 67.593Z" fill="#DADADA"/>
<path d="M72.7815 86.6816C77.2305 84.0127 80.1702 79.4014 80.1702 74.16C80.1702 65.9037 72.876 59.2102 63.8782 59.2102C54.8804 59.2102 47.5863 65.9037 47.5863 74.16C47.5863 78.6006 49.6962 82.5889 53.0464 85.3269C52.8239 85.5092 45.3404 91.6117 40.4233 91.6117C40.3416 91.6117 40.2629 91.6085 40.1857 91.6053C40.1115 91.6022 40.0387 91.5992 39.9658 91.5992V106.563H82.1995C83.2004 102.869 82.8545 100.026 82.8545 100.026C82.8545 100.026 82.385 90.3143 72.7841 86.6816H72.7815Z" fill="#EEEEEE"/>
<path d="M64.8511 106.563H39.9658V95.0714C41.6957 94.318 42.5111 96.7023 47.1448 97.0608C52.3715 97.4437 53.6808 94.293 56.4737 93.4274C58.2036 92.884 60.0689 92.8226 61.7988 93.391C66.7415 95.0219 66.9765 99.9145 66.9765 99.9145C66.9765 99.9145 67.409 103.461 64.8511 106.563Z" fill="#DADADA"/>
<path d="M72.7106 73.2942C72.7106 71.5804 71.3213 70.1912 69.607 70.1912C67.8932 70.1912 66.5039 71.5804 66.5039 73.2942C66.5039 75.008 67.8932 76.3973 69.607 76.3973C71.3213 76.3973 72.7106 75.008 72.7106 73.2942Z" fill="#DADADA"/>
<path opacity="0.45" d="M39.9658 84.0963L92.7393 64.2241V53.7773H39.9658V84.0963Z" fill="white"/>
<path d="M17.9268 75.3127C16.8119 75.3127 15.9082 74.409 15.9082 73.2941V31.7447C15.9082 30.6298 16.8119 29.7261 17.9268 29.7261H50.2804C51.3953 29.7261 52.299 30.6298 52.299 31.7447C52.299 32.8596 51.3953 33.7633 50.2804 33.7633H19.9454V73.2941C19.9454 74.409 19.0417 75.3127 17.9268 75.3127Z" fill="#EEEEEE"/>
<mask id="mask1" mask-type="alpha" maskUnits="userSpaceOnUse" x="0" y="12" width="301" height="232">
<path d="M0.0898438 135.907C0.0898438 51.3735 63.3698 19.0455 135.09 13.0299C217.462 6.12097 300.09 43.1295 300.09 139.586C300.09 223.467 265.09 243.333 146.757 243.333C40.0898 243.333 0.0898438 218.333 0.0898438 135.907Z" fill="#F5F5F5"/>
</mask>
<g mask="url(#mask1)">
<path fill-rule="evenodd" clip-rule="evenodd" d="M196.116 82.166C183.323 68.0557 173.632 78.854 166.46 84.3012C164.17 85.9712 161.951 85.9952 158.994 85.8224C158.359 84.3557 158.417 82.0698 159.249 80.5891C153.987 79.6693 147.782 83.2561 147.782 83.2561C147.144 81.1069 147.877 78.081 148.76 75.1279C135.771 76.1047 132.686 84.3012 125.588 84.3012H123.678C116.506 78.854 106.811 68.0557 94.0191 82.166C88.33 88.4413 87.4229 98.3806 100.846 105.684C96.1727 123.059 93.312 160.696 93.312 160.696C93.312 160.696 104.967 179.3 145.068 179.3C185.169 179.3 196.824 160.696 196.824 160.696C196.824 160.696 193.966 123.059 189.292 105.684C202.712 98.3806 201.808 88.4413 196.116 82.166Z" fill="#9D7354"/>
<path fill-rule="evenodd" clip-rule="evenodd" d="M111.477 90.577C112.352 89.7174 111.994 88.243 110.827 87.8657C109.122 87.315 106.788 87.0472 104.9 88.6286C101.643 91.3563 102.613 94.0252 103.716 95.5799C104.29 96.3902 105.461 96.4807 106.17 95.785L111.477 90.577Z" fill="#493426"/>
<path fill-rule="evenodd" clip-rule="evenodd" d="M179.109 90.577C178.233 89.7174 178.592 88.243 179.759 87.8657C181.464 87.315 183.798 87.0472 185.687 88.6286C188.942 91.3563 187.973 94.0252 186.87 95.5799C186.296 96.3902 185.125 96.4807 184.416 95.785L179.109 90.577Z" fill="#493426"/>
<path fill-rule="evenodd" clip-rule="evenodd" d="M160.371 158.627C160.371 170.747 153.519 172.587 145.068 172.587C136.617 172.587 129.765 170.632 129.765 158.627C129.765 145.307 136.617 135.474 145.068 135.474C153.519 135.474 160.371 145.307 160.371 158.627Z" fill="#EBBF8D"/>
<path fill-rule="evenodd" clip-rule="evenodd" d="M145.069 179.3V270.388H83.9897C81.8741 226.421 93.3042 160.861 93.3042 160.861C94.1398 161.032 108.388 179.227 145.069 179.3Z" fill="white"/>
<path fill-rule="evenodd" clip-rule="evenodd" d="M145.068 179.3V270.388H206.147C208.263 226.421 196.833 160.861 196.833 160.861C195.997 161.032 181.749 179.227 145.068 179.3Z" fill="white"/>
<path d="M145.069 179.3L145.07 184.199L134.066 201.514L113.553 190.406L105.505 182.723L145.069 179.3Z" fill="#DADADA"/>
<path d="M145.074 179.3L145.072 184.199L156.076 201.514L176.445 190.406L184.32 182.587L145.074 179.3Z" fill="#DADADA"/>
<path d="M198.18 169.002C233.953 171.647 264.324 232.959 210.212 254.948L198.18 169.002Z" fill="#704130"/>
<path d="M148.896 190.055L152.798 179.285L145.068 179.3L137.338 179.285L141.24 190.055L133.248 230.212C133.02 231.361 133.424 232.545 134.309 233.314L142.925 240.806C144.154 241.875 145.982 241.875 147.212 240.806L155.828 233.314C156.712 232.545 157.117 231.361 156.888 230.212L148.896 190.055Z" fill="#282828"/>
<path fill-rule="evenodd" clip-rule="evenodd" d="M145.069 179.3L133.186 193.953L109.102 186.157L91.8711 169.707L93.3049 160.861C93.3049 160.861 113.048 179.3 145.069 179.3Z" fill="white"/>
<path fill-rule="evenodd" clip-rule="evenodd" d="M145.072 179.3L156.956 193.953L181.039 186.157L198.271 169.707L196.836 160.861C196.836 160.861 177.093 179.3 145.072 179.3Z" fill="white"/>
<path fill-rule="evenodd" clip-rule="evenodd" d="M134.997 105.814C134.422 106.993 133.001 107.483 131.821 106.909L131.32 106.665C127.801 104.951 124.831 104.873 121.067 106.396L120.549 106.605C119.334 107.097 117.95 106.511 117.457 105.296L117.039 104.262C116.546 103.046 117.133 101.661 118.349 101.169L118.866 100.96C124.132 98.8278 128.906 98.9652 133.889 101.392L134.39 101.636C135.569 102.211 136.059 103.632 135.485 104.811L134.997 105.814Z" fill="#493426"/>
<path fill-rule="evenodd" clip-rule="evenodd" d="M154.74 146.382C154.74 147.69 152.449 149.74 150.097 151.499C147.117 153.728 143.028 153.728 140.047 151.499C137.695 149.74 135.404 147.69 135.404 146.382C135.404 143.693 139.732 141.514 145.072 141.514C150.412 141.514 154.74 143.693 154.74 146.382Z" fill="#493426"/>
<path fill-rule="evenodd" clip-rule="evenodd" d="M150.309 145.531C150.309 145.795 149.768 146.096 149.033 146.382C146.49 147.37 143.653 147.37 141.11 146.382C140.376 146.096 139.835 145.795 139.835 145.531C139.835 144.709 142.179 144.042 145.071 144.042C147.964 144.042 150.309 144.709 150.309 145.531Z" fill="#EBBF8D"/>
<path fill-rule="evenodd" clip-rule="evenodd" d="M141.076 162.602C140.694 162.602 140.312 162.448 140.031 162.145C139.499 161.568 139.535 160.669 140.111 160.136C141.827 158.551 146.108 156.512 150.032 160.136C150.609 160.669 150.644 161.568 150.111 162.145C149.579 162.721 148.679 162.756 148.103 162.224C145.106 159.455 142.164 162.11 142.04 162.224C141.767 162.477 141.421 162.602 141.076 162.602Z" fill="#493426"/>
<path fill-rule="evenodd" clip-rule="evenodd" d="M172.029 124.449H165.459C164.304 124.449 163.366 123.512 163.366 122.356C163.366 121.2 164.304 120.263 165.459 120.263H172.029C173.185 120.263 174.122 121.2 174.122 122.356C174.122 123.512 173.185 124.449 172.029 124.449Z" fill="#493426"/>
<path fill-rule="evenodd" clip-rule="evenodd" d="M126.477 122.027C126.477 124.725 128.015 126.912 129.913 126.912C131.811 126.912 133.349 124.725 133.349 122.027C133.349 119.329 131.811 119.207 129.913 119.207C128.015 119.207 126.477 119.329 126.477 122.027Z" fill="#493426"/>
<path fill-rule="evenodd" clip-rule="evenodd" d="M183.501 114.602H193.576C194.521 114.602 195.29 115.363 195.29 116.317V117.93C195.29 118.875 194.521 119.644 193.576 119.644H185.19V123.716C185.19 128.816 184.638 132.83 181.946 135.874C179.094 139.084 174.253 140.581 166.695 140.581C155.975 140.581 148.199 133.491 148.199 123.716V122.17H141.945V123.716C141.945 133.491 134.16 140.581 123.441 140.581C115.892 140.581 111.05 139.084 108.199 135.874C105.498 132.83 104.946 128.816 104.946 123.716V119.644H96.5681C95.623 119.644 94.8545 118.875 94.8545 117.93V116.317C94.8545 115.363 95.623 114.602 96.5681 114.602H106.644C107.011 114.126 107.454 113.691 108.006 113.306C110.64 111.417 115.089 111.091 123.441 111.091C131.803 111.091 136.251 111.417 138.885 113.306C140.289 114.301 141.042 115.581 141.452 117.119H148.684C149.094 115.581 149.854 114.301 151.251 113.306C153.893 111.417 158.333 111.091 166.695 111.091C175.056 111.091 179.496 111.417 182.138 113.306C182.69 113.691 183.133 114.126 183.501 114.602ZM123.441 135.539C112.497 135.539 110.443 132.426 110.075 126.822C110.011 125.86 109.997 124.824 109.997 123.716C109.997 119.912 110.03 118.055 110.933 117.412C112.58 116.233 118.257 116.132 123.441 116.132C128.633 116.132 134.303 116.233 135.958 117.412C136.282 117.642 136.49 118.036 136.629 118.611C136.877 119.642 136.895 121.273 136.895 123.716C136.895 130.681 131.368 135.539 123.441 135.539ZM166.694 135.539C158.776 135.539 153.241 130.681 153.241 123.716C153.241 119.912 153.282 118.055 154.186 117.412C155.833 116.233 161.511 116.132 166.694 116.132C171.887 116.132 177.555 116.233 179.211 117.412C180.106 118.055 180.148 119.912 180.148 123.716C180.148 131.266 179.521 135.539 166.694 135.539Z" fill="#282828"/>
<path d="M198.18 169.002L145.072 218.984V219.033L145.068 218.984L91.8711 169.706C78.5368 216.031 79.7839 270.388 79.7839 270.388H210.362C210.362 270.388 211.514 215.327 198.18 169.002Z" fill="#704130"/>
<path d="M198.18 169.002L188.671 193.478L176.637 195.046L183.394 203.439L145.072 237.044L106.75 203.439L113.506 195.046L101.471 193.478L91.9639 169.002L98.0378 196.991L107.146 197.612L100.321 204.331L145.072 242.345L189.823 204.331L182.998 197.612L192.106 196.991L198.18 169.002Z" fill="#44271D"/>
<path fill-rule="evenodd" clip-rule="evenodd" d="M155.138 103.832L154.65 102.83C154.075 101.651 154.566 100.23 155.744 99.6551L156.246 99.4107C161.228 96.9843 166.002 96.8469 171.268 98.979L171.785 99.1879C173.001 99.6798 173.588 101.065 173.096 102.281L172.677 103.315C172.185 104.53 170.8 105.116 169.584 104.624L169.068 104.415C165.304 102.892 162.333 102.97 158.814 104.683L158.313 104.927C157.134 105.502 155.712 105.012 155.138 103.832Z" fill="#493426"/>
<path fill-rule="evenodd" clip-rule="evenodd" d="M146.213 66.4887L148.349 66.7565L148.08 64.6207C147.991 63.9091 147.119 57.5813 144.088 54.5491H144.087C140.837 51.2984 137.386 51.8403 135.409 53.8173C133.145 56.0823 133.459 59.8134 136.141 62.4962C139.174 65.5278 145.501 66.3989 146.213 66.4887ZM137.774 56.1823C138.175 55.7803 138.651 55.5828 139.172 55.5828C139.956 55.5828 140.842 56.0335 141.723 56.9147C143.002 58.1934 143.849 60.7294 144.326 62.7342C142.321 62.2575 139.785 61.4099 138.506 60.1312C137.172 58.7967 136.857 57.0996 137.774 56.1823Z" fill="#44271D"/>
<path fill-rule="evenodd" clip-rule="evenodd" d="M144.762 64.621L144.493 66.7568L146.629 66.4884C147.341 66.3985 153.668 65.5275 156.7 62.4952C159.382 59.8131 159.697 56.0826 157.432 53.817C155.455 51.84 152.004 51.2988 148.754 54.5494C145.722 57.5816 144.851 63.9095 144.762 64.621ZM148.513 62.7345C148.988 60.7322 149.835 58.1982 151.119 56.9144C152.584 55.4489 154.06 55.1754 155.067 56.1826C155.984 57.0992 155.669 58.797 154.336 60.1308C153.056 61.4108 150.518 62.2578 148.513 62.7345Z" fill="#44271D"/>
<path d="M158.016 64.386C149.503 62.385 140.641 62.385 132.127 64.386H132.126C125.992 65.8281 121.211 70.6334 119.801 76.7758L116.735 90.1335H145.071H173.408L170.342 76.7758C168.932 70.6334 164.151 65.8281 158.016 64.386Z" fill="#704130"/>
<path d="M173.408 90.1333C173.408 94.6848 161.692 104.185 145.072 104.185C128.452 104.185 116.735 94.6848 116.735 90.1333C116.735 85.5824 132.437 83.5276 145.072 83.5276C157.939 83.5276 173.408 85.5824 173.408 90.1333Z" fill="#44271D"/>
<path d="M141.154 202.663C139.077 208.545 135.387 214.832 130.715 220.797C130.715 220.797 130.707 220.797 130.699 220.805C114.098 241.979 84.9903 259.074 71.0749 239.285C64.937 230.559 63.5196 221.571 64.7471 213.069C64.8712 212.196 65.0275 211.33 65.2086 210.474C69.8557 188.073 91.8695 169.708 91.8695 169.708C91.8695 169.708 92.883 197.951 109.245 185.016L134.233 198.84L141.154 202.663Z" fill="#704130"/>
<path fill-rule="evenodd" clip-rule="evenodd" d="M110.458 183.189C110.458 183.189 98.1143 199.286 111.913 209.738C125.711 220.191 141.151 202.666 141.151 202.666L110.458 183.189Z" fill="white"/>
<path d="M126.582 205.598C112.809 205.322 109.524 195.687 109.085 188.567C108.632 181.239 111.358 171.427 124.354 169.514C131.36 168.483 139.018 168.105 142.142 173.643C143.453 175.967 142.443 178.528 142.443 178.528C142.443 178.528 145.981 181.502 146.275 186.271C146.587 191.317 143.382 193.736 143.382 193.736C143.382 193.736 145.176 196.574 144.085 198.988C141.324 205.097 133.901 205.744 126.582 205.598Z" fill="#282828"/>
<path d="M142.443 178.528C142.443 178.528 153.331 179.533 152.285 170.858C150.725 157.901 124.354 169.514 124.354 169.514L142.443 178.528Z" fill="#282828"/>
<path d="M143.382 193.736C143.382 193.736 153.331 191.659 152.286 182.983C150.725 170.027 124.354 181.64 124.354 181.64L143.382 193.736Z" fill="#282828"/>
<path d="M205.464 167.644C201.198 155.615 187.989 149.322 175.96 153.588C163.931 157.854 157.638 171.063 161.904 183.092C166.17 195.121 179.379 201.415 191.408 197.148C203.437 192.883 209.73 179.673 205.464 167.644Z" fill="#82AEF8"/>
<path fill-rule="evenodd" clip-rule="evenodd" d="M172.392 149.289C187.644 142.72 205.011 150.474 210.471 165.869C215.32 179.542 209.074 194.443 196.422 200.767L212.713 242.69C213.707 245.245 212.391 248.115 209.807 249.031C207.224 249.948 204.394 248.547 203.555 245.937L189.792 203.117C175.505 206.279 160.753 197.996 156.424 183.423C152.362 169.748 159.29 154.932 172.392 149.289ZM161.904 183.093C166.17 195.121 179.384 201.417 191.412 197.151C203.441 192.886 209.729 179.674 205.462 167.646C201.197 155.617 187.99 149.319 175.962 153.585C163.934 157.85 157.638 171.065 161.904 183.093Z" fill="#FFE28E"/>
<path fill-rule="evenodd" clip-rule="evenodd" d="M183.19 193.856C183.174 193.856 183.157 193.855 183.14 193.855C178.962 193.731 174.903 192.17 171.707 189.459C171.009 188.867 170.923 187.821 171.516 187.122C172.108 186.424 173.154 186.338 173.852 186.931C176.476 189.157 179.809 190.439 183.238 190.541C184.153 190.568 184.873 191.332 184.846 192.247C184.819 193.146 184.083 193.856 183.19 193.856Z" fill="white"/>
<path fill-rule="evenodd" clip-rule="evenodd" d="M167.82 182.652C167.138 182.652 166.499 182.228 166.258 181.548C164.607 176.894 164.867 171.875 166.992 167.416C169.116 162.957 172.849 159.593 177.505 157.942C178.368 157.637 179.314 158.087 179.621 158.951C179.927 159.814 179.475 160.761 178.612 161.066C174.793 162.422 171.728 165.182 169.985 168.843C168.241 172.502 168.028 176.62 169.383 180.44C169.688 181.303 169.237 182.25 168.374 182.557C168.191 182.621 168.004 182.652 167.82 182.652Z" fill="white"/>
<path fill-rule="evenodd" clip-rule="evenodd" d="M216.803 158.684L210.464 160.364L207.634 166.281L205.952 159.942L200.036 157.112L206.375 155.431L209.205 149.515L210.886 155.853L216.803 158.684Z" fill="white"/>
<path d="M204.103 205.62C218.548 205.375 222.365 215.346 223.101 222.791C223.859 230.453 221.384 240.844 207.835 243.352C200.533 244.704 192.523 245.396 189.033 239.713C187.569 237.328 188.528 234.605 188.528 234.605C188.528 234.605 184.705 231.626 184.212 226.638C183.69 221.361 186.955 218.703 186.955 218.703C186.955 218.703 184.964 215.798 186.015 213.226C188.672 206.716 196.426 205.75 204.103 205.62Z" fill="#282828"/>
</g>
</svg>
