<svg width="301" height="245" viewBox="0 0 301 245" fill="none" xmlns="http://www.w3.org/2000/svg">
<path d="M115.386 244.444C66.9123 244.444 0.0899276 196.438 0.0898438 130.183C0.0896749 -3.24206 136.757 5.50034 189.534 20.1628C242.312 34.8253 300.09 69.0376 300.09 152.637C300.09 218.364 248.979 244.444 181.757 244.444H115.386Z" fill="#EAFBF0"/>
<path fill-rule="evenodd" clip-rule="evenodd" d="M107.197 35.0855C107.705 35.0855 108.116 35.4968 108.116 36.0042C108.116 36.5116 107.705 36.9229 107.197 36.9229H102.961L103.32 57.4555C103.329 57.963 102.924 58.3818 102.417 58.3909H102.401C101.901 58.3909 101.491 57.9895 101.482 57.4881L101.122 36.9229H97.2295C96.7221 36.9229 96.3108 36.5116 96.3108 36.0042C96.3108 35.4968 96.7221 35.0855 97.2295 35.0855H102.003L102.009 35.084H102.026L102.034 35.0855H107.197ZM31.7286 35.1513C34.2779 35.5929 36.1986 38.321 35.8389 40.9892C35.77 41.4921 35.3019 41.836 34.805 41.7769C34.3021 41.7087 33.9507 41.2467 34.0174 40.7438C34.2476 39.0397 33.007 37.2372 31.415 36.9622C29.8472 36.6911 28.131 37.9673 27.8326 39.6434C27.5024 41.4982 28.6763 43.2591 29.4057 44.1437C29.9627 44.8203 30.5884 45.4282 31.2501 46.0712L31.265 46.0856C31.9482 46.7483 32.6541 47.4338 33.2865 48.2055C34.2143 49.3371 35.7003 51.6229 35.2216 54.2078C34.9755 55.5362 34.1598 56.7481 32.982 57.5327C32.1466 58.0901 31.1878 58.384 30.2532 58.384C29.9487 58.384 29.648 58.3529 29.3534 58.2901C26.8003 57.7425 24.9644 54.8213 25.5021 52.1598C25.6021 51.6637 26.0815 51.3396 26.5844 51.4418C27.0813 51.5426 27.4032 52.0265 27.3024 52.5234C26.9593 54.2229 28.1439 56.152 29.7389 56.4943C30.4562 56.6488 31.2658 56.4693 31.9641 56.0043C32.7298 55.4931 33.2592 54.7168 33.416 53.8738C33.7591 52.019 32.5927 50.2558 31.8664 49.3696C31.3012 48.6805 30.6643 48.0622 29.9905 47.408L29.9858 47.4035C29.3118 46.7491 28.615 46.072 27.9886 45.3124C27.0578 44.1831 25.5642 41.9034 26.024 39.3215C26.4981 36.657 29.1603 34.712 31.7286 35.1513ZM48.3589 36.0163C48.3634 35.5088 47.9567 35.0938 47.4493 35.0885H47.4402C46.9373 35.0885 46.5268 35.4937 46.5215 35.9981C46.4003 48.2911 44.4531 56.5489 42.7104 56.5489C42.6445 56.5489 42.4907 56.5489 42.2643 56.3027C40.2314 54.0881 40.3769 42.7267 40.9464 36.0852C40.9903 35.58 40.6154 35.1354 40.1103 35.0923C39.6028 35.0536 39.1598 35.4232 39.1166 35.9284C38.9583 37.7688 37.667 54.0101 40.9108 57.5441C41.5493 58.2393 42.2415 58.3863 42.7104 58.3863C47.7485 58.3863 48.3074 41.2634 48.3589 36.0163ZM56.4677 47.5349C57.4871 46.7162 58.0029 45.2143 58.0029 43.0702C58.0029 41.0616 57.4508 39.515 56.3609 38.4729C55.2839 37.4428 53.9017 37.096 53.0193 36.9801V48.184C53.0534 48.181 53.0883 48.1787 53.1239 48.1787C53.1928 48.1787 53.2617 48.1855 53.3314 48.2022C53.3435 48.2052 55.1567 48.5892 56.4677 47.5349ZM52.0924 35.0903C52.0767 35.0905 52.066 35.0906 52.0605 35.0904C51.5689 35.1132 51.1819 35.5176 51.1819 36.0084V57.4673C51.1819 57.9747 51.5932 58.386 52.1006 58.386C52.6081 58.386 53.0193 57.9747 53.0193 57.4673V50.0124C53.5268 50.107 55.7838 50.4251 57.5992 48.9816C59.0859 47.7993 59.8403 45.8104 59.8403 43.0702C59.8403 40.5413 59.0973 38.5479 57.631 37.146C55.4526 35.0626 52.4546 35.0874 52.0924 35.0903ZM67.6487 47.5349C68.6681 46.7162 69.1839 45.2143 69.1839 43.0702C69.1839 41.0616 68.6317 39.515 67.5419 38.4729C66.4649 37.4428 65.0834 37.096 64.2011 36.9801V48.184C64.2351 48.181 64.27 48.1787 64.3048 48.1787C64.3737 48.1787 64.4427 48.1855 64.5123 48.2022C64.5245 48.2052 66.3376 48.5892 67.6487 47.5349ZM63.2744 35.0903C63.2586 35.0905 63.2478 35.0906 63.2422 35.0904C62.7507 35.1132 62.3636 35.5176 62.3636 36.0084V57.4673C62.3636 57.9747 62.7749 58.386 63.2823 58.386C63.7898 58.386 64.201 57.9747 64.201 57.4673V50.0124C64.7085 50.107 66.9655 50.4244 68.7802 48.9816C70.2669 47.7993 71.0213 45.8104 71.0213 43.0702C71.0213 40.5413 70.2783 38.5479 68.812 37.1452C66.6337 35.0627 63.638 35.0873 63.2744 35.0903ZM81.6256 53.5127C83.4683 49.3319 83.5895 44.4862 81.9581 40.2176C81.6566 39.4277 81.2143 38.4363 80.4713 37.772C79.8374 37.2055 79.233 36.926 78.6362 36.926C78.4643 36.926 78.2938 36.9488 78.1227 36.9942C76.745 37.3676 75.6157 39.1156 75.1091 40.6826C73.7889 44.7574 73.7935 49.2441 75.1204 53.315C75.4991 54.4776 76.3678 56.4604 77.9303 56.6763C78.6309 56.7717 79.4428 56.471 80.0987 55.8666C80.669 55.3402 81.1401 54.6139 81.6256 53.5127ZM83.6742 39.5617C83.2978 38.5778 82.7328 37.3297 81.6952 36.4019C80.0805 34.9576 78.6005 34.9613 77.6432 35.2219C75.4612 35.8119 73.9729 38.2272 73.3617 40.1168C71.9227 44.5581 71.9273 49.4478 73.3731 53.8845C74.257 56.5967 75.7869 58.2342 77.6788 58.4954C77.8454 58.5182 78.0143 58.5303 78.1855 58.5303C79.2829 58.5303 80.4326 58.0584 81.3445 57.217C82.3246 56.3119 82.9078 55.1577 83.3062 54.2541C85.3428 49.6341 85.4768 44.2794 83.6742 39.5617ZM88.8066 48.2916C88.8202 48.2946 90.5766 48.6718 91.8634 47.6432C92.8889 46.8222 93.4084 45.2999 93.4084 43.1186C93.4084 41.0714 92.851 39.4999 91.7505 38.4479C90.6978 37.4428 89.3648 37.099 88.5044 36.9823V48.2719C88.5347 48.2688 88.565 48.2673 88.596 48.2673C88.6649 48.2673 88.7361 48.2756 88.8066 48.2916ZM96.0517 57.3589L93.5266 48.5983C94.6672 47.382 95.2458 45.5438 95.2458 43.1187C95.2458 40.5496 94.4968 38.5312 93.0191 37.1202C90.7697 34.9707 87.6735 35.0828 87.544 35.0912C87.0532 35.1139 86.667 35.5176 86.667 36.0084V57.6134C86.667 58.1209 87.0782 58.5321 87.5857 58.5321C88.0931 58.5321 88.5044 58.1209 88.5044 57.6134V50.104C88.9323 50.1843 90.4387 50.3751 91.9368 49.7124L94.287 57.8679C94.4036 58.2701 94.7702 58.5321 95.1686 58.5321C95.2534 58.5321 95.339 58.52 95.4238 58.4958C95.9116 58.3549 96.1925 57.8459 96.0517 57.3589Z" fill="#1AD760"/>
<path fill-rule="evenodd" clip-rule="evenodd" d="M195.506 35.0855C196.013 35.0855 196.425 35.4968 196.425 36.0042C196.425 36.5116 196.013 36.9229 195.506 36.9229H191.269L191.629 57.4548C191.638 57.9622 191.233 58.381 190.726 58.3901H190.71C190.21 58.3901 189.8 57.9887 189.791 57.4873L189.431 36.9229H185.539C185.031 36.9229 184.62 36.5116 184.62 36.0042C184.62 35.4968 185.031 35.0855 185.539 35.0855H190.312L190.315 35.0847L190.318 35.084H190.334L190.338 35.0847L190.342 35.0855H195.506ZM283.885 35.0855C284.392 35.0855 284.804 35.4968 284.804 36.0042C284.804 36.5116 284.392 36.9229 283.885 36.9229H279.649L280.008 57.4548C280.017 57.9622 279.612 58.381 279.105 58.3901H279.089C278.589 58.3901 278.18 57.9887 278.171 57.4873L277.812 36.9229H273.918C273.41 36.9229 272.999 36.5116 272.999 36.0042C272.999 35.4968 273.41 35.0855 273.918 35.0855H278.692L278.695 35.0847L278.698 35.084H278.714L278.718 35.0847L278.722 35.0855H283.885ZM212.526 40.9892C212.885 38.3202 210.963 35.5921 208.415 35.1513C205.854 34.7105 203.184 36.6562 202.711 39.3207C202.251 41.9026 203.744 44.1823 204.674 45.3116C205.295 46.0648 205.985 46.7357 206.653 47.3852L206.679 47.4102C207.352 48.0637 207.988 48.6812 208.553 49.3696C209.279 50.2558 210.445 52.019 210.102 53.8738C209.945 54.716 209.416 55.4923 208.65 56.0043C207.952 56.4693 207.14 56.6496 206.426 56.4943C204.83 56.1512 203.645 54.2222 203.989 52.5234C204.09 52.0265 203.769 51.5426 203.271 51.4418C202.773 51.3404 202.29 51.6638 202.189 52.1598C201.651 54.8198 203.486 57.7417 206.04 58.2901C206.333 58.3529 206.635 58.384 206.939 58.384C207.873 58.384 208.832 58.0901 209.668 57.5327C210.846 56.7481 211.662 55.5362 211.908 54.2078C212.386 51.6236 210.901 49.3378 209.973 48.2055C209.348 47.4422 208.65 46.7635 207.975 46.107L207.954 46.0872C207.285 45.4388 206.655 44.8254 206.092 44.143C205.363 43.2583 204.189 41.4982 204.52 39.6426C204.818 37.9665 206.527 36.6888 208.101 36.9622C209.693 37.2372 210.934 39.0397 210.704 40.7438C210.638 41.2467 210.99 41.7087 211.492 41.7769C211.996 41.8428 212.458 41.4921 212.526 40.9892ZM224.135 35.0885C224.643 35.0938 225.05 35.5088 225.045 36.0163C224.994 41.2634 224.435 58.3863 219.397 58.3863C218.928 58.3863 218.236 58.2401 217.597 57.5448C214.354 54.0109 215.645 37.7688 215.803 35.9284C215.846 35.4232 216.286 35.0514 216.796 35.0923C217.302 35.1354 217.677 35.58 217.633 36.0852C217.064 42.7267 216.918 54.0881 218.95 56.3027C219.177 56.5489 219.331 56.5489 219.397 56.5489C221.139 56.5489 223.087 48.2911 223.208 35.9981C223.213 35.4937 223.624 35.0885 224.126 35.0885H224.135ZM234.689 43.0702C234.689 45.2136 234.173 46.7155 233.154 47.5343C231.842 48.5885 230.03 48.206 230.017 48.2023C229.948 48.1856 229.878 48.1788 229.81 48.1788C229.775 48.1788 229.74 48.1811 229.706 48.1841V36.9809C230.589 37.096 231.97 37.4429 233.047 38.4729C234.137 39.5151 234.689 41.0617 234.689 43.0702ZM228.747 35.0905C228.881 35.0852 232.044 34.9724 234.317 37.1453C235.783 38.548 236.526 40.5414 236.526 43.0703C236.526 45.8105 235.773 47.7994 234.285 48.9816C232.473 50.4237 230.217 50.1079 229.706 50.0124V57.4673C229.706 57.9748 229.295 58.3861 228.787 58.3861C228.28 58.3861 227.869 57.9748 227.869 57.4673V36.0085C227.869 35.5177 228.256 35.1132 228.747 35.0905ZM245.871 43.0702C245.871 45.2136 245.355 46.7155 244.336 47.5343C243.022 48.5885 241.211 48.206 241.198 48.2023C241.129 48.1856 241.059 48.1788 240.991 48.1788C240.956 48.1788 240.921 48.1811 240.887 48.1841V36.9809C241.77 37.096 243.152 37.4429 244.229 38.4729C245.319 39.5151 245.871 41.0617 245.871 43.0702ZM239.928 35.0905C240.058 35.0852 243.226 34.9724 245.499 37.1453C246.965 38.548 247.708 40.5414 247.708 43.0703C247.708 45.8105 246.955 47.7986 245.467 48.9809C243.655 50.4237 241.398 50.1079 240.887 50.0124V57.4673C240.887 57.9748 240.476 58.3861 239.968 58.3861C239.461 58.3861 239.05 57.9748 239.05 57.4673V36.0085C239.05 35.5177 239.437 35.1132 239.928 35.0905ZM258.644 40.2176C260.276 44.4854 260.154 49.3311 258.312 53.5126C257.827 54.6131 257.356 55.3395 256.784 55.8666C256.13 56.471 255.323 56.7732 254.616 56.6762C253.054 56.4596 252.185 54.4768 251.807 53.315C250.48 49.2425 250.476 44.7566 251.795 40.6834C252.303 39.1148 253.432 37.3668 254.81 36.9942C254.98 36.948 255.15 36.9252 255.322 36.9252C255.919 36.9252 256.524 37.2055 257.157 37.772C257.902 38.4377 258.343 39.4284 258.644 40.2176ZM258.382 36.4019C259.421 37.332 259.985 38.5794 260.36 39.5625C262.163 44.2787 262.029 49.6333 259.993 54.2541C259.595 55.1577 259.012 56.3104 258.031 57.217C257.119 58.0585 255.969 58.5303 254.871 58.5303C254.7 58.5303 254.531 58.5182 254.365 58.4955C252.472 58.2334 250.944 56.596 250.06 53.8845C248.614 49.4463 248.609 44.5566 250.048 40.1169C250.688 38.1363 252.15 35.8104 254.33 35.2211C255.285 34.9621 256.766 34.9576 258.382 36.4019ZM268.549 47.6433C267.263 48.6734 265.506 48.2947 265.493 48.2916C265.422 48.2757 265.351 48.2674 265.282 48.2674C265.251 48.2674 265.221 48.2689 265.19 48.272V36.9824C266.051 37.0991 267.385 37.4429 268.437 38.4487C269.537 39.5 270.095 41.0708 270.095 43.118C270.095 45.2992 269.575 46.8223 268.549 47.6433ZM270.213 48.5984L272.738 57.3582C272.879 57.8452 272.598 58.3542 272.11 58.4951C272.025 58.5193 271.939 58.5314 271.855 58.5314C271.456 58.5314 271.09 58.2694 270.973 57.8672L268.623 49.7125C267.125 50.3752 265.62 50.1828 265.19 50.1048V57.6127C265.19 58.1202 264.779 58.5314 264.272 58.5314C263.764 58.5314 263.353 58.1202 263.353 57.6127V36.0084C263.353 35.5176 263.739 35.114 264.23 35.0905L264.247 35.0902C264.522 35.0849 267.581 35.0905 269.706 37.1203C271.183 38.5313 271.932 40.5489 271.932 43.118C271.932 45.5431 271.353 47.382 270.213 48.5984ZM153.782 54.4034C153.861 53.902 153.519 53.431 153.018 53.3522C152.515 53.2742 152.046 53.615 151.967 54.1164C151.807 55.1313 151.283 55.9053 150.491 56.2969C149.803 56.6377 149.003 56.6332 148.351 56.281C145.974 54.9987 144.891 50.2628 144.881 47.3098C144.865 42.6951 145.689 39.3179 147.202 37.8001C147.788 37.2109 148.45 36.9261 149.226 36.9261C149.759 36.9261 151.383 36.9261 151.97 40.2313C152.058 40.7304 152.539 41.0644 153.035 40.9751C153.534 40.8865 153.868 40.4093 153.779 39.9102C153.034 35.7151 150.606 35.0887 149.226 35.0887C147.973 35.0887 146.823 35.5772 145.902 36.5035C144.014 38.3962 143.027 42.1346 143.043 47.3159C143.054 50.153 143.994 56.0167 147.478 57.898C148.08 58.2229 148.749 58.3857 149.424 58.3857C150.066 58.3857 150.71 58.2381 151.306 57.9434C152.627 57.2891 153.53 55.9992 153.782 54.4034ZM157.904 52.7922H163.213L160.568 40.4174L157.904 52.7922ZM166.058 57.3145L161.469 35.8458C161.379 35.4224 161.005 35.1202 160.571 35.1195C160.139 35.1195 159.764 35.4217 159.673 35.8451L155.052 57.3138C154.946 57.8091 155.261 58.2984 155.757 58.4044C155.822 58.4188 155.887 58.4249 155.951 58.4249C156.374 58.4249 156.755 58.131 156.847 57.6993L157.509 54.6296H163.605L164.262 57.6993C164.367 58.1946 164.853 58.512 165.352 58.4044C165.847 58.2991 166.164 57.8106 166.058 57.3145ZM178.032 35.0841C178.537 35.0841 178.948 35.4915 178.951 35.9975C178.988 42.3178 177.888 57.3829 177.876 57.5351C177.844 57.9706 177.51 58.3236 177.076 58.3788C177.037 58.3841 176.998 58.3864 176.959 58.3864C176.57 58.3864 176.217 58.1388 176.09 57.7631L176.075 57.7172C175.822 56.9756 172.645 47.6409 170.249 40.9432C170.177 42.8677 170.107 44.8959 170.04 46.8879C169.913 50.5975 169.782 54.4344 169.632 57.5116C169.608 58.0183 169.174 58.4122 168.671 58.3849C168.164 58.3599 167.773 57.9297 167.798 57.423C167.947 54.3587 168.077 50.5294 168.203 46.825L168.207 46.6918C168.332 43.0396 168.461 39.2742 168.609 36.2467C168.629 35.8119 168.953 35.4514 169.382 35.384C169.804 35.3204 170.23 35.559 170.384 35.9657C171.905 39.979 174.656 47.9164 176.355 52.8606C176.679 47.8899 177.137 40.0858 177.113 36.0081C177.11 35.5006 177.519 35.0871 178.027 35.0841H178.032ZM182.723 36.0383C182.723 35.5308 182.312 35.1196 181.804 35.1196C181.297 35.1196 180.886 35.5308 180.886 36.0383V40.0312C180.886 40.5386 181.297 40.9499 181.804 40.9499C182.312 40.9499 182.723 40.5386 182.723 40.0312V36.0383Z" fill="#F7A183"/>
<path fill-rule="evenodd" clip-rule="evenodd" d="M85.6892 98.2737C85.6696 98.6886 85.2999 99.0061 84.9013 98.9882C84.4873 98.9677 84.1671 98.6151 84.1868 98.2003C84.3121 95.6253 84.4212 92.4251 84.5276 89.3071L84.5368 89.0387C84.646 85.8315 84.7596 82.5142 84.8893 79.8542C84.9056 79.4982 85.171 79.2028 85.5228 79.1482C85.8804 79.0884 86.2168 79.2925 86.344 79.6237C87.6817 83.157 90.1197 90.1997 91.5846 94.4655C91.8663 90.1715 92.2778 83.2398 92.2573 79.645C92.2548 79.2293 92.5894 78.8912 93.0051 78.8887H93.0094C93.4234 78.8887 93.7589 79.2225 93.7615 79.6365C93.7926 85.031 92.8672 97.7809 92.8311 98.2776L92.8301 98.2916C92.8037 98.6484 92.5305 98.9378 92.1754 98.9831C92.1438 98.9873 92.1105 98.989 92.0789 98.989C91.7613 98.989 91.4719 98.7876 91.3678 98.4786L91.316 98.3267C90.9111 97.139 88.2324 89.2812 86.2322 83.6948C86.1656 85.4354 86.1024 87.2793 86.0409 89.0891C85.9317 92.2963 85.8181 95.6137 85.6892 98.2737ZM42.1791 79.4908C42.5923 79.4908 42.9286 79.8246 42.9312 80.2386C42.9607 85.4161 42.0969 97.4618 42.0183 98.5576L42.0127 98.6368C41.9836 99.0329 41.6533 99.3334 41.2631 99.3334C41.2444 99.3334 41.2256 99.3334 41.2068 99.3317C40.7928 99.301 40.482 98.9407 40.5119 98.5267L40.5125 98.5186C40.5279 98.3068 40.8061 94.4759 41.0523 90.1787L36.4519 90.2726C36.352 93.2101 36.247 96.1902 36.1292 98.618C36.1104 99.021 35.7775 99.3334 35.3788 99.3334C35.3669 99.3334 35.3541 99.3334 35.3413 99.3325C34.9264 99.3129 34.6071 98.9603 34.6268 98.5446C34.754 95.9324 34.8658 92.668 34.9733 89.5094L34.9753 89.451C35.0823 86.3064 35.1927 83.06 35.3199 80.4529C35.3396 80.038 35.7066 79.7085 36.1079 79.7384C36.5227 79.758 36.842 80.1114 36.8224 80.5263C36.7063 82.9209 36.6021 85.8617 36.504 88.7667L41.1351 88.672C41.305 85.5237 41.439 82.3216 41.427 80.2472C41.4245 79.8314 41.76 79.4934 42.1749 79.4908H42.1791ZM32.4728 96.0729C32.5385 95.6623 32.2576 95.2773 31.8479 95.2124C31.4415 95.1458 31.0523 95.4276 30.9874 95.8373C30.8499 96.7055 30.4018 97.3679 29.7231 97.7043C29.1307 97.9979 28.4443 97.992 27.8869 97.6898C25.8645 96.5988 24.9426 92.5763 24.9332 90.0691C24.9204 86.1525 25.6213 83.285 26.9077 81.9952C27.4097 81.4915 27.9757 81.2465 28.6398 81.2465C29.0965 81.2465 30.4888 81.2465 30.9899 84.0679C31.0625 84.4768 31.4424 84.7516 31.8624 84.6765C32.2704 84.604 32.5436 84.2138 32.4702 83.8049C31.8428 80.2699 29.8016 79.7423 28.6398 79.7423C27.5855 79.7423 26.6183 80.1538 25.8423 80.9323C24.2486 82.5321 23.4145 85.6924 23.4299 90.0734C23.4376 92.4713 24.2306 97.426 27.1715 99.0138C27.6786 99.287 28.2411 99.4244 28.808 99.4244C29.3466 99.4244 29.8896 99.3006 30.3907 99.0522C31.5021 98.5025 32.2602 97.4166 32.4728 96.0729ZM64.7134 96.0729C64.7791 95.6623 64.4982 95.2773 64.0885 95.2124C63.6821 95.1458 63.2929 95.4276 63.228 95.8373C63.0905 96.7055 62.6424 97.3679 61.9637 97.7043C61.3713 97.9979 60.6849 97.992 60.1275 97.6898C58.1051 96.5988 57.1832 92.5763 57.1738 90.0691C57.161 86.1525 57.8619 83.285 59.1483 81.9952C59.6503 81.4915 60.2163 81.2465 60.8804 81.2465C61.3371 81.2465 62.7294 81.2465 63.2305 84.0679C63.3031 84.4768 63.683 84.7516 64.103 84.6765C64.511 84.604 64.7842 84.2138 64.7108 83.8049C64.0834 80.2699 62.0422 79.7423 60.8804 79.7423C59.8261 79.7423 58.8589 80.1538 58.083 80.9323C56.4892 82.5321 55.6551 85.6924 55.6705 90.0734C55.6782 92.4713 56.4712 97.426 59.4121 99.0138C59.9192 99.287 60.4818 99.4244 61.0486 99.4244C61.5872 99.4244 62.1302 99.3006 62.6313 99.0522C63.7427 98.5025 64.5008 97.4166 64.7134 96.0729ZM53.6835 98.3835C53.6715 97.9678 53.3061 97.6673 52.9092 97.6545C51.8816 97.6857 50.8351 97.6584 49.8206 97.632L49.7011 97.6289L49.3652 97.6196C48.6463 97.5996 47.9143 97.5792 47.176 97.5888L47.0146 90.2626L51.1839 90.1346C51.5997 90.1226 51.9258 89.7752 51.913 89.3594C51.8993 88.9446 51.5595 88.6483 51.1378 88.6313L46.9813 88.7585L46.8089 81.0081C47.6303 80.9992 48.4457 81.0025 49.26 81.0057L49.4117 81.0063C50.536 81.0123 51.6603 81.0166 52.8033 80.9944C53.2182 80.9876 53.5486 80.6444 53.5409 80.2287C53.5332 79.818 53.1986 79.4911 52.7888 79.4911H52.7752C51.6466 79.5107 50.5309 79.5065 49.4177 79.5022C48.2926 79.4971 47.1657 79.4928 46.0261 79.5141C45.8272 79.5176 45.636 79.6012 45.4977 79.7455C45.3594 79.8889 45.2843 80.0827 45.2885 80.2824L45.6889 98.3707C45.6932 98.5705 45.7777 98.7617 45.9228 98.8991C46.0688 99.0374 46.26 99.1006 46.4632 99.1057C47.4879 99.0736 48.5365 99.1019 49.5499 99.1292L49.6601 99.1322C50.3994 99.1527 51.1558 99.1723 51.9181 99.1723C52.2621 99.1723 52.6078 99.168 52.9544 99.1587C53.3693 99.1459 53.6963 98.7993 53.6835 98.3835ZM69.8857 91.3243C69.8716 91.347 69.8515 91.3623 69.8313 91.3776C69.8173 91.3883 69.8032 91.399 69.7909 91.4123L70.0035 98.6513C70.0155 99.0662 69.6894 99.4128 69.2728 99.4247H69.2514C68.8451 99.4247 68.5113 99.1029 68.4994 98.6949L67.9667 80.5349C67.9539 80.12 68.2808 79.7743 68.6965 79.7615C69.1456 79.7401 69.4589 80.0765 69.4708 80.4922L69.7141 88.7924L75.2527 80.091C75.4755 79.7401 75.9399 79.6368 76.2916 79.8605C76.6416 80.0833 76.7449 80.5485 76.5212 80.8994L72.6866 86.9245L77.9281 98.5241C78.0988 98.9032 77.9315 99.3479 77.5525 99.5195C77.4517 99.5647 77.3467 99.5869 77.2434 99.5869C76.9566 99.5869 76.6826 99.4213 76.5571 99.1439L71.7211 88.4407L69.8857 91.3243ZM81.4218 80.4944C81.4218 80.0795 81.0846 79.7423 80.6697 79.7423C80.2548 79.7423 79.9176 80.0795 79.9176 80.4944V98.8328C79.9176 99.2486 80.2548 99.5849 80.6697 99.5849C81.0846 99.5849 81.4218 99.2486 81.4218 98.8328V80.4944ZM95.2838 89.4408C95.2923 91.89 96.1007 96.9513 99.103 98.5716C99.6187 98.8499 100.191 98.989 100.769 98.989C101.318 98.989 101.871 98.8636 102.381 98.6109C103.512 98.0509 104.286 96.9445 104.502 95.5752C104.508 95.536 104.511 95.4967 104.511 95.4583V91.1712C104.511 90.9629 104.424 90.7631 104.272 90.6214C104.119 90.4797 103.919 90.402 103.706 90.4208L100.481 90.6496C100.067 90.6786 99.7552 91.0389 99.7843 91.4529C99.8141 91.8669 100.174 92.1981 100.588 92.1503L103.007 91.9788V95.396C102.856 96.2624 102.397 96.9232 101.714 97.2629C101.103 97.5643 100.395 97.5592 99.8184 97.2476C97.7423 96.1276 96.7973 92.0052 96.7879 89.4357C96.7742 85.426 97.493 82.4877 98.8119 81.1637C99.3293 80.6455 99.9132 80.3928 100.598 80.3928C101.069 80.3928 102.502 80.3928 103.019 83.2944C103.09 83.7025 103.477 83.9774 103.89 83.9022C104.299 83.8297 104.572 83.4396 104.499 83.0306C103.859 79.4265 101.78 78.8887 100.598 78.8887C99.5239 78.8887 98.5379 79.3087 97.7466 80.1017C96.1203 81.7339 95.2684 84.9642 95.2838 89.4408Z" fill="#C0C0C0"/>
<path fill-rule="evenodd" clip-rule="evenodd" d="M231.299 114.55H227.585L225.569 105.119C225.495 104.772 225.189 104.524 224.835 104.524C224.481 104.524 224.173 104.771 224.098 105.119L222.068 114.55H215.374C215.159 114.334 214.942 114.123 214.727 113.915L214.723 113.911C214.163 113.367 213.633 112.852 213.16 112.278C212.546 111.534 211.56 110.052 211.837 108.489C212.089 107.074 213.537 105.993 214.863 106.224C216.208 106.457 217.255 107.979 217.061 109.418C217.006 109.829 217.295 110.208 217.706 110.264C218.124 110.325 218.497 110.031 218.553 109.619C218.853 107.39 217.249 105.111 215.12 104.742C212.97 104.364 210.751 106 210.357 108.225C209.973 110.383 211.221 112.29 212 113.235C212.386 113.705 212.805 114.136 213.225 114.55H207.523C207.108 114.55 206.771 114.887 206.771 115.302C206.771 115.717 207.108 116.054 207.523 116.054H214.738C214.916 116.245 215.088 116.439 215.252 116.64C215.864 117.385 216.845 118.869 216.556 120.432C216.424 121.144 215.977 121.799 215.33 122.23C214.743 122.623 214.058 122.773 213.45 122.644C212.103 122.355 211.103 120.726 211.393 119.293C211.475 118.886 211.213 118.49 210.805 118.407C210.399 118.32 210.001 118.588 209.919 118.994C209.469 121.216 211.002 123.657 213.135 124.115C213.38 124.167 213.631 124.193 213.885 124.193C214.666 124.193 215.467 123.948 216.165 123.482C217.148 122.827 217.83 121.814 218.035 120.706C218.389 118.796 217.46 117.082 216.703 116.054H221.745L220.272 122.894C220.184 123.301 220.443 123.7 220.849 123.788C221.257 123.879 221.655 123.618 221.743 123.211L222.291 120.662H227.354L227.898 123.21C227.973 123.563 228.286 123.805 228.633 123.805C228.685 123.805 228.738 123.799 228.791 123.788C229.197 123.701 229.457 123.302 229.369 122.895L227.907 116.054H231.605C232.358 119.734 233.021 122.87 233.152 123.489L233.175 123.599C233.195 123.692 233.232 123.773 233.279 123.848C233.284 123.856 233.291 123.863 233.297 123.869C233.303 123.874 233.309 123.88 233.313 123.886C233.357 123.947 233.407 124 233.466 124.044C233.48 124.054 233.496 124.062 233.511 124.07C233.522 124.075 233.532 124.081 233.542 124.087C233.598 124.119 233.655 124.145 233.717 124.163C233.724 124.164 233.73 124.167 233.736 124.171C233.743 124.174 233.749 124.177 233.757 124.179C233.807 124.19 233.858 124.195 233.908 124.195C233.909 124.195 233.91 124.196 233.91 124.196H233.912L233.913 124.196C233.914 124.195 233.914 124.195 233.915 124.195C233.965 124.195 234.016 124.19 234.068 124.179L234.071 124.178C234.074 124.177 234.077 124.176 234.079 124.175C234.081 124.174 234.083 124.173 234.084 124.173C234.086 124.172 234.087 124.171 234.088 124.17C234.095 124.167 234.101 124.164 234.108 124.162C234.169 124.145 234.225 124.119 234.278 124.088C234.289 124.082 234.301 124.076 234.313 124.07C234.329 124.062 234.345 124.054 234.359 124.043C234.416 124.001 234.463 123.948 234.506 123.89C234.511 123.883 234.518 123.877 234.524 123.871C234.532 123.863 234.54 123.855 234.546 123.846C234.592 123.772 234.628 123.69 234.648 123.598L234.651 123.586L236.239 116.054H240.388L240.331 123.047C240.329 123.462 240.662 123.801 241.077 123.805H241.083C241.496 123.805 241.832 123.472 241.835 123.059L241.892 116.054H244.56C244.471 118.629 244.378 121.175 244.276 123.297C244.256 123.712 244.576 124.064 244.99 124.085C245.396 124.098 245.758 123.786 245.778 123.37C245.882 121.225 245.976 118.652 246.066 116.054H248.873C250.108 119.619 251.162 122.711 251.405 123.423L251.457 123.575C251.561 123.884 251.85 124.086 252.168 124.086C252.199 124.086 252.232 124.084 252.263 124.08C252.618 124.035 252.892 123.745 252.919 123.389L252.92 123.37C252.941 123.083 253.173 119.878 253.401 116.054H254.825C255.107 118.714 256.108 122.422 258.61 123.772C259.132 124.054 259.712 124.195 260.297 124.195C260.853 124.195 261.413 124.067 261.93 123.811C263.076 123.243 263.859 122.122 264.078 120.735C264.084 120.696 264.086 120.656 264.086 120.617V116.262C264.086 116.191 264.076 116.121 264.057 116.054H271.025C271.111 116.153 271.196 116.253 271.28 116.355C271.918 117.133 272.944 118.682 272.641 120.319C272.502 121.067 272.034 121.755 271.354 122.208C270.735 122.621 270.012 122.776 269.379 122.642C267.964 122.339 266.913 120.63 267.218 119.125C267.3 118.717 267.037 118.321 266.63 118.239C266.224 118.151 265.827 118.42 265.744 118.826C265.279 121.121 266.862 123.641 269.064 124.113C269.316 124.166 269.575 124.193 269.837 124.193C270.642 124.193 271.469 123.94 272.189 123.46C273.204 122.783 273.907 121.738 274.12 120.593C274.456 118.778 273.671 117.133 272.934 116.054H277.749C278.164 116.054 278.501 115.717 278.501 115.302C278.501 114.887 278.164 114.55 277.749 114.55H271.684C271.363 114.215 271.035 113.896 270.712 113.582L270.687 113.557C270.103 112.991 269.552 112.457 269.06 111.86C268.42 111.083 267.389 109.535 267.68 107.899C267.944 106.413 269.462 105.287 270.858 105.522C272.27 105.766 273.37 107.364 273.166 108.873C273.111 109.284 273.4 109.664 273.812 109.718C274.213 109.78 274.602 109.485 274.657 109.073C274.968 106.772 273.312 104.419 271.115 104.04C268.897 103.661 266.607 105.338 266.199 107.635C265.801 109.866 267.093 111.84 267.899 112.817C268.416 113.445 268.989 114.008 269.549 114.55H256.239L256.239 114.498C256.225 110.418 256.956 107.43 258.299 106.083C258.827 105.553 259.423 105.296 260.122 105.296C260.603 105.296 262.07 105.296 262.594 108.254C262.666 108.663 263.053 108.94 263.466 108.863C263.875 108.791 264.148 108.4 264.075 107.992C263.428 104.337 261.32 103.792 260.122 103.792C259.018 103.792 258.047 104.206 257.234 105.021C255.583 106.677 254.719 109.956 254.734 114.502L254.735 114.55H253.488C253.689 110.972 253.864 107.128 253.85 104.733C253.848 104.319 253.511 103.985 253.098 103.985H253.094C252.678 103.988 252.344 104.326 252.346 104.742C252.36 107.125 252.183 110.975 251.981 114.55H249.943C248.692 110.953 247.32 107.064 246.432 104.72C246.306 104.387 245.956 104.188 245.611 104.245C245.259 104.3 244.994 104.595 244.977 104.951C244.848 107.611 244.735 110.928 244.626 114.135L244.611 114.55H241.904L241.982 104.897C241.986 104.481 241.652 104.142 241.236 104.139H241.23C240.818 104.139 240.481 104.472 240.478 104.885L240.4 114.55H236.557L238.562 105.046C238.647 104.639 238.388 104.241 237.981 104.155C237.573 104.07 237.176 104.329 237.089 104.736L235.019 114.55H232.833C232.119 111.04 231.369 107.245 230.939 104.762C230.868 104.353 230.481 104.077 230.069 104.149C229.66 104.22 229.386 104.61 229.457 105.019C229.877 107.445 230.601 111.112 231.299 114.55ZM223.607 114.55H226.047L224.832 108.863L223.607 114.55ZM223.284 116.054L222.616 119.158H227.032L226.369 116.054H223.284ZM233.14 116.054C233.42 117.418 233.685 118.697 233.913 119.79L234.701 116.054H233.14ZM246.321 108.791C246.96 110.576 247.669 112.593 248.35 114.55H246.117L246.136 113.987C246.196 112.241 246.256 110.467 246.321 108.791ZM250.465 116.054C250.905 117.327 251.318 118.526 251.673 119.561C251.742 118.519 251.818 117.322 251.893 116.054H250.465ZM259.325 122.448C257.516 121.472 256.618 118.458 256.338 116.054H259.448C259.349 116.192 259.295 116.364 259.308 116.547C259.337 116.961 259.685 117.28 260.112 117.244L262.583 117.069V120.556C262.428 121.44 261.961 122.116 261.262 122.463C260.638 122.772 259.914 122.767 259.325 122.448Z" fill="#C0C0C0"/>
<path fill-rule="evenodd" clip-rule="evenodd" d="M204.783 88.7042C204.783 97.5925 196.835 98.599 196.755 98.6084C196.727 98.6109 196.698 98.6126 196.669 98.6126C196.485 98.6126 196.307 98.546 196.168 98.4214C196.009 98.2788 195.917 98.0748 195.917 97.8606V79.6835C195.917 79.4718 196.007 79.2695 196.163 79.1269C196.32 78.986 196.529 78.9135 196.74 78.9348C196.821 78.9425 204.783 79.8022 204.783 88.7042ZM168.308 98.4117C165.366 96.8256 164.573 91.8701 164.564 89.4713C164.55 85.0911 165.383 81.93 166.977 80.3311C167.754 79.5525 168.721 79.1411 169.776 79.1411C170.937 79.1411 172.98 79.6686 173.605 83.2045C173.678 83.6126 173.406 84.0035 172.996 84.0753C172.585 84.1487 172.198 83.8763 172.125 83.4657C171.625 80.6452 170.234 80.6452 169.776 80.6452C169.111 80.6452 168.544 80.8902 168.042 81.393C166.757 82.6838 166.055 85.5512 166.069 89.4661C166.078 91.9742 167 95.9967 169.021 97.0876C169.581 97.3907 170.267 97.395 170.859 97.1022C171.536 96.7658 171.986 96.1034 172.123 95.2352C172.188 94.8254 172.573 94.5446 172.983 94.6103C173.393 94.6743 173.673 95.0593 173.608 95.4708C173.396 96.8136 172.637 97.8995 171.527 98.4501C171.026 98.6977 170.483 98.8214 169.943 98.8214C169.376 98.8214 168.814 98.6849 168.308 98.4117ZM258.518 79.4331C258.598 79.4408 266.479 80.2919 266.479 89.1025C266.479 97.9013 258.612 98.8966 258.533 98.906C258.504 98.9086 258.475 98.9103 258.447 98.9103C258.263 98.9103 258.084 98.8428 257.946 98.7191C257.787 98.5765 257.695 98.3725 257.695 98.1582V80.1818C257.695 79.97 257.785 79.7677 257.941 79.6252C258.098 79.4835 258.308 79.4083 258.518 79.4331ZM242.053 80.0248L245.852 97.7998C245.94 98.207 245.68 98.6056 245.274 98.6927C244.868 98.7823 244.468 98.5211 244.381 98.1148L243.837 95.5674H238.775L238.227 98.1156C238.151 98.4682 237.838 98.7089 237.492 98.7098C237.44 98.7098 237.386 98.7047 237.333 98.6927C236.927 98.6048 236.668 98.2053 236.756 97.7989L240.582 80.0239C240.656 79.6765 240.964 79.4298 241.318 79.4298C241.672 79.4298 241.979 79.6773 242.053 80.0248ZM234.956 95.925C235.021 95.5144 234.74 95.1294 234.331 95.0646C233.923 94.9988 233.535 95.2797 233.47 95.6894C233.333 96.5585 232.884 97.2209 232.206 97.5573C231.615 97.8501 230.93 97.8458 230.37 97.5427C228.347 96.4518 227.425 92.4284 227.416 89.9212C227.403 86.0055 228.104 83.138 229.391 81.8481C229.892 81.3445 230.458 81.0995 231.123 81.0995C231.579 81.0995 232.972 81.0995 233.473 83.9208C233.544 84.3289 233.929 84.6029 234.345 84.5295C234.753 84.4569 235.026 84.0668 234.953 83.6579C234.326 80.1229 232.284 79.5953 231.123 79.5953C230.068 79.5953 229.101 80.0068 228.325 80.7853C226.731 82.3842 225.897 85.5454 225.913 89.9255C225.92 92.3243 226.713 97.279 229.654 98.8668C230.161 99.1399 230.724 99.2774 231.291 99.2774C231.829 99.2774 232.372 99.1536 232.873 98.9052C233.985 98.3546 234.743 97.2687 234.956 95.925ZM243.515 94.0633H239.099L241.315 83.7681L243.515 94.0633ZM264.976 89.1026C264.976 94.9988 260.985 96.748 259.2 97.2354V81.0824C260.976 81.5237 264.976 83.173 264.976 89.1026ZM276.558 84.5238C276.859 82.2949 275.255 80.0165 273.126 79.6477C270.987 79.2755 268.757 80.9043 268.362 83.1306C267.978 85.2887 269.227 87.1958 270.005 88.1399C270.525 88.772 271.105 89.3352 271.666 89.8804L271.681 89.8951C272.247 90.4447 272.783 90.9649 273.257 91.5444C273.869 92.2896 274.851 93.7733 274.562 95.3372C274.429 96.0483 273.983 96.7039 273.336 97.1359C272.746 97.5285 272.06 97.6762 271.456 97.5499C270.109 97.2605 269.108 95.6317 269.399 94.1975C269.481 93.7903 269.218 93.3942 268.81 93.3114C268.406 93.2235 268.006 93.4924 267.924 93.8988C267.474 96.1217 269.008 98.5623 271.141 99.0199C271.386 99.0728 271.637 99.0984 271.89 99.0984C272.672 99.0984 273.471 98.8534 274.171 98.3873C275.153 97.7317 275.835 96.7193 276.04 95.6112C276.441 93.4489 275.198 91.5375 274.422 90.59C273.893 89.9465 273.304 89.3743 272.734 88.8201L272.729 88.8152C272.168 88.2714 271.639 87.7566 271.166 87.183C270.552 86.4386 269.565 84.9575 269.842 83.3944C270.094 81.9782 271.536 80.9034 272.869 81.1297C274.213 81.3627 275.261 82.8848 275.067 84.3224C275.011 84.7338 275.3 85.1129 275.711 85.1683C276.123 85.2264 276.503 84.9353 276.558 84.5238ZM249.405 90.3677L249.406 90.3679C249.455 90.378 250.889 90.6723 251.945 89.8282C252.797 89.1461 253.228 87.8835 253.228 86.0738C253.228 84.3741 252.765 83.0706 251.852 82.199C250.974 81.3598 249.861 81.0756 249.146 80.9808V90.3515C249.174 90.3489 249.203 90.3472 249.232 90.3472C249.289 90.3472 249.347 90.3532 249.405 90.3677ZM255.4 97.8723L253.308 90.611C254.254 89.6045 254.732 88.0824 254.732 86.0738C254.732 83.9473 254.113 82.2775 252.89 81.1106C251.03 79.3341 248.472 79.4237 248.36 79.4323C247.959 79.451 247.643 79.7823 247.643 80.1835V98.0805C247.643 98.4954 247.979 98.8326 248.394 98.8326C248.81 98.8326 249.146 98.4954 249.146 98.0805V91.8497C249.489 91.9145 250.75 92.0844 252.005 91.5236L253.955 98.2888C254.05 98.6184 254.351 98.8335 254.678 98.8335C254.746 98.8335 254.816 98.8232 254.886 98.8036C255.286 98.6884 255.515 98.2718 255.4 97.8723ZM203.279 88.7041C203.279 94.6823 199.224 96.4494 197.421 96.9386V80.5884C199.216 81.0391 203.279 82.7225 203.279 88.7041ZM186.118 98.5494C186.264 98.6885 186.467 98.7654 186.658 98.756C187.724 98.7235 188.809 98.7526 189.861 98.7816C190.598 98.8021 191.352 98.8217 192.112 98.8217C192.457 98.8217 192.803 98.8174 193.149 98.808C193.564 98.7952 193.891 98.4487 193.878 98.0329C193.865 97.618 193.519 97.3022 193.104 97.3039C192.038 97.3355 190.953 97.3073 189.901 97.2783L189.885 97.2778C189.063 97.2549 188.218 97.2314 187.371 97.239L187.209 89.9129L191.379 89.784C191.795 89.772 192.12 89.4237 192.108 89.0088C192.095 88.594 191.749 88.3063 191.333 88.2807L187.175 88.4087L187.003 80.6574C187.881 80.6489 188.751 80.6523 189.62 80.6566L189.724 80.657C190.809 80.6612 191.897 80.6653 192.997 80.6446C193.412 80.637 193.744 80.2946 193.736 79.8798C193.728 79.464 193.365 79.12 192.971 79.1405C191.912 79.1606 190.866 79.1565 189.822 79.1523L189.626 79.1516C188.494 79.1456 187.365 79.1413 186.22 79.1635C186.021 79.167 185.83 79.2498 185.692 79.394C185.553 79.5383 185.478 79.7321 185.483 79.9318L185.688 89.2052C185.688 89.2052 185.688 89.206 185.688 89.2069C185.688 89.2077 185.688 89.2086 185.688 89.2095L185.884 98.021C185.888 98.2207 185.972 98.4119 186.118 98.5494ZM214.508 80.8224H211.265C210.85 80.8224 210.513 80.4852 210.513 80.0703C210.513 79.6554 210.85 79.3182 211.265 79.3182H215.23C215.231 79.318 215.233 79.3173 215.234 79.3173H215.247L215.248 79.3175C215.248 79.3177 215.25 79.3182 215.251 79.3182H219.54C219.955 79.3182 220.292 79.6554 220.292 80.0703C220.292 80.4852 219.955 80.8224 219.54 80.8224H216.012L216.31 97.8794C216.318 98.2951 215.987 98.6375 215.572 98.6451H215.558C215.149 98.6451 214.813 98.3173 214.807 97.9067L214.508 80.8224ZM177.16 89.9929V80.6248C177.882 80.723 179.004 81.0107 179.876 81.849C180.782 82.7206 181.242 84.0216 181.242 85.7135C181.242 87.5233 180.81 88.7876 179.958 89.4688C178.897 90.3177 177.452 90.0153 177.419 90.0084C177.361 89.9948 177.303 89.9878 177.246 89.9878C177.217 89.9878 177.188 89.9895 177.16 89.9929ZM177.16 97.7211C177.16 98.1369 176.823 98.4732 176.408 98.4732C175.993 98.4732 175.656 98.1369 175.656 97.7211V79.8249C175.656 79.4229 175.972 79.0916 176.374 79.0737C176.488 79.0626 179.044 78.9738 180.905 80.7512C182.126 81.919 182.746 83.5887 182.746 85.7135C182.746 87.7222 182.267 89.246 181.321 90.2516L183.414 97.5128C183.53 97.9124 183.299 98.3289 182.9 98.4442C182.83 98.4638 182.76 98.4741 182.691 98.4741C182.365 98.4741 182.064 98.2589 181.969 97.9294L180.019 91.165C178.766 91.7233 177.503 91.556 177.16 91.4911V97.7211ZM206.823 97.8471C206.819 98.2628 207.153 98.6017 207.569 98.6051H207.575C207.987 98.6051 208.323 98.2722 208.327 97.859L208.474 79.6973C208.477 79.2816 208.144 78.9427 207.728 78.9393H207.722C207.309 78.9393 206.974 79.2722 206.97 79.6854L206.823 97.8471Z" fill="#C0C0C0"/>
<path d="M279.294 89.8217H160.042C159.626 89.8217 159.29 89.4845 159.29 89.0696C159.29 88.6547 159.626 88.3175 160.042 88.3175H279.294C279.709 88.3175 280.046 88.6547 280.046 89.0696C280.046 89.4845 279.709 89.8217 279.294 89.8217Z" fill="#C0C0C0"/>
<mask id="mask0" mask-type="alpha" maskUnits="userSpaceOnUse" x="0" y="12" width="301" height="233">
<path d="M115.386 244.444C66.9123 244.444 0.0899276 196.438 0.0898438 130.183C0.0896749 -3.24206 136.757 5.50034 189.534 20.1628C242.312 34.8253 300.09 69.0376 300.09 152.637C300.09 218.364 248.979 244.444 181.757 244.444H115.386Z" fill="#EAFBF0"/>
</mask>
<g mask="url(#mask0)">
<path d="M174.355 110.172C180.841 104.923 189.262 98.1072 200.007 109.959C205.366 115.866 206.216 125.223 193.583 132.099C194.234 134.519 194.848 137.357 195.421 140.435H197.612C198.502 140.435 199.226 141.152 199.226 142.049V143.568C199.226 144.458 198.502 145.182 197.612 145.182H196.245C199.043 162.413 200.674 183.887 200.674 183.887C200.674 183.887 200.606 183.995 200.463 184.194C200.569 184.103 200.642 184.051 200.682 184.042L200.684 184.051L200.69 184.042C201.414 186.556 202.096 189.122 202.74 191.727L202.737 191.711C202.737 191.711 225.2 207.062 232.57 178.884C232.566 177.454 232.73 175.909 233.091 174.241L233.091 174.239C233.081 174.056 231.627 147.185 243.513 150.086C251.469 152.027 247.048 161.22 247.014 161.291C247.014 161.291 250.803 159.159 255.101 160.478C259.648 161.873 260.717 165.495 260.717 165.495C260.717 165.495 263.81 164.854 265.576 166.613C270.042 171.065 268.157 177.816 265.608 184.214V184.216C265.591 184.568 262.642 244.657 211.301 246.494L211.3 246.488C213.366 269.556 213.418 287.152 213.418 287.152H90.4911C90.4911 287.152 90.5431 269.559 92.6088 246.494C41.1202 244.649 38.3055 184.215 38.3055 184.215C35.7551 177.816 33.8705 171.065 38.3368 166.613C40.1019 164.854 43.195 165.495 43.195 165.495C43.195 165.495 44.2651 161.873 48.8123 160.478C53.1103 159.159 56.8991 161.292 56.8991 161.292C56.8655 161.222 52.4423 152.028 60.3991 150.086C72.2886 147.184 70.8309 174.069 70.8215 174.24L70.8218 174.241C71.1829 175.909 71.3464 177.454 71.3427 178.885C78.6735 206.909 100.932 191.876 101.174 191.712C101.817 189.112 102.498 186.551 103.22 184.042C103.259 184.05 103.331 184.101 103.434 184.19C103.293 183.993 103.227 183.887 103.227 183.887C103.227 183.887 104.859 162.413 107.658 145.182H106.289C105.399 145.182 104.674 144.458 104.674 143.568V142.049C104.674 141.152 105.399 140.435 106.289 140.435H108.482C109.056 137.357 109.669 134.519 110.32 132.099C97.6828 125.223 98.5366 115.866 103.892 109.959C114.638 98.1069 123.061 104.923 129.548 110.172C130.331 110.806 131.086 111.417 131.813 111.97H133.611C136.548 111.97 138.755 110.479 141.345 108.73C144.648 106.499 148.572 103.848 155.426 103.333C154.594 106.113 153.905 108.962 154.505 110.985C154.505 110.985 160.347 107.608 165.3 108.474C164.518 109.868 164.462 112.02 165.061 113.402C167.845 113.563 169.933 113.541 172.089 111.97C172.817 111.417 173.572 110.806 174.355 110.172Z" fill="#C0F4D3"/>
<path fill-rule="evenodd" clip-rule="evenodd" d="M113.831 20.8228C114.243 20.8228 114.578 21.1572 114.578 21.5697V149.487C114.578 149.9 114.243 150.234 113.831 150.234C113.418 150.234 113.084 149.9 113.084 149.487V21.5697C113.084 21.1572 113.418 20.8228 113.831 20.8228Z" fill="#C0C0C0"/>
<path fill-rule="evenodd" clip-rule="evenodd" d="M265.441 62.3939C265.441 62.8065 265.107 63.1409 264.694 63.1409L13.8849 63.1409C13.4723 63.1409 13.1379 62.8065 13.1379 62.3939C13.1379 61.9814 13.4723 61.647 13.8849 61.647L264.694 61.647C265.107 61.647 265.441 61.9814 265.441 62.3939Z" fill="#C0C0C0"/>
<path d="M193.849 182.821C193.849 182.821 216.311 198.173 223.681 169.995L256.719 175.325C256.719 175.325 253.904 235.762 202.413 237.605L193.849 182.821Z" fill="white"/>
<path d="M223.681 169.995C223.681 169.995 221.368 186.755 234.478 189.473C254.834 193.694 256.719 175.325 256.719 175.325L223.681 169.995Z" fill="#C9DCFC"/>
<path fill-rule="evenodd" clip-rule="evenodd" d="M238.125 152.403C238.125 152.403 242.611 143.146 234.624 141.197C222.698 138.286 224.203 165.351 224.203 165.351L238.125 152.403Z" fill="#9D7354"/>
<path fill-rule="evenodd" clip-rule="evenodd" d="M256.719 175.325C251.92 187.363 242.348 187.069 235.933 185.102C229.329 183.076 221.588 177.43 224.203 165.352C225.612 158.84 227.812 151.972 233.724 151.052C236.204 150.665 238.125 152.402 238.125 152.402C238.125 152.402 241.914 150.27 246.212 151.589C250.759 152.984 251.829 156.606 251.829 156.606C251.829 156.606 254.922 155.965 256.688 157.724C261.154 162.176 259.269 168.927 256.719 175.325Z" fill="#9D7354"/>
<path fill-rule="evenodd" clip-rule="evenodd" d="M247.751 160.007C247.031 162.355 244.76 163.741 242.68 163.103C240.6 162.465 239.497 160.044 240.218 157.695C240.937 155.347 243.208 153.961 245.288 154.599C247.369 155.237 248.471 157.658 247.751 160.007Z" fill="#493426"/>
<path fill-rule="evenodd" clip-rule="evenodd" d="M250.101 161.908C248.976 163.623 249.296 165.821 250.815 166.818C252.334 167.814 254.479 167.232 255.603 165.517C256.729 163.802 256.408 161.603 254.889 160.607C253.369 159.61 251.226 160.193 250.101 161.908Z" fill="#493426"/>
<path fill-rule="evenodd" clip-rule="evenodd" d="M251.127 174.223C250.219 177.182 244.631 178.092 238.645 176.256C232.659 174.42 228.542 170.533 229.45 167.574C230.357 164.616 235.945 163.706 241.931 165.542C247.918 167.378 252.035 171.264 251.127 174.223Z" fill="#493426"/>
<path fill-rule="evenodd" clip-rule="evenodd" d="M237.206 157.952C237.176 160.002 235.678 161.644 233.862 161.617C232.044 161.59 230.596 159.906 230.626 157.855C230.656 155.804 232.153 154.164 233.971 154.19C235.788 154.217 237.236 155.902 237.206 157.952Z" fill="#493426"/>
<path d="M92.2875 182.821C92.2875 182.821 69.8249 198.173 62.4542 169.995L29.417 175.325C29.417 175.325 32.2318 235.762 83.7235 237.605L92.2875 182.821Z" fill="white"/>
<path d="M62.4541 169.995C62.4541 169.995 64.7678 186.755 51.6581 189.473C31.3016 193.694 29.417 175.325 29.417 175.325L62.4541 169.995Z" fill="#C9DCFC"/>
<path fill-rule="evenodd" clip-rule="evenodd" d="M48.0112 152.403C48.0112 152.403 43.5238 143.146 51.5108 141.197C63.4382 138.286 61.9331 165.351 61.9331 165.351L48.0112 152.403Z" fill="#9D7354"/>
<path fill-rule="evenodd" clip-rule="evenodd" d="M29.4168 175.325C34.2153 187.363 43.7875 187.069 50.2032 185.102C56.8061 183.076 64.5476 177.43 61.9331 165.352C60.5228 158.84 58.3235 151.972 52.4119 151.052C49.9314 150.665 48.0104 152.402 48.0104 152.402C48.0104 152.402 44.2216 150.27 39.9236 151.589C35.3765 152.984 34.3063 156.606 34.3063 156.606C34.3063 156.606 31.2132 155.965 29.4481 157.724C24.9818 162.176 26.8664 168.927 29.4168 175.325Z" fill="#9D7354"/>
<path fill-rule="evenodd" clip-rule="evenodd" d="M38.3847 160.007C39.1044 162.355 41.3743 163.741 43.4549 163.103C45.5354 162.465 46.6376 160.044 45.9178 157.695C45.1981 155.347 42.9267 153.961 40.8469 154.599C38.7664 155.237 37.6642 157.658 38.3847 160.007Z" fill="#493426"/>
<path fill-rule="evenodd" clip-rule="evenodd" d="M36.0343 161.908C37.1591 163.623 36.8393 165.821 35.3204 166.818C33.8008 167.814 31.6569 167.232 30.5314 165.517C29.4066 163.802 29.7264 161.603 31.246 160.607C32.7656 159.61 34.9096 160.193 36.0343 161.908Z" fill="#493426"/>
<path fill-rule="evenodd" clip-rule="evenodd" d="M35.008 174.223C35.9157 177.182 41.5039 178.092 47.4905 176.256C53.4764 174.42 57.593 170.533 56.6861 167.574C55.7784 164.616 50.1902 163.706 44.2036 165.542C38.2177 167.378 34.1011 171.264 35.008 174.223Z" fill="#493426"/>
<path fill-rule="evenodd" clip-rule="evenodd" d="M48.9302 157.952C48.96 160.002 50.4578 161.644 52.2746 161.617C54.0914 161.59 55.5396 159.906 55.5098 157.855C55.4792 155.804 53.9829 154.164 52.1646 154.19C50.3478 154.217 48.8996 155.902 48.9302 157.952Z" fill="#493426"/>
<path fill-rule="evenodd" clip-rule="evenodd" d="M191.118 101.07C179.076 87.7868 169.952 97.952 163.201 103.08C161.044 104.652 158.956 104.674 156.172 104.513C155.573 103.131 155.629 100.979 156.411 99.5852C151.458 98.719 145.617 102.096 145.617 102.096C145.016 100.073 145.706 97.2242 146.537 94.4443C134.309 95.3629 131.405 103.08 124.722 103.08H122.925C116.172 97.952 107.047 87.7868 95.0035 101.07C89.6478 106.977 88.794 116.334 101.432 123.21C97.0309 139.567 94.3377 174.998 94.3377 174.998C94.3377 174.998 105.31 192.512 143.061 192.512C180.813 192.512 191.785 174.998 191.785 174.998C191.785 174.998 189.094 139.567 184.694 123.21C197.328 116.334 196.477 106.977 191.118 101.07Z" fill="#9D7354"/>
<path fill-rule="evenodd" clip-rule="evenodd" d="M120.774 139.258C120.534 139.283 120.294 139.358 120.071 139.486C119.216 139.978 118.922 141.071 119.415 141.926C120.594 143.974 123.071 145.116 125.727 144.836C127.693 144.629 129.496 143.626 130.548 142.153C131.121 141.349 130.934 140.234 130.132 139.661C129.329 139.087 128.213 139.273 127.64 140.076C127.172 140.73 126.318 141.182 125.353 141.283C124.139 141.411 122.971 140.943 122.51 140.143C122.147 139.512 121.455 139.186 120.774 139.258Z" fill="#493426"/>
<path fill-rule="evenodd" clip-rule="evenodd" d="M165.527 139.258C165.768 139.283 166.006 139.358 166.23 139.486C167.085 139.978 167.379 141.071 166.886 141.926C165.708 143.974 163.23 145.116 160.574 144.836C158.607 144.629 156.805 143.626 155.753 142.153C155.181 141.349 155.366 140.234 156.169 139.661C156.973 139.087 158.087 139.273 158.661 140.076C159.128 140.73 159.983 141.182 160.948 141.283C162.162 141.411 163.331 140.943 163.791 140.143C164.155 139.512 164.845 139.186 165.527 139.258Z" fill="#493426"/>
<path fill-rule="evenodd" clip-rule="evenodd" d="M111.439 108.988C112.264 108.179 111.927 106.79 110.827 106.435C109.223 105.916 107.025 105.664 105.248 107.153C102.182 109.722 103.095 112.234 104.133 113.698C104.675 114.461 105.777 114.546 106.444 113.89L111.439 108.988Z" fill="#493426"/>
<path fill-rule="evenodd" clip-rule="evenodd" d="M175.109 108.988C174.284 108.179 174.622 106.79 175.721 106.435C177.325 105.916 179.524 105.664 181.3 107.153C184.366 109.722 183.453 112.234 182.415 113.698C181.874 114.461 180.772 114.546 180.104 113.89L175.109 108.988Z" fill="#493426"/>
<path fill-rule="evenodd" clip-rule="evenodd" d="M157.468 173.051C157.468 184.461 151.018 186.193 143.062 186.193C135.105 186.193 128.655 184.353 128.655 173.051C128.655 160.511 135.105 151.254 143.062 151.254C151.018 151.254 157.468 160.511 157.468 173.051Z" fill="#EBBF8D"/>
<path fill-rule="evenodd" clip-rule="evenodd" d="M133.426 123.933C132.886 125.042 131.547 125.504 130.437 124.963L129.965 124.734C126.652 123.12 123.855 123.046 120.312 124.481L119.826 124.677C118.681 125.141 117.378 124.589 116.915 123.444L116.52 122.471C116.057 121.327 116.609 120.023 117.754 119.56L118.24 119.363C123.198 117.356 127.692 117.485 132.383 119.77L132.855 120C133.965 120.54 134.426 121.879 133.886 122.989L133.426 123.933Z" fill="#493426"/>
<path fill-rule="evenodd" clip-rule="evenodd" d="M152.868 119.203C153.408 120.313 154.746 120.774 155.857 120.234L156.329 120.004C159.641 118.391 162.438 118.317 165.982 119.751L166.468 119.948C167.613 120.411 168.916 119.859 169.379 118.715L169.773 117.741C170.237 116.597 169.684 115.294 168.54 114.83L168.053 114.634C163.095 112.627 158.601 112.755 153.911 115.04L153.439 115.27C152.328 115.811 151.867 117.149 152.408 118.259L152.868 119.203Z" fill="#493426"/>
<path fill-rule="evenodd" clip-rule="evenodd" d="M180.813 243.027C180.813 262.488 163.911 278.263 143.061 278.263C122.212 278.263 105.31 262.488 105.31 243.027C105.31 223.566 122.212 207.791 143.061 207.791C163.911 207.791 180.813 223.566 180.813 243.027Z" fill="#EBBF8D"/>
<path d="M143.063 192.512V278.263H85.5622C83.5712 236.872 94.3316 175.153 94.3316 175.153C95.1183 175.315 108.531 192.444 143.063 192.512Z" fill="#C9DCFC"/>
<path d="M143.062 192.512V278.263H200.562C202.554 236.872 191.794 175.153 191.794 175.153C191.006 175.315 177.594 192.444 143.062 192.512Z" fill="#C9DCFC"/>
<path fill-rule="evenodd" clip-rule="evenodd" d="M143.062 192.512L155.226 207.791L178.447 199.071L191.793 175.153C191.793 175.153 173.207 192.512 143.062 192.512Z" fill="#6EC9E5"/>
<path d="M143.062 192.512L146.666 202.637L151.841 210.939L182.163 196.574L191.793 178.302C191.793 178.302 173.207 192.512 143.062 192.512Z" fill="#82AEF8"/>
<path d="M143.063 192.512L139.459 202.637L134.284 210.939L103.962 196.574L94.3311 178.302C94.3311 178.302 112.917 192.512 143.063 192.512Z" fill="#82AEF8"/>
<path d="M146.666 202.637L150.339 192.499L143.062 192.512L135.784 192.499L139.457 202.637L131.934 240.441C131.719 241.523 132.1 242.637 132.932 243.361L141.044 250.415C142.201 251.421 143.922 251.421 145.08 250.415L153.191 243.361C154.024 242.637 154.404 241.523 154.189 240.441L146.666 202.637Z" fill="#282828"/>
<path d="M143.063 192.512L132.473 203.793L107.678 199.071L94.3311 175.153C94.3311 175.153 112.917 192.512 143.063 192.512Z" fill="#C9DCFC"/>
<path d="M143.062 192.512L155.227 203.793L178.447 199.071L191.793 175.153C191.793 175.153 173.207 192.512 143.062 192.512Z" fill="#C9DCFC"/>
<path d="M94.3312 175.153L122.441 211.606V278.263H81.6025C81.6025 278.263 81.7781 218.764 94.3312 175.153Z" fill="white"/>
<path d="M191.801 175.153L163.691 211.606V278.263H204.529C204.529 278.263 204.354 218.764 191.801 175.153Z" fill="white"/>
<path d="M163.691 246.873L179.141 215.238L172.781 207.336L184.11 205.859L193.845 182.817L187.343 209.166L178.768 209.751L185.194 216.077L163.691 251.863V246.873Z" fill="#DADADA"/>
<path d="M122.441 246.873L106.991 215.238L113.351 207.336L102.022 205.859L92.2871 182.817L98.7895 209.166L107.364 209.751L100.939 216.077L122.441 251.863V246.873Z" fill="#DADADA"/>
<path fill-rule="evenodd" clip-rule="evenodd" d="M152.166 161.465C152.166 162.698 150.009 164.627 147.795 166.283C144.989 168.381 141.14 168.381 138.335 166.283C136.121 164.627 133.964 162.698 133.964 161.465C133.964 158.934 138.038 156.882 143.065 156.882C148.091 156.882 152.166 158.934 152.166 161.465Z" fill="#493426"/>
<path fill-rule="evenodd" clip-rule="evenodd" d="M147.995 160.665C147.995 160.913 147.486 161.196 146.795 161.465C144.4 162.396 141.729 162.396 139.335 161.465C138.644 161.196 138.135 160.913 138.135 160.665C138.135 159.891 140.342 159.263 143.065 159.263C145.788 159.263 147.995 159.891 147.995 160.665Z" fill="#EBBF8D"/>
<path fill-rule="evenodd" clip-rule="evenodd" d="M143.067 179.944C135.558 179.944 134.264 173.584 134.264 173.584C134.264 172.801 134.897 172.167 135.68 172.167H150.451C151.234 172.167 151.867 172.801 151.867 173.584C151.867 173.584 150.478 179.944 143.067 179.944Z" fill="#493426"/>
<path fill-rule="evenodd" clip-rule="evenodd" d="M179.239 131.546H188.724C189.613 131.546 190.337 132.263 190.337 133.16V134.679C190.337 135.569 189.613 136.293 188.724 136.293H180.829V140.126C180.829 144.927 180.309 148.706 177.775 151.571C175.09 154.594 170.534 156.003 163.417 156.003C153.326 156.003 146.006 149.328 146.006 140.126V138.67H140.118V140.126C140.118 149.328 132.79 156.003 122.698 156.003C115.591 156.003 111.033 154.594 108.349 151.571C105.806 148.706 105.287 144.927 105.287 140.126V136.293H97.4004C96.5102 136.293 95.7861 135.569 95.7861 134.679V133.16C95.7861 132.263 96.5102 131.546 97.4004 131.546H106.884C107.231 131.097 107.649 130.689 108.168 130.327C110.648 128.547 114.836 128.24 122.698 128.24C130.57 128.24 134.757 128.547 137.237 130.327C138.559 131.263 139.268 132.467 139.654 133.915H146.463C146.848 132.467 147.564 131.263 148.879 130.327C151.366 128.547 155.545 128.24 163.417 128.24C171.289 128.24 175.468 128.547 177.956 130.327C178.476 130.689 178.892 131.097 179.239 131.546ZM122.698 151.256C112.396 151.256 110.461 148.326 110.115 143.05C110.056 142.143 110.042 141.168 110.042 140.126C110.042 136.545 110.072 134.797 110.922 134.191C112.473 133.081 117.818 132.987 122.698 132.987C127.586 132.987 132.924 133.081 134.482 134.191C134.786 134.407 134.983 134.779 135.113 135.32C135.348 136.291 135.364 137.826 135.364 140.126C135.364 146.683 130.161 151.256 122.698 151.256ZM163.417 151.256C155.964 151.256 150.752 146.683 150.752 140.126C150.752 136.545 150.791 134.797 151.642 134.191C153.192 133.081 158.537 132.987 163.417 132.987C168.305 132.987 173.642 133.081 175.201 134.191C176.043 134.797 176.083 136.545 176.083 140.126C176.083 147.235 175.492 151.256 163.417 151.256Z" fill="#282828"/>
</g>
</svg>
