<?xml version="1.0" standalone="no"?>
<!DOCTYPE svg PUBLIC "-//W3C//DTD SVG 20010904//EN"
 "http://www.w3.org/TR/2001/REC-SVG-20010904/DTD/svg10.dtd">
<svg version="1.0" xmlns="http://www.w3.org/2000/svg"
 width="260.000000pt" height="260.000000pt" viewBox="0 0 260.000000 260.000000"
 preserveAspectRatio="xMidYMid meet">
<metadata>
Created by potrace 1.11, written by Peter Selinger 2001-2013
</metadata>
<g transform="translate(0.000000,260.000000) scale(0.100000,-0.100000)"
fill="#000000" stroke="none">
<path d="M625 2187 c-42 -14 -106 -60 -143 -102 -103 -117 -76 -256 68 -351
43 -28 43 -32 16 -129 -9 -31 -17 -40 -33 -40 -27 0 -33 -6 -39 -38 -3 -19 1
-29 15 -36 10 -6 22 -7 26 -3 4 4 4 -18 0 -48 -4 -30 -9 -68 -10 -85 -2 -16
-5 -43 -8 -60 -3 -16 -8 -61 -12 -100 -3 -38 -8 -86 -11 -105 -2 -19 -6 -55
-8 -80 -8 -93 -18 -185 -21 -188 -1 -1 -12 -5 -25 -7 -12 -2 -28 -9 -35 -15
-24 -20 -47 -81 -47 -125 0 -49 14 -81 47 -110 l23 -20 -47 -115 c-57 -137
-127 -340 -137 -392 l-6 -38 1065 0 1066 0 -15 53 c-29 98 -87 262 -135 377
l-47 115 23 20 c52 45 62 123 25 195 -22 42 -29 49 -61 55 -12 3 -23 6 -24 7
-2 2 -6 35 -10 73 -13 143 -24 257 -30 295 -2 14 -6 52 -10 85 -8 71 -10 84
-19 152 -7 46 -6 52 13 58 12 3 21 9 22 13 0 4 2 17 5 30 4 23 -6 31 -43 36
-17 3 -20 11 -48 122 -4 17 4 27 35 48 126 83 166 205 101 310 -28 45 -98 108
-146 131 -92 44 -184 19 -314 -87 -34 -27 -72 -51 -84 -54 -12 -2 -32 -6 -44
-8 -34 -7 -53 18 -43 54 5 17 6 30 2 31 -27 4 -85 -6 -131 -22 l-53 -18 5 47
c2 26 8 55 12 64 6 15 2 16 -32 11 -64 -10 -114 -31 -201 -84 -46 -29 -100
-53 -121 -56 -35 -5 -46 0 -106 46 -37 28 -84 60 -105 71 -46 23 -123 31 -165
17z"/>
</g>
</svg>
