<svg width="81" height="80" viewBox="0 0 81 80" fill="none" xmlns="http://www.w3.org/2000/svg">
<path d="M33.5546 28.0993C32.3207 32.7669 31.044 42.5347 30.5394 47.6813C30.2085 51.2182 31.9818 54.6306 35.0589 56.3114C38.2921 58.0964 43.4022 59.7772 51.0849 59.7772C58.7688 59.7772 63.8615 58.0964 67.0946 56.3114C70.1704 54.6306 71.9438 51.2182 71.6141 47.6813C71.1096 42.5347 68.5546 28.0993 68.5546 28.0993C68.5546 28.0993 71 7.49985 64 7.5C57 7.50015 58.0546 22.5993 58.0546 22.5993C58.0546 22.5993 53.816 22.5993 51.0546 22.5993C48.2932 22.5993 44.0546 22.5993 44.0546 22.5993C44.0546 22.5993 45 7.5 38.5 7.5C30.5394 7.5 33.5546 28.0993 33.5546 28.0993Z" fill="#FFE28E" stroke="#1C3B6F" stroke-width="3"/>
<path d="M14.8532 41.757C13.6194 46.4246 12.6978 54.647 12.1933 59.7936C11.8623 63.3305 13.6356 66.7429 16.7127 68.4238C19.9459 70.2087 25.056 71.8895 32.7387 71.8895C40.4226 71.8895 45.5153 70.2087 48.7484 68.4238C51.8243 66.7429 53.5976 63.3305 53.2679 59.7936C52.7634 54.647 51.8418 46.4246 50.6079 41.757C56.0315 38.7511 55.6669 34.6653 53.3715 32.0838C48.1915 26.2664 44.2802 30.7219 41.378 32.9502C41.378 32.9502 40.1104 34.0111 32.7387 34.0111C25.4731 34.0111 24.0832 32.9502 24.0832 32.9502C21.1797 30.7219 17.2522 26.2664 12.0896 32.0838C9.79429 34.6653 9.4134 38.7511 14.8532 41.757Z" fill="#96ECB6" stroke="#1C3B6F" stroke-width="3"/>
</svg>
