<svg width="81" height="80" viewBox="0 0 81 80" fill="none" xmlns="http://www.w3.org/2000/svg">
<path d="M42.6614 30H41.0602C32.4418 30 24.8676 35.7132 22.5 44L28.5 46L33.5 50H41L46.5 51L51.5 53.5H62.5V49.8386C62.5 38.882 53.618 30 42.6614 30Z" fill="#96ECB6"/>
<rect x="0.5" width="80" height="80" fill="white" fill-opacity="0.01"/>
<path d="M15.5 43.3334H20.5C25.9733 43.3334 31 45.7701 33.8333 50.0001H43.8333C48.6783 50.0001 53.8333 55.1551 53.8333 60.0001H30.5" stroke="#1C3B6F" stroke-width="3"/>
<path d="M43 24C37.7533 24 33.5 19.5228 33.5 14C33.5 8.47715 37.7533 4 43 4C48.2467 4 52.5 8.47715 52.5 14C52.5 19.5228 48.2467 24 43 24Z" fill="#96ECB6" stroke="#1C3B6F" stroke-width="3"/>
<path d="M50.7933 53.3334H67.1667C75.2217 53.3334 77.1667 60.0001 77.1667 60.0001L41.8283 72.9101C39.0833 73.5634 36.2117 73.4601 33.52 72.6101L15.5 65.0001" stroke="#1C3B6F" stroke-width="3"/>
<rect x="5.5" y="40" width="10" height="26.6667" stroke="#1C3B6F" stroke-width="3" stroke-linecap="square"/>
<path d="M62.5 53.5V49.8386C62.5 38.882 53.618 30 42.6614 30H41.0602C32.4418 30 24.8676 35.7132 22.5 44V44" stroke="#1C3B6F" stroke-width="3"/>
</svg>
