<svg width="81" height="80" viewBox="0 0 81 80" fill="none" xmlns="http://www.w3.org/2000/svg">
<path d="M44 40C38.201 40 33.5 33.9558 33.5 26.5C33.5 19.0442 38.201 13 44 13C49.799 13 54.5 19.0442 54.5 26.5C54.5 33.9558 49.799 40 44 40Z" fill="#96ECB6"/>
<path d="M41.3967 40.1909C34.1597 40.1909 28.293 34.104 28.293 26.5954C28.293 19.0869 34.1597 13 41.3967 13C48.6337 13 54.5005 19.0869 54.5005 26.5954C54.5005 34.104 48.6337 40.1909 41.3967 40.1909Z" stroke="#1C3B6F" stroke-width="2.91201"/>
<path d="M43.939 47C35.1761 47 27.7581 53.284 23.1799 62.6999C22.2699 64.5713 23.6985 66.6531 25.7793 66.67L62.4005 66.9668C64.43 66.9832 65.888 65.0164 65.0767 63.1561C60.8427 53.4469 52.8474 47 43.939 47Z" fill="#96ECB6"/>
<path d="M40.4296 47C30.3443 47 21.8007 53.2334 16.5053 62.5862C15.4479 64.4537 16.8741 66.652 19.02 66.667L62.214 66.9699C64.2967 66.9845 65.7517 64.9208 64.8086 63.0638C59.9041 53.4061 50.691 47 40.4296 47Z" stroke="#1C3B6F" stroke-width="2.66911"/>
<path d="M6.38086 40.9228C13.0142 40.9228 18.3916 35.3437 18.3916 28.4614C18.3916 21.5792 13.0142 16 6.38086 16" stroke="#1C3B6F" stroke-width="2.66911"/>
<path d="M74.3125 40.9228C67.6792 40.9228 62.3018 35.3437 62.3018 28.4614C62.3018 21.5792 67.6792 16 74.3125 16" stroke="#1C3B6F" stroke-width="2.66911"/>
<path d="M5.5 47.0183C12.1344 47.0183 18.3284 49.3675 23.1927 53.3145" stroke="#1C3B6F" stroke-width="2.66911"/>
<path d="M75.1934 47.0183C68.559 47.0183 62.3649 49.3675 57.5006 53.3145" stroke="#1C3B6F" stroke-width="2.66911"/>
</svg>
