<svg width="846" height="788" viewBox="0 0 846 788" fill="none" xmlns="http://www.w3.org/2000/svg">
<rect x="64" width="822" height="788" fill="#5337A0"/>
<mask id="mask0" mask-type="alpha" maskUnits="userSpaceOnUse" x="0" y="0" width="846" height="788">
<path d="M0 788H886V0H0V788Z" fill="white"/>
</mask>
<g mask="url(#mask0)">
<path d="M124.205 192.214H56.183C45.0381 192.214 36 183.189 36 172.055V152.158C36 141.022 45.0381 132 56.183 132H124.205C135.35 132 144.386 141.022 144.386 152.158V172.055C144.386 183.189 135.35 192.214 124.205 192.214Z" fill="#6A46CE"/>
<path d="M218.08 197.306H164.143C159.216 197.306 155.225 193.317 155.225 188.397V177.312C155.225 172.391 159.216 168.402 164.143 168.402H218.08C223.007 168.402 227 172.391 227 177.312V188.397C227 193.317 223.007 197.306 218.08 197.306Z" fill="#6A46CE"/>
<path d="M173.466 244.696H122.414C117.144 244.696 112.873 240.427 112.873 235.165V215.33C112.873 210.065 117.144 205.801 122.414 205.801H173.466C178.735 205.801 183.007 210.065 183.007 215.33V235.165C183.007 240.427 178.735 244.696 173.466 244.696Z" fill="#6A46CE"/>
<path d="M516.13 214.941C516.13 214.941 501.084 218.708 491.374 217.094C491.374 217.094 483.929 216.13 484.893 223.888C485.858 231.647 489.849 245.797 516.669 245.82C543.488 245.842 516.13 214.941 516.13 214.941Z" fill="#FF5252"/>
<path d="M555.305 273.2C579.703 273.2 599.482 255.078 599.482 232.724C599.482 210.369 579.703 192.248 555.305 192.248C530.908 192.248 511.129 210.369 511.129 232.724C511.129 255.078 530.908 273.2 555.305 273.2Z" fill="#FFCC34"/>
<path d="M584.659 262.952C584.659 262.952 605.357 279.972 618.901 279.972C632.737 279.972 643.725 258.288 658.234 264.948C676.196 273.177 683.484 366.261 589.772 366.261C496.061 366.261 503.842 302.755 503.842 302.755C503.842 302.755 505.793 262.952 553.355 262.952H584.659Z" fill="#FFCC34"/>
<path d="M600.671 294.705C614.237 293.696 615.74 286.251 621.279 289.951C629.172 295.198 633.029 332.894 588.091 332.894C543.152 332.894 546.875 302.441 546.875 302.441C546.875 302.441 547.525 289.188 560.935 284.771C565.599 283.223 570.667 283.403 575.353 284.86C582.933 287.237 586.521 295.781 600.671 294.705Z" fill="#FF5252"/>
<path d="M539.765 238.801C544.409 238.801 548.174 235.036 548.174 230.392C548.174 225.747 544.409 221.982 539.765 221.982C535.121 221.982 531.356 225.747 531.356 230.392C531.356 235.036 535.121 238.801 539.765 238.801Z" fill="#44271D"/>
<path d="M560.282 341.768C560.282 328.987 570.643 318.626 583.424 318.626H805.584C818.365 318.626 828.726 328.987 828.726 341.768V788.403H560.282V341.768Z" fill="#9773FB"/>
<path d="M462 341.768C462 328.987 472.361 318.626 485.142 318.626H746.643C759.424 318.626 769.785 328.987 769.785 341.768V788.403H462V341.768Z" fill="#6A46CE"/>
<rect x="487.457" y="344.082" width="252.245" height="203.647" rx="16.1992" fill="#3B2773"/>
<rect x="505.97" y="344.082" width="233.731" height="203.647" rx="13.885" fill="#241845"/>
<path d="M529.111 598.641C529.111 592.25 534.292 587.07 540.682 587.07H702.674C709.065 587.07 714.245 592.25 714.245 598.641V656.495C714.245 662.885 709.065 668.066 702.674 668.066H540.682C534.292 668.066 529.111 662.885 529.111 656.495V598.641Z" fill="#D19E06"/>
<path d="M519.854 598.641C519.854 592.25 525.034 587.07 531.425 587.07H693.417C699.807 587.07 704.988 592.25 704.988 598.641V656.495C704.988 662.885 699.807 668.066 693.417 668.066H531.425C525.034 668.066 519.854 662.885 519.854 656.495V598.641Z" fill="#FFC107"/>
<path d="M554.988 604.018C549.471 604.018 545.569 608.135 545.569 613.76C545.569 619.411 549.471 623.555 555.015 623.555C559.832 623.555 562.684 621.053 563.68 616.962H559.805C559.186 618.792 557.652 620.111 555.015 620.111C551.651 620.111 549.39 617.42 549.39 613.76C549.39 610.127 551.651 607.463 554.988 607.463C557.517 607.463 558.89 608.566 559.59 610.423H563.626C562.604 606.655 559.751 604.018 554.988 604.018Z" fill="#745804"/>
<path d="M581.747 623.206V604.368H578.06V611.742H569.96V604.368H566.273V623.206H569.96V615.186H578.06V623.206H581.747Z" fill="#745804"/>
<path d="M596.329 607.813V604.368H585.484V623.206H596.329V619.761H589.171V615.24H595.36V611.822H589.171V607.813H596.329Z" fill="#745804"/>
<path d="M607.785 604.018C602.268 604.018 598.366 608.135 598.366 613.76C598.366 619.411 602.268 623.555 607.812 623.555C612.629 623.555 615.481 621.053 616.477 616.962H612.602C611.983 618.792 610.449 620.111 607.812 620.111C604.448 620.111 602.187 617.42 602.187 613.76C602.187 610.127 604.448 607.463 607.785 607.463C610.315 607.463 611.687 608.566 612.387 610.423H616.423C615.401 606.655 612.548 604.018 607.785 604.018Z" fill="#745804"/>
<path d="M628.031 612.818L634.086 604.368H629.592L622.811 613.948V604.368H619.124V623.206H622.811V619.277L625.556 615.751L630.696 623.206H635.136L628.031 612.818Z" fill="#745804"/>
<path d="M641.048 623.206V604.368H637.361V623.206H641.048Z" fill="#745804"/>
<path d="M660.649 623.206V604.368H656.962V617.124L656.182 615.805L648.458 604.368H644.799V623.206H648.485V610.557L649.212 611.795L656.989 623.206H660.649Z" fill="#745804"/>
<path d="M672.908 604.018C667.391 604.018 663.489 608.135 663.489 613.76C663.489 619.411 667.391 623.555 672.988 623.555C678.155 623.555 681.681 620.326 681.681 614.675V613.033H673.23V616.478H677.752C677.536 618.846 675.733 620.111 672.988 620.111C669.571 620.111 667.31 617.42 667.31 613.76C667.31 610.127 669.571 607.463 672.827 607.463C675.437 607.463 676.81 608.566 677.509 610.423H681.546C680.523 606.655 677.671 604.018 672.908 604.018Z" fill="#745804"/>
<path d="M564.086 650.589L556.585 631.287H552.449L544.977 650.589H549.058L550.657 646.315H558.378L559.977 650.589H564.086ZM554.159 636.94L554.517 635.865L554.876 636.94L557.164 643.007H551.87L554.159 636.94Z" fill="#745804"/>
<path d="M573.734 630.929C568.081 630.929 564.083 635.148 564.083 640.911C564.083 646.701 568.081 650.948 573.761 650.948C578.697 650.948 581.62 648.383 582.64 644.192H578.67C578.035 646.067 576.464 647.418 573.761 647.418C570.315 647.418 567.998 644.661 567.998 640.911C567.998 637.188 570.315 634.458 573.734 634.458C576.326 634.458 577.732 635.589 578.449 637.492H582.585C581.537 633.631 578.614 630.929 573.734 630.929Z" fill="#745804"/>
<path d="M594.011 630.929C588.358 630.929 584.36 635.148 584.36 640.911C584.36 646.701 588.358 650.948 594.038 650.948C598.974 650.948 601.897 648.383 602.917 644.192H598.946C598.312 646.067 596.74 647.418 594.038 647.418C590.591 647.418 588.275 644.661 588.275 640.911C588.275 637.188 590.591 634.458 594.011 634.458C596.603 634.458 598.009 635.589 598.726 637.492H602.862C601.814 633.631 598.891 630.929 594.011 630.929Z" fill="#745804"/>
<path d="M614.646 630.929C608.773 630.929 604.636 635.148 604.636 640.911C604.636 646.701 608.773 650.948 614.646 650.948C620.492 650.948 624.628 646.701 624.628 640.911C624.628 635.148 620.492 630.929 614.646 630.929ZM614.646 634.458C618.313 634.458 620.712 637.188 620.712 640.911C620.712 644.661 618.313 647.418 614.646 647.418C610.951 647.418 608.552 644.661 608.552 640.911C608.552 637.188 610.951 634.458 614.646 634.458Z" fill="#745804"/>
<path d="M642.961 642.841V631.287H639.184V642.841C639.184 645.736 637.915 647.418 635.158 647.418C632.373 647.418 631.077 645.736 631.077 642.841V631.287H627.299V642.841C627.299 647.97 630.139 650.948 635.158 650.948C640.149 650.948 642.961 647.97 642.961 642.841Z" fill="#745804"/>
<path d="M662.854 650.589V631.287H659.076V644.358L658.276 643.007L650.362 631.287H646.612V650.589H650.39V637.63L651.134 638.898L659.103 650.589H662.854Z" fill="#745804"/>
<path d="M681.398 634.817V631.287H665.046V634.817H671.333V650.589H675.111V634.817H681.398Z" fill="#745804"/>
<rect x="582.337" y="693.522" width="62.4826" height="62.4826" rx="14.9958" stroke="#9773FB" stroke-width="7.49792"/>
<rect x="599.832" y="713.516" width="7.49792" height="22.4937" rx="3.74896" fill="#3B2773"/>
<rect x="619.826" y="713.516" width="7.49792" height="22.4937" rx="3.74896" fill="#3B2773"/>
<path d="M552.59 470.29H547.87L537.838 455.572L536.9 453.975V470.29H532.145V445.991H536.866L546.828 460.744L547.835 462.445V445.991H552.59V470.29ZM568.854 445.54C572.51 445.54 575.519 446.732 577.879 449.115C580.24 451.476 581.42 454.472 581.42 458.106C581.42 461.762 580.24 464.782 577.879 467.166C575.519 469.549 572.51 470.741 568.854 470.741C565.174 470.741 562.154 469.549 559.794 467.166C557.433 464.782 556.253 461.762 556.253 458.106C556.253 454.472 557.433 451.476 559.794 449.115C562.154 446.732 565.174 445.54 568.854 445.54ZM574.373 452.274C572.985 450.747 571.145 449.983 568.854 449.983C566.563 449.983 564.711 450.747 563.3 452.274C561.888 453.801 561.182 455.745 561.182 458.106C561.182 460.489 561.888 462.456 563.3 464.007C564.711 465.534 566.563 466.298 568.854 466.298C571.145 466.298 572.985 465.534 574.373 464.007C575.785 462.456 576.491 460.489 576.491 458.106C576.491 455.745 575.785 453.801 574.373 452.274ZM602.844 445.54C605.806 445.54 608.224 446.28 610.099 447.761C611.996 449.242 613.292 451.256 613.987 453.801H608.78C607.831 451.256 605.852 449.983 602.844 449.983C600.715 449.983 598.979 450.747 597.637 452.274C596.295 453.801 595.624 455.745 595.624 458.106C595.624 460.489 596.295 462.456 597.637 464.007C598.979 465.534 600.726 466.298 602.879 466.298C606.072 466.298 608.132 464.944 609.057 462.236H614.056C613.408 464.944 612.135 467.038 610.238 468.519C608.363 470.001 605.91 470.741 602.879 470.741C599.315 470.741 596.387 469.549 594.096 467.166C591.828 464.782 590.695 461.762 590.695 458.106C590.695 454.472 591.828 451.476 594.096 449.115C596.387 446.732 599.303 445.54 602.844 445.54ZM634.445 470.29H629.064L624.309 461.16H622.156V470.29H617.401V445.991H624.864C627.456 445.991 629.527 446.708 631.077 448.143C632.628 449.555 633.403 451.418 633.403 453.732C633.403 455.213 633.033 456.532 632.292 457.689C631.552 458.846 630.522 459.726 629.203 460.327L634.445 470.29ZM622.156 450.434V456.995H624.864C626.021 456.995 626.924 456.717 627.571 456.162C628.243 455.606 628.578 454.796 628.578 453.732C628.578 452.667 628.243 451.857 627.571 451.302C626.924 450.723 626.021 450.434 624.864 450.434H622.156ZM651.424 450.434H642.191V455.606H650.175V460.015H642.191V465.847H651.424V470.29H637.435V445.991H651.424V450.434ZM664.428 445.991C668.247 445.991 671.29 447.113 673.558 449.358C675.849 451.603 676.994 454.53 676.994 458.14C676.994 461.751 675.849 464.678 673.558 466.923C671.29 469.167 668.247 470.29 664.428 470.29H655.334V445.991H664.428ZM660.089 450.434V465.847H664.428C666.835 465.847 668.71 465.175 670.052 463.833C671.394 462.491 672.065 460.593 672.065 458.14C672.065 455.687 671.394 453.79 670.052 452.448C668.733 451.105 666.858 450.434 664.428 450.434H660.089ZM685.48 470.29H680.724V445.991H685.48V470.29ZM708.819 450.434H700.905V470.29H696.149V450.434H688.235V445.991H708.819V450.434ZM577.623 482.54C580.585 482.54 583.004 483.28 584.878 484.761C586.776 486.242 588.072 488.256 588.766 490.801H583.559C582.61 488.256 580.631 486.983 577.623 486.983C575.494 486.983 573.758 487.747 572.416 489.274C571.074 490.801 570.403 492.745 570.403 495.106C570.403 497.489 571.074 499.456 572.416 501.007C573.758 502.534 575.506 503.298 577.658 503.298C580.851 503.298 582.911 501.944 583.837 499.236H588.835C588.187 501.944 586.914 504.038 585.017 505.519C583.142 507.001 580.689 507.741 577.658 507.741C574.094 507.741 571.167 506.549 568.875 504.166C566.608 501.782 565.474 498.762 565.474 495.106C565.474 491.472 566.608 488.476 568.875 486.115C571.167 483.732 574.082 482.54 577.623 482.54ZM612.14 507.29H607.384V496.945H596.935V507.29H592.18V482.991H596.935V492.502H607.384V482.991H612.14V507.29ZM630.949 487.434H621.716V492.606H629.7V497.015H621.716V502.847H630.949V507.29H616.96V482.991H630.949V487.434ZM645.726 482.54C648.688 482.54 651.107 483.28 652.981 484.761C654.879 486.242 656.175 488.256 656.869 490.801H651.662C650.713 488.256 648.735 486.983 645.726 486.983C643.597 486.983 641.861 487.747 640.519 489.274C639.177 490.801 638.506 492.745 638.506 495.106C638.506 497.489 639.177 499.456 640.519 501.007C641.861 502.534 643.609 503.298 645.761 503.298C648.954 503.298 651.014 501.944 651.94 499.236H656.938C656.29 501.944 655.018 504.038 653.12 505.519C651.245 507.001 648.792 507.741 645.761 507.741C642.197 507.741 639.27 506.549 636.979 504.166C634.711 501.782 633.577 498.762 633.577 495.106C633.577 491.472 634.711 488.476 636.979 486.115C639.27 483.732 642.185 482.54 645.726 482.54ZM671.842 493.891L681.006 507.29H675.279L668.649 497.674L665.108 502.222V507.29H660.352V482.991H665.108V495.349L673.856 482.991H679.653L671.842 493.891Z" fill="white"/>
<path d="M539.76 415.412H535.039L525.007 400.694L524.07 399.097V415.412H519.314V391.113H524.035L533.997 405.866L535.004 407.567V391.113H539.76V415.412ZM556.023 390.662C559.679 390.662 562.688 391.854 565.048 394.237C567.409 396.598 568.589 399.595 568.589 403.228C568.589 406.884 567.409 409.904 565.048 412.288C562.688 414.672 559.679 415.863 556.023 415.863C552.343 415.863 549.324 414.672 546.963 412.288C544.603 409.904 543.422 406.884 543.422 403.228C543.422 399.595 544.603 396.598 546.963 394.237C549.324 391.854 552.343 390.662 556.023 390.662ZM561.542 397.396C560.154 395.869 558.314 395.105 556.023 395.105C553.732 395.105 551.881 395.869 550.469 397.396C549.057 398.924 548.352 400.868 548.352 403.228C548.352 405.612 549.057 407.579 550.469 409.129C551.881 410.656 553.732 411.42 556.023 411.42C558.314 411.42 560.154 410.656 561.542 409.129C562.954 407.579 563.66 405.612 563.66 403.228C563.66 400.868 562.954 398.924 561.542 397.396ZM583.8 415.412H579.044V391.113H583.8V415.412ZM609.083 415.412H604.362L594.33 400.694L593.393 399.097V415.412H588.637V391.113H593.358L603.321 405.866L604.327 407.567V391.113H609.083V415.412ZM632.428 395.557H624.513V415.412H619.758V395.557H611.843V391.113H632.428V395.557ZM649.204 395.557H639.97V400.729H647.954V405.137H639.97V410.969H649.204V415.412H635.215V391.113H649.204V395.557ZM670.157 415.412H664.777L660.021 406.283H657.869V415.412H653.113V391.113H660.576C663.168 391.113 665.24 391.831 666.79 393.265C668.341 394.677 669.116 396.54 669.116 398.854C669.116 400.335 668.746 401.654 668.005 402.811C667.264 403.969 666.235 404.848 664.916 405.45L670.157 415.412ZM657.869 395.557V402.117H660.576C661.734 402.117 662.636 401.839 663.284 401.284C663.955 400.729 664.291 399.919 664.291 398.854C664.291 397.79 663.955 396.98 663.284 396.424C662.636 395.846 661.734 395.557 660.576 395.557H657.869ZM687.137 395.557H677.903V400.729H685.887V405.137H677.903V410.969H687.137V415.412H673.148V391.113H687.137V395.557ZM698.093 390.662C700.407 390.662 702.235 391.287 703.577 392.537C704.92 393.763 705.637 395.557 705.73 397.917H700.939C700.916 396.945 700.627 396.193 700.072 395.661C699.539 395.128 698.833 394.862 697.954 394.862C697.098 394.862 696.427 395.094 695.941 395.557C695.455 395.996 695.212 396.633 695.212 397.466C695.212 398.345 695.513 399.005 696.114 399.444C696.716 399.884 697.838 400.393 699.481 400.972C702.027 401.851 703.82 402.869 704.862 404.026C705.926 405.183 706.459 406.676 706.459 408.504C706.459 410.795 705.707 412.6 704.202 413.919C702.698 415.215 700.766 415.863 698.405 415.863C695.698 415.863 693.603 415.146 692.122 413.711C690.664 412.276 689.912 410.367 689.866 407.984H694.656C694.772 410.46 696.045 411.698 698.475 411.698C699.47 411.698 700.245 411.443 700.8 410.934C701.379 410.425 701.668 409.754 701.668 408.921C701.668 408.111 701.333 407.44 700.662 406.908C700.014 406.375 698.914 405.855 697.364 405.345C695.027 404.559 693.279 403.61 692.122 402.499C690.988 401.365 690.421 399.826 690.421 397.882C690.421 395.753 691.104 394.018 692.469 392.675C693.858 391.333 695.732 390.662 698.093 390.662ZM728.43 395.557H720.515V415.412H715.76V395.557H707.845V391.113H728.43V395.557Z" fill="white"/>
<path d="M739.701 303.787L750.567 333.333L780.153 344.239L750.567 355.106L739.701 384.652L728.834 355.106L699.248 344.239L728.834 333.333L739.701 303.787Z" fill="white"/>
<path d="M394.608 555.922C404.436 630.785 344.914 634.486 344.914 634.486L387.978 749.602C387.978 749.602 497.876 695.071 466.115 537.706C466.115 537.706 420.492 548.845 394.608 555.922Z" fill="#282828"/>
<path d="M453.655 531.654L453.629 531.959C450.327 532.252 447.264 532.84 444.44 533.64C446.164 527.994 447.756 522.527 449.223 517.243C459.382 480.544 463.513 452.827 465.176 437.475L472.97 437.748L483.901 438.13C483.901 438.13 472.623 493.214 453.655 531.654Z" fill="#1AD760"/>
<path d="M444.439 533.64C440.512 534.754 437.037 536.284 434.016 538.048L434.015 538.058C432.899 538.702 431.841 539.387 430.842 540.092C430.571 540.286 430.299 540.481 430.033 540.678L430.07 539.852C443.116 497.737 445.235 450.318 445.349 425.965L452.662 425.251L466.269 423.939C466.269 423.939 466.127 428.668 465.177 437.476C463.278 455.036 458.142 488.785 444.439 533.64Z" fill="#1AD760"/>
<path d="M430.035 540.678C423.366 545.574 418.251 551.532 415.44 557.158C415.37 557.297 415.302 557.439 415.243 557.572L391.419 542.995L371.007 533.271C390.516 476.922 386.94 414.109 386.94 414.109L445.097 409.615C445.097 409.615 445.404 415.761 445.351 425.965C445.241 448.387 443.438 490.363 432.971 529.75C432.074 533.137 431.103 536.516 430.07 539.852L430.035 540.678Z" fill="#1AD760"/>
<path d="M434.016 538.049L434.015 538.058C432.899 538.702 431.841 539.387 430.842 540.092C430.571 540.287 430.299 540.481 430.035 540.679L430.07 539.852C443.116 497.737 445.235 450.318 445.351 425.966L452.662 425.251C452.662 425.251 452.311 478.643 434.016 538.049Z" fill="#16B04F"/>
<path d="M448.13 526.646L445.991 528.449C456.149 491.75 463.512 452.825 465.177 437.476L472.971 437.749C472.971 437.749 462.699 486.815 448.13 526.646Z" fill="#16B04F"/>
<path fill-rule="evenodd" clip-rule="evenodd" d="M420.786 487.714C452.589 483.777 463.349 504.87 466.724 521.119C470.198 537.838 467.181 561.339 437.891 570.056C422.1 574.756 404.598 578.166 395.564 566.452C391.774 561.535 393.25 555.305 393.25 555.305C393.25 555.305 384.118 549.632 381.857 538.747C379.465 527.234 386.041 520.602 386.041 520.602C386.041 520.602 380.966 514.661 382.679 508.741C387.009 493.759 403.884 489.804 420.786 487.714Z" fill="#9D7354"/>
<path d="M390.009 810.825C390.009 810.825 338.117 810.825 257.504 810.825C176.915 810.825 125 810.825 125 810.825C125 709.144 143.612 632.168 143.612 632.168C126.205 624.587 136.196 594.236 148.478 596.692C150.249 597.023 180.246 632.57 257.504 632.688C334.787 632.57 364.783 597.023 366.531 596.692C378.837 594.236 388.828 624.587 371.42 632.168C371.42 632.168 390.009 709.144 390.009 810.825Z" fill="#282828"/>
<path d="M365.067 431.262C338.117 401.525 317.687 424.271 302.594 435.75C297.776 439.269 293.099 439.316 286.864 438.962C285.517 435.868 285.659 431.05 287.407 427.932C276.329 425.995 263.244 433.553 263.244 433.553C261.898 429.018 263.433 422.641 265.299 416.429C237.924 418.484 231.429 435.75 216.478 435.75H212.463C197.346 424.271 176.939 401.525 149.99 431.262C138.015 444.489 136.102 465.416 164.374 480.815C154.525 517.425 148.502 596.715 148.502 596.715C148.502 596.715 173.042 635.144 257.528 635.144C342.015 635.144 366.555 596.692 366.555 596.692C366.555 596.692 360.532 517.402 350.683 480.792C378.955 465.416 377.042 444.465 365.067 431.262Z" fill="#9D7354"/>
<path fill-rule="evenodd" clip-rule="evenodd" d="M186.269 448.977C188.111 447.158 187.355 444.064 184.899 443.261C181.309 442.104 176.396 441.537 172.404 444.867C165.555 450.607 167.586 456.228 169.9 459.511C171.105 461.212 173.585 461.401 175.073 459.936L186.269 448.977Z" fill="#493426"/>
<path fill-rule="evenodd" clip-rule="evenodd" d="M328.764 448.977C326.922 447.158 327.678 444.064 330.134 443.261C333.724 442.104 338.637 441.537 342.629 444.867C349.478 450.607 347.447 456.228 345.132 459.511C343.928 461.212 341.448 461.401 339.96 459.936L328.764 448.977Z" fill="#493426"/>
<path d="M289.745 592.322C289.745 617.855 275.313 621.728 257.505 621.728C239.696 621.728 225.264 617.619 225.264 592.322C225.264 564.263 239.696 543.549 257.505 543.549C275.313 543.549 289.745 564.263 289.745 592.322Z" fill="#EBBF8D"/>
<path d="M236.554 471.676C235.349 474.156 232.35 475.195 229.87 473.991L228.807 473.471C221.39 469.881 215.131 469.739 207.195 472.975L206.109 473.424C203.558 474.463 200.629 473.235 199.59 470.684L198.692 468.511C197.653 465.96 198.881 463.031 201.432 461.992L202.519 461.543C213.596 457.009 223.658 457.268 234.168 462.37L235.231 462.89C237.711 464.094 238.751 467.094 237.546 469.574L236.554 471.676Z" fill="#493426"/>
<path d="M278.408 471.462L277.416 469.337C276.259 466.833 277.345 463.857 279.849 462.7L280.912 462.204C291.517 457.314 301.579 457.22 312.562 461.92L313.648 462.392C316.199 463.479 317.356 466.431 316.27 468.959L315.349 471.108C314.262 473.659 311.31 474.816 308.783 473.73L307.696 473.257C299.831 469.88 293.572 469.927 286.084 473.399L285.022 473.895C282.542 475.076 279.565 473.966 278.408 471.462Z" fill="#493426"/>
<path d="M277.888 566.412C277.888 569.176 273.069 573.498 268.109 577.183C261.827 581.883 253.205 581.883 246.946 577.183C241.986 573.474 237.168 569.152 237.168 566.412C237.168 560.744 246.285 556.161 257.528 556.161C268.771 556.138 277.888 560.744 277.888 566.412Z" fill="#493426"/>
<path d="M268.558 564.618C268.558 565.185 267.424 565.799 265.865 566.413C260.504 568.492 254.528 568.492 249.166 566.413C247.631 565.823 246.474 565.185 246.474 564.618C246.474 562.894 251.41 561.477 257.504 561.477C263.621 561.477 268.558 562.871 268.558 564.618Z" fill="#EBBF8D"/>
<path fill-rule="evenodd" clip-rule="evenodd" d="M257.529 607.745C240.735 607.745 237.83 593.503 237.83 593.503C237.83 591.755 239.247 590.338 240.995 590.338H274.038C275.786 590.338 277.203 591.755 277.203 593.503C277.203 593.527 274.109 607.745 257.529 607.745Z" fill="#493426"/>
<path d="M230.728 515.327C230.728 521.019 227.492 525.625 223.477 525.625C219.486 525.625 216.226 521.019 216.226 515.327C216.226 509.635 219.462 505.029 223.477 505.029C227.469 505.005 230.728 509.635 230.728 515.327Z" fill="#493426"/>
<path d="M308.506 515.327C308.506 521.019 305.27 525.625 301.255 525.625C297.263 525.625 294.004 521.019 294.004 515.327C294.004 509.635 297.24 505.029 301.255 505.029C305.27 505.005 308.506 509.635 308.506 515.327Z" fill="#493426"/>
<path d="M359.706 499.38H338.472C337.692 498.365 336.771 497.467 335.59 496.64C330.016 492.649 320.663 491.964 303.066 491.964C285.47 491.964 276.093 492.649 270.543 496.64C267.59 498.743 266.008 501.435 265.134 504.671H249.899C249.025 501.435 247.443 498.743 244.491 496.64C238.94 492.649 229.563 491.964 211.967 491.964C194.37 491.964 184.993 492.649 179.443 496.64C178.286 497.444 177.341 498.365 176.561 499.38H155.328C153.344 499.38 151.714 500.986 151.714 502.994V506.395C151.714 508.379 153.344 510.009 155.328 510.009H172.971V518.583C172.971 529.33 174.129 537.785 179.821 544.186C185.82 550.941 196.024 554.106 211.919 554.106C234.5 554.106 250.891 539.179 250.891 518.583V515.323H264.071V518.583C264.071 539.179 280.463 554.106 303.043 554.106C318.962 554.106 329.166 550.965 335.165 544.186C340.834 537.785 341.991 529.33 341.991 518.583V510.009H359.658C361.642 510.009 363.272 508.379 363.272 506.395V502.994C363.319 500.986 361.69 499.38 359.706 499.38ZM211.943 543.501C188.891 543.501 184.568 536.935 183.789 525.149C183.647 523.118 183.624 520.945 183.624 518.606C183.624 510.6 183.694 506.679 185.608 505.332C189.08 502.852 201.031 502.64 211.967 502.64C222.902 502.64 234.854 502.852 238.326 505.332C239.011 505.828 239.436 506.655 239.743 507.86C240.263 510.033 240.31 513.457 240.31 518.606C240.286 533.25 228.642 543.501 211.943 543.501ZM303.066 543.501C286.391 543.501 274.723 533.274 274.723 518.606C274.723 510.6 274.818 506.679 276.707 505.332C280.179 502.852 292.131 502.64 303.066 502.64C314.002 502.64 325.954 502.852 329.426 505.332C331.315 506.679 331.41 510.6 331.41 518.606C331.41 534.479 330.087 543.501 303.066 543.501Z" fill="#282828"/>
<path d="M323.373 648.234V721.467C323.678 764.32 323.373 810.889 211.993 810.889" stroke="#FFC107" stroke-width="16.0166"/>
<path d="M300.276 627.329C300.276 622.761 303.979 619.058 308.547 619.058H341.395C345.963 619.058 349.667 622.761 349.667 627.329V641.924C349.667 655.563 338.61 666.619 324.971 666.619C311.332 666.619 300.276 655.563 300.276 641.924V627.329Z" fill="#B0B0B0"/>
<rect x="309.422" y="597.106" width="9.14646" height="21.9515" fill="#E7E7E7"/>
<rect x="331.374" y="597.106" width="9.14646" height="21.9515" fill="#E7E7E7"/>
<path d="M349.597 603.594L353.754 614.895L365.07 619.066L353.754 623.223L349.597 634.524L345.441 623.223L334.125 619.066L345.441 614.895L349.597 603.594Z" fill="white"/>
<path d="M320.959 738.782C286.552 736.76 279.267 712.342 278.846 694.508C278.426 676.133 286.192 651.855 318.878 648.332C336.491 646.43 355.686 646.23 362.952 660.381C366.014 666.326 363.232 672.631 363.232 672.631C363.232 672.631 371.799 680.417 372.059 692.366C372.359 705.016 364.093 710.76 364.093 710.76C364.093 710.76 368.296 718.026 365.334 723.971C357.868 738.962 339.233 739.863 320.959 738.782Z" fill="#9D7354"/>
</g>
</svg>
