<svg width="857" height="900" viewBox="0 0 857 900" fill="none" xmlns="http://www.w3.org/2000/svg">
<rect x="39" width="818" height="900" fill="#DFE8F8"/>
<mask id="mask0" mask-type="alpha" maskUnits="userSpaceOnUse" x="0" y="0" width="861" height="900">
<rect width="861" height="900" fill="#C4C4C4"/>
</mask>
<g mask="url(#mask0)">
<path d="M39 850H859V410H39V850Z" fill="#82AEF8"/>
<path d="M39 709H857V665H39V709Z" fill="#5F97F6"/>
<path d="M39 684H857V646H39V684Z" fill="#FF5252"/>
<path d="M129.409 684.394H220.32V646H129.409V684.394Z" fill="white"/>
<path d="M311.224 684.394H402.135V646H311.224V684.394Z" fill="white"/>
<path d="M493.042 684.394H583.952V646H493.042V684.394Z" fill="white"/>
<path d="M674.861 684.394H765.77V646H674.861V684.394Z" fill="white"/>
<path d="M73 505H858V478H73V505Z" fill="#5F97F6"/>
<path d="M86 487H852V464H86V487Z" fill="#FF9090"/>
<path d="M200 487H256V464H200V487Z" fill="#C9DCFC"/>
<path d="M312.07 468.38H368.184V450H312.07V468.38Z" fill="#C9DCFC"/>
<path d="M424 487H480V464H424V487Z" fill="#C9DCFC"/>
<path d="M537 487H593V464H537V487Z" fill="#C9DCFC"/>
<path d="M649 487H705V464H649V487Z" fill="#C9DCFC"/>
<path d="M313.01 139.312C311.815 139.312 310.632 139.374 309.466 139.481C303.536 110.481 277.945 88.6628 247.266 88.6628C240.026 88.6628 233.085 89.8942 226.604 92.1303C213.824 59.284 181.983 36 144.7 36C96.5459 36 57.4561 74.8218 56.8113 122.951C53.6243 122.263 50.3182 121.896 46.9259 121.896C21.007 121.896 0 142.961 0 168.946C0 194.932 21.007 216 46.9259 216H313.01C334.128 216 351.25 198.831 351.25 177.656C351.25 156.476 334.128 139.312 313.01 139.312Z" fill="#EDF3FE"/>
<path d="M582.493 240.934C581.914 240.934 581.342 240.964 580.777 241.016C577.907 226.999 565.522 216.454 550.673 216.454C547.169 216.454 543.81 217.049 540.673 218.13C534.488 202.254 519.077 191 501.033 191C477.727 191 458.808 209.764 458.496 233.026C456.953 232.694 455.353 232.517 453.711 232.517C441.167 232.517 431 242.698 431 255.257C431 267.817 441.167 278 453.711 278H582.493C592.713 278 601 269.702 601 259.467C601 249.23 592.713 240.934 582.493 240.934Z" fill="#EDF3FE"/>
<path d="M885.666 117.241C884.656 117.241 883.656 117.293 882.669 117.384C877.655 92.8949 856.017 74.4708 830.077 74.4708C823.954 74.4708 818.086 75.5106 812.606 77.3989C801.799 49.662 774.876 30 743.351 30C702.635 30 669.582 62.7828 669.037 103.425C666.342 102.844 663.547 102.535 660.678 102.535C638.762 102.535 621 120.322 621 142.266C621 164.209 638.762 182 660.678 182H885.666C903.523 182 918 167.502 918 149.621C918 131.736 903.523 117.241 885.666 117.241Z" fill="#EDF3FE"/>
<path fill-rule="evenodd" clip-rule="evenodd" d="M404.48 495.831L397.726 426.153C397.726 426.153 403.581 423.854 403.581 423.844C403.581 423.844 406.619 411.514 403.953 405.993L448.982 387.767C462.202 486.273 404.48 495.831 404.48 495.831Z" fill="#9D7354"/>
<path fill-rule="evenodd" clip-rule="evenodd" d="M411.433 469.812C410.207 474.652 404.734 478.813 396.15 482.14C396.15 521.411 330.211 521.411 330.211 521.411C318.398 521.411 308.601 518.893 300.487 514.676L300.454 514.666C258.656 492.935 261.403 426.142 261.292 426.064C264.064 402.79 265.431 375.353 271.552 352.594C253.98 343.035 255.173 330.019 262.619 321.797C279.369 303.328 292.056 317.462 301.449 324.599H303.947C313.242 324.599 317.28 313.859 334.295 312.59C333.134 316.455 332.181 320.417 333.013 323.232C333.013 323.232 341.137 318.533 348.025 319.736C346.939 321.676 346.864 324.664 347.695 326.591C351.56 326.81 354.473 326.79 357.47 324.599C366.866 317.462 379.553 303.328 396.304 321.797C403.749 330.019 404.93 343.035 387.358 352.594C393.173 374.192 395.18 403.381 397.718 426.119L411.433 469.812Z" fill="#9D7354"/>
<path fill-rule="evenodd" clip-rule="evenodd" d="M285.31 332.814C286.458 331.688 285.988 329.759 284.461 329.264C282.227 328.542 279.171 328.193 276.698 330.261C272.434 333.834 273.703 337.33 275.148 339.365C275.902 340.426 277.435 340.544 278.362 339.632L285.31 332.814Z" fill="#493426"/>
<path fill-rule="evenodd" clip-rule="evenodd" d="M373.866 332.814C372.718 331.688 373.188 329.759 374.715 329.264C376.949 328.542 380.005 328.193 382.478 330.261C386.742 333.834 385.473 337.33 384.028 339.365C383.274 340.426 381.741 340.544 380.814 339.632L373.866 332.814Z" fill="#493426"/>
<path fill-rule="evenodd" clip-rule="evenodd" d="M360.041 421.916C360.041 437.785 351.07 440.195 340.003 440.195C328.937 440.195 319.966 437.634 319.966 421.916C319.966 404.475 328.937 391.602 340.003 391.602C351.07 391.602 360.041 404.475 360.041 421.916Z" fill="#EBBF8D"/>
<path fill-rule="evenodd" clip-rule="evenodd" d="M352.663 405.8C352.663 407.514 349.663 410.198 346.584 412.499C342.679 415.417 337.325 415.417 333.425 412.499C330.344 410.198 327.344 407.514 327.344 405.8C327.344 402.28 333.013 399.425 340.003 399.425C346.994 399.425 352.663 402.28 352.663 405.8Z" fill="#493426"/>
<path fill-rule="evenodd" clip-rule="evenodd" d="M346.861 404.686C346.861 405.033 346.152 405.425 345.189 405.799C341.86 407.093 338.146 407.093 334.817 405.799C333.854 405.425 333.146 405.033 333.146 404.686C333.146 403.611 336.216 402.736 340.003 402.736C343.79 402.736 346.861 403.611 346.861 404.686Z" fill="#EBBF8D"/>
<path d="M409.62 479.129C401.32 458.554 401.247 430.586 403.582 423.844L397.719 426.118C397.719 426.118 374.652 476.332 329.458 476.342C284.265 476.332 261.2 426.118 261.2 426.118L251.596 431.714C253.93 438.456 255.079 445.474 255.079 452.483C255.079 461.592 253.129 470.688 249.297 479.129C241.524 496.208 237.333 514.984 241.831 525.34C245.542 533.881 253.249 537.142 273.812 537.941C273.942 537.941 274.073 537.954 274.204 537.954C274.204 537.954 274.523 537.984 275.101 538.019C275.211 538.029 275.309 538.039 275.42 538.039C278.048 538.238 284.627 538.642 292.432 538.698H329.458H395.214C395.214 538.698 411.434 538.698 417.086 525.34C421.488 514.942 416.641 496.53 409.62 479.129Z" fill="#FFCC34"/>
<path fill-rule="evenodd" clip-rule="evenodd" d="M448.851 392.486C448.481 411.001 435.528 415.416 425.956 416.006C416.106 416.617 402.914 412.953 400.341 395.479C398.956 386.061 398.449 375.769 405.894 371.567C409.017 369.806 412.46 371.163 412.46 371.163C412.46 371.163 416.458 366.408 422.871 366.011C429.653 365.592 432.904 369.901 432.904 369.901C432.904 369.901 436.719 367.489 439.965 368.956C448.177 372.668 449.049 382.646 448.851 392.486Z" fill="#9D7354"/>
<path fill-rule="evenodd" clip-rule="evenodd" d="M429.158 376.499C429.374 380.002 427.035 382.997 423.929 383.188C420.828 383.382 418.137 380.695 417.918 377.192C417.702 373.69 420.044 370.694 423.148 370.503C426.251 370.312 428.942 372.996 429.158 376.499Z" fill="#493426"/>
<path fill-rule="evenodd" clip-rule="evenodd" d="M414.018 379.049C415.008 381.808 413.83 384.755 411.387 385.632C408.942 386.509 406.158 384.984 405.168 382.225C404.178 379.468 405.356 376.518 407.799 375.644C410.244 374.764 413.028 376.29 414.018 379.049Z" fill="#493426"/>
<path fill-rule="evenodd" clip-rule="evenodd" d="M433.257 377.861C432.614 380.721 434.147 383.502 436.68 384.07C439.213 384.641 441.788 382.784 442.432 379.927C443.075 377.067 441.542 374.285 439.009 373.717C436.476 373.147 433.901 375.001 433.257 377.861Z" fill="#493426"/>
<path fill-rule="evenodd" clip-rule="evenodd" d="M440.818 393.821C441.09 398.236 434.071 402.26 425.141 402.812C416.213 403.363 408.752 400.232 408.478 395.817C408.207 391.404 415.225 387.379 424.156 386.828C433.086 386.278 440.547 389.409 440.818 393.821Z" fill="#493426"/>
<path fill-rule="evenodd" clip-rule="evenodd" d="M326.317 350.983C325.551 352.571 323.641 353.235 322.053 352.468L321.377 352.142C316.641 349.85 312.645 349.757 307.589 351.82L306.896 352.104C305.265 352.77 303.4 351.986 302.735 350.355L302.167 348.965C301.501 347.335 302.285 345.47 303.916 344.804L304.612 344.52C311.683 341.633 318.103 341.799 324.81 345.043L325.486 345.369C327.074 346.136 327.737 348.046 326.971 349.634L326.317 350.983Z" fill="#493426"/>
<path fill-rule="evenodd" clip-rule="evenodd" d="M353.024 348.549L352.394 347.187C351.655 345.586 352.351 343.689 353.952 342.948L354.633 342.634C361.397 339.508 367.817 339.452 374.838 342.46L375.529 342.754C377.15 343.45 377.899 345.327 377.205 346.948L376.615 348.325C375.921 349.946 374.044 350.697 372.423 350.004L371.732 349.707C366.714 347.559 362.719 347.584 357.945 349.793L357.264 350.107C355.66 350.848 353.763 350.149 353.024 348.549Z" fill="#493426"/>
<path d="M359.934 366.636H371.438V353.677H359.934V366.636Z" fill="#282828"/>
<path d="M384.397 366.635C384.397 359.479 378.595 353.677 371.439 353.677C364.282 353.677 358.48 359.479 358.48 366.635C358.48 373.792 364.282 379.594 371.439 379.594C378.595 379.594 384.397 373.792 384.397 366.635Z" fill="#282828"/>
<path d="M372.893 366.635C372.893 359.479 367.091 353.677 359.934 353.677C352.778 353.677 346.976 359.479 346.976 366.635C346.976 373.792 352.778 379.594 359.934 379.594C367.091 379.594 372.893 373.792 372.893 366.635Z" fill="#282828"/>
<path fill-rule="evenodd" clip-rule="evenodd" d="M363.198 382.808H397.526V362.432H363.198V382.808Z" fill="#282828"/>
<path d="M315.796 379.595C315.796 372.365 309.936 366.505 302.707 366.505C295.477 366.505 289.617 372.365 289.617 379.595C289.617 386.824 295.477 392.684 302.707 392.684C309.936 392.684 315.796 386.824 315.796 379.595Z" fill="#282828"/>
<path d="M388.437 403.73H406.617V355.459H388.437V403.73Z" fill="#282828"/>
<path d="M413.294 379.595C413.294 366.264 402.489 355.459 389.159 355.459C375.828 355.459 365.023 366.264 365.023 379.595C365.023 392.925 375.828 403.73 389.159 403.73C402.489 403.73 413.294 392.925 413.294 379.595Z" fill="#282828"/>
<path d="M328.928 403.73H347.108V355.459H328.928V403.73Z" fill="#282828"/>
<path d="M353.064 379.595C353.064 366.264 342.259 355.459 328.929 355.459C315.598 355.459 304.793 366.264 304.793 379.595C304.793 392.925 315.598 403.73 328.929 403.73C342.259 403.73 353.064 392.925 353.064 379.595Z" fill="#282828"/>
<path d="M431.342 379.595C431.342 366.264 420.537 355.459 407.206 355.459C393.876 355.459 383.071 366.264 383.071 379.595C383.071 392.925 393.876 403.73 407.206 403.73C420.537 403.73 431.342 392.925 431.342 379.595Z" fill="#282828"/>
<path d="M425.254 379.595C425.254 369.626 417.175 361.547 407.207 361.547C397.241 361.547 389.16 369.626 389.16 379.595C389.16 389.563 397.241 397.642 407.207 397.642C417.175 397.642 425.254 389.563 425.254 379.595Z" fill="#A6C5FA"/>
<path d="M302.707 392.684H319.967V366.505H302.707V392.684Z" fill="#282828"/>
<path d="M395.298 382.008C393.966 382.008 392.886 380.928 392.886 379.596C392.886 371.623 399.371 365.14 407.34 365.14C408.674 365.14 409.754 366.218 409.754 367.552C409.754 368.884 408.674 369.967 407.34 369.967C402.032 369.967 397.71 374.284 397.71 379.596C397.71 380.928 396.632 382.008 395.298 382.008Z" fill="white"/>
<path d="M377.353 366.635C377.353 363.369 374.705 360.72 371.438 360.72C368.171 360.72 365.523 363.369 365.523 366.635C365.523 369.902 368.171 372.551 371.438 372.551C374.705 372.551 377.353 369.902 377.353 366.635Z" fill="#808080"/>
<path d="M371.111 379.595C371.111 366.264 360.306 355.459 346.976 355.459C333.645 355.459 322.84 366.264 322.84 379.595C322.84 392.925 333.645 403.73 346.976 403.73C360.306 403.73 371.111 392.925 371.111 379.595Z" fill="#282828"/>
<path d="M365.024 379.595C365.024 369.626 356.942 361.547 346.977 361.547C337.008 361.547 328.929 369.626 328.929 379.595C328.929 389.563 337.008 397.642 346.977 397.642C356.942 397.642 365.024 389.563 365.024 379.595Z" fill="#A6C5FA"/>
<path d="M334.933 382.008C333.601 382.008 332.521 380.928 332.521 379.596C332.521 371.623 339.004 365.14 346.975 365.14C348.309 365.14 349.389 366.218 349.389 367.552C349.389 368.884 348.309 369.967 346.975 369.967C341.668 369.967 337.345 374.284 337.345 379.596C337.345 380.928 336.265 382.008 334.933 382.008Z" fill="white"/>
<path d="M332.519 304C302.357 304 304.368 322.555 304.368 332.897H332.519H360.67C360.67 322.555 362.68 304 332.519 304Z" fill="#FF5252"/>
<path d="M360.67 332.899C360.67 332.899 350.574 326.692 332.519 326.692C314.469 326.692 304.368 332.899 304.368 332.899C304.368 332.899 303.539 343.45 310.15 345.209C317.894 347.257 320.043 340.002 332.532 340.002C345.297 340.002 347.146 347.257 354.891 345.209C361.502 343.45 360.67 332.899 360.67 332.899Z" fill="#D14444"/>
<path fill-rule="evenodd" clip-rule="evenodd" d="M332.52 314.656C334.073 314.653 335.332 313.234 335.332 311.48C335.332 309.728 334.073 308.306 332.52 308.306C330.967 308.306 329.708 309.728 329.708 311.48C329.708 313.234 330.967 314.656 332.52 314.656ZM340.328 310.395C339.082 310.033 337.743 310.88 337.333 312.284C336.924 313.692 337.602 315.124 338.848 315.486C340.095 315.848 341.434 315.001 341.844 313.594C342.253 312.189 341.572 310.757 340.328 310.395ZM340.613 320.473C340.613 322.682 336.992 324.474 332.522 324.474C328.051 324.474 324.43 322.685 324.43 320.476C324.43 318.267 328.051 316.475 332.522 316.475C336.989 316.475 340.613 318.265 340.613 320.473ZM326.191 315.486C327.438 315.124 328.116 313.692 327.707 312.287C327.297 310.88 325.958 310.035 324.711 310.397C323.467 310.759 322.786 312.191 323.198 313.599C323.606 315.003 324.947 315.85 326.191 315.486Z" fill="white"/>
<path d="M376.793 438.206C376.793 436.61 378.087 435.316 379.683 435.316C381.279 435.316 382.573 436.61 382.573 438.206C382.573 442.228 386.749 445.226 390.764 444.383C395.404 443.41 397.698 437.672 394.926 426.873C394.529 425.327 395.461 423.752 397.007 423.355C398.552 422.958 400.127 423.89 400.524 425.435C404.025 439.074 400.344 448.279 391.951 450.04C384.499 451.603 376.793 446.074 376.793 438.206Z" fill="#704130"/>
<path fill-rule="evenodd" clip-rule="evenodd" d="M361.362 426.919C361.362 432.777 365.945 437.567 371.722 437.899C371.704 438.121 371.694 438.346 371.694 438.572C371.694 442.985 375.272 446.562 379.684 446.562C384.097 446.562 387.673 442.986 387.673 438.572C387.673 435.164 385.541 432.255 382.536 431.107C383.069 429.816 383.362 428.402 383.362 426.919C383.362 420.843 378.437 415.918 372.363 415.918L372.288 415.918H353.217L351.199 422.886H362.125C361.633 424.135 361.362 425.495 361.362 426.919ZM379.684 437.566C380.241 437.566 380.69 438.016 380.69 438.573C380.69 439.129 380.241 439.579 379.684 439.579C379.128 439.579 378.678 439.128 378.678 438.573C378.678 438.017 379.128 437.566 379.684 437.566Z" fill="#FF5252"/>
<path d="M347.175 426.381C353.605 423.461 353.218 415.35 353.218 415.35" stroke="#493426" stroke-width="1.49616" stroke-linecap="round" stroke-linejoin="round"/>
<path d="M378.046 426.919C378.046 423.778 375.5 421.235 372.362 421.235C369.223 421.235 366.677 423.778 366.677 426.919C366.677 430.057 369.223 432.603 372.362 432.603C375.5 432.603 378.046 430.057 378.046 426.919Z" fill="#D14444"/>
<path d="M265.605 425.723C265.548 424.128 266.795 422.789 268.39 422.732C269.985 422.674 271.324 423.921 271.381 425.516C271.395 425.896 271.444 426.659 271.553 427.749C271.735 429.593 272.02 431.655 272.429 433.879C273.596 440.229 275.513 446.576 278.34 452.471C286.312 469.093 299.764 478.932 320.393 478.932C341.306 478.932 356.277 471.18 366.477 458.226C370.054 453.683 372.779 448.807 374.758 443.934C375.448 442.234 375.995 440.661 376.412 439.257C376.656 438.435 376.8 437.868 376.858 437.597C377.194 436.037 378.732 435.045 380.292 435.381C381.852 435.717 382.844 437.255 382.508 438.815C382.181 440.333 381.425 442.877 380.112 446.108C377.94 451.458 374.954 456.804 371.018 461.801C359.754 476.107 343.135 484.711 320.393 484.711C297.368 484.711 282.003 473.474 273.129 454.97C270.06 448.571 267.998 441.745 266.745 434.923C266.306 432.536 265.999 430.317 265.801 428.32C265.681 427.104 265.623 426.221 265.605 425.723Z" fill="#704130"/>
<path fill-rule="evenodd" clip-rule="evenodd" d="M315.342 391.436C315.342 449.118 294.534 480.878 272.308 492.256C252.208 502.563 230.949 496.223 222.898 477.337C222.888 477.324 222.888 477.314 222.888 477.314L222.843 477.201L222.179 475.515C221.933 474.862 221.707 474.188 221.493 473.502C212.5 444.183 246.788 428.872 253.454 426.151C260.121 423.419 266.091 387.637 266.091 387.637L315.342 391.436Z" fill="#9D7354"/>
<path fill-rule="evenodd" clip-rule="evenodd" d="M318.346 405.128C316.69 425.349 302.231 429.301 291.725 429.301C280.915 429.301 266.735 424.406 265.104 405.128C264.225 394.737 264.366 383.447 272.789 379.359C276.324 377.64 279.995 379.359 279.995 379.359C279.995 379.359 284.687 374.429 291.725 374.429C299.171 374.429 302.435 379.359 302.435 379.359C302.435 379.359 306.77 376.977 310.22 378.801C318.947 383.415 319.226 394.383 318.346 405.128Z" fill="#9D7354"/>
<path d="M262.197 419.223L267.195 405.392C268.892 400.698 274.071 398.271 278.762 399.965L292.595 404.965C297.287 406.659 299.716 411.838 298.02 416.529L293.022 430.362C291.326 435.054 286.147 437.484 281.456 435.788L267.623 430.79C262.931 429.093 260.501 423.914 262.197 419.223Z" fill="#282828"/>
<path d="M315.486 432.514L316.669 429.237C318.036 425.455 316.079 421.284 312.297 419.92L270.373 404.767L288.428 430.473L306.168 436.884C309.948 438.251 314.119 436.293 315.486 432.514Z" fill="#282828"/>
<path d="M270.767 424.092L276.898 407.125L268.41 404.057C264.63 402.692 260.459 404.65 259.092 408.429L257.909 411.706C256.542 415.485 258.499 419.657 262.281 421.023L270.767 424.092Z" fill="#282828"/>
<path d="M267.377 422.26L273.121 406.366C273.503 405.301 274.679 404.75 275.744 405.135L291.638 410.879C292.703 411.264 293.254 412.44 292.869 413.503L287.125 429.396C286.741 430.462 285.565 431.012 284.499 430.628L268.608 424.883C267.543 424.501 266.992 423.325 267.377 422.26Z" fill="#A6C5FA"/>
<path d="M220 525.351H485.537V539.855H220L220 525.351Z" fill="#82AEF8"/>
<path d="M632.486 740C632.486 740 703.093 790.791 780.463 790.791C806.941 790.791 833.676 784.113 857 775.6V975H39.0001V740C39.0001 740 110.096 790.791 187.008 790.791C263.177 790.791 335.008 740 335.008 740C335.008 740 335.251 740.166 335.743 740.524C336.232 740.166 336.475 740 336.475 740C336.475 740 408.306 790.791 484.478 790.791C561.388 790.791 632.486 740 632.486 740Z" fill="#5F97F6"/>
<path d="M871.608 458.815C871.608 458.815 703.961 477.779 631.885 543.085C631.885 543.085 561.38 612 871.608 612V458.815Z" fill="#A6C5FA"/>
<path d="M871.608 458.815C871.608 458.815 717.571 474.304 651.35 527.64C651.35 527.64 586.567 583.928 871.608 583.928V458.815Z" fill="#FFEEBB"/>
<path d="M776.134 491.818L757.555 494.68L740.512 384.028L759.089 381.166L776.134 491.818Z" fill="#1AD760"/>
<path d="M760.474 390.149L741.895 393.011L740.007 380.751L758.586 377.889L760.474 390.149Z" fill="#16B04F"/>
<path d="M833.976 369.63L703.03 389.8C695.157 391.013 687.79 385.612 686.578 377.739L677.497 318.788C676.283 310.915 681.685 303.548 689.558 302.336L820.504 282.164C828.379 280.951 835.746 286.352 836.956 294.227L846.037 353.178C847.25 361.051 841.851 368.418 833.976 369.63Z" fill="#16B04F"/>
<path d="M820.017 371.781L666.679 395.399C658.222 396.702 650.31 390.902 649.006 382.445L640.253 325.607C638.949 317.15 644.75 309.238 653.207 307.934L806.545 284.314C815.002 283.012 822.912 288.813 824.215 297.27L832.971 354.11C834.274 362.567 828.474 370.479 820.017 371.781Z" fill="#1AD760"/>
<path fill-rule="evenodd" clip-rule="evenodd" d="M664.747 354.258C669.608 353.508 672.199 349.977 671.552 345.789C670.893 341.505 667.372 338.983 662.509 339.731L655.262 340.848L658.733 363.395L663.145 362.715L661.912 354.695L664.747 354.258ZM664.111 350.136L661.276 350.572L660.308 344.29L663.143 343.855C665.236 343.532 666.73 344.456 667.041 346.485C667.352 348.483 666.204 349.813 664.111 350.136Z" fill="#11893E"/>
<path fill-rule="evenodd" clip-rule="evenodd" d="M686.963 353.934L689.599 358.641L694.398 357.901L682.163 336.703L677.332 337.449L672.075 361.339L676.843 360.605L677.944 355.325L686.963 353.934ZM684.948 350.289L678.765 351.24L680.346 343.743L680.572 342.422L681.185 343.614L684.948 350.289Z" fill="#11893E"/>
<path d="M704.038 356.416L699.626 357.096L698.337 348.722L687.616 335.865L692.706 335.079L698.751 342.227L699.789 343.617L700.33 341.984L704.011 333.339L709.1 332.555L702.747 348.04L704.038 356.416Z" fill="#11893E"/>
<path d="M731.134 336.58L726.301 337.324C725.122 335.231 723.275 334.162 720.246 334.63C716.252 335.244 714.037 338.851 714.706 343.197C715.382 347.58 718.584 350.384 722.612 349.762C725.768 349.275 727.36 347.416 727.764 345.112L732.402 344.397C731.963 349.478 729.012 352.997 723.246 353.886C716.611 354.908 711.175 350.668 710.133 343.904C709.097 337.171 713.009 331.524 719.609 330.506C725.31 329.63 729.213 332.259 731.134 336.58Z" fill="#11893E"/>
<path d="M750.764 349.219L749.285 339.62L739.59 341.114L741.068 350.713L736.654 351.393L733.183 328.846L737.597 328.166L738.956 336.992L748.648 335.498L747.291 326.672L751.703 325.992L755.176 348.539L750.764 349.219Z" fill="#11893E"/>
<path d="M761.239 328.744L761.979 333.542L769.39 332.402L770.017 336.493L762.609 337.635L763.442 343.045L772.011 341.725L772.645 345.847L759.664 347.847L756.191 325.3L769.172 323.302L769.808 327.424L761.239 328.744Z" fill="#11893E"/>
<path d="M794.36 326.841L789.528 327.585C788.348 325.492 786.502 324.422 783.472 324.891C779.479 325.504 777.266 329.112 777.935 333.46C778.608 337.841 781.81 340.645 785.839 340.023C788.995 339.538 790.589 337.677 790.991 335.373L795.629 334.658C795.189 339.739 792.24 343.258 786.473 344.147C779.837 345.169 774.402 340.929 773.359 334.164C772.323 327.431 776.236 321.784 782.836 320.767C788.539 319.89 792.439 322.52 794.36 326.841Z" fill="#11893E"/>
<path d="M819.111 338.691L813.799 339.51L806.271 331.535L803.635 336.262L804.36 340.964L799.948 341.642L796.475 319.095L800.887 318.417L802.652 329.884L809.004 317.166L814.384 316.337L808.695 327.567L819.111 338.691Z" fill="#11893E"/>
<path d="M816.245 528.843C816.245 531.812 804.713 534.218 790.484 534.218C776.258 534.218 764.725 531.812 764.725 528.843C764.725 525.873 776.258 523.465 790.484 523.465C804.713 523.465 816.245 525.873 816.245 528.843Z" fill="#FFC107"/>
<path d="M764.725 528.842H816.245V428.16H764.725V528.842Z" fill="#FFC107"/>
<path d="M816.245 428.16C816.245 431.129 804.713 433.537 790.484 433.537C776.258 433.537 764.725 431.129 764.725 428.16C764.725 425.19 776.258 422.782 790.484 422.782C804.713 422.782 816.245 425.19 816.245 428.16Z" fill="#FFE28E"/>
<path d="M739.798 483.355V493.136V534.218C739.798 537.19 751.329 539.595 765.557 539.595C779.784 539.595 791.316 537.19 791.316 534.218V493.136V483.355H739.798Z" fill="#FFC107"/>
<path d="M791.317 483.355C791.317 486.324 779.784 488.732 765.556 488.732C751.329 488.732 739.799 486.324 739.799 483.355C739.799 480.385 751.329 477.977 765.556 477.977C779.784 477.977 791.317 480.385 791.317 483.355Z" fill="#FFE28E"/>
<path d="M791.317 464.569L796.543 478.771L810.743 483.997L796.543 489.221L791.317 503.423L786.09 489.221L771.891 483.997L786.09 478.771L791.317 464.569Z" fill="white"/>
<path d="M841.265 547.553C841.265 550.523 829.733 552.931 815.504 552.931C801.278 552.931 789.747 550.523 789.747 547.553C789.747 544.584 801.278 542.178 815.504 542.178C829.733 542.178 841.265 544.584 841.265 547.553Z" fill="#FFC107"/>
<path d="M789.747 547.553H841.265V506.036H789.747V547.553Z" fill="#FFC107"/>
<path d="M841.265 506.037C841.265 509.007 829.733 511.415 815.504 511.415C801.278 511.415 789.747 509.007 789.747 506.037C789.747 503.067 801.278 500.661 815.504 500.661C829.733 500.661 841.265 503.067 841.265 506.037Z" fill="#FFE28E"/>
<path d="M841.266 495.77L844.563 504.726L853.517 508.021L844.563 511.318L841.266 520.275L837.968 511.318L829.014 508.021L837.968 504.726L841.266 495.77Z" fill="white"/>
<path d="M714.038 537.286V547.067C714.038 550.037 725.57 552.445 739.799 552.445C754.023 552.445 765.556 550.037 765.556 547.067V537.286H714.038Z" fill="#FFC107"/>
<path d="M765.557 537.286C765.557 540.255 754.024 542.663 739.798 542.663C725.571 542.663 714.039 540.255 714.039 537.286C714.039 534.316 725.571 531.908 739.798 531.908C754.024 531.908 765.557 534.316 765.557 537.286Z" fill="#FFE28E"/>
<path d="M775.959 416.609V426.39C775.959 429.36 787.491 431.768 801.72 431.768C815.946 431.768 827.479 429.36 827.479 426.39V416.609H775.959Z" fill="#FFC107"/>
<path d="M827.479 416.609C827.479 419.579 815.947 421.987 801.718 421.987C787.491 421.987 775.959 419.579 775.959 416.609C775.959 413.639 787.491 411.231 801.718 411.231C815.947 411.231 827.479 413.639 827.479 416.609Z" fill="#FFE28E"/>
<path fill-rule="evenodd" clip-rule="evenodd" d="M826.603 400.048L830.872 411.64L842.465 415.907L830.872 420.174L826.603 431.769L822.336 420.174L810.743 415.907L822.336 411.64L826.603 400.048Z" fill="white"/>
<path d="M769.922 442.43C769.922 440.141 771.778 438.285 774.067 438.285C776.356 438.285 778.211 440.141 778.211 442.43V469.308C778.211 471.597 776.356 473.453 774.067 473.453C771.778 473.453 769.922 471.597 769.922 469.308V442.43Z" fill="white"/>
<path d="M745.003 497.975C745.003 495.686 746.859 493.831 749.148 493.831C751.437 493.831 753.292 495.686 753.292 497.975V524.853C753.292 527.142 751.437 528.998 749.148 528.998C746.859 528.998 745.003 527.142 745.003 524.853V497.975Z" fill="white"/>
<path d="M795.401 519.434C795.401 517.145 797.257 515.289 799.546 515.289C801.835 515.289 803.69 517.145 803.69 519.434V542.362C803.69 544.651 801.835 546.507 799.546 546.507C797.257 546.507 795.401 544.651 795.401 542.362V519.434Z" fill="white"/>
<path d="M38.8646 455.094C38.8646 455.094 210.585 474.518 284.41 541.41C284.41 541.41 356.63 612 38.8646 612V455.094Z" fill="#A6C5FA"/>
<path d="M38.8646 455.094C38.8646 455.094 196.643 470.959 264.474 525.59C264.474 525.59 330.829 583.246 38.8646 583.246V455.094Z" fill="#FFEEBB"/>
<path d="M114.87 488.435L133.976 490.806L148.1 377L128.992 374.629L114.87 488.435Z" fill="#A6C5FA"/>
<path d="M127.847 383.87L146.953 386.241L148.517 373.632L129.411 371.261L127.847 383.87Z" fill="#5F97F6"/>
<path d="M51.9713 365.071L186.649 381.785C194.747 382.789 202.128 377.039 203.132 368.941L210.656 308.311C211.661 300.211 205.91 292.832 197.812 291.828L63.1345 275.114C55.0365 274.108 47.6559 279.858 46.6519 287.956L39.127 348.589C38.123 356.687 43.8733 364.067 51.9713 365.071Z" fill="#5F97F6"/>
<path d="M66.3306 366.853L224.035 386.424C232.734 387.505 240.66 381.328 241.74 372.629L248.996 314.17C250.074 305.472 243.897 297.548 235.2 296.467L77.4938 276.896C68.7951 275.816 60.869 281.993 59.7885 290.691L52.5353 349.15C51.457 357.847 57.6319 365.775 66.3306 366.853Z" fill="#A6C5FA"/>
<path fill-rule="evenodd" clip-rule="evenodd" d="M74.7392 325.624C79.7424 326.243 83.2809 323.488 83.8137 319.181C84.3613 314.775 81.5976 311.304 76.5944 310.682L69.1396 309.759L66.2612 332.947L70.8016 333.512L71.8248 325.263L74.7392 325.624ZM75.2675 321.383L72.351 321.022L73.1512 314.562L76.0678 314.923C78.2202 315.191 79.4344 316.517 79.1754 318.604C78.9207 320.661 77.4199 321.65 75.2675 321.383Z" fill="#3C81F4"/>
<path fill-rule="evenodd" clip-rule="evenodd" d="M96.7245 331.514L98.0066 336.886L102.944 337.5L96.8094 313.193L91.8423 312.575L79.9872 334.651L84.8885 335.258L87.4484 330.363L96.7245 331.514ZM95.7609 327.357L89.3993 326.568L93.0524 319.622L93.6446 318.383L93.9142 319.729L95.7609 327.357Z" fill="#3C81F4"/>
<path d="M112.857 338.73L108.321 338.167L109.389 329.553L102.42 313.888L107.652 314.538L111.613 323.27L112.248 324.93L113.237 323.472L119.28 315.981L124.515 316.631L113.925 330.116L112.857 338.73Z" fill="#3C81F4"/>
<path d="M145.101 326.753L140.13 326.136C139.553 323.743 138.033 322.175 134.917 321.788C130.809 321.279 127.621 324.215 127.065 328.685C126.507 333.191 128.878 336.849 133.021 337.365C136.267 337.766 138.356 336.378 139.398 334.219L144.167 334.811C142.316 339.695 138.423 342.34 132.495 341.604C125.668 340.757 121.497 335.059 122.361 328.101C123.219 321.179 128.653 316.707 135.443 317.549C141.306 318.275 144.418 321.958 145.101 326.753Z" fill="#3C81F4"/>
<path d="M160.915 344.693L162.14 334.821L152.167 333.583L150.943 343.456L146.404 342.893L149.283 319.703L153.821 320.268L152.694 329.344L162.666 330.582L163.791 321.505L168.332 322.068L165.453 345.256L160.915 344.693Z" fill="#3C81F4"/>
<path d="M176.96 327.444L176.346 332.379L183.967 333.326L183.444 337.533L175.824 336.588L175.134 342.152L183.947 343.245L183.419 347.486L170.069 345.83L172.948 322.64L186.297 324.298L185.771 328.539L176.96 327.444Z" fill="#3C81F4"/>
<path d="M210.129 334.822L205.158 334.204C204.583 331.814 203.061 330.246 199.945 329.859C195.839 329.348 192.649 332.283 192.093 336.756C191.535 341.262 193.906 344.918 198.049 345.433C201.295 345.835 203.383 344.446 204.426 342.29L209.195 342.88C207.344 347.764 203.451 350.409 197.523 349.675C190.698 348.825 186.525 343.13 187.389 336.172C188.249 329.248 193.681 324.775 200.471 325.618C206.336 326.346 209.446 330.029 210.129 334.822Z" fill="#3C81F4"/>
<path d="M231.209 353.416L225.743 352.739L220.555 342.775L216.637 346.698L216.036 351.533L211.5 350.971L214.378 327.781L218.915 328.345L217.452 340.137L227.265 329.381L232.797 330.067L224.051 339.545L231.209 353.416Z" fill="#3C81F4"/>
<path d="M598.04 473.927C598.04 473.927 613.877 477.893 624.093 476.19C624.093 476.19 631.929 475.168 630.908 483.343C629.886 491.518 625.69 506.43 597.475 506.466C569.259 506.502 598.04 473.927 598.04 473.927Z" fill="#FF5252"/>
<path d="M582.238 528.393C609.632 538.769 610.983 566.488 610.983 566.488C610.983 566.488 619.158 633.417 520.556 633.417C421.953 633.417 429.615 535.325 448.519 526.641C463.789 519.623 475.341 542.478 489.901 542.478C504.151 542.478 525.929 524.535 525.929 524.535H525.936C520.594 520.169 516.359 514.689 513.66 508.494C511.511 503.602 510.344 498.262 510.344 492.67C510.344 469.105 531.15 450 556.832 450C574.536 450 589.912 459.085 597.761 472.439C601.31 478.459 603.317 485.357 603.317 492.67C603.317 507.619 594.932 520.777 582.238 528.393Z" fill="#FFCC34"/>
<path d="M509.091 558.002C494.817 556.934 493.24 549.104 487.4 552.995C479.101 558.529 475.036 598.255 522.318 598.255C569.598 598.255 565.68 566.164 565.68 566.164C565.68 566.164 564.999 552.191 550.88 547.534C545.962 545.912 540.644 546.09 535.701 547.633C527.744 550.119 523.974 559.115 509.091 558.002Z" fill="#FF5252"/>
<path d="M585.381 492.665C585.381 494.515 583.882 496.014 582.032 496.014C580.182 496.014 578.683 494.515 578.683 492.665C578.683 489.625 576.218 487.159 573.176 487.159C570.136 487.159 567.672 489.624 567.672 492.665C567.672 494.515 566.173 496.014 564.323 496.014C562.474 496.014 560.974 494.515 560.974 492.665C560.974 485.926 566.436 480.461 573.176 480.461C579.917 480.461 585.381 485.926 585.381 492.665Z" fill="#44271D"/>
<path fill-rule="evenodd" clip-rule="evenodd" d="M429.844 636.931H607.766V589.636H429.844V636.931Z" fill="#82AEF8"/>
<path d="M415.376 588.743H614.695" stroke="#EDF3FE" stroke-width="11.2609" stroke-linecap="round" stroke-linejoin="round"/>
<path d="M333 588.743H384.206" stroke="#EDF3FE" stroke-width="11.2609" stroke-linecap="round" stroke-linejoin="round"/>
</g>
</svg>
