<svg width="818" height="900" viewBox="0 0 818 900" fill="none" xmlns="http://www.w3.org/2000/svg">
    <rect width="818" height="900" fill="#DFE8F8"/>
    <mask id="mask0" mask-type="alpha" maskUnits="userSpaceOnUse" x="0" y="0" width="818" height="900">
        <rect width="818" height="900" fill="#C4C4C4"/>
    </mask>
    <g mask="url(#mask0)">
        <path opacity="0.3" fill-rule="evenodd" clip-rule="evenodd" d="M273 174.999C273 124.189 231.811 82.9998 181.001 82.9998C130.191 82.9998 89 124.189 89 174.999C89 225.81 130.191 266.998 181.001 266.998C231.811 266.998 273 225.81 273 174.999Z" fill="#EDF3FE"/>
        <path opacity="0.6" fill-rule="evenodd" clip-rule="evenodd" d="M250.798 174.999C250.798 136.451 219.549 105.202 181.001 105.202C142.452 105.202 111.203 136.451 111.203 174.999C111.203 213.546 142.452 244.795 181.001 244.795C219.549 244.795 250.798 213.546 250.798 174.999Z" fill="#EDF3FE"/>
        <path fill-rule="evenodd" clip-rule="evenodd" d="M228.441 174.999C228.441 148.799 207.2 127.558 181 127.558C154.799 127.558 133.559 148.799 133.559 174.999C133.559 201.2 154.799 222.44 181 222.44C207.2 222.44 228.441 201.2 228.441 174.999Z" fill="#EDF3FE"/>
        <path d="M0 900H820V410H0V900Z" fill="#82AEF8"/>
        <path d="M34 521H819V494.17H34V521Z" fill="#5F97F6"/>
        <path d="M0 502.855H818V480H0V502.855Z" fill="#FF9090"/>
        <path d="M161 502.855H217V480H161V502.855Z" fill="#C9DCFC"/>
        <path d="M49 502.855H105V480H49V502.855Z" fill="#C9DCFC"/>
        <path d="M273 502.855H329V480H273V502.855Z" fill="#C9DCFC"/>
        <path d="M385 503.113H441V480.258H385V503.113Z" fill="#C9DCFC"/>
        <path d="M498 502.855H554V480H498V502.855Z" fill="#C9DCFC"/>
        <path d="M610 503.113H666V480.258H610V503.113Z" fill="#C9DCFC"/>
        <path d="M727.461 476.744L708.359 479.686L690.835 365.913L709.935 362.97L727.461 476.744Z" fill="#1AD760"/>
        <path d="M711.359 372.207L692.257 375.149L690.315 362.544L709.418 359.601L711.359 372.207Z" fill="#16B04F"/>
        <path d="M786.935 351.109L652.295 371.848C644.2 373.095 636.625 367.542 635.379 359.447L626.042 298.832C624.793 290.737 630.348 283.162 638.443 281.916L773.083 261.175C781.18 259.928 788.755 265.481 789.999 273.578L799.337 334.193C800.583 342.288 795.032 349.863 786.935 351.109Z" fill="#16B04F"/>
        <path d="M772.582 353.32L614.919 377.605C606.223 378.945 598.087 372.981 596.747 364.285L587.747 305.844C586.406 297.148 592.371 289.013 601.066 287.673L758.73 263.386C767.426 262.048 775.559 268.012 776.899 276.708L785.902 335.151C787.242 343.847 781.278 351.982 772.582 353.32Z" fill="#1AD760"/>
        <path fill-rule="evenodd" clip-rule="evenodd" d="M612.932 335.303C617.931 334.532 620.595 330.901 619.93 326.595C619.252 322.191 615.632 319.597 610.631 320.367L603.18 321.515L606.749 344.698L611.285 343.999L610.017 335.753L612.932 335.303ZM612.278 331.065L609.363 331.513L608.368 325.054L611.283 324.607C613.435 324.274 614.971 325.225 615.291 327.311C615.611 329.365 614.43 330.733 612.278 331.065Z" fill="#11893E"/>
        <path fill-rule="evenodd" clip-rule="evenodd" d="M635.775 334.97L638.486 339.809L643.421 339.049L630.84 317.253L625.874 318.02L620.468 342.584L625.371 341.829L626.502 336.4L635.775 334.97ZM633.704 331.222L627.346 332.2L628.971 324.491L629.204 323.134L629.834 324.359L633.704 331.222Z" fill="#11893E"/>
        <path d="M653.332 337.522L648.795 338.221L647.47 329.61L636.447 316.391L641.68 315.583L647.896 322.932L648.964 324.362L649.52 322.683L653.304 313.793L658.537 312.988L652.004 328.909L653.332 337.522Z" fill="#11893E"/>
        <path d="M681.191 317.127L676.222 317.892C675.01 315.739 673.111 314.64 669.996 315.121C665.89 315.752 663.612 319.462 664.3 323.93C664.995 328.437 668.287 331.32 672.429 330.681C675.675 330.18 677.311 328.268 677.727 325.899L682.495 325.164C682.044 330.389 679.009 334.007 673.081 334.921C666.259 335.971 660.67 331.612 659.598 324.657C658.532 317.734 662.555 311.927 669.342 310.881C675.204 309.98 679.216 312.684 681.191 317.127Z" fill="#11893E"/>
        <path d="M701.376 330.122L699.855 320.252L689.887 321.788L691.406 331.658L686.868 332.357L683.299 309.174L687.837 308.475L689.235 317.55L699.201 316.014L697.805 306.939L702.342 306.24L705.913 329.423L701.376 330.122Z" fill="#11893E"/>
        <path d="M712.148 309.07L712.908 314.003L720.528 312.831L721.174 317.037L713.556 318.211L714.413 323.774L723.223 322.417L723.876 326.655L710.528 328.711L706.957 305.528L720.304 303.474L720.958 307.713L712.148 309.07Z" fill="#11893E"/>
        <path d="M746.203 307.113L741.234 307.878C740.022 305.725 738.123 304.626 735.008 305.108C730.902 305.738 728.626 309.448 729.314 313.918C730.007 318.423 733.299 321.306 737.441 320.667C740.686 320.168 742.325 318.255 742.738 315.885L747.507 315.15C747.055 320.375 744.023 323.993 738.093 324.907C731.27 325.957 725.681 321.598 724.61 314.643C723.544 307.72 727.567 301.914 734.354 300.867C740.218 299.966 744.228 302.67 746.203 307.113Z" fill="#11893E"/>
        <path d="M771.651 319.297L766.189 320.139L758.448 311.939L755.738 316.8L756.484 321.635L751.947 322.331L748.376 299.148L752.912 298.452L754.728 310.241L761.259 297.165L766.79 296.312L760.941 307.859L771.651 319.297Z" fill="#11893E"/>
        <path d="M965.161 579.759C965.161 610.045 857.002 634.597 723.581 634.597C590.159 634.597 482 610.045 482 579.759C482 549.472 590.159 510.232 723.581 510.232C857.002 510.232 965.161 549.472 965.161 579.759Z" fill="#A6C5FA"/>
        <path d="M941.765 558.192C941.765 585.045 844.081 606.813 723.581 606.813C603.081 606.813 505.396 585.045 505.396 558.192C505.396 531.339 603.081 466.26 723.581 466.26C844.081 466.26 941.765 531.339 941.765 558.192Z" fill="#FFEEBB"/>
        <path d="M635.659 434.8H772.389V361.83H639.699C637.469 361.83 635.669 363.64 635.669 365.86V434.8H635.659Z" fill="#9D5A43"/>
        <path d="M772.4 361.83H763.47V379.34H772.4V434.8C792.55 434.8 808.88 418.47 808.88 398.32C808.88 378.16 792.55 361.83 772.4 361.83Z" fill="#D19E06"/>
        <path d="M690 398.31C690 378.16 673.67 361.83 653.52 361.83V434.8C673.67 434.8 690 418.46 690 398.31Z" fill="#EABE44"/>
        <path d="M790.639 398.7V397.93C790.639 387.86 782.469 379.69 772.399 379.69V416.94C782.469 416.94 790.639 408.77 790.639 398.7Z" fill="#704130"/>
        <path d="M754.54 416.94H653.52V434.8H754.54V416.94Z" fill="#704130"/>
        <path d="M653.52 361.83H639.7C637.47 361.83 635.67 363.64 635.67 365.86V434.79H653.53V361.83H653.52Z" fill="#FFE28E"/>
        <path d="M690 398.31C690 378.16 673.67 361.83 653.52 361.83V434.8C673.67 434.8 690 418.46 690 398.31Z" fill="#704130"/>
        <path d="M754.54 361.83H653.52V379.69H754.54V361.83Z" fill="#704130"/>
        <path d="M768.37 361.83H754.55V434.8H772.41V365.86C772.4 363.64 770.59 361.83 768.37 361.83Z" fill="#FFE28E"/>
        <path d="M666.929 433.122C666.929 435.586 657.362 437.582 645.559 437.582C633.757 437.582 624.19 435.586 624.19 433.122C624.19 430.659 633.757 428.661 645.559 428.661C657.362 428.661 666.929 430.659 666.929 433.122Z" fill="#FFC107"/>
        <path d="M624.19 433.122H666.929V349.601H624.19V433.122Z" fill="#FFC107"/>
        <path d="M666.929 349.601C666.929 352.064 657.362 354.062 645.559 354.062C633.757 354.062 624.19 352.064 624.19 349.601C624.19 347.137 633.757 345.14 645.559 345.14C657.362 345.14 666.929 347.137 666.929 349.601Z" fill="#FFE28E"/>
        <path d="M603.513 395.388V403.502V437.581C603.513 440.046 613.078 442.042 624.881 442.042C636.683 442.042 646.249 440.046 646.249 437.581V403.502V395.388H603.513Z" fill="#FFC107"/>
        <path d="M646.249 395.388C646.249 397.851 636.683 399.849 624.879 399.849C613.078 399.849 603.513 397.851 603.513 395.388C603.513 392.924 613.078 390.927 624.879 390.927C636.683 390.927 646.249 392.924 646.249 395.388Z" fill="#FFE28E"/>
        <path d="M646.249 379.804L650.584 391.585L662.363 395.921L650.584 400.255L646.249 412.036L641.913 400.255L630.134 395.921L641.913 391.585L646.249 379.804Z" fill="white"/>
        <path d="M687.685 448.643C687.685 451.107 678.118 453.104 666.315 453.104C654.513 453.104 644.948 451.107 644.948 448.643C644.948 446.18 654.513 444.184 666.315 444.184C678.118 444.184 687.685 446.18 687.685 448.643Z" fill="#FFC107"/>
        <path d="M660 403.461V411.575V445.654C660 448.12 669.565 450.115 681.368 450.115C693.17 450.115 702.737 448.12 702.737 445.654V411.575V403.461H660Z" fill="#FFC107"/>
        <path d="M702.737 403.461C702.737 405.925 693.17 407.922 681.367 407.922C669.565 407.922 660 405.925 660 403.461C660 400.998 669.565 399 681.367 399C693.17 399 702.737 400.998 702.737 403.461Z" fill="#FFE28E"/>
        <path d="M582.143 440.126V448.24C582.143 450.704 591.709 452.701 603.513 452.701C615.312 452.701 624.879 450.704 624.879 448.24V440.126H582.143Z" fill="#FFC107"/>
        <path d="M624.88 440.126C624.88 442.59 615.313 444.587 603.512 444.587C591.71 444.587 582.144 442.59 582.144 440.126C582.144 437.663 591.71 435.665 603.512 435.665C615.313 435.665 624.88 437.663 624.88 440.126Z" fill="#FFE28E"/>
        <path d="M702.745 387L707.08 398.781L718.859 403.116L707.08 407.45L702.745 419.231L698.409 407.45L686.63 403.116L698.409 398.781L702.745 387Z" fill="white"/>
        <path d="M633.508 340.019V348.133C633.508 350.597 643.075 352.594 654.878 352.594C666.679 352.594 676.246 350.597 676.246 348.133V340.019H633.508Z" fill="#FFC107"/>
        <path d="M676.248 340.019C676.248 342.483 666.681 344.48 654.878 344.48C643.077 344.48 633.51 342.483 633.51 340.019C633.51 337.556 643.077 335.558 654.878 335.558C666.681 335.558 676.248 337.556 676.248 340.019Z" fill="#FFE28E"/>
        <path fill-rule="evenodd" clip-rule="evenodd" d="M675.521 326.281L679.063 335.897L688.679 339.437L679.063 342.976L675.521 352.595L671.982 342.976L662.365 339.437L671.982 335.897L675.521 326.281Z" fill="white"/>
        <path d="M628.5 361.439C628.5 359.54 630.039 358.001 631.938 358.001C633.837 358.001 635.376 359.54 635.376 361.439V383.736C635.376 385.634 633.837 387.174 631.938 387.174C630.039 387.174 628.5 385.634 628.5 383.736V361.439Z" fill="white"/>
        <path d="M607.829 407.516C607.829 405.617 609.368 404.078 611.267 404.078C613.166 404.078 614.705 405.617 614.705 407.516V438.118C614.705 440.017 613.166 441.557 611.267 441.557C609.368 441.557 607.829 440.017 607.829 438.118V407.516Z" fill="white"/>
        <path d="M725.98 434.8H571V528.97H725.98V434.8Z" fill="#9D5A43"/>
        <path d="M766.179 434.8H694.409V528.97H766.179V434.8Z" fill="#704130"/>
        <path d="M580.559 439.2H562.699V528.97H580.559V439.2Z" fill="#FFE28E"/>
        <path d="M704.569 440.31H681.579V528.97H704.569V440.31Z" fill="#FFE28E"/>
        <path d="M699.43 452.65V434.8H773.58C775.77 434.8 777.54 436.57 777.54 438.76V448.7C777.54 450.89 775.77 452.66 773.58 452.66H699.43V452.65Z" fill="#D19E06"/>
        <path d="M717.29 434.8H699.43V528.97H717.29V434.8Z" fill="#D19E06"/>
        <path d="M772.4 439.2H754.54V528.97H772.4V439.2Z" fill="#D19E06"/>
        <path d="M557.56 448.62V438.83C557.56 436.6 559.37 434.8 561.59 434.8H700.61C702.8 434.8 704.57 436.57 704.57 438.76V448.7C704.57 450.89 702.8 452.66 700.61 452.66H561.59C559.36 452.65 557.56 450.85 557.56 448.62Z" fill="#FFE28E"/>
        <path d="M643.909 427.6H617.369V459.85H643.909C647.059 459.85 649.619 457.3 649.619 454.14V433.31C649.609 430.16 647.059 427.6 643.909 427.6Z" fill="#D19E06"/>
        <path d="M637.519 427.6H616.689C613.539 427.6 610.979 430.15 610.979 433.31V454.14C610.979 457.29 613.529 459.85 616.689 459.85H637.519C640.669 459.85 643.229 457.3 643.229 454.14V433.31C643.229 430.16 640.669 427.6 637.519 427.6Z" fill="#FFE28E"/>
        <path d="M631.51 439.2C631.51 436.77 629.54 434.8 627.11 434.8C624.68 434.8 622.71 436.77 622.71 439.2C622.71 440.73 623.5 442.08 624.69 442.87L623.45 452.65H630.78L629.54 442.87C630.72 442.08 631.51 440.74 631.51 439.2Z" fill="#A37B05"/>
        <path d="M772.381 379.819L767.638 366.721L754.579 361.824L767.695 357.081L772.592 344.022L777.317 357.139L790.375 362.036L777.259 366.779L772.381 379.819Z" fill="white"/>
        <path d="M580.656 418.706L584.991 430.487L596.771 434.823L584.991 439.157L580.656 450.938L576.32 439.157L564.541 434.823L576.32 430.487L580.656 418.706Z" fill="white"/>
        <path d="M667.776 461.437C667.776 461.437 654.91 464.659 646.611 463.275C646.611 463.275 640.246 462.445 641.075 469.086C641.906 475.728 645.314 487.841 668.235 487.871C691.156 487.9 667.776 461.437 667.776 461.437Z" fill="#FF5252"/>
        <path d="M680.611 505.684C658.358 514.112 657.26 536.63 657.26 536.63C657.26 536.63 650.619 591 730.72 591C810.821 591 804.596 511.314 789.239 504.26C776.834 498.559 767.45 517.125 755.622 517.125C744.046 517.125 726.354 502.549 726.354 502.549H726.349C730.688 499.002 734.129 494.551 736.322 489.518C738.067 485.544 739.015 481.206 739.015 476.663C739.015 457.52 722.113 442 701.25 442C686.868 442 674.377 449.381 668.001 460.228C665.118 465.119 663.488 470.723 663.488 476.663C663.488 488.808 670.299 499.496 680.611 505.684Z" fill="#FFCC34"/>
        <path d="M740.032 529.736C751.627 528.869 752.908 522.507 757.652 525.669C764.394 530.164 767.697 562.436 729.286 562.436C690.878 562.436 694.062 536.366 694.062 536.366C694.062 536.366 694.614 525.016 706.084 521.232C710.08 519.915 714.399 520.059 718.415 521.313C724.879 523.333 727.942 530.64 740.032 529.736Z" fill="#FF5252"/>
        <path d="M678.058 476.66C678.058 478.162 679.276 479.38 680.778 479.38C682.281 479.38 683.499 478.162 683.499 476.66C683.499 474.189 685.502 472.186 687.972 472.186C690.442 472.186 692.444 474.189 692.444 476.66C692.444 478.162 693.662 479.38 695.164 479.38C696.667 479.38 697.885 478.162 697.885 476.66C697.885 471.184 693.448 466.745 687.972 466.745C682.496 466.745 678.058 471.185 678.058 476.66Z" fill="#44271D"/>
        <path d="M176.686 777.852C157.82 769.717 139.923 762 111 762C82.0764 762 64.1794 769.717 45.3125 777.852C24.2836 786.919 2.04988 796.506 -38 796.506V921H856V796.506C815.948 796.506 793.715 786.919 772.686 777.852C753.82 769.717 735.923 762 707 762C678.076 762 660.179 769.717 641.312 777.852C620.284 786.919 598.05 796.506 558 796.506C517.948 796.506 495.715 786.919 474.686 777.852C455.82 769.717 437.923 762 409 762C380.077 762 362.179 769.717 343.313 777.852C322.284 786.919 300.05 796.506 260 796.506C219.948 796.506 197.715 786.919 176.686 777.852Z" fill="#5F97F6"/>
        <path d="M580.905 590.499C580.905 658.708 548.53 666.239 500.89 666.239L517.461 586.456C530.595 590.094 538.344 584.91 542.91 577.388C554.356 558.554 584.761 554.4 580.905 590.499Z" fill="#9D7354"/>
        <mask id="mask1" mask-type="alpha" maskUnits="userSpaceOnUse" x="500" y="563" width="82" height="104">
            <path d="M580.905 590.499C580.905 658.708 548.53 666.239 500.89 666.239L517.461 586.456C530.595 590.094 538.344 584.91 542.91 577.388C554.356 558.554 584.761 554.4 580.905 590.499Z" fill="#9D7354"/>
        </mask>
        <g mask="url(#mask1)">
            <path d="M558.825 617.358C586.763 612.615 590.512 592.017 589.248 577.393C587.938 562.351 579.412 543.21 552.4 543.278C537.832 543.311 522.147 544.87 517.471 557.077C515.506 562.204 518.341 567.105 518.341 567.105C518.341 567.105 512.051 574.231 512.898 584.022C513.801 594.377 521.051 598.329 521.051 598.329C521.051 598.329 518.262 604.653 521.221 609.227C528.674 620.824 543.975 619.887 558.825 617.358Z" fill="#8E6549"/>
        </g>
        <path d="M330.683 572.422C330.683 572.422 338.323 585.028 366.882 586.456L383.444 666.239C344.69 666.239 307.517 649.559 291.046 606.302L330.683 572.422Z" fill="#9D7354"/>
        <path d="M533.05 633.533C531.695 638.899 525.62 643.51 516.106 647.203C516.106 690.742 442.999 690.742 442.999 690.742C429.902 690.742 419.042 687.949 410.047 683.274L410.01 683.265C363.67 659.172 366.717 585.119 366.59 585.037C369.664 559.234 371.174 528.81 377.959 503.58C358.477 492.984 359.805 478.55 368.054 469.437C386.626 448.963 400.697 464.634 411.111 472.547H413.876C424.181 472.547 428.655 460.641 447.519 459.232C446.237 463.516 445.172 467.909 446.1 471.028C446.1 471.028 455.104 465.817 462.744 467.154C461.544 469.3 461.462 472.62 462.381 474.748C466.664 474.994 469.893 474.966 473.222 472.538C483.636 464.625 497.706 448.954 516.279 469.427C524.528 478.541 525.847 492.975 506.365 503.571C512.814 527.519 515.033 559.879 517.852 585.091L533.05 633.533Z" fill="#9D7354"/>
        <path d="M426.902 499.679C426.065 501.389 424.001 502.098 422.291 501.27L421.563 500.916C416.452 498.424 412.14 498.314 406.674 500.525L405.928 500.825C404.164 501.543 402.154 500.688 401.435 498.924L400.826 497.423C400.107 495.659 400.962 493.649 402.727 492.93L403.473 492.63C411.122 489.537 418.052 489.738 425.283 493.257L426.011 493.612C427.72 494.449 428.43 496.514 427.602 498.223L426.902 499.679Z" fill="#493426"/>
        <path d="M457.442 499.678L456.732 498.223C455.896 496.513 456.614 494.448 458.324 493.611L459.052 493.257C466.282 489.737 473.213 489.537 480.862 492.629L481.617 492.929C483.381 493.648 484.236 495.658 483.518 497.422L482.908 498.923C482.19 500.687 480.18 501.542 478.415 500.824L477.67 500.524C472.203 498.314 467.892 498.423 462.781 500.915L462.053 501.27C460.334 502.106 458.269 501.397 457.442 499.678Z" fill="#493426"/>
        <path fill-rule="evenodd" clip-rule="evenodd" d="M393.222 481.651C394.496 480.405 393.977 478.268 392.276 477.713C389.802 476.913 386.41 476.521 383.672 478.823C378.943 482.779 380.353 486.654 381.953 488.918C382.79 490.092 384.491 490.228 385.519 489.218L393.222 481.651Z" fill="#493426"/>
        <path fill-rule="evenodd" clip-rule="evenodd" d="M491.405 481.651C490.132 480.405 490.65 478.268 492.351 477.713C494.825 476.913 498.217 476.521 500.955 478.823C505.685 482.779 504.275 486.654 502.674 488.918C501.837 490.092 500.137 490.228 499.109 489.218L491.405 481.651Z" fill="#493426"/>
        <path d="M464.383 580.435C464.383 598.025 454.433 600.699 442.172 600.699C429.903 600.699 419.962 597.861 419.962 580.435C419.962 561.098 429.912 546.828 442.172 546.828C454.442 546.819 464.383 561.098 464.383 580.435Z" fill="#EBBF8D"/>
        <path d="M512.589 516.432H497.963C497.427 515.741 496.79 515.113 495.981 514.549C492.142 511.802 485.703 511.329 473.561 511.329C461.419 511.329 454.979 511.802 451.141 514.549C449.113 515.995 448.012 517.851 447.412 520.088H436.916C436.325 517.851 435.234 515.995 433.187 514.549C429.367 511.802 422.91 511.329 410.767 511.329C398.644 511.329 392.186 511.802 388.357 514.549C387.556 515.104 386.911 515.741 386.374 516.432H371.749C370.376 516.432 369.257 517.532 369.257 518.924V521.27C369.257 522.644 370.376 523.763 371.749 523.763H383.909V529.674C383.909 537.078 384.71 542.908 388.63 547.319C392.768 551.976 399.799 554.15 410.758 554.15C426.32 554.15 437.617 543.854 437.617 529.665V527.419H446.694V529.665C446.694 543.854 457.981 554.15 473.543 554.15C484.512 554.15 491.542 551.976 495.68 547.319C499.591 542.899 500.392 537.078 500.392 529.674V523.763H512.57C513.944 523.763 515.062 522.644 515.062 521.27V518.924C515.072 517.541 513.962 516.432 512.589 516.432ZM410.777 546.828C394.887 546.828 391.904 542.308 391.376 534.177C391.285 532.776 391.267 531.275 391.267 529.665C391.267 524.145 391.313 521.452 392.622 520.516C395.015 518.806 403.255 518.66 410.777 518.66C418.316 518.66 426.548 518.806 428.949 520.516C429.422 520.852 429.722 521.425 429.922 522.253C430.286 523.753 430.304 526.118 430.304 529.665C430.304 539.77 422.282 546.828 410.777 546.828ZM473.561 546.828C462.065 546.828 454.033 539.779 454.033 529.665C454.033 524.145 454.097 521.452 455.407 520.516C457.799 518.806 466.039 518.66 473.561 518.66C481.101 518.66 489.332 518.806 491.733 520.516C493.034 521.452 493.088 524.145 493.088 529.665C493.088 540.625 492.179 546.828 473.561 546.828Z" fill="#282828"/>
        <path d="M410.777 546.828C422.283 546.828 430.305 539.779 430.305 529.666C430.305 528.319 430.305 527.146 430.277 526.118L392.068 538.588C393.605 543.927 398.053 546.828 410.777 546.828Z" fill="#5F97F6"/>
        <path d="M428.95 520.507C426.549 518.797 418.318 518.651 410.778 518.651C403.256 518.651 395.007 518.797 392.624 520.507C391.314 521.443 391.269 524.136 391.269 529.656C391.269 531.266 391.287 532.767 391.378 534.168C391.487 535.787 391.687 537.26 392.078 538.588L430.287 526.109C430.251 524.436 430.151 523.171 429.932 522.244C429.714 521.416 429.414 520.843 428.95 520.507Z" fill="#EDF3FE"/>
        <path d="M491.979 520.761C491.898 520.679 491.825 520.579 491.734 520.516C489.333 518.806 481.102 518.66 473.562 518.66C466.04 518.66 457.791 518.806 455.408 520.516C454.098 521.452 454.034 524.145 454.034 529.665C454.034 530.62 454.125 531.53 454.262 532.421C454.598 534.568 455.317 536.541 456.372 538.297L493.062 526.318C492.998 523.317 492.771 521.589 491.979 520.761Z" fill="#EDF3FE"/>
        <path d="M456.372 538.297C459.546 543.563 465.749 546.828 473.562 546.828C492.18 546.828 493.089 540.625 493.089 529.665C493.089 528.401 493.09 527.292 493.062 526.318L456.372 538.297Z" fill="#5F97F6"/>
        <path d="M539.318 696.672C535.207 706.14 526.667 709.751 503.865 710.642C503.719 710.642 503.574 710.651 503.428 710.651C503.428 710.651 503.083 710.688 502.437 710.724C502.31 710.733 502.2 710.751 502.082 710.751C499.172 710.97 491.877 711.415 483.219 711.479H401.125C392.467 711.415 385.172 710.97 382.262 710.751C382.134 710.751 382.025 710.733 381.907 710.724C381.261 710.688 380.916 710.651 380.916 710.651C380.77 710.651 380.625 710.642 380.479 710.642C357.677 709.751 349.137 706.14 345.017 696.672C340.033 685.185 345.044 664.529 353.303 645.439C364.099 620.472 353.621 587.011 353.621 587.011L366.6 585.028C366.6 585.028 392.066 661.028 442.172 661.046C492.278 661.028 517.744 585.028 517.744 585.028L530.723 587.011C530.723 587.011 520.245 620.472 531.041 645.439C539.3 664.529 544.311 685.185 539.318 696.672Z" fill="#FFC107"/>
        <path d="M442.198 450C408.801 450 411.02 470.546 411.02 482.006H442.198H473.377C473.377 470.546 475.605 450 442.198 450Z" fill="#FF5252"/>
        <path d="M473.378 482.006C473.378 482.006 462.2 475.13 442.2 475.13C422.208 475.13 411.021 482.006 411.021 482.006C411.021 482.006 410.103 493.693 417.424 495.64C426.001 497.914 428.375 489.873 442.209 489.873C456.343 489.873 458.389 497.905 466.966 495.64C474.297 493.684 473.378 482.006 473.378 482.006Z" fill="#D14444"/>
        <path d="M445.32 458.286C445.32 460.223 443.928 461.796 442.209 461.796C440.49 461.796 439.099 460.223 439.099 458.286C439.099 456.348 440.49 454.775 442.209 454.775C443.919 454.766 445.32 456.339 445.32 458.286Z" fill="white"/>
        <path d="M447.53 459.177C447.075 460.732 447.83 462.324 449.212 462.724C450.595 463.124 452.077 462.188 452.532 460.632C452.987 459.077 452.232 457.485 450.85 457.085C449.467 456.685 447.985 457.622 447.53 459.177Z" fill="white"/>
        <path d="M442.2 472.674C447.148 472.674 451.159 470.691 451.159 468.245C451.159 465.799 447.148 463.815 442.2 463.815C437.252 463.815 433.241 465.799 433.241 468.245C433.241 470.691 437.252 472.674 442.2 472.674Z" fill="white"/>
        <path d="M436.87 459.177C437.325 460.732 436.57 462.324 435.196 462.724C433.814 463.124 432.331 462.188 431.877 460.632C431.422 459.077 432.177 457.485 433.55 457.085C434.923 456.685 436.415 457.622 436.87 459.177Z" fill="white"/>
        <path d="M456.207 562.563C456.207 564.464 452.878 567.438 449.467 569.993C445.138 573.231 439.208 573.231 434.878 569.993C431.468 567.438 428.139 564.464 428.139 562.563C428.139 558.661 434.423 555.496 442.173 555.496C449.922 555.496 456.207 558.661 456.207 562.563Z" fill="#493426"/>
        <path d="M449.773 561.335C449.773 561.717 448.991 562.153 447.918 562.572C444.225 564.009 440.105 564.009 436.412 562.572C435.348 562.153 434.557 561.726 434.557 561.335C434.557 560.143 437.958 559.17 442.16 559.17C446.371 559.17 449.773 560.134 449.773 561.335Z" fill="#EBBF8D"/>
        <path fill-rule="evenodd" clip-rule="evenodd" d="M442.171 591.149C430.592 591.149 428.601 581.344 428.601 581.344C428.601 580.135 429.583 579.161 430.783 579.161H453.558C454.768 579.161 455.741 580.144 455.741 581.344C455.741 581.335 453.603 591.149 442.171 591.149Z" fill="#493426"/>
        <path d="M291.865 641.198C317.905 655.332 334.286 640.816 342.69 627.973C351.33 614.758 356.678 593.52 334.413 576.121C322.416 566.744 308.501 557.894 296.777 564.916C291.856 567.863 291.02 573.729 291.02 573.729C291.02 573.729 281.242 575.521 275.621 584.125C269.673 593.229 273.093 601.151 273.093 601.151C273.093 601.151 266.717 604.544 266.19 610.219C264.844 624.581 278.032 633.685 291.865 641.198Z" fill="#9D7354"/>
        <path d="M285.226 601.16C289.928 604.234 295.94 603.352 298.659 599.187C301.379 595.021 299.778 589.155 295.076 586.089C290.373 583.015 284.362 583.897 281.642 588.063C278.923 592.229 280.523 598.095 285.226 601.16Z" fill="#493426"/>
        <path d="M283.87 607.945C288.354 609.31 291.01 613.648 289.8 617.614C288.59 621.588 283.97 623.698 279.486 622.334C275.002 620.97 272.346 616.631 273.556 612.666C274.766 608.682 279.386 606.572 283.87 607.945Z" fill="#493426"/>
        <path d="M324.985 616.393C332.819 604.411 334.37 591.56 328.45 587.69C322.531 583.819 311.381 590.396 303.547 602.378C295.714 614.361 294.162 627.212 300.082 631.082C306.002 634.952 317.151 628.376 324.985 616.393Z" fill="#493426"/>
        <path d="M300.744 582.133C303.8 585.689 308.829 586.39 311.976 583.679C315.132 580.978 315.214 575.894 312.158 572.338C309.102 568.781 304.072 568.081 300.925 570.791C297.778 573.493 297.697 578.577 300.744 582.133Z" fill="#493426"/>
        <path d="M374.763 661.815L325.458 669.84C317.877 671.073 310.664 665.88 309.43 658.299L288.53 529.89C287.296 522.308 292.489 515.096 300.07 513.862L349.375 505.837C356.956 504.602 364.169 509.796 365.403 517.377L386.304 645.787C387.537 653.368 382.344 660.581 374.763 661.815Z" fill="#C0C0C0"/>
        <path d="M359.095 525.042L377.891 640.515L315.737 650.632L296.942 535.159L359.095 525.042Z" fill="#16B04F"/>
        <path d="M354.742 655.133C354.184 651.705 350.952 649.378 347.525 649.936C344.096 650.495 341.769 653.725 342.326 657.154C342.885 660.583 346.117 662.91 349.545 662.351C352.974 661.794 355.301 658.561 354.742 655.133Z" fill="#808080"/>
        <path d="M329.678 520.247C329.392 518.49 327.736 517.299 325.98 517.585C324.224 517.871 323.032 519.527 323.318 521.283C323.603 523.04 325.259 524.232 327.016 523.946C328.773 523.66 329.965 522.005 329.678 520.247Z" fill="#505050"/>
        <path fill-rule="evenodd" clip-rule="evenodd" d="M311.425 551.761C315.022 551.175 318.464 553.57 319.099 557.099C319.416 558.859 319.022 560.633 317.99 562.092C316.957 563.55 315.417 564.513 313.652 564.8L309.803 565.427C308.692 565.607 307.642 564.851 307.461 563.74L305.992 554.713C305.811 553.602 306.568 552.552 307.677 552.371L311.425 551.761ZM329.111 549.938C331.221 551.008 331.544 553.163 331.665 553.975C331.672 554.025 331.679 554.069 331.686 554.108L332.607 559.766C332.784 560.862 332.038 561.899 330.942 562.077L330.871 562.089C330.34 562.175 329.806 562.049 329.37 561.735C329.136 561.566 328.943 561.352 328.802 561.107C328.327 561.739 327.328 562.776 325.345 563.099C322.579 563.549 320.517 562.152 320.092 559.54C319.736 557.356 321.256 555.488 323.963 554.782C325.51 554.379 326.921 554.46 327.601 554.54L327.576 554.388C327.2 552.071 324.51 552.784 322.527 553.595C320.222 554.54 319.003 551.584 320.954 550.608C321.802 550.185 323.009 549.659 324.853 549.359C326.42 549.104 327.852 549.298 329.111 549.938ZM328.046 557.331L327.985 556.96C325.621 556.669 323.805 557.201 324.091 558.914C324.424 560.896 328.492 560.073 328.046 557.331ZM315.195 557.848C315.509 559.771 314.56 561.525 312.284 561.895L311.217 562.069L310.084 555.108L311.151 554.933C313.449 554.56 314.883 555.926 315.195 557.848ZM341.886 546.587C341.035 546.725 340.363 547.382 340.204 548.229L338.86 555.403L335.31 549.026C334.89 548.273 334.044 547.863 333.194 548.001C331.721 548.241 330.991 549.928 331.826 551.164L337.705 559.881C338.151 560.543 338.943 560.886 339.731 560.756C340.519 560.628 341.161 560.054 341.374 559.283L344.185 549.152C344.584 547.714 343.358 546.347 341.886 546.587ZM350.515 548.416C349.294 548.616 348.402 549.948 348.613 551.244L353.365 550.47C353.281 549.949 352.591 548.079 350.515 548.416ZM354.331 554.359C353.742 554.949 353.133 555.245 352.118 555.41C351.006 555.592 349.42 555.032 349.024 553.748L355.523 552.69C356.113 552.595 356.657 552.282 356.994 551.79C357.331 551.299 357.443 550.709 357.31 550.132C357.297 550.08 357.285 550.034 357.275 550.001C356.296 546.786 353.195 544.747 350.063 545.257C346.566 545.826 344.215 549.306 344.819 553.018C345.423 556.73 348.758 559.288 352.254 558.72C354.281 558.389 355.674 557.524 356.59 556.676C357.429 555.903 357.215 554.527 356.187 554.033C355.562 553.732 354.82 553.869 354.331 554.359Z" fill="white"/>
        <path d="M361.281 595.37C359.314 583.286 347.923 575.083 335.838 577.05C323.753 579.018 315.552 590.409 317.519 602.493C319.486 614.578 330.877 622.78 342.962 620.814C355.047 618.846 363.248 607.455 361.281 595.37Z" fill="white"/>
        <path d="M342.323 596.266L347.298 589.358C348.367 587.873 350.438 587.536 351.923 588.606C353.408 589.674 353.745 591.746 352.675 593.23L343.026 606.63C342.492 607.372 341.706 607.828 340.87 607.965C340.033 608.101 339.144 607.918 338.402 607.383L325.001 597.735C323.515 596.666 323.179 594.595 324.248 593.11C325.317 591.624 327.388 591.288 328.873 592.357L335.782 597.331L332.568 577.583C332.274 575.777 333.499 574.074 335.306 573.78C337.112 573.486 338.815 574.713 339.109 576.519L342.323 596.266Z" fill="#16B04F"/>
        <path d="M557.328 610.306C579.829 606.486 582.849 589.896 581.83 578.118C580.775 566.003 573.908 550.587 552.153 550.641C540.42 550.669 527.787 551.924 524.021 561.756C522.439 565.885 524.722 569.832 524.722 569.832C524.722 569.832 519.655 575.571 520.338 583.457C521.065 591.797 526.904 594.98 526.904 594.98C526.904 594.98 524.658 600.074 527.041 603.757C533.044 613.098 545.368 612.343 557.328 610.306Z" fill="#9D7354"/>
        <path d="M571.736 556.854C566.625 549.05 567.598 531.078 556.783 532.915C542.613 535.325 553 556.481 553 556.481C553 556.481 574.092 560.446 571.736 556.854Z" fill="#9D7354"/>
        <rect x="318.737" y="699.396" width="219.202" height="48.9707" fill="#82AEF8"/>
        <path d="M684.493 208.409C688.133 213.7 691.798 218.986 695.438 224.277C679.617 235.185 661.305 241.928 642.191 243.867C641.545 237.474 640.898 231.08 640.252 224.686C656.148 223.067 671.352 217.464 684.493 208.409Z" fill="#96ECB6"/>
        <path d="M602.707 63.4136C607.515 63.4136 611.414 59.5154 611.414 54.7068C611.414 49.8982 607.515 46 602.707 46C597.898 46 594 49.8982 594 54.7068C594 59.5154 597.898 63.4136 602.707 63.4136Z" fill="#6DE599"/>
        <path d="M663.11 95.3944C658.646 101.869 668.101 108.387 663.63 114.875C659.158 121.364 649.711 114.832 645.239 121.321C640.776 127.795 650.231 134.313 645.759 140.802C641.287 147.29 631.832 140.772 627.369 147.247C622.905 153.722 632.352 160.253 627.889 166.728" stroke="#A6C5FA" stroke-width="7" stroke-miterlimit="10" stroke-linecap="square"/>
        <path d="M431.688 284.523C441.533 291.389 451.558 277.011 461.424 283.888C471.291 290.766 461.246 305.131 471.112 312.009C480.958 318.874 490.982 304.496 500.849 311.373C510.715 318.251 500.691 332.629 510.537 339.494C520.382 346.359 530.428 331.993 540.273 338.858" stroke="#96ECB6" stroke-width="7" stroke-miterlimit="10" stroke-linecap="square"/>
        <path d="M438.375 183.335C430.976 186 434.868 196.804 427.455 199.476C420.041 202.147 416.164 191.336 408.751 194.008C401.352 196.673 405.244 207.477 397.83 210.149C390.417 212.82 386.525 202.016 379.126 204.681C371.727 207.346 375.604 218.156 368.205 220.821" stroke="#C5B1FD" stroke-width="7" stroke-miterlimit="10" stroke-linecap="square"/>
        <path d="M311 108.334L337 97.0199L314.112 80L311 108.334Z" fill="#FFEEBB"/>
        <path d="M537.045 249.091C543.698 249.091 549.091 243.698 549.091 237.045C549.091 230.393 543.698 225 537.045 225C530.393 225 525 230.393 525 237.045C525 243.698 530.393 249.091 537.045 249.091Z" fill="#F9B69E"/>
        <path d="M471.096 78.8274C466.436 84.1373 461.755 89.4721 457.095 94.782C473 108.744 492.176 118.434 512.835 122.999C514.361 116.089 515.888 109.18 517.414 102.27C500.242 98.4536 484.319 90.4172 471.096 78.8274Z" fill="#F9B69E"/>
        <path d="M732.88 144.938C738.736 148.89 744.62 152.858 750.477 156.809C762.315 139.266 769.502 119.019 771.417 97.9481C764.37 97.3078 757.323 96.6676 750.276 96.0273C748.662 113.545 742.704 130.356 732.88 144.938Z" fill="#FFEEBB"/>
        <path d="M280.01 326.459C276.039 332.302 272.051 338.172 268.079 344.016C285.582 355.914 305.805 363.169 326.869 365.156C327.533 358.111 328.197 351.067 328.862 344.022C311.35 342.348 294.559 336.333 280.01 326.459Z" fill="#FFEEBB"/>
        <path d="M0 480.008C0 480.008 139.22 495.757 199.072 549.988C199.072 549.988 257.624 607.218 0 607.218V480.008Z" fill="#A6C5FA"/>
        <path d="M0 480.008C0 480.008 127.917 492.871 182.909 537.162C182.909 537.162 236.706 583.906 0 583.906V480.008Z" fill="#FFEEBB"/>
        <path d="M74.499 517.039L89.9892 518.962L101.44 426.695L85.9484 424.773L74.499 517.039Z" fill="#A6C5FA"/>
        <path d="M85.0195 432.265L100.51 434.187L101.778 423.965L86.2879 422.042L85.0195 432.265Z" fill="#5F97F6"/>
        <path d="M23.5056 417.024L132.694 430.575C139.259 431.389 145.243 426.727 146.057 420.161L152.158 371.006C152.972 364.439 148.309 358.457 141.744 357.643L32.556 344.093C25.9907 343.277 20.007 347.939 19.193 354.504L13.0923 403.661C12.2783 410.226 16.9403 416.21 23.5056 417.024Z" fill="#5F97F6"/>
        <path d="M35.1467 418.469L163.004 434.336C170.056 435.212 176.482 430.204 177.358 423.151L183.24 375.757C184.114 368.704 179.106 362.28 172.056 361.404L44.1971 345.537C37.1447 344.661 30.7188 349.669 29.8428 356.722L23.9624 404.116C23.0882 411.167 28.0944 417.594 35.1467 418.469Z" fill="#A6C5FA"/>
        <path fill-rule="evenodd" clip-rule="evenodd" d="M41.9633 385.042C46.0195 385.545 48.8883 383.311 49.3202 379.819C49.7642 376.247 47.5236 373.433 43.4674 372.929L37.4234 372.18L35.0898 390.98L38.7709 391.437L39.6004 384.75L41.9633 385.042ZM42.3919 381.604L40.0273 381.311L40.6761 376.075L43.0407 376.367C44.7857 376.584 45.7701 377.66 45.5601 379.351C45.3536 381.019 44.1369 381.821 42.3919 381.604Z" fill="#3C81F4"/>
        <path fill-rule="evenodd" clip-rule="evenodd" d="M59.7873 389.818L60.8268 394.173L64.8297 394.671L59.8562 374.964L55.8292 374.464L46.2178 392.361L50.1914 392.853L52.2669 388.885L59.7873 389.818ZM59.0063 386.448L53.8486 385.808L56.8104 380.177L57.2905 379.172L57.5091 380.263L59.0063 386.448Z" fill="#3C81F4"/>
        <path d="M72.8671 395.668L69.1895 395.212L70.0551 388.228L64.4053 375.528L68.6474 376.055L71.8586 383.134L72.3732 384.48L73.1752 383.298L78.0747 377.225L82.3185 377.751L73.7327 388.684L72.8671 395.668Z" fill="#3C81F4"/>
        <path d="M99.0092 385.958L94.9788 385.458C94.5107 383.518 93.2785 382.246 90.7522 381.933C87.4222 381.52 84.8373 383.9 84.3864 387.524C83.9338 391.178 85.8561 394.143 89.2154 394.561C91.8467 394.887 93.5401 393.761 94.3851 392.011L98.252 392.491C96.7513 396.451 93.5951 398.595 88.7886 397.998C83.2541 397.311 79.8724 392.692 80.5728 387.051C81.2681 381.439 85.6737 377.813 91.179 378.496C95.9322 379.085 98.4551 382.071 99.0092 385.958Z" fill="#3C81F4"/>
        <path d="M111.83 400.503L112.823 392.499L104.738 391.496L103.745 399.5L100.065 399.044L102.399 380.242L106.078 380.7L105.165 388.059L113.25 389.062L114.162 381.704L117.843 382.16L115.509 400.959L111.83 400.503Z" fill="#3C81F4"/>
        <path d="M124.838 386.518L124.341 390.519L130.519 391.287L130.096 394.698L123.917 393.932L123.358 398.442L130.503 399.329L130.075 402.767L119.252 401.425L121.586 382.624L132.408 383.968L131.982 387.406L124.838 386.518Z" fill="#3C81F4"/>
        <path d="M151.729 392.5L147.698 391.999C147.232 390.061 145.998 388.79 143.472 388.476C140.144 388.062 137.557 390.442 137.106 394.068C136.654 397.721 138.576 400.685 141.935 401.103C144.566 401.428 146.26 400.303 147.105 398.554L150.972 399.033C149.471 402.993 146.315 405.137 141.508 404.541C135.975 403.853 132.592 399.236 133.293 393.594C133.99 387.981 138.393 384.355 143.899 385.038C148.654 385.628 151.175 388.614 151.729 392.5Z" fill="#3C81F4"/>
        <path d="M168.819 407.575L164.387 407.026L160.181 398.948L157.005 402.128L156.517 406.048L152.84 405.592L155.173 386.791L158.851 387.249L157.665 396.809L165.621 388.089L170.106 388.645L163.016 396.329L168.819 407.575Z" fill="#3C81F4"/>
        <path d="M0 747H818V703H0V747Z" fill="#5F97F6"/>
        <path d="M0 722H818V684H0V722Z" fill="#FF5252"/>
        <path d="M636 722H727V684H636V722Z" fill="white"/>
        <path d="M454 722H545V684H454V722Z" fill="white"/>
        <path d="M272 722H363V684H272V722Z" fill="white"/>
        <path d="M98 722H189V684H98V722Z" fill="white"/>
    </g>
</svg>
