<svg width="863" height="900" viewBox="0 0 863 900" fill="none" xmlns="http://www.w3.org/2000/svg">
    <rect x="45" width="818" height="900" fill="#DFE8F8"/>
    <mask id="mask0" mask-type="alpha" maskUnits="userSpaceOnUse" x="0" y="0" width="863" height="900">
        <rect width="863" height="900" fill="#DFE8F8"/>
    </mask>
    <g mask="url(#mask0)">
        <path d="M313.01 228.312C311.815 228.312 310.632 228.374 309.466 228.481C303.536 199.481 277.945 177.663 247.266 177.663C240.026 177.663 233.085 178.894 226.604 181.13C213.824 148.284 181.983 125 144.7 125C96.5459 125 57.4561 163.822 56.8113 211.951C53.6243 211.263 50.3182 210.896 46.9259 210.896C21.007 210.896 0 231.961 0 257.946C0 283.932 21.007 305 46.9259 305H313.01C334.128 305 351.25 287.831 351.25 266.656C351.25 245.476 334.128 228.312 313.01 228.312Z" fill="#EDF3FE"/>
        <path d="M582.493 329.934C581.914 329.934 581.342 329.964 580.777 330.016C577.907 315.999 565.522 305.454 550.673 305.454C547.169 305.454 543.81 306.049 540.673 307.13C534.488 291.254 519.077 280 501.033 280C477.727 280 458.808 298.764 458.496 322.026C456.953 321.694 455.353 321.517 453.711 321.517C441.167 321.517 431 331.698 431 344.257C431 356.817 441.167 367 453.711 367H582.493C592.713 367 601 358.702 601 348.467C601 338.23 592.713 329.934 582.493 329.934Z" fill="#EDF3FE"/>
        <path d="M885.666 206.241C884.656 206.241 883.656 206.293 882.669 206.384C877.655 181.895 856.017 163.471 830.077 163.471C823.954 163.471 818.086 164.511 812.606 166.399C801.799 138.662 774.876 119 743.351 119C702.635 119 669.582 151.783 669.037 192.425C666.342 191.844 663.547 191.535 660.678 191.535C638.762 191.535 621 209.322 621 231.266C621 253.209 638.762 271 660.678 271H885.666C903.523 271 918 256.502 918 238.621C918 220.736 903.523 206.241 885.666 206.241Z" fill="#EDF3FE"/>
        <path d="M91 503H169V465H91V503Z" fill="#A6C5FA"/>
        <path d="M122 524H137V493H122V524Z" fill="#A6C5FA"/>
        <path d="M445 503H523V465H445V503Z" fill="#A6C5FA"/>
        <path d="M476 524H491V493H476V524Z" fill="#A6C5FA"/>
        <path d="M768 503H846V465H768V503Z" fill="#A6C5FA"/>
        <path d="M799 524H814V493H799V524Z" fill="#A6C5FA"/>
        <path d="M45 652H863V524H45V652Z" fill="#A6C5FA"/>
        <path fill-rule="evenodd" clip-rule="evenodd" d="M132.727 548C129.962 552.553 126.052 553.983 121 552.284C125.556 555.049 126.984 558.962 125.286 564.011C128.05 559.458 131.96 558.026 137.012 559.726C132.458 556.96 131.03 553.05 132.727 548Z" fill="#EDF3FE"/>
        <path fill-rule="evenodd" clip-rule="evenodd" d="M250.727 609C247.962 613.553 244.052 614.983 239 613.284C243.556 616.049 244.984 619.962 243.286 625.011C246.05 620.458 249.96 619.026 255.012 620.726C250.458 617.96 249.03 614.05 250.727 609Z" fill="#EDF3FE"/>
        <path fill-rule="evenodd" clip-rule="evenodd" d="M390.065 609.199C390.028 614.526 387.407 617.76 382.199 618.895C387.528 618.929 390.762 621.555 391.896 626.76C391.931 621.433 394.552 618.198 399.76 617.064C394.432 617.027 391.2 614.404 390.065 609.199Z" fill="#EDF3FE"/>
        <path fill-rule="evenodd" clip-rule="evenodd" d="M492.051 603C487.559 610.397 481.207 612.72 473 609.96C480.402 614.452 482.721 620.809 479.963 629.011C484.453 621.614 490.805 619.288 499.013 622.05C491.614 617.556 489.294 611.204 492.051 603Z" fill="#EDF3FE"/>
        <path fill-rule="evenodd" clip-rule="evenodd" d="M669.727 536C666.962 540.553 663.052 541.983 658 540.284C662.556 543.049 663.984 546.962 662.286 552.011C665.05 547.458 668.96 546.026 674.012 547.726C669.458 544.96 668.03 541.05 669.727 536Z" fill="#EDF3FE"/>
        <path fill-rule="evenodd" clip-rule="evenodd" d="M836.727 543C833.962 547.553 830.052 548.983 825 547.284C829.556 550.049 830.984 553.962 829.286 559.011C832.05 554.458 835.96 553.026 841.012 554.726C836.458 551.96 835.03 548.05 836.727 543Z" fill="#EDF3FE"/>
        <path fill-rule="evenodd" clip-rule="evenodd" d="M96.0657 577.72C94.4125 592.282 86.2954 600.363 71.7188 601.944C86.2866 603.597 94.3648 611.724 95.9455 626.293C97.5988 611.731 105.716 603.646 120.294 602.064C105.729 600.412 97.6521 592.289 96.0657 577.72Z" fill="#EDF3FE"/>
        <path fill-rule="evenodd" clip-rule="evenodd" d="M326.39 580.848C321.218 594.56 311.367 600.405 296.848 598.365C310.566 603.538 316.405 613.397 314.366 627.91C319.539 614.198 329.39 608.349 343.911 610.389C330.196 605.216 324.357 595.362 326.39 580.848Z" fill="#EDF3FE"/>
        <path fill-rule="evenodd" clip-rule="evenodd" d="M542.134 572.391C536.238 586.702 525.654 592.559 510.391 589.945C524.708 595.842 530.56 606.435 527.946 621.691C533.842 607.379 544.428 601.518 559.692 604.133C545.378 598.237 539.526 587.648 542.134 572.391Z" fill="#EDF3FE"/>
        <path fill-rule="evenodd" clip-rule="evenodd" d="M741.577 533.478C736.165 545.222 727.129 549.748 714.479 547.043C726.228 552.456 730.749 561.499 728.045 574.144C733.457 562.399 742.494 557.869 755.146 560.575C743.399 555.163 738.878 546.124 741.577 533.478Z" fill="#EDF3FE"/>
        <path fill-rule="evenodd" clip-rule="evenodd" d="M819.912 576.435C820.964 591.053 814.471 600.488 800.433 604.723C815.056 603.669 824.491 610.172 828.723 624.203C827.671 609.585 834.164 600.145 848.202 595.911C833.582 596.964 824.149 590.464 819.912 576.435Z" fill="#EDF3FE"/>
        <path fill-rule="evenodd" clip-rule="evenodd" d="M171.46 573.188C166.787 577.777 161.694 578.297 156.189 574.742C160.78 579.417 161.296 584.513 157.743 590.015C162.417 585.426 167.511 584.905 173.016 588.46C168.426 583.786 167.909 578.692 171.46 573.188Z" fill="#EDF3FE"/>
        <path fill-rule="evenodd" clip-rule="evenodd" d="M370.272 569.374C370.122 577.996 365.822 583.185 357.373 584.929C365.998 585.079 371.186 589.385 372.929 597.829C373.08 589.208 377.38 584.017 385.829 582.272C377.206 582.122 372.019 577.818 370.272 569.374Z" fill="#EDF3FE"/>
        <path fill-rule="evenodd" clip-rule="evenodd" d="M483.516 546.618C483.366 555.24 479.066 560.428 470.617 562.173C479.242 562.323 484.43 566.629 486.174 575.073C486.324 566.452 490.624 561.261 499.073 559.516C490.45 559.366 485.264 555.062 483.516 546.618Z" fill="#EDF3FE"/>
        <path fill-rule="evenodd" clip-rule="evenodd" d="M305.73 540.339C305.303 548.951 300.838 553.999 292.338 555.472C300.954 555.899 306.001 560.369 307.473 568.865C307.9 560.253 312.364 555.202 320.865 553.729C312.251 553.302 307.205 548.835 305.73 540.339Z" fill="#EDF3FE"/>
        <path fill-rule="evenodd" clip-rule="evenodd" d="M428.357 581.6C422.906 588.281 416.318 589.699 408.601 585.844C415.285 591.297 416.698 597.889 412.845 605.603C418.296 598.921 424.886 597.502 432.604 601.357C425.921 595.905 424.508 589.316 428.357 581.6Z" fill="#EDF3FE"/>
        <path fill-rule="evenodd" clip-rule="evenodd" d="M688.822 565.21C688.268 573.814 683.73 578.796 675.209 580.143C683.817 580.697 688.797 585.241 690.144 593.758C690.698 585.153 695.236 580.169 703.758 578.821C695.151 578.268 690.172 573.726 688.822 565.21Z" fill="#EDF3FE"/>
        <path fill-rule="evenodd" clip-rule="evenodd" d="M789.822 545.21C789.268 553.814 784.73 558.796 776.209 560.143C784.817 560.697 789.797 565.241 791.144 573.758C791.698 565.153 796.236 560.169 804.758 558.821C796.151 558.268 791.172 553.726 789.822 545.21Z" fill="#EDF3FE"/>
        <path fill-rule="evenodd" clip-rule="evenodd" d="M69.5424 537C71.5024 547.333 67.6544 554.597 58 558.777C68.3376 556.816 75.6001 560.671 79.7786 570.322C77.8186 559.989 81.6651 552.722 91.321 548.541C80.9863 550.501 73.7253 546.65 69.5424 537Z" fill="#EDF3FE"/>
        <path fill-rule="evenodd" clip-rule="evenodd" d="M221.978 564.02C218.738 576.334 210.749 582.268 198.021 581.808C210.341 585.049 216.27 593.045 215.81 605.77C219.05 593.455 227.038 587.517 239.769 587.976C227.454 584.735 221.524 576.745 221.978 564.02Z" fill="#EDF3FE"/>
        <path d="M45 652H863V641H45V652Z" fill="#82AEF8"/>
        <rect x="45" y="652" width="818" height="248" fill="#DADADA"/>
        <rect x="45" y="652" width="818" height="36" fill="#96ECB6"/>
        <rect x="45" y="817" width="820" height="83" fill="#11893E"/>
        <rect x="45" y="817" width="820" height="21" fill="#0C622C"/>
        <rect x="45" y="697" width="818" height="80" fill="#808080"/>
        <rect x="45" y="687" width="818" height="10" fill="#808080"/>
        <rect x="45" y="677" width="91" height="20" fill="#FF9090"/>
        <rect x="136" y="677" width="91" height="20" fill="#FAFAFA"/>
        <rect x="227" y="677" width="91" height="20" fill="#FF9090"/>
        <rect x="318" y="677" width="91" height="20" fill="#FAFAFA"/>
        <rect x="409" y="677" width="90" height="20" fill="#FF9090"/>
        <rect x="499" y="677" width="91" height="20" fill="#FAFAFA"/>
        <rect x="590" y="677" width="91" height="20" fill="#FF9090"/>
        <rect x="681" y="677" width="91" height="20" fill="#FAFAFA"/>
        <rect x="772" y="677" width="91" height="20" fill="#FF9090"/>
        <rect x="45" y="777" width="91" height="40" fill="#FF5252"/>
        <rect x="136" y="777" width="91" height="40" fill="#FAFAFA"/>
        <rect x="227" y="777" width="91" height="40" fill="#FF5252"/>
        <rect x="318" y="777" width="91" height="40" fill="#FAFAFA"/>
        <rect x="409" y="777" width="90" height="40" fill="#FF5252"/>
        <rect x="499" y="777" width="91" height="40" fill="#FAFAFA"/>
        <rect x="590" y="777" width="91" height="40" fill="#FF5252"/>
        <rect x="681" y="777" width="91" height="40" fill="#FAFAFA"/>
        <rect x="772" y="777" width="91" height="40" fill="#FF5252"/>
        <rect x="267" y="496" width="11" height="181" fill="#EEEEEE"/>
        <rect x="629" y="496" width="11" height="181" fill="#EEEEEE"/>
        <rect x="448" y="496" width="11" height="181" fill="#EEEEEE"/>
        <rect x="267" y="496" width="11" height="72" fill="#B0B0B0"/>
        <rect x="629" y="496" width="11" height="72" fill="#B0B0B0"/>
        <rect x="448" y="496" width="11" height="72" fill="#B0B0B0"/>
        <path d="M512 496H640V559H512L521 527.5L512 496Z" fill="#FFC107"/>
        <path d="M331 496H459V559H331L340 527.5L331 496Z" fill="#F7A183"/>
        <path d="M150 496H278V559H150L159 527.5L150 496Z" fill="#FF7171"/>
        <path d="M379.757 509.74C376.997 509.74 375.337 511.48 375.337 513.9C375.337 516.24 376.797 517.36 379.337 518.2C381.077 518.78 381.817 519.32 381.817 520.26C381.817 521.2 381.157 521.86 379.977 521.86C378.577 521.86 377.837 521.1 377.777 519.72H375.017C375.077 522.38 376.737 524.26 379.937 524.26C382.577 524.26 384.577 522.72 384.577 520.02C384.577 517.92 383.517 516.7 380.557 515.68C378.857 515.08 378.097 514.74 378.097 513.66C378.097 512.7 378.697 512.16 379.677 512.16C380.657 512.16 381.357 512.78 381.397 513.92H384.157C384.057 511.14 382.357 509.74 379.757 509.74ZM389.374 524V510H386.634V524H389.374ZM397.402 510H392.162V524H397.402C401.822 524 404.642 521.14 404.642 517C404.642 512.86 401.822 510 397.402 510ZM394.902 512.56H397.402C400.202 512.56 401.802 514.18 401.802 517C401.802 519.82 400.182 521.44 397.402 521.44H394.902V512.56ZM414.851 512.56V510H406.791V524H414.851V521.44H409.531V518.08H414.131V515.54H409.531V512.56H414.851ZM366.455 546V532H363.715V537.48H357.695V532H354.955V546H357.695V540.04H363.715V546H366.455ZM380.412 540.38V532H377.672V540.38C377.672 542.48 376.752 543.7 374.752 543.7C372.732 543.7 371.792 542.48 371.792 540.38V532H369.052V540.38C369.052 544.1 371.112 546.26 374.752 546.26C378.372 546.26 380.412 544.1 380.412 540.38ZM387.12 531.74C384.36 531.74 382.7 533.48 382.7 535.9C382.7 538.24 384.16 539.36 386.7 540.2C388.44 540.78 389.18 541.32 389.18 542.26C389.18 543.2 388.52 543.86 387.34 543.86C385.94 543.86 385.2 543.1 385.14 541.72H382.38C382.44 544.38 384.1 546.26 387.3 546.26C389.94 546.26 391.94 544.72 391.94 542.02C391.94 539.92 390.88 538.7 387.92 537.68C386.22 537.08 385.46 536.74 385.46 535.66C385.46 534.7 386.06 534.16 387.04 534.16C388.02 534.16 388.72 534.78 388.76 535.92H391.52C391.42 533.14 389.72 531.74 387.12 531.74ZM404.599 534.56V532H392.739V534.56H397.299V546H400.039V534.56H404.599ZM408.925 543.44V532H406.185V546H414.765V543.44H408.925ZM424.655 534.56V532H416.595V546H424.655V543.44H419.335V540.08H423.935V537.54H419.335V534.56H424.655ZM430.968 531.74C428.208 531.74 426.548 533.48 426.548 535.9C426.548 538.24 428.008 539.36 430.548 540.2C432.288 540.78 433.028 541.32 433.028 542.26C433.028 543.2 432.368 543.86 431.188 543.86C429.788 543.86 429.048 543.1 428.988 541.72H426.228C426.288 544.38 427.948 546.26 431.148 546.26C433.788 546.26 435.788 544.72 435.788 542.02C435.788 539.92 434.728 538.7 431.768 537.68C430.068 537.08 429.308 536.74 429.308 535.66C429.308 534.7 429.908 534.16 430.888 534.16C431.868 534.16 432.568 534.78 432.608 535.92H435.368C435.268 533.14 433.568 531.74 430.968 531.74Z" fill="white"/>
        <path d="M549.228 509.74C545.128 509.74 542.228 512.8 542.228 516.98C542.228 521.18 545.128 524.26 549.248 524.26C552.828 524.26 554.948 522.4 555.688 519.36H552.808C552.348 520.72 551.208 521.7 549.248 521.7C546.748 521.7 545.068 519.7 545.068 516.98C545.068 514.28 546.748 512.3 549.228 512.3C551.108 512.3 552.128 513.12 552.648 514.5H555.648C554.888 511.7 552.768 509.74 549.228 509.74ZM567.435 524L564.415 518.26C565.935 517.56 566.835 516.18 566.835 514.46C566.835 511.8 564.935 510 561.915 510H557.615V524H560.355V518.74H561.595L564.335 524H567.435ZM560.355 512.56H561.915C563.215 512.56 564.055 513.2 564.055 514.46C564.055 515.7 563.215 516.34 561.915 516.34H560.355V512.56ZM577.218 512.56V510H569.158V524H577.218V521.44H571.898V518.08H576.498V515.54H571.898V512.56H577.218ZM584.71 510H579.47V524H584.71C589.13 524 591.95 521.14 591.95 517C591.95 512.86 589.13 510 584.71 510ZM582.21 512.56H584.71C587.51 512.56 589.11 514.18 589.11 517C589.11 519.82 587.49 521.44 584.71 521.44H582.21V512.56ZM596.839 524V510H594.099V524H596.839ZM610.287 512.56V510H598.427V512.56H602.987V524H605.727V512.56H610.287ZM542.778 532H538.338V546H543.418C546.338 546 548.158 544.36 548.158 541.88C548.158 540.36 547.358 539.24 546.158 538.72C546.938 538.1 547.378 537.22 547.378 536C547.378 533.52 545.618 532 542.778 532ZM541.078 534.56H542.778C543.898 534.56 544.598 535.1 544.598 536.2C544.598 537.14 543.918 537.74 542.817 537.74H541.078V534.56ZM541.078 540.12H543.418C544.618 540.12 545.338 540.72 545.338 541.78C545.338 542.86 544.618 543.44 543.418 543.44H541.078V540.12ZM561.412 540.38V532H558.672V540.38C558.672 542.48 557.752 543.7 555.752 543.7C553.732 543.7 552.792 542.48 552.792 540.38V532H550.052V540.38C550.052 544.1 552.112 546.26 555.752 546.26C559.372 546.26 561.412 544.1 561.412 540.38ZM566.8 546V532H564.06V546H566.8ZM572.308 543.44V532H569.568V546H578.148V543.44H572.308ZM585.218 532H579.978V546H585.218C589.638 546 592.458 543.14 592.458 539C592.458 534.86 589.638 532 585.218 532ZM582.718 534.56H585.218C588.018 534.56 589.618 536.18 589.618 539C589.618 541.82 587.998 543.44 585.218 543.44H582.718V534.56ZM602.667 534.56V532H594.607V546H602.667V543.44H597.347V540.08H601.947V537.54H597.347V534.56H602.667ZM614.74 546L611.72 540.26C613.24 539.56 614.14 538.18 614.14 536.46C614.14 533.8 612.24 532 609.22 532H604.92V546H607.66V540.74H608.9L611.64 546H614.74ZM607.66 534.56H609.22C610.52 534.56 611.36 535.2 611.36 536.46C611.36 537.7 610.52 538.34 609.22 538.34H607.66V534.56Z" fill="white"/>
        <path d="M196.997 524L191.557 510H188.557L183.137 524H186.097L187.257 520.9H192.857L194.017 524H196.997ZM189.797 514.1L190.057 513.32L190.317 514.1L191.977 518.5H188.137L189.797 514.1ZM208.973 518.38V510H206.233V518.38C206.233 520.48 205.313 521.7 203.313 521.7C201.293 521.7 200.353 520.48 200.353 518.38V510H197.613V518.38C197.613 522.1 199.673 524.26 203.313 524.26C206.933 524.26 208.973 522.1 208.973 518.38ZM222.281 512.56V510H210.421V512.56H214.981V524H217.721V512.56H222.281ZM229.861 509.74C225.601 509.74 222.601 512.8 222.601 516.98C222.601 521.18 225.601 524.26 229.861 524.26C234.101 524.26 237.101 521.18 237.101 516.98C237.101 512.8 234.101 509.74 229.861 509.74ZM229.861 512.3C232.521 512.3 234.261 514.28 234.261 516.98C234.261 519.7 232.521 521.7 229.861 521.7C227.181 521.7 225.441 519.7 225.441 516.98C225.441 514.28 227.181 512.3 229.861 512.3ZM244.657 519.96V517.66H238.357V519.96H244.657ZM180.778 532H176.338V546H181.418C184.338 546 186.158 544.36 186.158 541.88C186.158 540.36 185.358 539.24 184.158 538.72C184.938 538.1 185.378 537.22 185.378 536C185.378 533.52 183.618 532 180.778 532ZM179.078 534.56H180.778C181.898 534.56 182.598 535.1 182.598 536.2C182.598 537.14 181.918 537.74 180.817 537.74H179.078V534.56ZM179.078 540.12H181.418C182.618 540.12 183.338 540.72 183.338 541.78C183.338 542.86 182.618 543.44 181.418 543.44H179.078V540.12ZM199.412 540.38V532H196.672V540.38C196.672 542.48 195.752 543.7 193.752 543.7C191.732 543.7 190.792 542.48 190.792 540.38V532H188.052V540.38C188.052 544.1 190.112 546.26 193.752 546.26C197.372 546.26 199.412 544.1 199.412 540.38ZM207.3 532H202.06V546H207.3C211.72 546 214.54 543.14 214.54 539C214.54 534.86 211.72 532 207.3 532ZM204.8 534.56H207.3C210.1 534.56 211.7 536.18 211.7 539C211.7 541.82 210.08 543.44 207.3 543.44H204.8V534.56ZM223.165 531.74C219.065 531.74 216.165 534.8 216.165 538.98C216.165 543.18 219.065 546.26 223.225 546.26C227.065 546.26 229.685 543.86 229.685 539.66V538.44H223.405V541H226.765C226.605 542.76 225.265 543.7 223.225 543.7C220.685 543.7 219.005 541.7 219.005 538.98C219.005 536.28 220.685 534.3 223.105 534.3C225.045 534.3 226.065 535.12 226.585 536.5H229.585C228.825 533.7 226.705 531.74 223.165 531.74ZM239.944 534.56V532H231.884V546H239.944V543.44H234.624V540.08H239.224V537.54H234.624V534.56H239.944ZM252.857 534.56V532H240.997V534.56H245.557V546H248.297V534.56H252.857Z" fill="white"/>
        <rect x="448" y="708" width="11" height="56" rx="5.5" fill="#B0B0B0"/>
        <rect x="629" y="708" width="11" height="56" fill="white"/>
        <path opacity="0.8" d="M45 602H182L140 757H45V602Z" fill="white"/>
        <path d="M210.051 632.754C210.051 632.754 219.745 635.181 226.001 634.141C226.001 634.141 230.798 633.52 230.177 638.519C229.556 643.518 226.984 652.635 209.704 652.649C192.424 652.663 210.051 632.754 210.051 632.754Z" fill="#FF5252"/>
        <path d="M184.81 670.29C169.091 670.29 156.347 658.614 156.347 644.211C156.347 629.808 169.091 618.133 184.81 618.133C200.529 618.133 213.272 629.808 213.272 644.211C213.272 658.614 200.529 670.29 184.81 670.29Z" fill="#FFCC34"/>
        <path d="M165.897 663.687C165.897 663.687 152.562 674.653 143.835 674.653C134.921 674.653 127.841 660.682 118.493 664.973C106.921 670.275 102.225 730.249 162.603 730.249C222.981 730.249 217.968 689.332 217.968 689.332C217.968 689.332 216.711 663.687 186.067 663.687H165.897Z" fill="#FFCC34"/>
        <path d="M155.581 684.146C146.84 683.495 145.872 678.699 142.303 681.083C137.218 684.464 134.732 708.751 163.686 708.751C192.64 708.751 190.242 689.13 190.242 689.13C190.242 689.13 189.823 680.591 181.183 677.745C178.178 676.748 174.912 676.864 171.893 677.803C167.009 679.334 164.698 684.839 155.581 684.146Z" fill="#FF5252"/>
        <path d="M194.822 648.127C191.83 648.127 189.404 645.701 189.404 642.709C189.404 639.716 191.83 637.291 194.822 637.291C197.815 637.291 200.24 639.716 200.24 642.709C200.24 645.701 197.815 648.127 194.822 648.127Z" fill="#44271D"/>
        <path d="M181.518 602C161.999 602 146.175 617.824 146.175 637.344C146.175 639.431 146.356 641.477 146.703 643.465C147.937 650.529 154.458 654.936 161.484 656.366C171.252 658.353 180.467 651.099 180.83 641.139L180.987 636.812L214.95 627.472C210.647 612.807 197.576 602 181.518 602Z" fill="#0C622C"/>
        <path d="M158.379 634C160.007 624.839 166.735 617.456 175.501 614.934" stroke="#16B04F" stroke-width="8" stroke-linecap="round"/>
        <path d="M139.5 737.33H338.594V706.645L246.269 655.82L225.458 665.866L139.5 651C104.32 651 75.8018 679.519 75.8018 714.698V737.33H139.5Z" fill="#11893E"/>
        <rect x="64" y="716.086" width="64.5178" height="21.2437" rx="10.6218" fill="#C4C4C4"/>
        <rect x="311.781" y="716.086" width="64.5178" height="21.2437" rx="10.6218" fill="#C4C4C4"/>
        <path d="M237.892 690.648C235.591 688.971 232.797 688.111 229.594 688.111C225.832 688.111 223.252 688.756 221.425 689.337C217.233 690.648 218.694 696.925 223.596 695.786C227.809 694.818 233.399 694.26 233.399 699.01V699.311C232.066 698.924 229.293 698.301 226.068 698.624C220.457 699.161 216.824 702.386 216.824 706.857C216.824 712.188 220.479 715.649 226.133 715.649C230.196 715.649 232.517 713.908 233.657 712.812C233.85 713.349 234.173 713.844 234.581 714.252C235.355 715.026 236.365 715.434 237.462 715.434H237.612C239.848 715.434 241.675 713.607 241.675 711.371V699.806C241.675 699.72 241.675 699.634 241.675 699.526C241.697 697.871 241.74 693.464 237.892 690.648ZM233.377 705.03C233.377 710.641 225.015 710.963 224.993 706.9C224.972 703.396 228.777 702.923 233.377 704.277V705.03Z" fill="#1AD760"/>
        <path d="M202.076 688.541H194.423C192.145 688.541 190.296 690.39 190.296 692.669V711.135C190.296 713.414 192.145 715.262 194.423 715.262H202.291C205.903 715.262 209.278 713.844 211.815 711.264C214.351 708.684 215.706 705.288 215.641 701.676C215.512 694.432 209.429 688.541 202.076 688.541ZM200.486 709.007H198.314V694.775H200.486C205.194 694.775 207.601 697.957 207.601 701.891C207.601 705.825 205.151 709.007 200.486 709.007Z" fill="#1AD760"/>
        <path d="M260.55 690.841L255.541 704.707L250.532 690.841C249.951 689.208 248.382 688.111 246.641 688.111C243.631 688.111 241.632 691.228 242.9 693.959L251.779 713.22C252.445 714.682 253.928 715.628 255.541 715.628C257.153 715.628 258.615 714.682 259.303 713.22L268.181 693.959C269.45 691.228 267.45 688.111 264.441 688.111C262.678 688.111 261.13 689.208 260.55 690.841Z" fill="#1AD760"/>
        <path d="M281.94 709.007C279.661 709.007 276.695 707.373 276.308 704.686H289.593C290.797 704.686 291.979 704.234 292.818 703.374C293.656 702.515 294.064 701.375 293.978 700.171C293.978 700.064 293.957 699.956 293.957 699.892C293.054 693.163 287.529 688.111 281.123 688.111C273.964 688.111 268.16 694.281 268.16 701.87C268.16 709.458 273.964 715.628 281.123 715.628C285.272 715.628 288.325 714.36 290.431 712.962C292.345 711.694 292.366 708.878 290.474 707.566C289.335 706.771 287.809 706.793 286.669 707.609C285.337 708.62 284.025 709.007 281.94 709.007ZM281.016 694.561C285.251 694.561 286.024 698.516 286.024 699.569H276.308C276.308 696.925 278.522 694.561 281.016 694.561Z" fill="#1AD760"/>
        <rect x="64" y="751" width="312" height="12" rx="6" fill="#505050"/>
        <circle cx="330.566" cy="728.675" r="28.3249" fill="#282828"/>
        <circle cx="330.566" cy="728.675" r="9.44162" fill="#E7E7E7"/>
        <circle cx="139.533" cy="713.726" r="43.2741" fill="#282828"/>
        <circle cx="139.533" cy="713.726" r="23.5651" fill="#DADADA"/>
        <circle cx="139.534" cy="713.726" r="11.3033" fill="#808080"/>
        <rect x="772" y="697" width="30" height="27" fill="#505050"/>
        <rect x="802" y="697" width="31" height="27" fill="white"/>
        <rect x="833" y="697" width="30" height="27" fill="#505050"/>
        <rect x="772" y="724" width="30" height="26" fill="white"/>
        <rect x="802" y="724" width="31" height="26" fill="#505050"/>
        <rect x="833" y="724" width="30" height="26" fill="white"/>
        <rect x="772" y="750" width="30" height="27" fill="#505050"/>
        <rect x="802" y="750" width="31" height="27" fill="white"/>
        <rect x="833" y="750" width="30" height="27" fill="#505050"/>
        <path d="M736.269 692.271C721.239 675.687 709.849 688.384 701.427 694.776C698.739 696.741 696.126 696.762 692.649 696.568C691.904 694.84 691.969 692.152 692.952 690.414C686.765 689.334 679.477 693.545 679.477 693.545C678.732 691.018 679.585 687.466 680.622 683.99C665.355 685.134 661.738 694.765 653.392 694.765H651.146C642.714 688.362 631.323 675.676 616.294 692.26C609.61 699.634 608.542 711.316 624.316 719.9C618.82 740.317 615.462 784.541 615.462 784.541C615.462 784.541 629.153 805.984 676.281 805.984C723.41 805.984 737.1 784.541 737.1 784.541C737.1 784.541 733.742 740.317 728.247 719.9C744.021 711.327 742.963 699.645 736.269 692.271Z" fill="#9D7354"/>
        <path fill-rule="evenodd" clip-rule="evenodd" d="M636.818 702.161C637.844 701.146 637.423 699.418 636.051 698.976C634.054 698.328 631.301 698.015 629.087 699.872C625.265 703.078 626.399 706.209 627.695 708.045C628.375 708.995 629.746 709.103 630.577 708.282L636.818 702.161Z" fill="#493426"/>
        <path fill-rule="evenodd" clip-rule="evenodd" d="M716.296 702.161C715.271 701.146 715.692 699.418 717.063 698.976C719.06 698.328 721.814 698.015 724.027 699.872C727.849 703.078 726.715 706.209 725.42 708.045C724.74 708.995 723.368 709.103 722.537 708.282L716.296 702.161Z" fill="#493426"/>
        <path d="M694.27 782.122C694.27 796.363 686.216 798.523 676.293 798.523C666.36 798.523 658.316 796.223 658.316 782.122C658.316 766.467 666.371 754.914 676.293 754.914C686.216 754.914 694.27 766.467 694.27 782.122Z" fill="#EBBF8D"/>
        <path d="M687.65 767.665C687.65 769.199 684.962 771.606 682.198 773.679C678.7 776.303 673.895 776.303 670.386 773.679C667.622 771.617 664.934 769.209 664.934 767.665C664.934 764.502 670.019 761.943 676.292 761.943C682.565 761.943 687.65 764.502 687.65 767.665Z" fill="#493426"/>
        <path fill-rule="evenodd" clip-rule="evenodd" d="M676.306 790.712C666.944 790.712 665.338 782.788 665.338 782.788C665.338 781.818 666.129 781.026 667.1 781.026H685.512C686.483 781.026 687.274 781.818 687.274 782.788C687.274 782.788 685.548 790.712 676.306 790.712Z" fill="#493426"/>
        <path d="M682.447 766.661C682.447 766.974 681.81 767.32 680.946 767.665C677.956 768.831 674.619 768.831 671.639 767.665C670.776 767.33 670.139 766.974 670.139 766.661C670.139 765.7 672.892 764.912 676.293 764.912C679.683 764.912 682.447 765.7 682.447 766.661Z" fill="#EBBF8D"/>
        <path d="M664.082 719.149C663.401 720.531 661.739 721.114 660.346 720.434L659.752 720.143C655.617 718.124 652.129 718.037 647.703 719.829L647.098 720.078C645.673 720.661 644.042 719.97 643.459 718.534L642.963 717.314C642.38 715.889 643.071 714.258 644.507 713.675L645.111 713.427C651.298 710.922 656.912 711.084 662.764 713.934L663.358 714.226C664.74 714.906 665.323 716.569 664.643 717.962L664.082 719.149Z" fill="#493426"/>
        <path d="M688.794 719.149L688.222 717.973C687.542 716.591 688.125 714.917 689.507 714.237L690.101 713.945C695.953 711.095 701.567 710.933 707.754 713.438L708.358 713.686C709.783 714.269 710.474 715.889 709.902 717.325L709.405 718.545C708.822 719.97 707.203 720.661 705.767 720.089L705.162 719.84C700.736 718.048 697.248 718.145 693.113 720.154L692.519 720.445C691.137 721.114 689.474 720.531 688.794 719.149Z" fill="#493426"/>
        <path d="M610.53 908.317H742.143C752.886 908.317 751.85 885.622 751.839 885.622C751.677 880.677 751.331 875.905 750.932 871.607C750.673 868.8 750.381 866.187 750.101 863.866C750.057 863.51 750.014 863.164 749.971 862.819C749.215 856.87 748.535 853.091 748.535 853.091C748.524 852.918 748.513 852.724 748.503 852.54C747.542 835.567 743.018 814.697 740.232 803.09C738.915 797.638 737.986 794.226 737.986 794.226C737.986 794.226 718.811 813.822 676.336 813.822C657.431 813.844 638.343 808.543 623.961 800.531C620.593 798.664 617.483 796.569 614.698 794.226C614.698 794.226 605.585 827.588 604.171 852.54C604.167 852.601 604.164 852.664 604.16 852.726C604.153 852.851 604.146 852.976 604.138 853.091C604.138 853.091 603.458 856.87 602.702 862.819C602.659 863.153 602.616 863.499 602.573 863.866C602.292 866.187 602.011 868.8 601.741 871.607C601.331 875.905 600.996 880.677 600.835 885.622C600.835 885.622 599.787 908.317 610.53 908.317Z" fill="white"/>
        <path d="M722.592 851.074H695.814L699.851 840.702H726.63L722.592 851.074Z" fill="#DADADA"/>
        <path d="M751.85 885.621H600.693C600.855 880.676 601.19 875.904 601.6 871.607C601.87 868.8 602.151 866.187 602.432 863.866C602.475 863.499 602.518 863.153 602.561 862.818H749.982C750.025 863.164 750.068 863.509 750.111 863.866C750.392 866.187 750.684 868.8 750.943 871.607C751.342 875.904 751.688 880.687 751.85 885.621Z" fill="#282828"/>
        <path d="M742.141 908.316H676.334V885.621H751.837C751.847 885.621 752.884 908.316 742.141 908.316Z" fill="#1AD760"/>
        <path d="M676.216 885.621V908.316H610.409C599.666 908.316 600.713 885.621 600.713 885.621H676.216Z" fill="#1AD760"/>
        <path d="M658.564 743.178C658.564 746.352 656.75 748.922 654.526 748.922C652.291 748.922 650.488 746.352 650.488 743.178C650.488 740.003 652.302 737.434 654.526 737.434C656.761 737.434 658.564 740.003 658.564 743.178Z" fill="#493426"/>
        <path d="M701.957 743.178C701.957 746.352 700.143 748.922 697.919 748.922C695.695 748.922 693.881 746.352 693.881 743.178C693.881 740.003 695.695 737.434 697.919 737.434C700.143 737.434 701.957 740.003 701.957 743.178Z" fill="#493426"/>
        <path d="M665.581 733.622C663.638 732.24 656.976 732.122 650.876 732.122C644.786 732.122 638.114 732.24 636.181 733.622C635.123 734.378 635.08 736.559 635.08 741.029C635.08 742.335 635.102 743.545 635.166 744.678C635.253 745.985 635.415 747.183 635.728 748.252L666.661 738.157C666.629 736.807 666.553 735.782 666.369 735.026C666.208 734.357 665.959 733.892 665.581 733.622Z" fill="#1AD760"/>
        <path d="M716.609 733.816C716.544 733.752 716.49 733.665 716.414 733.611C714.471 732.229 707.809 732.111 701.709 732.111C695.62 732.111 688.947 732.229 687.014 733.611C685.956 734.367 685.902 736.548 685.902 741.018C685.902 741.785 685.978 742.53 686.086 743.253C686.356 744.991 686.939 746.589 687.792 748.004L717.494 738.308C717.429 735.89 717.246 734.497 716.609 733.816Z" fill="#1AD760"/>
        <path fill-rule="evenodd" clip-rule="evenodd" d="M733.279 730.307H721.446C721.014 729.768 720.496 729.249 719.837 728.785C717.958 727.457 715.324 726.798 711.318 726.475C708.738 726.259 705.574 726.205 701.687 726.205C691.862 726.205 686.669 726.582 683.57 728.785C681.907 729.951 681.011 731.484 680.547 733.277H672.028C671.564 731.484 670.668 729.962 669.038 728.785C665.939 726.582 660.713 726.205 650.888 726.205C641.063 726.205 635.848 726.582 632.738 728.785C632.091 729.249 631.572 729.768 631.13 730.307H619.296C618.184 730.307 617.277 731.204 617.277 732.316V734.216C617.277 735.328 618.173 736.235 619.296 736.235H629.143V741.018C629.143 746.999 629.791 751.739 632.954 755.302C636.301 759.081 642.013 760.83 650.888 760.83C663.456 760.83 672.633 752.506 672.633 741.018V739.193H679.975V741.018C679.975 752.506 689.12 760.83 701.687 760.83C710.584 760.83 716.274 759.092 719.621 755.302C722.698 751.847 723.378 747.269 723.432 741.536V736.235H733.279C734.391 736.235 735.298 735.339 735.298 734.216V732.316C735.287 731.204 734.391 730.307 733.279 730.307ZM666.661 738.146L666.673 738.142L666.673 738.114C666.641 736.775 666.565 735.749 666.371 734.982C666.209 734.335 665.96 733.87 665.583 733.6C663.65 732.218 656.988 732.078 650.888 732.078C644.799 732.078 638.126 732.208 636.172 733.6C635.103 734.335 635.081 736.537 635.081 740.996C635.081 742.303 635.114 743.534 635.168 744.646C635.189 745.002 635.222 745.347 635.276 745.704C635.308 746.06 635.362 746.384 635.416 746.708C635.416 746.794 635.416 746.848 635.438 746.902C635.475 747.12 635.527 747.342 635.578 747.562C635.616 747.725 635.654 747.887 635.686 748.047C635.704 748.093 635.712 748.131 635.719 748.163C635.724 748.19 635.73 748.214 635.739 748.238L666.661 738.146ZM687.785 748.013L717.483 738.319C717.483 738.319 717.483 738.319 717.483 738.319C717.483 737.895 717.483 737.492 717.462 737.142C717.462 736.786 717.429 736.462 717.375 736.159C717.375 735.997 717.352 735.854 717.328 735.711C717.313 735.617 717.297 735.524 717.289 735.425C717.235 735.123 717.159 734.885 717.073 734.637L717.065 734.621C716.982 734.444 716.908 734.287 716.825 734.151C716.803 734.043 716.717 733.935 716.609 733.849C716.592 733.832 716.575 733.812 716.557 733.79C716.518 733.744 716.474 733.691 716.414 733.654C715.702 733.136 714.374 732.812 712.657 732.596C709.666 732.186 705.585 732.132 701.698 732.132C695.63 732.132 688.936 732.262 687.004 733.654C685.946 734.389 685.892 736.591 685.892 741.05C685.892 741.45 685.913 741.86 685.946 742.27L685.958 742.404C685.985 742.703 686.011 742.993 686.086 743.274C686.14 743.706 686.248 744.138 686.356 744.549C686.431 744.98 686.572 745.391 686.734 745.769C687.002 746.552 687.377 747.304 687.785 748.013Z" fill="#282828"/>
        <path d="M681.268 823.669H671.314V908.327H681.268V823.669Z" fill="#DADADA"/>
        <path d="M745.455 810.82C745.455 810.82 725.049 830.416 676.334 830.416V822.61C726.388 822.61 744.462 801.146 744.462 801.146L745.455 810.82Z" fill="#DADADA"/>
        <path d="M607.213 810.82C607.213 810.82 627.618 830.416 676.334 830.416V822.61C626.279 822.61 608.206 801.146 608.206 801.146L607.213 810.82Z" fill="#DADADA"/>
        <path d="M737.984 794.236C737.984 794.236 719.791 813.833 676.334 813.833V806.027C720.979 806.027 737.098 784.562 737.098 784.562L737.984 794.236Z" fill="#DADADA"/>
        <path d="M614.685 794.236C614.685 794.236 632.878 813.833 676.335 813.833V806.027C631.69 806.027 615.57 784.562 615.57 784.562L614.685 794.236Z" fill="#DADADA"/>
        <path fill-rule="evenodd" clip-rule="evenodd" d="M681.851 805.875C688.621 805.875 694.106 811.359 694.106 818.129C694.106 824.899 688.621 830.384 681.851 830.384V822.524C684.28 822.524 686.246 820.558 686.246 818.129C686.246 815.7 684.28 813.735 681.851 813.735V805.875Z" fill="#DADADA"/>
        <path d="M676.334 663.454C643.511 663.454 645.692 683.644 645.692 694.905H676.334H706.975C706.975 683.655 709.167 663.454 676.334 663.454Z" fill="white"/>
        <path d="M706.976 694.905C706.976 694.905 695.985 688.146 676.335 688.146C656.695 688.146 645.693 694.905 645.693 694.905C645.693 694.905 644.786 706.393 651.988 708.304C660.42 710.539 662.752 702.636 676.345 702.636C690.241 702.636 692.249 710.528 700.681 708.304C707.883 706.393 706.976 694.905 706.976 694.905Z" fill="#282828"/>
        <path d="M781.151 827.804C780.579 828.527 779.996 829.24 779.402 829.941C768.897 842.628 757.679 850.607 751.298 854.569C751.287 854.569 751.287 854.569 751.287 854.569C750.682 854.947 750.11 855.282 749.603 855.562V855.573C747.346 856.901 746.018 857.549 746.018 857.549L745.1 850.423L743.06 834.735L737.834 794.355H737.92C744.701 794.355 748.912 790.738 752.971 786.408C767.601 770.829 764.761 748.004 761.814 735.955C760.583 730.923 759.341 727.771 759.341 727.771L791.063 696.2C794.215 703.218 796.817 709.912 798.944 716.304C799.355 717.46 799.711 718.615 800.078 719.759C800.078 719.759 800.121 719.846 800.154 720.018C816.694 773.571 798.728 805.767 781.151 827.804Z" fill="white"/>
        <path d="M781.15 827.804C780.578 828.527 779.995 829.24 779.401 829.942C768.896 842.628 757.678 850.607 751.297 854.569C751.286 854.569 751.286 854.569 751.286 854.569C750.681 854.947 750.109 855.282 749.602 855.563V855.573C749.019 855.919 749.019 855.919 749.019 855.919L748.284 849.074L746.881 846.623L759.351 833.105C759.351 833.105 809.989 802.647 794.344 729.131V720.828L798.954 716.304C799.365 717.46 799.721 718.615 800.088 719.759C800.088 719.759 800.131 719.846 800.163 720.019C816.694 773.571 798.727 805.767 781.15 827.804Z" fill="#DADADA"/>
        <path d="M785.101 735.89C767.794 745.715 762.287 736.775 761.812 735.955C760.581 730.923 759.34 727.771 759.34 727.771L791.061 696.2C794.786 704.492 797.755 712.331 800.077 719.759C800.077 719.759 800.12 719.846 800.152 720.018C800.4 721.152 797.528 728.829 785.101 735.89Z" fill="#282828"/>
        <path d="M737.984 794.237C737.984 794.237 747.982 785.977 755.594 783.3C773.657 831.853 749.008 855.92 749.008 855.92C749.008 855.92 735.296 824.976 737.984 794.237Z" fill="#282828"/>
        <path d="M571.551 827.804C572.123 828.527 572.706 829.24 573.3 829.941C583.805 842.628 595.023 850.607 601.404 854.569C601.415 854.569 601.415 854.569 601.415 854.569C602.02 854.947 602.592 855.282 603.099 855.562V855.573C605.356 856.901 606.684 857.549 606.684 857.549L607.602 850.423L609.642 834.735L614.868 794.355H614.782C608.001 794.355 603.79 790.738 599.731 786.408C585.101 770.829 587.941 748.004 590.888 735.955C592.119 730.923 593.361 727.771 593.361 727.771L561.629 696.2C558.476 703.218 555.874 709.912 553.747 716.304C553.337 717.46 552.98 718.615 552.613 719.759C552.613 719.759 552.57 719.846 552.538 720.018C536.008 773.571 553.974 805.767 571.551 827.804Z" fill="white"/>
        <path d="M603.692 855.919L604.405 849.074L604.74 845.446L593.36 833.116C593.36 833.116 542.722 802.658 558.367 729.142V720.839L553.757 716.315C553.347 717.47 552.99 718.626 552.623 719.77C552.623 719.77 552.58 719.857 552.548 720.029C536.018 773.593 553.984 805.789 571.55 827.815C572.122 828.538 572.705 829.251 573.299 829.952C583.805 842.639 595.023 850.618 601.404 854.58C601.414 854.58 601.414 854.58 601.414 854.58C602.019 854.947 603.185 855.627 603.692 855.919Z" fill="#DADADA"/>
        <path d="M567.6 735.89C584.908 745.715 590.414 736.775 590.889 735.955C592.12 730.923 593.362 727.771 593.362 727.771L561.63 696.2C557.905 704.492 554.936 712.331 552.614 719.759C552.614 719.759 552.571 719.846 552.539 720.018C552.301 721.152 555.173 728.829 567.6 735.89Z" fill="#282828"/>
        <path d="M614.716 794.237C614.716 794.237 604.718 785.977 597.106 783.3C579.043 831.853 603.692 855.92 603.692 855.92C603.692 855.92 617.404 824.976 614.716 794.237Z" fill="#282828"/>
        <rect x="567.232" y="580" width="217.055" height="117.965" rx="14.1558" fill="#282828"/>
        <path d="M671.754 598.076C669.268 596.264 666.248 595.335 662.786 595.335C658.721 595.335 655.933 596.032 653.958 596.659C649.428 598.076 651.008 604.86 656.305 603.629C660.858 602.583 666.898 601.979 666.898 607.114V607.439C665.458 607.021 662.461 606.347 658.976 606.696C652.913 607.276 648.986 610.761 648.986 615.594C648.986 621.355 652.936 625.096 659.046 625.096C663.437 625.096 665.946 623.214 667.177 622.029C667.386 622.61 667.735 623.144 668.176 623.585C669.013 624.422 670.105 624.863 671.289 624.863H671.452C673.868 624.863 675.843 622.888 675.843 620.472V607.973C675.843 607.88 675.843 607.787 675.843 607.671C675.866 605.882 675.913 601.12 671.754 598.076ZM666.875 613.619C666.875 619.682 657.838 620.031 657.815 615.64C657.791 611.853 661.904 611.342 666.875 612.806V613.619Z" fill="#505050"/>
        <path d="M633.05 595.8H624.779C622.316 595.8 620.318 597.798 620.318 600.26V620.217C620.318 622.68 622.316 624.678 624.779 624.678H633.282C637.185 624.678 640.832 623.144 643.574 620.356C646.315 617.568 647.779 613.898 647.709 609.995C647.57 602.165 640.995 595.8 633.05 595.8ZM631.33 617.917H628.984V602.537H631.33C636.418 602.537 639.02 605.976 639.02 610.227C639.02 614.479 636.372 617.917 631.33 617.917Z" fill="#505050"/>
        <path d="M696.241 598.285L690.828 613.27L685.414 598.285C684.787 596.52 683.091 595.335 681.209 595.335C677.957 595.335 675.796 598.704 677.167 601.654L686.762 622.47C687.482 624.05 689.085 625.072 690.828 625.072C692.57 625.072 694.15 624.05 694.893 622.47L704.488 601.654C705.859 598.704 703.698 595.335 700.446 595.335C698.541 595.335 696.868 596.52 696.241 598.285Z" fill="#505050"/>
        <path d="M719.359 617.917C716.896 617.917 713.69 616.151 713.272 613.247H727.629C728.93 613.247 730.208 612.759 731.114 611.83C732.02 610.901 732.462 609.669 732.369 608.368C732.369 608.252 732.346 608.136 732.346 608.066C731.37 600.795 725.399 595.335 718.476 595.335C710.74 595.335 704.467 602.003 704.467 610.204C704.467 618.405 710.74 625.072 718.476 625.072C722.96 625.072 726.259 623.702 728.535 622.192C730.603 620.821 730.626 617.777 728.582 616.36C727.351 615.501 725.701 615.524 724.47 616.407C723.029 617.499 721.612 617.917 719.359 617.917ZM718.36 602.305C722.936 602.305 723.773 606.579 723.773 607.718H713.272C713.272 604.86 715.665 602.305 718.36 602.305Z" fill="#505050"/>
        <rect x="579.029" y="641.343" width="23.5929" height="33.0301" fill="#505050"/>
        <rect x="663.963" y="641.341" width="23.5929" height="33.0301" fill="#505050"/>
        <rect x="692.275" y="641.341" width="23.5929" height="33.0301" fill="#505050"/>
        <rect x="720.588" y="641.341" width="23.5929" height="33.0301" fill="#505050"/>
        <rect x="748.898" y="641.341" width="23.5929" height="33.0301" fill="#505050"/>
        <rect x="630.932" y="674.372" width="23.5929" height="33.0301" transform="rotate(-180 630.932 674.372)" fill="#505050"/>
        <rect x="659.244" y="674.372" width="23.5929" height="33.0301" transform="rotate(-180 659.244 674.372)" fill="#505050"/>
        <rect x="579.029" y="646.061" width="4.71858" height="28.3115" fill="#1AD760"/>
        <rect x="583.748" y="641.342" width="14.1558" height="4.71858" fill="#1AD760"/>
        <rect x="583.748" y="659.037" width="14.1558" height="4.71858" fill="#1AD760"/>
        <rect x="597.904" y="646.061" width="4.71858" height="28.3115" fill="#1AD760"/>
        <rect x="630.936" y="669.653" width="4.71859" height="23.5929" transform="rotate(-180 630.936 669.653)" fill="#1AD760"/>
        <rect x="612.061" y="674.372" width="4.71859" height="33.0301" transform="rotate(-180 612.061 674.372)" fill="#1AD760"/>
        <rect x="612.061" y="646.06" width="4.71858" height="14.1558" transform="rotate(-90 612.061 646.06)" fill="#1AD760"/>
        <rect x="612.061" y="674.372" width="4.71858" height="14.1558" transform="rotate(-90 612.061 674.372)" fill="#1AD760"/>
        <rect x="659.244" y="664.935" width="4.71859" height="23.5929" transform="rotate(-180 659.244 664.935)" fill="#1AD760"/>
        <rect x="649.807" y="674.372" width="4.71858" height="4.71858" transform="rotate(-180 649.807 674.372)" fill="#1AD760"/>
        <rect x="645.088" y="669.653" width="4.71858" height="4.71858" transform="rotate(-180 645.088 669.653)" fill="#1AD760"/>
        <rect x="654.525" y="669.653" width="4.71858" height="4.71858" transform="rotate(-180 654.525 669.653)" fill="#1AD760"/>
        <rect x="640.369" y="664.935" width="4.71859" height="23.5929" transform="rotate(-180 640.369 664.935)" fill="#1AD760"/>
        <rect x="663.963" y="646.06" width="4.71858" height="28.3115" fill="#1AD760"/>
        <rect x="668.682" y="641.342" width="14.1558" height="4.71858" fill="#1AD760"/>
        <rect x="668.682" y="659.036" width="14.1558" height="4.71858" fill="#1AD760"/>
        <rect x="682.838" y="646.06" width="4.71858" height="28.3115" fill="#1AD760"/>
        <rect x="692.275" y="641.342" width="4.71858" height="33.0301" fill="#1AD760"/>
        <rect x="696.992" y="650.778" width="4.71858" height="4.71858" fill="#1AD760"/>
        <rect x="701.711" y="655.497" width="4.71858" height="4.71858" fill="#1AD760"/>
        <rect x="706.43" y="660.216" width="4.71858" height="4.71858" fill="#1AD760"/>
        <rect x="711.148" y="641.341" width="4.71858" height="33.0301" fill="#1AD760"/>
        <rect x="720.588" y="641.341" width="4.71858" height="33.0301" fill="#1AD760"/>
        <rect x="744.18" y="641.341" width="4.71858" height="23.5929" transform="rotate(90 744.18 641.341)" fill="#1AD760"/>
        <rect x="744.18" y="669.653" width="4.71858" height="23.5929" transform="rotate(90 744.18 669.653)" fill="#1AD760"/>
        <rect x="748.898" y="641.341" width="4.71858" height="33.0301" fill="#1AD760"/>
        <rect x="772.49" y="641.341" width="4.71858" height="23.5929" transform="rotate(90 772.49 641.341)" fill="#1AD760"/>
        <rect x="767.773" y="655.498" width="4.71858" height="18.8743" transform="rotate(90 767.773 655.498)" fill="#1AD760"/>
        <rect x="772.49" y="669.653" width="4.71858" height="23.5929" transform="rotate(90 772.49 669.653)" fill="#1AD760"/>
        <path d="M762.354 686.084C778.085 679.184 786.852 688.373 791.074 696.2C795.425 704.255 797.476 716.79 783.775 725.762C776.39 730.599 767.914 735.037 761.479 730.405C758.78 728.461 758.586 725.039 758.586 725.039C758.586 725.039 753.025 723.527 750.197 718.28C747.206 712.73 749.56 708.314 749.56 708.314C749.56 708.314 746.04 706.047 746.018 702.743C745.932 694.365 753.997 689.755 762.354 686.084Z" fill="#9D7354"/>
        <path d="M590.35 686.084C574.619 679.184 565.852 688.373 561.63 696.2C557.279 704.255 555.228 716.79 568.929 725.762C576.314 730.599 584.79 735.037 591.225 730.405C593.924 728.461 594.118 725.039 594.118 725.039C594.118 725.039 599.678 723.527 602.507 718.28C605.498 712.73 603.144 708.314 603.144 708.314C603.144 708.314 606.664 706.047 606.686 702.743C606.772 694.365 598.707 689.755 590.35 686.084Z" fill="#9D7354"/>
    </g>
</svg>
