<svg width="851" height="900" viewBox="0 0 851 900" fill="none" xmlns="http://www.w3.org/2000/svg">
    <rect x="33" width="818" height="900" fill="#DFE8F8"/>
    <path d="M33 716C33 716 474.967 719.368 851 898H33V716Z" fill="#C9DCFC"/>
    <path d="M219.972 454L296.853 434.619L410 454V900H33V575.119L128 594.5V701.86H219.972V454Z" fill="#C9DCFC"/>
    <path d="M632.5 687.582V579.5L582 544L479.5 557V900H851V513.901L754 533.802V687.582H632.5Z" fill="#C9DCFC"/>
    <path d="M149.355 349.781C150.488 353.826 151.563 357.837 152.587 361.849C155.665 373.715 158.495 385.615 161.185 397.552C166.46 421.393 171.234 445.268 175.622 469.252C184.29 517.175 191.473 565.384 196.955 613.842C202.441 662.304 206.226 711.006 207.641 760.033C208.137 779.09 208.314 798.184 207.96 817.309H171.197C172.047 798.429 172.367 779.478 172.367 760.53C172.295 712.743 169.82 664.82 165.643 616.961C161.505 569.102 155.665 521.356 148.343 473.855C144.664 450.086 140.596 426.392 135.957 402.867C133.662 391.107 131.216 379.384 128.53 367.763C127.432 363.06 126.289 358.355 125.102 353.726L68.541 450.397L68.5297 450.367C67.845 449.124 46.2105 409.074 70.7873 367.077C74.9608 359.942 79.7204 353.999 84.7563 349.05L0 371.215L0.0112876 371.188C0.402589 369.825 13.3946 326.188 60.4336 313.886C68.515 311.772 76.1593 310.945 83.2853 311.032L9.12335 267.535L9.14969 267.524C10.3913 266.839 50.3982 245.179 92.3465 269.784C106.623 278.156 116.121 288.885 122.44 299.474C122.76 287.113 125.797 273.054 134.189 258.706C158.762 216.712 204.236 216.015 205.655 216.004L205.685 216L162.582 289.67C168.244 286.616 174.624 284.023 181.801 282.145C228.84 269.846 261.487 301.549 262.496 302.547L262.518 302.562L179.349 324.313C186.236 326.162 193.375 329.032 200.587 333.261C242.535 357.863 243.231 403.39 243.239 404.81L243.242 404.84L149.355 349.781Z" fill="#C9DCFC"/>
    <path d="M653.128 436.688C652.166 440.126 651.253 443.534 650.382 446.945C647.768 457.028 645.365 467.141 643.079 477.285C638.598 497.546 634.542 517.835 630.816 538.217C623.452 578.942 617.35 619.911 612.694 661.091C608.034 702.274 604.819 743.662 603.617 785.326C603.195 801.521 603.045 817.748 603.345 834H634.574C633.852 817.956 633.58 801.85 633.58 785.748C633.641 745.138 635.744 704.413 639.292 663.742C642.808 623.071 647.768 582.496 653.988 542.129C657.113 521.929 660.569 501.794 664.509 481.802C666.459 471.808 668.536 461.846 670.818 451.97C671.751 447.974 672.722 443.975 673.731 440.041L721.777 522.194L721.786 522.168C722.368 521.112 740.746 487.077 719.869 451.387C716.324 445.324 712.28 440.274 708.003 436.067L780 454.903L779.99 454.881C779.658 453.722 768.622 416.64 728.664 406.184C721.799 404.388 715.305 403.685 709.252 403.76L772.25 366.795L772.228 366.786C771.173 366.203 737.189 347.796 701.555 368.707C689.428 375.821 681.36 384.939 675.992 393.938C675.719 383.433 673.14 371.486 666.011 359.292C645.137 323.605 606.509 323.013 605.304 323.003L605.278 323L641.893 385.606C637.083 383.01 631.663 380.806 625.566 379.211C585.609 368.759 557.876 395.701 557.019 396.549L557 396.562L627.65 415.046C621.8 416.617 615.735 419.056 609.609 422.65C573.975 443.557 573.384 482.246 573.378 483.453L573.374 483.479L653.128 436.688Z" fill="#C9DCFC"/>
    <path d="M307.716 727.973C307.716 727.973 231.001 773.5 247.5 833.5C263.999 893.5 359.367 871.853 359.367 871.853L307.716 727.973Z" fill="#282828"/>
    <path fill-rule="evenodd" clip-rule="evenodd" d="M310.371 701.725L307.714 727.972L356.87 770.804L424.564 774.276L487.125 770.804L541.412 727.972L538.755 701.725H310.371Z" fill="#9D7354"/>
    <path fill-rule="evenodd" clip-rule="evenodd" d="M537.191 528.463C508.968 497.331 487.585 521.154 471.761 533.174C466.709 536.858 461.814 536.912 455.292 536.53C453.888 533.294 454.015 528.248 455.85 524.984C444.242 522.953 430.552 530.868 430.552 530.868C429.143 526.126 430.759 519.451 432.71 512.936C404.051 515.088 397.243 533.174 381.584 533.174H377.368C361.544 521.154 340.156 497.331 311.931 528.463C299.381 542.308 297.376 564.238 326.996 580.351C316.682 618.687 310.371 701.726 310.371 701.726C310.371 701.726 336.086 741.991 424.562 741.991C513.041 741.991 538.755 701.726 538.755 701.726C538.755 701.726 532.447 618.687 522.135 580.351C551.746 564.238 549.751 542.308 537.191 528.463Z" fill="#9D7354"/>
    <path fill-rule="evenodd" clip-rule="evenodd" d="M350.451 547.02C352.383 545.124 351.593 541.871 349.019 541.038C345.257 539.822 340.106 539.231 335.941 542.722C328.755 548.74 330.894 554.629 333.327 558.061C334.596 559.846 337.18 560.046 338.744 558.51L350.451 547.02Z" fill="#493426"/>
    <path fill-rule="evenodd" clip-rule="evenodd" d="M499.672 547.02C497.741 545.124 498.53 541.871 501.104 541.038C504.866 539.822 510.018 539.231 514.184 542.722C521.369 548.74 519.23 554.629 516.797 558.061C515.527 559.846 512.943 560.046 511.379 558.51L499.672 547.02Z" fill="#493426"/>
    <path fill-rule="evenodd" clip-rule="evenodd" d="M458.327 697.164C458.327 723.905 443.21 727.964 424.564 727.964C405.916 727.964 390.801 723.651 390.801 697.164C390.801 667.774 405.916 646.081 424.564 646.081C443.21 646.081 458.327 667.774 458.327 697.164Z" fill="#EBBF8D"/>
    <path fill-rule="evenodd" clip-rule="evenodd" d="M373.023 631.151C372.458 631.151 371.881 631.036 371.33 630.791C369.215 629.853 368.263 627.38 369.2 625.265C371.445 620.205 376.941 616.934 383.199 616.934C387.835 616.934 392.279 618.83 395.094 622.005C396.628 623.736 396.467 626.381 394.736 627.915C393.005 629.448 390.36 629.288 388.826 627.559C387.578 626.148 385.474 625.307 383.199 625.307C380.337 625.307 377.73 626.685 376.851 628.661C376.161 630.223 374.63 631.151 373.023 631.151Z" fill="#493426"/>
    <path fill-rule="evenodd" clip-rule="evenodd" d="M476.664 631.151C475.06 631.151 473.526 630.223 472.836 628.661C471.958 626.685 469.348 625.307 466.488 625.307C464.248 625.307 462.091 626.169 460.863 627.557C459.33 629.288 456.685 629.448 454.951 627.915C453.222 626.384 453.06 623.736 454.593 622.005C457.408 618.83 461.853 616.934 466.488 616.934C472.744 616.934 478.242 620.205 480.489 625.265C481.424 627.378 480.473 629.851 478.36 630.791C477.809 631.036 477.232 631.151 476.664 631.151Z" fill="#493426"/>
    <path fill-rule="evenodd" clip-rule="evenodd" d="M401.64 579.115C400.373 581.715 397.235 582.796 394.635 581.529L393.53 580.99C385.766 577.209 379.211 577.037 370.906 580.399L369.766 580.86C367.083 581.946 364.028 580.653 362.942 577.97L362.018 575.69C360.933 573.007 362.228 569.952 364.909 568.866L366.051 568.405C377.671 563.701 388.202 564.002 399.195 569.358L400.302 569.896C402.905 571.165 403.986 574.3 402.719 576.903L401.64 579.115Z" fill="#493426"/>
    <path fill-rule="evenodd" clip-rule="evenodd" d="M448.051 579.115L446.973 576.903C445.705 574.303 446.786 571.165 449.389 569.898L450.496 569.359C461.489 564.005 472.021 563.703 483.64 568.407L484.78 568.867C487.463 569.955 488.759 573.01 487.673 575.69L486.749 577.973C485.663 580.653 482.608 581.949 479.926 580.863L478.786 580.401C470.478 577.04 463.927 577.21 456.161 580.992L455.057 581.532C452.454 582.799 449.319 581.716 448.051 579.115Z" fill="#493426"/>
    <path d="M570.761 905.62C566.884 931.462 513.231 924.871 433.904 926.31C430.821 926.367 427.721 926.402 424.564 926.402C421.408 926.402 418.306 926.367 415.225 926.31C335.897 924.871 282.242 931.462 278.367 905.62C276.448 892.959 287.356 822.655 289.902 805.437C292.098 790.56 295.256 775.666 298.283 762.966C299.352 758.481 300.424 754.274 301.402 750.434C304.704 737.774 307.344 729.155 307.677 728.083L307.714 727.973C307.714 727.973 333.478 749.513 390.568 756.175C400.866 757.392 412.179 758.113 424.564 758.132C505.498 757.984 541.415 727.973 541.415 727.973C541.415 727.973 553.524 766.788 559.227 805.437C561.773 822.655 572.681 892.959 570.761 905.62Z" fill="#282828"/>
    <path d="M404.455 605.818C400.802 603.218 388.294 602.997 376.84 602.997C365.401 602.997 352.875 603.218 349.241 605.818C347.248 607.239 347.175 611.335 347.175 619.727C347.175 622.172 347.208 624.457 347.347 626.582C347.509 629.043 347.823 631.283 348.404 633.297L406.478 614.338C406.417 611.799 406.276 609.875 405.934 608.464C405.628 607.196 405.169 606.327 404.455 605.818Z" fill="#FFD761"/>
    <path d="M500.263 606.195C500.14 606.066 500.029 605.92 499.89 605.818C496.237 603.218 483.727 602.997 472.273 602.997C460.834 602.997 448.308 603.218 444.674 605.818C442.683 607.239 442.591 611.335 442.591 619.727C442.591 621.174 442.733 622.563 442.942 623.923C443.449 627.187 444.544 630.186 446.146 632.845L501.916 614.64C501.815 610.087 501.464 607.463 500.263 606.195Z" fill="#FFD761"/>
    <path fill-rule="evenodd" clip-rule="evenodd" d="M509.352 599.619H531.581C533.666 599.619 535.364 601.299 535.364 603.402V606.964C535.364 609.046 533.666 610.744 531.581 610.744H513.079V619.728C513.079 630.982 511.861 639.837 505.92 646.552C499.629 653.637 488.949 656.937 472.273 656.937C448.621 656.937 431.464 641.295 431.464 619.728V616.315H417.666V619.728C417.666 641.295 400.49 656.937 376.841 656.937C360.183 656.937 349.501 653.637 343.209 646.552C337.25 639.837 336.035 630.982 336.035 619.728V610.744H317.549C315.464 610.744 313.768 609.046 313.768 606.964V603.402C313.768 601.299 315.464 599.619 317.549 599.619H339.78C340.59 598.569 341.568 597.61 342.785 596.762C348.596 592.59 358.412 591.872 376.841 591.872C395.289 591.872 405.102 592.59 410.913 596.762C414.012 598.955 415.673 601.779 416.577 605.173H432.533C433.438 601.779 435.117 598.955 438.198 596.762C444.028 592.59 453.825 591.872 472.273 591.872C490.718 591.872 500.515 592.59 506.344 596.762C507.562 597.61 508.54 598.569 509.352 599.619ZM349.242 605.818C352.877 603.218 365.403 602.994 376.841 602.994C388.296 602.994 400.804 603.218 404.457 605.818C405.171 606.327 405.63 607.196 405.936 608.464C406.278 609.875 406.421 611.797 406.48 614.338L348.406 633.297C347.824 631.283 347.511 629.043 347.349 626.582C347.21 624.457 347.177 622.172 347.177 619.727C347.177 611.335 347.25 607.239 349.242 605.818ZM442.59 619.727C442.59 611.335 442.682 607.239 444.675 605.818C448.309 603.218 460.836 602.994 472.274 602.994C483.729 602.994 496.236 603.218 499.889 605.818C501.411 606.914 501.811 609.622 501.917 614.64L446.147 632.845C446.145 632.847 446.142 632.849 446.14 632.851C446.138 632.852 446.135 632.853 446.133 632.854C443.855 629.086 442.59 624.65 442.59 619.727Z" fill="#282828"/>
    <path d="M525.917 586.845L514.545 605.179L521.133 625.726L502.798 614.354L482.252 620.942L493.624 602.605L487.036 582.061L505.373 593.43L525.917 586.845Z" fill="#FFD761"/>
    <path fill-rule="evenodd" clip-rule="evenodd" d="M445.908 670.03C445.908 672.92 440.85 677.443 435.657 681.325C429.078 686.243 420.052 686.243 413.473 681.325C408.281 677.443 403.224 672.92 403.224 670.03C403.224 664.095 412.78 659.285 424.565 659.285C436.351 659.285 445.908 664.095 445.908 670.03Z" fill="#493426"/>
    <path fill-rule="evenodd" clip-rule="evenodd" d="M436.128 668.152C436.128 668.736 434.933 669.398 433.313 670.027C427.7 672.213 421.437 672.213 415.824 670.027C414.201 669.398 413.009 668.736 413.009 668.152C413.009 666.336 418.184 664.866 424.567 664.866C430.953 664.866 436.128 666.336 436.128 668.152Z" fill="#EBBF8D"/>
    <path fill-rule="evenodd" clip-rule="evenodd" d="M424.568 713.359C406.964 713.359 403.927 698.444 403.927 698.444C403.927 696.612 405.414 695.123 407.249 695.123H441.884C443.718 695.123 445.205 696.612 445.205 698.444C445.205 698.444 441.947 713.359 424.568 713.359Z" fill="#493426"/>
    <path d="M343.43 792.984L356.873 770.807L319.821 774.879C313.36 775.591 307.716 770.534 307.716 764.035V727.973L384.052 755.329L424.567 841.457L348.443 808.662C342.361 806.042 339.996 798.649 343.43 792.984Z" fill="#505050"/>
    <path d="M505.701 792.984L492.258 770.807L529.31 774.879C535.771 775.591 541.414 770.534 541.414 764.035V727.973L465.078 755.329L424.567 841.457L500.688 808.662C506.773 806.042 509.135 798.649 505.701 792.984Z" fill="#505050"/>
    <path fill-rule="evenodd" clip-rule="evenodd" d="M384.054 755.327L424.568 841.455L465.08 755.327C465.08 755.327 443.235 758.13 424.566 758.13C405.896 758.13 384.054 755.327 384.054 755.327Z" fill="white"/>
    <path d="M351.646 842.403L318.957 905.424" stroke="#D0D2D3" stroke-width="7.4199"/>
    <path fill-rule="evenodd" clip-rule="evenodd" d="M358.002 863.647H345.009L347.546 840.267H355.465L358.002 863.647Z" fill="#A5A5A5"/>
    <path d="M497.483 842.403L530.172 905.424" stroke="#D0D2D3" stroke-width="7.4199"/>
    <path fill-rule="evenodd" clip-rule="evenodd" d="M491.132 863.647H504.125L501.588 840.267H493.669L491.132 863.647Z" fill="#A5A5A5"/>
    <path d="M541.413 727.971C541.413 727.971 648.349 719.188 648.507 797.133C648.663 873.24 565.821 879.716 565.821 879.716L541.413 727.971Z" fill="#282828"/>
    <path fill-rule="evenodd" clip-rule="evenodd" d="M366.417 798.055C366.417 794.444 363.489 791.516 359.878 791.516C356.267 791.516 353.339 794.444 353.339 798.055C353.339 801.666 356.267 804.591 359.878 804.591C363.489 804.591 366.417 801.666 366.417 798.055Z" fill="#D0D2D3"/>
    <path fill-rule="evenodd" clip-rule="evenodd" d="M505.344 812.452L500.94 802.295L509.405 798.623L513.81 808.78L505.344 812.452ZM488.413 819.796L484.006 809.639L492.474 805.967L496.878 816.126L488.413 819.796ZM471.475 827.141L467.07 816.984L475.536 813.312L479.94 823.471L471.475 827.141ZM454.546 834.485L450.139 824.328L458.607 820.656L463.012 830.815L454.546 834.485ZM437.615 841.832L433.21 831.673L441.676 828.003L446.08 838.16L437.615 841.832ZM421.783 848.698L417.186 838.622L427.479 834.16L431.976 844.277L421.783 848.698ZM429.947 866.583L426.115 858.188L436.192 853.587L440.024 861.982L429.947 866.583ZM437.614 883.374L433.782 874.979L443.854 870.381L447.686 878.773L437.614 883.374ZM445.278 900.163L441.446 891.768L451.522 887.17L455.355 895.563L445.278 900.163ZM452.942 916.953L449.11 908.56L459.184 903.96L463.017 912.353L452.942 916.953Z" fill="#D0D2D3"/>
    <path d="M636.562 844.348C589.754 850.394 573.749 819.415 568.665 795.507C563.417 770.909 567.685 736.284 610.733 723.236C633.956 716.185 659.694 711.038 673.085 728.208C678.705 735.408 676.576 744.606 676.576 744.606C676.576 744.606 690.061 752.883 693.484 768.902C697.101 785.848 687.46 795.656 687.46 795.656C687.46 795.656 694.966 804.366 692.495 813.096C686.229 835.173 661.419 841.132 636.562 844.348Z" fill="#9D7354"/>
    <path d="M669.413 788.683C660.668 790.543 652.236 785.774 650.588 778.026C648.941 770.279 654.697 762.476 663.443 760.616C672.189 758.756 680.621 763.525 682.268 771.273C683.916 779.02 678.159 786.823 669.413 788.683Z" fill="#493426"/>
    <path d="M667.524 799.537C660.066 799.003 653.642 803.902 653.167 810.497C652.692 817.093 658.337 822.889 665.772 823.421C673.229 823.955 679.653 819.056 680.128 812.461C680.627 805.867 674.982 800.071 667.524 799.537Z" fill="#493426"/>
    <path d="M630.175 824.601C641.193 822.251 646.269 802.269 641.513 779.968C636.758 757.668 623.971 741.495 612.953 743.845C601.936 746.194 596.859 766.177 601.615 788.477C606.371 810.777 619.158 826.95 630.175 824.601Z" fill="#493426"/>
    <path d="M657.299 751.507C650.711 755.037 642.852 753.187 639.715 747.352C636.578 741.517 639.369 733.933 645.958 730.402C652.546 726.872 660.405 728.722 663.542 734.557C666.657 740.368 663.864 747.975 657.299 751.507Z" fill="#493426"/>
    <path d="M613.36 882.657L535.72 874.826C523.771 873.62 514.984 862.878 516.189 850.929L536.588 648.706C537.792 636.771 548.549 627.986 560.483 629.189L638.123 637.021C650.058 638.225 658.843 648.982 657.639 660.916L637.241 863.14C636.05 875.09 625.295 883.861 613.36 882.657Z" fill="#B0B0B0"/>
    <path d="M645.046 669.932L547.157 660.058L528.813 841.915L626.702 851.789L645.046 669.932Z" fill="#0C622C"/>
    <mask id="mask0" mask-type="alpha" maskUnits="userSpaceOnUse" x="553" y="684" width="75" height="75">
        <circle cx="590.405" cy="721.335" r="36.976" transform="rotate(5.76 590.405 721.335)" fill="white"/>
    </mask>
    <g mask="url(#mask0)">
        <circle cx="590.405" cy="721.335" r="36.976" transform="rotate(5.76 590.405 721.335)" fill="white"/>
        <path d="M607.211 707.895C607.211 707.895 614.332 710.462 619.126 710.152C619.126 710.152 622.786 710.045 621.935 713.768C621.084 717.492 618.455 724.177 605.436 722.88C592.418 721.584 607.211 707.895 607.211 707.895Z" fill="#FF5252"/>
        <path d="M608.772 716.783C607.675 727.653 597.185 735.495 585.34 734.3C573.495 733.105 564.78 723.326 565.877 712.457C566.973 701.588 577.465 693.746 589.31 694.94C601.155 696.135 609.868 705.915 608.772 716.783Z" fill="#FFCC34"/>
        <path d="M571.59 727.885C571.59 727.885 560.707 735.149 554.135 734.486C547.417 733.808 543.151 722.728 535.781 725.255C526.655 728.381 518.556 773.276 564.044 777.864C609.53 782.452 608.874 751.199 608.874 751.199C608.874 751.199 609.884 731.748 586.786 729.418L571.59 727.885Z" fill="#FFCC34"/>
        <path d="M562.263 742.542C555.727 741.387 555.366 737.7 552.491 739.223C548.403 741.391 544.679 759.529 566.491 761.729C588.304 763.929 587.989 748.941 587.989 748.941C587.989 748.941 588.326 742.463 582.028 739.658C579.835 738.681 577.373 738.515 575.021 738.999C571.234 739.775 569.078 743.748 562.263 742.542Z" fill="#FF5252"/>
        <path d="M599.068 714.654C599.295 712.398 597.651 710.385 595.396 710.157C593.139 709.93 591.126 711.574 590.899 713.83C590.671 716.087 592.315 718.1 594.572 718.328C596.827 718.555 598.84 716.911 599.068 714.654Z" fill="#44271D"/>
    </g>
    <path d="M575.079 873.265C580.475 873.809 585.291 869.876 585.835 864.479C586.38 859.083 582.446 854.267 577.05 853.722C571.653 853.178 566.837 857.112 566.293 862.508C565.749 867.905 569.682 872.721 575.079 873.265Z" fill="#808080"/>
    <path d="M597.064 655.295C599.827 655.574 602.293 653.56 602.572 650.796C602.851 648.033 600.837 645.567 598.073 645.288C595.31 645.01 592.844 647.024 592.565 649.787C592.287 652.55 594.301 655.016 597.064 655.295Z" fill="#505050"/>
    <path d="M562.983 796.716L575.116 811.571L610.457 782.707" stroke="#1AD760" stroke-width="14.8138" stroke-miterlimit="10" stroke-linecap="round" stroke-linejoin="round"/>
    <path fill-rule="evenodd" clip-rule="evenodd" d="M351.381 870.785C317.291 864.994 312.71 839.855 314.258 822.016C315.853 803.659 326.257 780.307 359.231 780.377C377.007 780.415 396.154 782.318 401.858 797.224C404.253 803.482 400.795 809.464 400.795 809.464C400.795 809.464 408.475 818.157 407.438 830.107C406.34 842.752 397.487 847.566 397.487 847.566C397.487 847.566 400.889 855.277 397.285 860.866C388.166 875.008 369.499 873.861 351.381 870.785Z" fill="#9D7354"/>
    <path fill-rule="evenodd" clip-rule="evenodd" d="M328.241 790.469C335.993 778.648 334.517 751.411 350.903 754.199C372.373 757.851 356.643 789.904 356.643 789.904C356.643 789.904 324.665 795.924 328.241 790.469Z" fill="#9D7354"/>
    <path fill-rule="evenodd" clip-rule="evenodd" d="M399.221 810.214C399.221 810.214 421.445 815.544 421.06 795.524C420.547 768.871 378.065 782.316 360.66 781.52C358.088 793.257 399.221 810.214 399.221 810.214Z" fill="#9D7354"/>
</svg>
