<svg width="868" height="900" viewBox="0 0 868 900" fill="none" xmlns="http://www.w3.org/2000/svg">
<rect x="50" width="818" height="900" fill="#DFE8F8"/>
<mask id="mask0" mask-type="alpha" maskUnits="userSpaceOnUse" x="0" y="0" width="868" height="900">
<rect width="868" height="900" fill="#C4C4C4"/>
</mask>
<g mask="url(#mask0)">
<path d="M743.389 447.399H686.065C679.401 447.399 674 441.952 674 435.228V420.979C674 414.257 679.401 408.809 686.065 408.809H743.389C750.052 408.809 755.457 414.257 755.457 420.979V435.228C755.457 441.952 750.052 447.399 743.389 447.399Z" fill="#C9DCFC"/>
<path d="M816.035 431.772H774.332C768.9 431.772 764.496 427.328 764.496 421.848V402.001C764.496 396.522 768.9 392.08 774.332 392.08H816.035C821.468 392.08 825.872 396.522 825.872 402.001V421.848C825.872 427.328 821.468 431.772 816.035 431.772Z" fill="#C9DCFC"/>
<path d="M752.358 396.751H715.357C711.977 396.751 709.235 393.986 709.235 390.578V379.171C709.235 375.763 711.977 373 715.357 373H752.358C755.737 373 758.478 375.763 758.478 379.171V390.578C758.478 393.986 755.737 396.751 752.358 396.751Z" fill="#C9DCFC"/>
<path d="M102.93 354.952H47.6301C38.5697 354.952 31.2219 347.615 31.2219 338.564V322.388C31.2219 313.335 38.5697 306 47.6301 306H102.93C111.991 306 119.337 313.335 119.337 322.388V338.564C119.337 347.615 111.991 354.952 102.93 354.952Z" fill="#C9DCFC"/>
<path d="M179.247 359.091H135.398C131.393 359.091 128.148 355.849 128.148 351.849V342.837C128.148 338.837 131.393 335.594 135.398 335.594H179.247C183.253 335.594 186.499 338.837 186.499 342.837V351.849C186.499 355.849 183.253 359.091 179.247 359.091Z" fill="#C9DCFC"/>
<path d="M142.978 397.618H101.474C97.19 397.618 93.7175 394.148 93.7175 389.87V373.745C93.7175 369.464 97.19 365.998 101.474 365.998H142.978C147.262 365.998 150.734 369.464 150.734 373.745V389.87C150.734 394.148 147.262 397.618 142.978 397.618Z" fill="#C9DCFC"/>
<path d="M289.594 655.69H635.602V240H289.594V655.69Z" fill="#C9DCFC"/>
<path d="M318.428 655.69H609.171V268.834H318.428V655.69Z" fill="#82AEF8"/>
<path d="M289.594 501.909H635.602V473.075H289.594V501.909Z" fill="#C9DCFC"/>
<path d="M698.296 563.491C656.054 579.016 613.376 681.98 526.014 609.129C526.014 609.129 483.409 569.585 471.411 500.088H609.171C630.556 552.404 698.296 563.491 698.296 563.491Z" fill="white"/>
<path d="M414.541 268.834H609.171V473.075H467.87C417.672 400.27 414.541 268.834 414.541 268.834Z" fill="white"/>
<mask id="mask1" mask-type="alpha" maskUnits="userSpaceOnUse" x="260" y="314" width="489" height="362">
<path d="M748.266 518.073C748.266 639.993 656.649 675.728 508.229 675.728C359.809 675.728 283.357 675.728 263.853 587.441C250.502 527.008 274.27 464.824 321.179 415.071V367.547C320.03 342.453 318.782 316.401 321.179 314.172H563.728C677.966 314.172 748.266 396.153 748.266 518.073Z" fill="#F5F5F5"/>
</mask>
<g mask="url(#mask1)">
<path fill-rule="evenodd" clip-rule="evenodd" d="M564.129 360.001C537.871 331.038 517.98 353.203 503.259 364.384C498.558 367.812 494.005 367.862 487.936 367.506C486.63 364.494 486.751 359.804 488.456 356.764C477.656 354.877 464.922 362.239 464.922 362.239C463.613 357.827 465.116 351.616 466.928 345.556C440.267 347.559 433.936 364.384 419.365 364.384H415.445C400.724 353.203 380.826 331.038 354.57 360.001C342.892 372.881 341.03 393.284 368.584 408.273C358.989 443.936 353.118 521.188 353.118 521.188C353.118 521.188 377.04 558.648 459.35 558.648C541.659 558.648 565.585 521.188 565.585 521.188C565.585 521.188 559.717 443.936 550.123 408.273C577.669 393.284 575.813 372.881 564.129 360.001Z" fill="#9D7354"/>
<path fill-rule="evenodd" clip-rule="evenodd" d="M390.317 377.745C392.114 375.98 391.379 372.955 388.984 372.179C385.486 371.05 380.693 370.499 376.817 373.746C370.133 379.346 372.124 384.822 374.387 388.013C375.568 389.676 377.971 389.863 379.426 388.435L390.317 377.745Z" fill="#493426"/>
<path fill-rule="evenodd" clip-rule="evenodd" d="M527.705 377.745C525.908 375.98 526.643 372.955 529.038 372.179C532.536 371.05 537.329 370.499 541.205 373.746C547.889 379.346 545.898 384.822 543.635 388.013C542.456 389.676 540.051 389.863 538.598 388.435L527.705 377.745Z" fill="#493426"/>
<path fill-rule="evenodd" clip-rule="evenodd" d="M489.986 516.645C489.986 541.521 475.923 545.299 458.575 545.299C441.228 545.299 427.165 541.285 427.165 516.645C427.165 489.304 441.228 469.123 458.575 469.123C475.923 469.123 489.986 489.304 489.986 516.645Z" fill="#EBBF8D"/>
<path d="M596.711 670.572C590.927 683.89 578.895 689.004 546.99 690.309C546.666 690.326 546.305 690.343 545.962 690.343C545.962 690.343 544.845 690.429 542.854 690.566C542.631 690.583 542.408 690.6 542.169 690.617C541.91 690.635 541.672 690.635 541.397 690.652C537.501 690.909 531.374 691.235 524.132 691.407C523.566 691.407 523.016 691.424 522.448 691.441C520.219 691.493 517.969 691.51 515.738 691.51H401.285C389.049 691.424 378.733 690.772 374.633 690.48C374.461 690.48 374.288 690.463 374.135 690.446C373.208 690.394 372.709 690.343 372.709 690.343C372.503 690.343 372.316 690.326 372.11 690.326H372.058C339.862 689.056 327.78 683.959 321.979 670.572C311.869 647.317 329.719 597.015 347.465 556.959L348.064 555.483C331.127 548.103 341.13 518.344 353.111 520.747C353.111 520.747 396.598 556.29 459.345 556.29C521.882 556.29 565.577 520.747 565.577 520.747C577.539 518.344 587.544 548.103 570.605 555.483L571.208 556.959C588.952 597.015 606.802 647.317 596.711 670.572Z" fill="#282828"/>
<path fill-rule="evenodd" clip-rule="evenodd" d="M469.257 491.056C469.257 491.599 468.148 492.215 466.64 492.802C461.421 494.832 455.596 494.832 450.377 492.802C448.868 492.215 447.76 491.599 447.76 491.056C447.76 489.371 452.57 488.001 458.508 488.001C464.445 488.001 469.257 489.371 469.257 491.056Z" fill="#EBBF8D"/>
<path d="M569.646 557.033C569.646 557.033 679.294 549.729 689.591 598.913C699.888 648.096 675.054 692.201 540.436 692.201L569.646 557.033Z" fill="#282828"/>
<path fill-rule="evenodd" clip-rule="evenodd" d="M438.639 408.368C437.46 410.788 434.542 411.794 432.123 410.617L431.095 410.114C423.871 406.596 417.773 406.436 410.047 409.563L408.986 409.992C406.491 411.003 403.649 409.8 402.638 407.304L401.778 405.183C400.771 402.686 401.974 399.844 404.469 398.833L405.53 398.404C416.34 394.03 426.138 394.311 436.367 399.291L437.393 399.793C439.815 400.972 440.82 403.891 439.641 406.311L438.639 408.368Z" fill="#493426"/>
<path fill-rule="evenodd" clip-rule="evenodd" d="M480.147 408.367L479.145 406.309C477.966 403.889 478.97 400.97 481.393 399.793L482.421 399.291C492.647 394.311 502.446 394.03 513.257 398.404L514.317 398.833C516.813 399.844 518.016 402.684 517.007 405.181L516.148 407.303C515.138 409.798 512.296 411.003 509.8 409.992L508.74 409.563C501.011 406.436 494.915 406.596 487.692 410.114L486.664 410.615C484.244 411.794 481.326 410.787 480.147 408.367Z" fill="#493426"/>
<path fill-rule="evenodd" clip-rule="evenodd" d="M478.869 492.844C478.869 495.53 474.166 499.738 469.338 503.348C463.222 507.921 454.826 507.921 448.71 503.348C443.882 499.738 439.179 495.53 439.179 492.844C439.179 487.325 448.064 482.853 459.024 482.853C469.984 482.853 478.869 487.325 478.869 492.844Z" fill="#493426"/>
<path fill-rule="evenodd" clip-rule="evenodd" d="M469.257 491.056C469.257 491.599 468.148 492.216 466.64 492.802C461.421 494.832 455.596 494.832 450.377 492.802C448.868 492.216 447.76 491.599 447.76 491.056C447.76 489.371 452.57 488.001 458.506 488.001C464.445 488.001 469.257 489.371 469.257 491.056Z" fill="#EBBF8D"/>
<path fill-rule="evenodd" clip-rule="evenodd" d="M458.374 532.417C442.003 532.417 439.179 518.55 439.179 518.55C439.179 516.844 440.563 515.461 442.269 515.461H474.473C476.179 515.461 477.563 516.844 477.563 518.55C477.563 518.55 474.533 532.417 458.374 532.417Z" fill="#493426"/>
<path fill-rule="evenodd" clip-rule="evenodd" d="M427.559 448.27C427.559 453.813 424.398 458.308 420.499 458.308C416.598 458.308 413.437 453.813 413.437 448.27C413.437 442.726 416.598 438.231 420.499 438.231C424.398 438.231 427.559 442.726 427.559 448.27Z" fill="#493426"/>
<path fill-rule="evenodd" clip-rule="evenodd" d="M504.787 448.27C504.787 453.813 501.624 458.308 497.724 458.308C493.823 458.308 490.664 453.813 490.664 448.27C490.664 442.726 493.823 438.231 497.724 438.231C501.624 438.231 504.787 442.726 504.787 448.27Z" fill="#493426"/>
<path fill-rule="evenodd" clip-rule="evenodd" d="M538.903 426.224H559.741C561.694 426.224 563.285 427.801 563.285 429.772V433.108C563.285 435.061 561.694 436.651 559.741 436.651H542.395V445.073C542.395 455.622 541.255 463.922 535.687 470.216C529.792 476.854 519.777 479.951 504.147 479.951C481.98 479.951 465.899 465.287 465.899 445.073V441.875H452.962V445.073C452.962 465.287 436.866 479.951 414.699 479.951C399.082 479.951 389.072 476.854 383.175 470.216C377.588 463.922 376.451 455.622 376.451 445.073V436.651H359.122C357.169 436.651 355.579 435.061 355.579 433.108V429.772C355.579 427.801 357.169 426.224 359.122 426.224H379.958C380.719 425.24 381.636 424.339 382.778 423.546C388.225 419.638 397.424 418.964 414.699 418.964C431.989 418.964 441.188 419.638 446.635 423.546C449.541 425.602 451.095 428.249 451.944 431.43H466.901C467.748 428.249 469.323 425.602 472.208 423.546C477.673 419.638 486.854 418.964 504.147 418.964C521.439 418.964 530.621 419.638 536.085 423.546C537.227 424.339 538.144 425.24 538.903 426.224ZM414.698 469.524C392.064 469.524 387.814 463.086 387.055 451.497C386.922 449.504 386.89 447.364 386.89 445.073C386.89 437.205 386.962 433.367 388.83 432.033C392.233 429.596 403.976 429.391 414.698 429.391C425.436 429.391 437.16 429.596 440.582 432.033C441.251 432.511 441.683 433.326 441.969 434.515C442.483 436.646 442.521 440.021 442.521 445.073C442.521 459.476 431.089 469.524 414.698 469.524ZM504.147 469.524C487.771 469.524 476.324 459.476 476.324 445.073C476.324 437.205 476.412 433.367 478.281 432.033C481.685 429.596 493.427 429.391 504.147 429.391C514.887 429.391 526.609 429.596 530.033 432.033C531.882 433.367 531.97 437.205 531.97 445.073C531.97 460.687 530.673 469.524 504.147 469.524Z" fill="#282828"/>
</g>
<path d="M656.539 706.15H266.252C262.891 706.15 260.166 702.945 260.166 698.989V679.557H662.627V698.989C662.627 702.945 659.901 706.15 656.539 706.15Z" fill="#A6C5FA"/>
<path d="M662.672 683.541H260.413C254.884 683.541 250.401 679.059 250.401 673.529V661.888C250.401 656.359 254.884 651.876 260.413 651.876H662.672C668.201 651.876 672.683 656.359 672.683 661.888V673.529C672.683 679.059 668.201 683.541 662.672 683.541Z" fill="#C9DCFC"/>
<path d="M692.356 547.056L681.388 605.378C679.703 614.347 670.986 620.306 662.017 618.619L510.118 590.056C501.153 588.369 495.194 579.652 496.881 570.685L507.848 512.361C509.535 503.394 518.251 497.435 527.219 499.122L679.117 527.685C688.085 529.37 694.041 538.087 692.356 547.056Z" fill="#B0B0B0"/>
<path fill-rule="evenodd" clip-rule="evenodd" d="M532.734 509.134L669.327 534.819L655.501 608.342L518.908 582.657L532.734 509.134Z" fill="white"/>
<path fill-rule="evenodd" clip-rule="evenodd" d="M677.07 567.615C673.017 566.853 669.109 569.521 668.347 573.578C667.585 577.634 670.254 581.538 674.311 582.302C678.366 583.064 682.271 580.393 683.034 576.34C683.796 572.284 681.126 568.376 677.07 567.615Z" fill="#666666"/>
<path d="M516.579 540.093C514.5 539.701 512.499 541.069 512.11 543.148C511.718 545.226 513.086 547.227 515.164 547.618C517.241 548.008 519.242 546.64 519.632 544.562C520.025 542.485 518.657 540.484 516.579 540.093Z" fill="#505050"/>
<path d="M560.242 551.049L552.218 551.641L556.124 559.21L551.945 561.115L549.054 553.304L543.576 559.541L540.373 556.248L546.761 550.615L539.501 547.15L541.82 543.12L548.341 547.361L549.127 540.026L553.859 540.917L551.927 548.034L559.545 546.453L560.242 551.049Z" fill="#282828"/>
<path d="M589.418 556.198L581.395 556.79L585.301 564.359L581.122 566.264L578.23 558.453L572.754 564.69L569.551 561.397L575.939 555.764L568.678 552.299L570.996 548.269L577.518 552.508L578.304 545.175L583.036 546.066L581.105 553.183L588.723 551.602L589.418 556.198Z" fill="#282828"/>
<path d="M620.31 563.063L612.286 563.655L616.192 571.223L612.013 573.128L609.122 565.318L603.643 571.554L600.441 568.261L606.83 562.627L599.569 559.163L601.888 555.134L608.409 559.373L609.195 552.039L613.927 552.93L611.996 560.047L619.614 558.465L620.31 563.063Z" fill="#282828"/>
<path d="M649.487 568.21L641.463 568.803L645.37 576.371L641.191 578.276L638.299 570.466L632.821 576.702L629.618 573.409L636.006 567.775L628.746 564.311L631.065 560.28L637.587 564.521L638.373 557.187L643.104 558.078L641.172 565.193L648.79 563.613L649.487 568.21Z" fill="#282828"/>
<path fill-rule="evenodd" clip-rule="evenodd" d="M719.323 570.354C753.245 591.877 746.857 620.869 737.181 639.284C727.224 658.238 705.586 678.583 670.289 663.69C651.261 655.66 631.6 645.018 632.189 626.484C632.434 618.705 638.827 613.85 638.827 613.85C638.827 613.85 634.504 601.084 640.984 588.746C647.844 575.693 659.492 574.514 659.492 574.514C659.492 574.514 659.312 564.721 665.684 560.353C681.811 549.301 701.295 558.915 719.323 570.354Z" fill="#9D7354"/>
<path fill-rule="evenodd" clip-rule="evenodd" d="M355.095 673.303C317.387 666.898 312.319 639.09 314.031 619.357C315.796 599.051 327.305 573.22 363.779 573.297C383.442 573.34 404.622 575.444 410.931 591.934C413.58 598.855 409.755 605.473 409.755 605.473C409.755 605.473 418.25 615.089 417.104 628.307C415.889 642.294 406.096 647.62 406.096 647.62C406.096 647.62 409.86 656.149 405.873 662.331C395.785 677.974 375.137 676.706 355.095 673.303Z" fill="#9D7354"/>
<path fill-rule="evenodd" clip-rule="evenodd" d="M329.499 584.461C338.073 571.385 336.441 541.257 354.566 544.341C378.315 548.381 360.916 583.836 360.916 583.836C360.916 583.836 325.543 590.495 329.499 584.461Z" fill="#9D7354"/>
<path fill-rule="evenodd" clip-rule="evenodd" d="M408.014 606.302C408.014 606.302 432.597 612.199 432.171 590.053C431.603 560.57 384.612 575.443 365.359 574.562C362.514 587.545 408.014 606.302 408.014 606.302Z" fill="#9D7354"/>
</g>
</svg>
