<svg  opacity="0.2" width="1029" height="598" viewBox="0 0 1029 598" fill="none" xmlns="http://www.w3.org/2000/svg">
<path opacity="0.3" d="M-338.83 104.052L-327.588 146.601C-318.716 180.124 -301.812 210.982 -278.311 236.463L-8.79486 528.867C46.4826 588.84 131.165 611.882 209.154 588.177L742.62 426.07C798.091 409.212 844.272 370.409 870.483 318.639L1010.56 41.9314C1023.83 15.7074 1029.54 -11.5661 1028.96 -37.9839H886.823C880.451 -22.6919 870.886 -8.38503 857.982 3.88726L504.445 340.116C426.844 413.927 311.644 431.819 215.348 385.023L4.0607 282.355C-97.0421 233.234 -154.513 124.01 -137.786 12.7524L-130.157 -38H-327.088C-346.428 4.6785 -351.992 54.2521 -338.83 104.052Z" fill="#FFFFFF"/>
<path opacity="0.6" d="M4.07893 282.355L215.366 385.023C311.662 431.819 426.846 413.927 504.464 340.116L858.001 3.88727C870.905 -8.38502 880.469 -22.7081 886.841 -37.9839H485.688L417.2 116.502C401.215 152.543 369.859 179.446 331.824 189.716L245.868 212.936C185.945 229.132 122.925 200.874 95.0683 145.358L47.1623 49.8438C33.5163 22.651 29.8224 -8.41732 36.5809 -38H-130.155L-137.784 12.7362C-154.495 123.994 -97.04 233.218 4.07893 282.355Z" fill="#FFFFFF"/>
<path d="M47.1631 49.8438L95.069 145.358C122.926 200.874 185.945 229.132 245.868 212.936L331.825 189.716C369.859 179.446 401.216 152.543 417.201 116.502L485.689 -38H36.5817C29.8233 -8.41732 33.5171 22.6509 47.1631 49.8438Z" fill="#FFFFFF"/>
</svg>
