<svg width="163" height="206" viewBox="0 0 163 206" fill="none" xmlns="http://www.w3.org/2000/svg">
<rect width="179.886" height="112.614" rx="6.59212" transform="matrix(-0.308644 0.951178 -0.951175 -0.308651 162.637 34.7593)" fill="url(#paint0_linear)"/>
<mask id="mask0" mask-type="alpha" maskUnits="userSpaceOnUse" x="1" y="1" width="160" height="204">
<rect width="179.886" height="112.614" rx="6.59212" transform="matrix(-0.308644 0.951178 -0.951175 -0.308651 162.637 34.7593)" fill="#5F97F6"/>
</mask>
<g mask="url(#mask0)">
<path d="M64.979 135.686C62.0895 129.245 57.4353 131.943 54.2874 133.046C53.2853 133.373 52.5026 133.127 51.4823 132.728C51.4295 132.136 51.7058 131.336 52.1731 130.912C50.4265 129.99 47.8289 130.544 47.8289 130.544C47.8378 129.709 48.4433 128.728 49.095 127.789C44.4092 126.649 42.376 129.189 39.8749 128.378L39.2018 128.159C37.3016 125.418 35.1179 120.502 28.9973 124.018C26.2776 125.574 24.818 128.978 28.7073 133.093C25.0746 138.687 19.7528 151.648 19.7528 151.648C19.7528 151.648 21.7699 159.423 35.9046 164.009C50.0393 168.596 56.2368 163.487 56.2368 163.487C56.2368 163.487 59.5369 149.878 59.8832 143.209C65.4476 142.162 66.2647 138.55 64.979 135.686Z" fill="#9D7354"/>
<path fill-rule="evenodd" clip-rule="evenodd" d="M34.1874 128.978C34.5928 128.771 34.6394 128.21 34.2687 127.946C33.7367 127.553 32.9405 127.194 32.0936 127.537C30.6331 128.13 30.6716 129.183 30.8776 129.851C30.9845 130.199 31.3851 130.371 31.7195 130.201L34.1874 128.978Z" fill="#493426"/>
<path fill-rule="evenodd" clip-rule="evenodd" d="M58.0191 136.712C57.8126 136.306 58.1039 135.825 58.5592 135.829C59.2256 135.833 60.0763 135.999 60.5603 136.774C61.3945 138.112 60.7446 138.942 60.1857 139.362C59.8948 139.581 59.4694 139.485 59.299 139.15L58.0191 136.712Z" fill="#493426"/>
<path d="M43.6259 158.583C42.239 162.857 39.6108 162.724 36.6355 161.758C33.6601 160.793 31.4668 159.319 32.8413 155.083C34.3673 150.38 37.9101 147.695 40.8855 148.66C43.8608 149.626 45.1519 153.88 43.6259 158.583Z" fill="#EBBF8D"/>
<path d="M53.22 190.97C50.9414 193.355 48.1969 193.32 38.4372 190.153L18.5049 183.685C8.73753 180.515 6.50275 178.935 6.05839 175.667C5.44418 171.124 11.6817 163.235 16.9603 157.337C16.0078 156.494 15.9123 155.304 16.2652 154.216C16.8344 152.462 18.578 150.971 19.7631 151.643C19.7631 151.643 25.2449 160.178 36.0142 163.672C46.7835 167.167 56.2395 163.479 56.2395 163.479C57.5912 163.639 58.1294 165.862 57.5603 167.616C57.2098 168.696 56.4334 169.604 55.1652 169.734C55.975 177.608 56.3893 187.664 53.22 190.97Z" fill="#282828"/>
<path d="M43.0483 153.595C42.8991 154.054 41.8523 154.519 40.8249 154.871C39.521 155.32 38.0754 154.851 37.2836 153.722C36.6588 152.834 36.0817 151.85 36.2333 151.383C36.5415 150.433 38.3121 150.161 40.1937 150.772C42.0753 151.383 43.3564 152.645 43.0483 153.595Z" fill="#493426"/>
<path d="M41.5865 152.779C41.5567 152.871 41.3308 152.916 41.0385 152.931C40.0294 152.992 39.0274 152.667 38.2467 152.025C38.0189 151.841 37.8624 151.672 37.8922 151.58C37.9865 151.289 38.8895 151.32 39.9068 151.65C40.9292 151.991 41.6784 152.496 41.5865 152.779Z" fill="#EBBF8D"/>
<path d="M40.8725 136.753C40.5394 137.102 39.9774 137.115 39.6315 136.774L39.4829 136.633C38.4402 135.625 37.4023 135.255 35.9026 135.369L35.6942 135.386C35.2087 135.423 34.7863 135.058 34.7572 134.574L34.7312 134.159C34.6944 133.673 35.06 133.25 35.543 133.221L35.7514 133.204C37.8536 133.056 39.5214 133.648 40.9946 135.074L41.1432 135.216C41.4916 135.549 41.5035 136.111 41.1627 136.458L40.8725 136.753Z" fill="#493426"/>
<path d="M47.8879 139.056L47.8264 138.647C47.7617 138.168 48.094 137.717 48.5717 137.652L48.7749 137.625C50.8125 137.338 52.5024 137.836 54.1175 139.19L54.2762 139.326C54.6474 139.641 54.6973 140.19 54.3822 140.562L54.1176 140.883C53.8025 141.255 53.2535 141.305 52.8823 140.99L52.7236 140.854C51.5744 139.888 50.5191 139.571 49.0836 139.774L48.8804 139.801C48.4002 139.874 47.9526 139.534 47.8879 139.056Z" fill="#493426"/>
<path d="M60.367 146.821L56.818 145.669C56.7427 145.458 56.6317 145.253 56.4853 145.053C55.7684 144.084 54.2453 143.463 51.3006 142.507C48.3559 141.552 46.7506 141.158 45.6089 141.524C44.9974 141.715 44.5907 142.082 44.2689 142.579L41.7219 141.752C41.7531 141.162 41.632 140.623 41.2568 140.112C40.5399 139.142 39.0169 138.521 36.0721 137.566C33.1274 136.61 31.5221 136.216 30.3804 136.582C30.1445 136.658 29.9341 136.759 29.7494 136.885L26.1928 135.731C25.8563 135.622 25.5016 135.803 25.3922 136.14L25.2083 136.707C25.099 137.044 25.2797 137.399 25.6162 137.508L28.5686 138.466L28.1013 139.906C27.5173 141.706 27.2487 143.185 27.8568 144.568C28.491 146.027 30.0328 147.111 32.6868 147.972C36.4653 149.198 40.0162 147.582 41.1346 144.136L41.3111 143.592L43.5139 144.307L43.3374 144.85C42.219 148.297 44.1445 151.69 47.9229 152.916C50.5847 153.78 52.4618 153.805 53.8316 152.997C55.128 152.232 55.7867 150.88 56.3707 149.08L56.838 147.64L59.7904 148.598C60.1269 148.707 60.4816 148.526 60.591 148.189L60.7749 147.622C60.8842 147.285 60.7035 146.93 60.367 146.821ZM33.2659 146.188C28.7456 144.721 29.0134 143.14 29.8758 140.482C30.3108 139.142 30.5398 138.488 30.928 138.36C31.6435 138.135 33.6522 138.744 35.4802 139.338C37.3082 139.931 39.2921 140.617 39.7392 141.219C39.9782 141.551 39.7823 142.207 39.3448 143.555C38.5648 146.011 36.0577 147.094 33.2659 146.188ZM48.502 151.132C45.7103 150.226 44.3166 147.877 45.1119 145.426C45.5469 144.086 45.7759 143.432 46.1641 143.304C46.8796 143.079 48.8883 143.689 50.7163 144.282C52.5443 144.875 54.5282 145.561 54.9753 146.163C55.2143 146.495 55.0184 147.151 54.581 148.499C53.7338 151.162 53.0224 152.599 48.502 151.132Z" fill="#282828"/>
<path d="M33.3884 143.585C33.2966 143.556 33.2098 143.511 33.1406 143.437C32.8538 143.175 32.8275 142.735 33.0899 142.447C33.7128 141.752 34.7614 141.517 35.7557 141.839C36.4976 142.08 37.1095 142.617 37.3891 143.267C37.5444 143.622 37.3848 144.036 37.0299 144.191C36.675 144.347 36.2618 144.188 36.1065 143.832C35.9797 143.546 35.6879 143.299 35.3284 143.182C34.8695 143.033 34.3844 143.121 34.1372 143.388C33.9404 143.604 33.6485 143.67 33.3884 143.585Z" fill="#493426"/>
<path d="M49.9359 148.955C49.6758 148.871 49.4859 148.649 49.4532 148.359C49.4175 148 49.0689 147.641 48.6099 147.492C48.2504 147.376 47.8615 147.402 47.5982 147.562C47.264 147.758 46.8334 147.652 46.64 147.31C46.4442 146.976 46.558 146.547 46.8922 146.351C47.5075 145.992 48.3182 145.916 49.0525 146.154C50.0545 146.479 50.7574 147.283 50.8535 148.212C50.8971 148.598 50.6149 148.947 50.2311 148.983C50.1244 149 50.0277 148.985 49.9359 148.955Z" fill="#493426"/>
<path fill-rule="evenodd" clip-rule="evenodd" d="M37.3941 159.422C34.5871 158.511 34.8705 155.97 34.8705 155.97C34.9649 155.679 35.2791 155.518 35.5697 155.613L41.0997 157.407C41.3904 157.501 41.5504 157.816 41.456 158.107C41.456 158.107 40.1629 160.32 37.3941 159.422Z" fill="#493426"/>
</g>
<path d="M105.52 188.522L105.63 188.184L105.542 188.155L105.364 188.354L105.338 188.089L105.249 188.06L105.14 188.399L105.202 188.419L105.285 188.164L105.309 188.415L105.374 188.436L105.541 188.246L105.458 188.502L105.52 188.522ZM104.96 188.341L105.051 188.06L105.165 188.097L105.183 188.04L104.895 187.946L104.876 188.003L104.989 188.04L104.898 188.32L104.96 188.341Z" fill="#F79410"/>
<path d="M93.3057 192.015L85.6742 189.539L90.1309 175.804L97.7624 178.281L93.3057 192.015Z" fill="#FF5F00"/>
<path d="M88.3892 182.831C89.2932 180.045 91.4012 177.986 93.9487 177.044C92.8448 175.394 91.1991 174.088 89.1645 173.428C84.3477 171.865 79.1741 174.508 77.6087 179.333C76.0434 184.157 78.679 189.334 83.4958 190.897C85.5305 191.558 87.6291 191.467 89.4921 190.779C87.9825 188.521 87.4851 185.617 88.3892 182.831Z" fill="#EB001B"/>
<path d="M105.825 188.489C104.26 193.313 99.0865 195.956 94.2697 194.393C92.235 193.733 90.5894 192.428 89.4849 190.776C92.033 189.836 94.1409 187.776 95.045 184.99C95.949 182.204 95.4517 179.3 93.9416 177.042C95.805 176.354 97.9037 176.263 99.9384 176.924C104.755 178.487 107.391 183.664 105.825 188.489Z" fill="#F79E1B"/>
<path d="M90.826 163.474C91.0418 163.544 91.2173 163.644 91.347 163.772C91.4768 163.899 91.5699 164.046 91.641 164.204L92.1552 162.619L93.0183 162.899L91.5656 167.376L90.7136 167.1L90.8304 166.739C90.6822 166.838 90.5152 166.9 90.3351 166.928C90.155 166.955 89.947 166.937 89.7257 166.865C89.5044 166.793 89.3123 166.688 89.1529 166.538C88.988 166.387 88.8653 166.218 88.77 166.022C88.6802 165.827 88.6289 165.609 88.618 165.379C88.6088 165.143 88.642 164.909 88.7211 164.665C88.7984 164.427 88.9109 164.212 89.0548 164.032C89.1988 163.852 89.3688 163.705 89.5557 163.601C89.7481 163.498 89.9481 163.428 90.1687 163.408C90.3856 163.38 90.6047 163.402 90.826 163.474ZM90.7239 164.335C90.5967 164.294 90.4788 164.28 90.3593 164.29C90.2436 164.308 90.1353 164.34 90.0364 164.4C89.9375 164.459 89.8516 164.536 89.7787 164.628C89.704 164.727 89.6515 164.832 89.6119 164.954C89.5705 165.081 89.5512 165.198 89.554 165.321C89.5585 165.439 89.5833 165.551 89.6283 165.657C89.675 165.758 89.742 165.853 89.8272 165.93C89.9179 166.009 90.0196 166.072 90.1468 166.113C90.2686 166.153 90.3919 166.168 90.5059 166.156C90.6254 166.146 90.7355 166.108 90.8326 166.054C90.9315 165.995 91.0174 165.918 91.0958 165.827C91.1705 165.729 91.2249 165.618 91.2662 165.491C91.3076 165.363 91.3232 165.24 91.3204 165.116C91.3176 164.993 91.2929 164.881 91.2406 164.778C91.1994 164.679 91.1306 164.589 91.0399 164.511C90.9547 164.434 90.8512 164.376 90.7239 164.335ZM94.9645 164.817C95.1969 164.892 95.3945 164.999 95.5612 165.145C95.7279 165.291 95.8506 165.46 95.9422 165.649C96.0319 165.843 96.0795 166.054 96.0887 166.29C96.0978 166.526 96.0628 166.765 95.9819 167.015C95.9658 167.065 95.9496 167.115 95.9261 167.168C95.9026 167.222 95.8882 167.266 95.8701 167.303L93.585 166.562C93.5676 166.691 93.574 166.803 93.5968 166.902C93.6196 167.002 93.6589 167.088 93.711 167.172C93.765 167.251 93.8354 167.316 93.9149 167.373C93.9945 167.429 94.0905 167.473 94.1901 167.505C94.3284 167.55 94.4812 167.569 94.6413 167.566C94.8031 167.557 94.9537 167.526 95.1078 167.466L95.4352 168.191C95.1987 168.298 94.9526 168.359 94.6951 168.361C94.4431 168.365 94.176 168.321 93.9049 168.233C93.6559 168.152 93.4472 168.042 93.2694 167.892C93.0935 167.737 92.9542 167.563 92.8516 167.371C92.7562 167.175 92.6976 166.96 92.6811 166.728C92.6664 166.49 92.7014 166.25 92.7841 165.996C92.8668 165.741 92.9793 165.526 93.1306 165.342C93.2764 165.157 93.4445 165.016 93.6369 164.913C93.8293 164.81 94.0386 164.749 94.2647 164.731C94.4909 164.712 94.7211 164.738 94.9645 164.817ZM94.7163 165.563C94.5115 165.497 94.3276 165.498 94.1736 165.577C94.0142 165.654 93.8864 165.784 93.7811 165.976L95.203 166.438C95.2326 166.214 95.2 166.032 95.1197 165.884C95.0413 165.73 94.9044 165.624 94.7163 165.563ZM99.0366 166.138C99.2579 166.21 99.4483 166.321 99.615 166.467C99.7743 166.616 99.9025 166.787 99.9978 166.983C100.088 167.177 100.139 167.396 100.15 167.626C100.161 167.856 100.131 168.098 100.054 168.336C99.975 168.58 99.8643 168.789 99.7185 168.974C99.5746 169.154 99.4046 169.301 99.2177 169.406C99.0309 169.511 98.8253 169.579 98.6102 169.601C98.3934 169.628 98.1705 169.599 97.9492 169.527C97.7279 169.455 97.5468 169.354 97.4189 169.22C97.2909 169.087 97.1923 168.939 97.1285 168.777L97.0135 169.132L96.167 168.857L97.616 164.391L98.4791 164.671L97.9632 166.261C98.1096 166.168 98.2748 166.111 98.4493 166.082C98.6202 166.046 98.8153 166.066 99.0366 166.138ZM98.6137 166.895C98.492 166.856 98.3686 166.84 98.2546 166.852C98.1406 166.864 98.0323 166.896 97.9353 166.951C97.8382 167.005 97.7523 167.081 97.672 167.177C97.5974 167.276 97.5375 167.385 97.4961 167.512C97.4548 167.64 97.4336 167.761 97.4419 167.887C97.4447 168.01 97.4695 168.122 97.5217 168.225C97.5685 168.326 97.6355 168.421 97.7207 168.498C97.8059 168.574 97.9149 168.634 98.0366 168.674C98.1638 168.715 98.2872 168.73 98.403 168.713C98.517 168.701 98.6271 168.663 98.7242 168.609C98.8213 168.555 98.9071 168.478 98.9818 168.38C99.0547 168.288 99.1091 168.177 99.1504 168.049C99.19 167.927 99.2111 167.805 99.2066 167.688C99.2038 167.564 99.179 167.452 99.1323 167.351C99.0855 167.25 99.0186 167.155 98.9334 167.078C98.8499 166.996 98.741 166.936 98.6137 166.895ZM101.073 170.455L100.204 170.173L101.249 166.954L102.117 167.236L101.073 170.455ZM103.903 168.667L103.522 169.841C103.49 169.941 103.474 170.028 103.478 170.109C103.483 170.19 103.498 170.256 103.528 170.315C103.558 170.373 103.597 170.423 103.652 170.459C103.708 170.495 103.765 170.526 103.831 170.548C103.936 170.582 104.049 170.594 104.168 170.584C104.288 170.573 104.398 170.554 104.503 170.533L104.604 171.313C104.43 171.361 104.248 171.393 104.055 171.404C103.862 171.415 103.652 171.384 103.425 171.31C103.027 171.181 102.758 170.971 102.631 170.685C102.504 170.399 102.501 170.049 102.638 169.628L103.04 168.387L102.421 168.186L102.671 167.415L103.29 167.616L103.601 166.658L104.47 166.94L104.159 167.898L105.326 168.277L105.076 169.047L103.903 168.667ZM102.187 165.513C102.265 165.538 102.331 165.578 102.388 165.628C102.446 165.677 102.494 165.735 102.528 165.801C102.561 165.867 102.58 165.941 102.586 166.016C102.592 166.092 102.584 166.175 102.559 166.252C102.534 166.33 102.494 166.397 102.444 166.454C102.395 166.512 102.337 166.56 102.271 166.594C102.205 166.627 102.131 166.646 102.056 166.653C101.986 166.66 101.905 166.646 101.827 166.621C101.75 166.596 101.683 166.556 101.626 166.507C101.569 166.458 101.52 166.399 101.487 166.333C101.453 166.267 101.434 166.194 101.428 166.118C101.422 166.043 101.434 165.967 101.46 165.889C101.485 165.812 101.519 165.743 101.57 165.68C101.619 165.623 101.678 165.575 101.744 165.541C101.81 165.507 101.883 165.488 101.959 165.482C102.032 165.481 102.11 165.488 102.187 165.513Z" fill="#282828"/>
<path d="M70.9266 22.0889L70.9915 21.8889C69.877 21.1331 68.8234 20.929 68.5282 21.8585C68.186 22.9329 70.445 23.5731 70.9266 22.0889ZM82.4583 25.7347C82.3263 26.4769 82.9802 27.1633 83.5852 27.3596C84.1381 27.539 84.5193 27.5473 84.9677 27.4077C85.3393 27.288 85.7464 27.4137 85.9846 27.7249C86.3754 28.2362 86.1288 28.9764 85.5074 29.1464C84.8292 29.3332 83.9067 29.4055 82.801 29.0467C80.8963 28.4286 79.8801 26.2951 80.531 24.2891C81.1819 22.2832 83.2601 21.1537 85.1619 21.7708C86.8668 22.3241 87.9028 24.1405 87.5664 25.9954C87.5637 26.0137 87.5581 26.0407 87.5487 26.0697C87.4665 26.3923 87.2596 26.6551 86.9643 26.8157C86.67 26.9733 86.313 26.9888 85.9946 26.8855L82.4573 25.7376L82.4583 25.7347ZM85.4854 25.2208C85.5766 24.9396 85.7126 23.8303 84.5808 23.463C83.915 23.247 83.1242 23.6824 82.8975 24.381L85.4854 25.2208ZM71.3697 17.2921C72.2236 17.5692 72.8942 18.0367 73.3639 18.6794C74.1498 19.7578 73.7582 20.9155 73.6103 21.3513C73.6019 21.3774 73.5934 21.4035 73.5868 21.4238L72.5945 24.482C72.4026 25.0734 71.7592 25.3996 71.1629 25.2061L71.1224 25.193C70.8329 25.0991 70.5975 24.8977 70.4578 24.6281C70.3836 24.4823 70.341 24.3275 70.335 24.1685C69.9332 24.3617 69.1651 24.6187 68.0825 24.2674C66.5743 23.7781 65.8951 22.5484 66.3532 21.1367C66.736 19.9569 67.9832 19.4164 69.5278 19.7639C70.411 19.9607 71.1013 20.3674 71.4215 20.5834L71.4479 20.5023C71.8542 19.25 70.3164 18.9112 69.1096 18.8047C67.7063 18.6826 67.8515 16.8938 69.0876 16.9104C69.6208 16.9137 70.3652 16.9662 71.3697 17.2921ZM61.9533 14.2366L64.0317 14.911C66.029 15.5591 67.1758 17.6453 66.5887 19.5631C66.2975 20.5195 65.6354 21.2979 64.7302 21.7507C63.8241 22.2064 62.7851 22.2825 61.8067 21.9651L59.6705 21.2719C59.0539 21.0718 58.7111 20.4223 58.9049 19.8251L60.4842 14.9581C60.678 14.361 61.3396 14.0374 61.9533 14.2366ZM61.2661 19.973L61.8595 20.1655C63.1245 20.576 64.0631 19.9514 64.3989 18.9166C64.7347 17.8817 64.3532 16.8288 63.0767 16.4145L62.4833 16.222L61.2661 19.973ZM76.8542 23.9162L79.366 20.6815C79.6624 20.3003 80.1676 20.1438 80.6249 20.2922C81.4209 20.5505 81.6797 21.5476 81.1126 22.1614L77.1124 26.4927C76.8078 26.82 76.3419 26.9444 75.9164 26.8063C75.4909 26.6682 75.1839 26.2931 75.1324 25.8502L74.4375 19.9953C74.3388 19.1655 75.1337 18.5103 75.9298 18.7686C76.39 18.918 76.705 19.3374 76.7203 19.8229L76.8542 23.9162Z" fill="black"/>
<path d="M90.8139 23.8284C90.5138 23.731 90.2227 23.7567 89.9406 23.9055C89.6636 24.0507 89.4778 24.2692 89.3831 24.5611C89.2849 24.8636 89.3073 25.1549 89.4502 25.4351C89.5919 25.7148 89.8116 25.903 90.1094 25.9996C90.406 26.0959 90.6939 26.0718 90.9733 25.9273C91.253 25.7817 91.4414 25.5594 91.5384 25.2605C91.6327 24.9698 91.61 24.6836 91.4702 24.4018C91.3293 24.1158 91.1105 23.9246 90.8139 23.8284ZM91.7688 25.3352C91.6484 25.7063 91.4164 25.9764 91.0728 26.1458C90.739 26.3091 90.3943 26.3331 90.0386 26.2177C89.6711 26.0984 89.4024 25.8721 89.2324 25.5387C89.0623 25.2054 89.037 24.855 89.1562 24.4875C89.28 24.1058 89.5189 23.8326 89.8727 23.6679C90.2046 23.5144 90.5425 23.4935 90.8864 23.605C91.2468 23.722 91.5132 23.9495 91.6856 24.2875C91.858 24.6256 91.8858 24.9748 91.7688 25.3352ZM90.7862 24.7167C90.8119 24.6375 90.7908 24.5699 90.7227 24.5139C90.6773 24.4769 90.6073 24.4431 90.5127 24.4124L90.4206 24.3825L90.2843 24.8026L90.4314 24.8503C90.52 24.8791 90.5949 24.8838 90.656 24.8644C90.7171 24.8451 90.7605 24.7958 90.7862 24.7167ZM89.6542 25.4523L90.1241 24.0042C90.2139 24.0333 90.3478 24.0774 90.5259 24.1365C90.7055 24.1948 90.8051 24.2278 90.8248 24.2355C90.9368 24.281 91.0238 24.3366 91.086 24.4025C91.1918 24.5152 91.2188 24.6513 91.1671 24.8109C91.1276 24.9326 91.0648 25.0095 90.9786 25.0416C90.8936 25.0741 90.7997 25.0796 90.697 25.058C90.7819 25.1064 90.8414 25.1564 90.8756 25.208C90.9384 25.3041 90.9459 25.4261 90.898 25.5738L90.856 25.7032C90.8514 25.7173 90.8474 25.7317 90.844 25.7463C90.8417 25.7612 90.8407 25.7766 90.8408 25.7923L90.84 25.8371L90.4784 25.7197C90.4815 25.6698 90.4955 25.6006 90.5203 25.512C90.5452 25.4234 90.5567 25.3618 90.5548 25.3272C90.5524 25.2703 90.5284 25.2233 90.483 25.1864C90.4584 25.1654 90.4178 25.1437 90.3611 25.1214L90.2795 25.089L90.1997 25.0631L90.0335 25.5754L89.6542 25.4523Z" fill="black"/>
<rect width="79.6538" height="0.549367" rx="0.274683" transform="matrix(0.951175 0.308651 -0.308644 0.951178 80.6055 8.14062)" fill="url(#paint1_linear)"/>
<rect width="79.6538" height="0.549336" rx="0.274668" transform="matrix(-0.951175 -0.308651 -0.308644 0.951178 82.2051 197.203)" fill="url(#paint2_linear)"/>
<mask id="mask1" mask-type="alpha" maskUnits="userSpaceOnUse" x="1" y="1" width="160" height="204">
<rect width="179.886" height="112.614" rx="6.59212" transform="matrix(-0.308644 0.951178 -0.951175 -0.308651 162.637 34.7593)" fill="white"/>
</mask>
<g mask="url(#mask1)">
<rect opacity="0.2" width="179.886" height="112.614" rx="6.59212" transform="matrix(-0.308644 0.951178 -0.951175 -0.308651 162.637 34.7593)" fill="url(#paint3_linear)"/>
</g>
<g filter="url(#filter0_d)">
<path d="M96.2677 57.7558L103.059 36.8257C103.528 35.3815 105.079 34.5892 106.521 35.0572L120.629 39.6351C122.071 40.1031 122.861 41.655 122.392 43.0992L115.601 64.0292C115.132 65.4734 113.581 66.2657 112.139 65.7977L98.0313 61.2198C96.5892 60.7518 95.7991 59.2 96.2677 57.7558Z" fill="url(#paint4_linear)"/>
<path d="M96.529 57.8406L103.32 36.9105C103.742 35.6102 105.138 34.8974 106.436 35.3185L120.544 39.8964C121.841 40.3174 122.553 41.7142 122.131 43.0144L115.339 63.9445C114.918 65.2447 113.522 65.9575 112.224 65.5365L98.1161 60.9585C96.8186 60.5375 96.1071 59.1408 96.529 57.8406Z" stroke="url(#paint5_radial)" stroke-width="0.549343"/>
</g>
<mask id="mask2" mask-type="alpha" maskUnits="userSpaceOnUse" x="96" y="34" width="27" height="32">
<path d="M96.2677 57.7558L103.059 36.8257C103.528 35.3815 105.079 34.5892 106.521 35.0572L120.629 39.6351C122.071 40.1031 122.861 41.655 122.392 43.0992L115.601 64.0292C115.132 65.4734 113.581 66.2657 112.139 65.7977L98.0313 61.2198C96.5892 60.7518 95.7991 59.2 96.2677 57.7558Z" fill="white"/>
</mask>
<g mask="url(#mask2)">
<g filter="url(#filter1_d)">
<path d="M108.063 43.3468L110.35 36.2986M101.861 62.4611L104.153 55.3972M114.535 45.3658L116.798 38.3908M108.309 64.5534L110.56 57.6151M113.575 45.9913C112.344 45.1928 110.055 44.1493 108.621 43.516C107.634 43.086 106.477 43.2888 105.697 44.0363C104.871 44.8208 103.897 46.1648 103.164 48.4253C102.43 50.6857 102.431 52.3399 102.639 53.4601C102.831 54.523 103.644 55.365 104.7 55.5979C106.232 55.9329 108.697 56.4323 110.164 56.5035C110.514 58.3808 111.73 58.6542 112.697 58.2216C114.873 57.2449 113.956 55.675 113.59 54.6135C113.59 54.6135 113.402 54.142 114.107 51.9705C114.801 49.8304 115.242 49.5223 115.242 49.5223C116.162 48.8779 117.822 48.1386 116.637 46.0769C116.106 45.17 114.962 44.6716 113.575 45.9913Z" stroke="#A37B05" stroke-width="0.549343"/>
</g>
</g>
<defs>
<filter id="filter0_d" x="95.0341" y="33.8242" width="28.592" height="33.2069" filterUnits="userSpaceOnUse" color-interpolation-filters="sRGB">
<feFlood flood-opacity="0" result="BackgroundImageFix"/>
<feColorMatrix in="SourceAlpha" type="matrix" values="0 0 0 0 0 0 0 0 0 0 0 0 0 0 0 0 0 0 127 0"/>
<feOffset/>
<feGaussianBlur stdDeviation="0.549343"/>
<feColorMatrix type="matrix" values="0 0 0 0 0.313722 0 0 0 0 0.313722 0 0 0 0 0.313722 0 0 0 1 0"/>
<feBlend mode="normal" in2="BackgroundImageFix" result="effect1_dropShadow"/>
<feBlend mode="normal" in="SourceGraphic" in2="effect1_dropShadow" result="shape"/>
</filter>
<filter id="filter1_d" x="101.6" y="36.2139" width="16.102" height="28.9109" filterUnits="userSpaceOnUse" color-interpolation-filters="sRGB">
<feFlood flood-opacity="0" result="BackgroundImageFix"/>
<feColorMatrix in="SourceAlpha" type="matrix" values="0 0 0 0 0 0 0 0 0 0 0 0 0 0 0 0 0 0 127 0"/>
<feOffset dx="0.378353" dy="0.486454"/>
<feColorMatrix type="matrix" values="0 0 0 0 1 0 0 0 0 1 0 0 0 0 1 0 0 0 0.6 0"/>
<feBlend mode="normal" in2="BackgroundImageFix" result="effect1_dropShadow"/>
<feBlend mode="normal" in="SourceGraphic" in2="effect1_dropShadow" result="shape"/>
</filter>
<linearGradient id="paint0_linear" x1="179.886" y1="0" x2="0.142987" y2="112.842" gradientUnits="userSpaceOnUse">
<stop stop-color="#DBDBDB"/>
<stop offset="1" stop-color="#FAFAFA"/>
</linearGradient>
<linearGradient id="paint1_linear" x1="79.6538" y1="0" x2="0" y2="0" gradientUnits="userSpaceOnUse">
<stop stop-color="white" stop-opacity="0.01"/>
<stop offset="0.647939" stop-color="white"/>
<stop offset="1" stop-color="white" stop-opacity="0.01"/>
</linearGradient>
<linearGradient id="paint2_linear" x1="79.6538" y1="0" x2="0" y2="0" gradientUnits="userSpaceOnUse">
<stop stop-color="white" stop-opacity="0.01"/>
<stop offset="0.647939" stop-color="white"/>
<stop offset="1" stop-color="white" stop-opacity="0.01"/>
</linearGradient>
<linearGradient id="paint3_linear" x1="179.886" y1="99.9792" x2="14.6723" y2="16.5678" gradientUnits="userSpaceOnUse">
<stop stop-color="white" stop-opacity="0.45"/>
<stop offset="1" stop-color="white"/>
</linearGradient>
<linearGradient id="paint4_linear" x1="103.908" y1="34.2094" x2="119.389" y2="63.2332" gradientUnits="userSpaceOnUse">
<stop stop-color="#FFE28E"/>
<stop offset="1" stop-color="#FACBBA"/>
</linearGradient>
<radialGradient id="paint5_radial" cx="0" cy="0" r="1" gradientUnits="userSpaceOnUse" gradientTransform="translate(106.15 36.2724) rotate(73.3817) scale(31.8901 19.6904)">
<stop stop-color="white" stop-opacity="0.905405"/>
<stop stop-color="white"/>
<stop offset="1" stop-color="white" stop-opacity="0.01"/>
</radialGradient>
</defs>
</svg>
